<svg width="24" height="20" viewBox="0 0 24 20" fill="none" xmlns="http://www.w3.org/2000/svg">
<path d="M20.8305 7.02287C20.1645 7.02287 19.5518 7.2565 19.0706 7.64462C17.3666 6.58375 15.204 5.94362 12.8869 5.809L14.0959 2.0215L17.4184 2.79625C17.5058 3.99512 18.5171 4.94387 19.7482 4.94387C21.0364 4.94387 22.0853 3.90512 22.0853 2.62787C22.0853 1.35175 21.0364 0.312623 19.7482 0.312623C19.3214 0.312339 18.9027 0.428646 18.5371 0.648985C18.1716 0.869325 17.8732 1.18533 17.6741 1.56287L13.8131 0.662498C13.6577 0.625829 13.4942 0.648984 13.3551 0.727359C13.216 0.805733 13.1115 0.933587 13.0624 1.0855L11.5612 5.78612C9.06413 5.84725 6.71625 6.4885 4.88737 7.61087C4.39609 7.22953 3.7918 7.02265 3.16988 7.02287C1.629 7.02287 0.375 8.26525 0.375 9.79187C0.375 10.7361 0.85425 11.5701 1.58513 12.0696C1.55417 12.2899 1.53864 12.5121 1.53863 12.7345C1.53863 14.6429 2.658 16.4177 4.69125 17.7325C6.63975 18.9929 9.21975 19.6866 11.9531 19.6866C14.6869 19.6866 17.2661 18.9929 19.215 17.7325C21.2475 16.4177 22.3676 14.6429 22.3676 12.7345C22.3676 12.5309 22.3534 12.328 22.3286 12.1266C23.1068 11.6354 23.625 10.7729 23.625 9.79187C23.625 8.26525 22.3717 7.02287 20.8305 7.02287ZM19.7482 1.57037C20.337 1.57037 20.8159 2.0455 20.8159 2.6275C20.8159 3.211 20.337 3.68462 19.7482 3.68462C19.1595 3.68462 18.681 3.21062 18.681 2.6275C18.6806 2.0455 19.1595 1.57037 19.7482 1.57037ZM6.96787 11.5052C6.96787 10.6446 7.69687 9.92275 8.56537 9.92275C9.43388 9.92275 10.1389 10.6446 10.1389 11.5052C10.1389 12.3659 9.43388 13.0645 8.56537 13.0645C7.69687 13.0645 6.96787 12.3659 6.96787 11.5052ZM15.8276 16.0907C15.018 16.8914 13.77 17.281 12.012 17.281L11.9996 17.2802L11.9872 17.281C10.2289 17.281 8.98125 16.8914 8.17275 16.0907C8.11369 16.0327 8.06678 15.9634 8.03476 15.887C8.00274 15.8106 7.98625 15.7286 7.98625 15.6458C7.98625 15.563 8.00274 15.481 8.03476 15.4046C8.06678 15.3282 8.11369 15.2589 8.17275 15.2009C8.29249 15.083 8.45378 15.0169 8.62181 15.0169C8.78984 15.0169 8.95113 15.083 9.07088 15.2009C9.62925 15.754 10.5833 16.0232 11.9872 16.0232L11.9996 16.024L12.012 16.0232C13.416 16.0232 14.3707 15.7536 14.9299 15.2009C15.0495 15.0828 15.2107 15.0167 15.3787 15.0167C15.5468 15.0167 15.708 15.0828 15.8276 15.2009C15.8865 15.259 15.9333 15.3283 15.9652 15.4047C15.9971 15.4811 16.0135 15.563 16.0135 15.6458C16.0135 15.7286 15.9971 15.8105 15.9652 15.8869C15.9333 15.9633 15.8865 16.0326 15.8276 16.0907ZM15.459 13.0645C14.5901 13.0645 13.8596 12.3659 13.8596 11.5052C13.8596 10.6439 14.5897 9.92275 15.459 9.92275C16.3282 9.92275 17.0329 10.6439 17.0329 11.5052C17.0329 12.3659 16.3279 13.0645 15.459 13.0645Z" fill="#F8571D"/>
</svg>
