<svg width="25" height="24" viewBox="0 0 25 24" fill="none" xmlns="http://www.w3.org/2000/svg">
<g clip-path="url(#clip0_1_1561)">
<path d="M24.493 0H0.507031C0.503148 0 0.5 0.003148 0.5 0.00703125V23.993C0.5 23.9969 0.503148 24 0.507031 24H24.493C24.4969 24 24.5 23.9969 24.5 23.993V0.00703125C24.5 0.003148 24.4969 0 24.493 0Z" fill="#37AEE2"/>
<path d="M9.82812 18.9375C9.3125 18.9375 9.35938 18.75 9.21875 18.2812L7.71875 13.3594L19.2031 6.60938" fill="#C8DAEA"/>
<path d="M9.82812 18.9375C10.1562 18.9375 10.3438 18.75 10.5781 18.5625L12.6875 16.5469L10.0625 14.9531" fill="#A9C9DD"/>
<path d="M10.0624 14.9531L16.3905 19.5937C17.0468 20.0156 17.6093 19.7812 17.7968 18.9375L20.3749 6.84371C20.6093 5.81246 19.953 5.34371 19.2499 5.67184L4.20303 11.4843C3.21865 11.8593 3.21865 12.4687 4.01553 12.7031L7.90615 13.9218L16.8124 8.24996C17.2343 8.01559 17.6093 8.10934 17.328 8.43746" fill="#F6FBFE"/>
</g>
<defs>
<clipPath id="clip0_1_1561">
<rect width="24" height="24" fill="white" transform="translate(0.5)"/>
</clipPath>
</defs>
</svg>
