<svg width="24" height="20" viewBox="0 0 24 20" fill="none" xmlns="http://www.w3.org/2000/svg">
<path d="M24 2.30855C23.0972 2.7023 22.1424 2.96398 21.165 3.08555C22.195 2.47449 22.9651 1.50689 23.3295 0.366045C22.365 0.93805 21.3098 1.34086 20.2095 1.55705C19.5349 0.836714 18.6592 0.335923 17.6962 0.119737C16.7333 -0.0964499 15.7276 -0.0180394 14.8098 0.344781C13.892 0.707602 13.1045 1.33806 12.5496 2.15425C11.9948 2.97044 11.6982 3.93463 11.6985 4.92155C11.6985 5.31155 11.7315 5.68654 11.8125 6.04354C9.85512 5.94758 7.94004 5.43957 6.19245 4.55272C4.44487 3.66588 2.90414 2.42017 1.671 0.897045C1.03923 1.97983 0.843913 3.26271 1.12482 4.48445C1.40574 5.70619 2.14175 6.77493 3.183 7.47305C2.40414 7.45216 1.64171 7.24432 0.96 6.86705V6.92105C0.961305 8.05719 1.354 9.1582 2.07198 10.0387C2.78995 10.9193 3.78937 11.5256 4.902 11.7555C4.48108 11.8665 4.04728 11.921 3.612 11.9175C3.29938 11.9231 2.98708 11.8949 2.6805 11.8335C2.99841 12.8101 3.61124 13.6641 4.43459 14.2779C5.25795 14.8917 6.25134 15.2352 7.278 15.261C5.53641 16.6231 3.38846 17.362 1.1775 17.3595C0.774 17.3595 0.387 17.3415 0 17.292C2.24982 18.7419 4.87151 19.5088 7.548 19.5C16.602 19.5 21.552 12 21.552 5.49904C21.552 5.28154 21.5445 5.07155 21.534 4.86305C22.5044 4.16852 23.3401 3.30287 24 2.30855Z" fill="#03A9F4"/>
</svg>
