<svg width="24" height="24" viewBox="0 0 24 24" fill="none" xmlns="http://www.w3.org/2000/svg">
<circle cx="12" cy="12" r="12" fill="#F57316"/>
<path d="M11.75 8.25V7.75H11.25H7.125C5.81332 7.75 4.75 8.81332 4.75 10.125C4.75 11.4367 5.81332 12.5 7.125 12.5H11.25H11.75V12V8.25Z" stroke="white"/>
<path d="M11.75 12.75V12.25H11.25H7.125C5.81332 12.25 4.75 13.3133 4.75 14.625C4.75 15.9367 5.81332 17 7.125 17H11.25H11.75V16.5V12.75Z" stroke="white"/>
<path d="M11.5 12L11.5 12.5L12 12.5L16.125 12.5C17.4367 12.5 18.5 11.4367 18.5 10.125C18.5 8.81332 17.4367 7.75 16.125 7.75L12 7.75L11.5 7.75L11.5 8.25L11.5 12Z" stroke="white"/>
</svg>
