<svg width="699" height="140" viewBox="0 0 699 140" fill="none" xmlns="http://www.w3.org/2000/svg">
<rect x="1" y="1" width="697" height="138" rx="17" fill="#FAFAFA"/>
<path d="M37.728 36H39.744L42.288 27.488L44.784 36H46.768L50.32 24.304H48.24L46.352 30.496C46.176 31.088 46.016 31.712 45.792 32.8C45.6 31.808 45.424 31.136 45.232 30.48L43.424 24.304H41.168L39.328 30.48C39.12 31.152 38.944 31.76 38.752 32.8C38.576 31.776 38.4 31.12 38.224 30.48L36.368 24.304H34.24L37.728 36ZM52.735 36.208C53.967 36.208 55.039 35.648 55.375 34.832L55.519 36H57.231V31.2C57.231 29.008 55.919 27.856 53.791 27.856C51.647 27.856 50.239 28.976 50.239 30.688H51.903C51.903 29.856 52.543 29.376 53.695 29.376C54.687 29.376 55.327 29.808 55.327 30.88V31.056L52.959 31.232C51.087 31.376 50.031 32.288 50.031 33.744C50.031 35.232 51.055 36.208 52.735 36.208ZM53.375 34.736C52.495 34.736 52.015 34.384 52.015 33.664C52.015 33.024 52.479 32.624 53.695 32.512L55.343 32.384V32.8C55.343 34.016 54.575 34.736 53.375 34.736ZM61.1166 36V24.096H59.1806V36H61.1166ZM65.1323 36V24.096H63.1963V36H65.1323ZM70.7159 36.208C72.7799 36.208 74.2199 35.168 74.5559 33.44H72.7479C72.5239 34.192 71.8199 34.608 70.7479 34.608C69.4519 34.608 68.7159 33.904 68.5719 32.512L74.5239 32.496V31.904C74.5239 29.44 73.0199 27.856 70.6519 27.856C68.3319 27.856 66.7159 29.568 66.7159 32.048C66.7159 34.496 68.3639 36.208 70.7159 36.208ZM70.6679 29.456C71.8359 29.456 72.5879 30.176 72.5879 31.264H68.6199C68.8119 30.08 69.5159 29.456 70.6679 29.456ZM78.696 36V29.728H80.232V28.096H78.696V25.632H76.744V28.096H75.224V29.728H76.744V36H78.696ZM87.566 36L87.694 34.768C88.158 35.68 89.166 36.208 90.35 36.208C92.622 36.208 94.11 34.528 94.11 32.096C94.11 29.6 92.734 27.84 90.478 27.84C89.278 27.84 88.222 28.368 87.71 29.248V24.096H85.758V36H87.566ZM87.726 32.016C87.726 30.592 88.606 29.6 89.95 29.6C91.326 29.6 92.142 30.608 92.142 32.016C92.142 33.424 91.326 34.416 89.95 34.416C88.606 34.416 87.726 33.44 87.726 32.016ZM98.0163 36.208C99.2483 36.208 100.32 35.648 100.656 34.832L100.8 36H102.512V31.2C102.512 29.008 101.2 27.856 99.0723 27.856C96.9283 27.856 95.5203 28.976 95.5203 30.688H97.1843C97.1843 29.856 97.8243 29.376 98.9763 29.376C99.9683 29.376 100.608 29.808 100.608 30.88V31.056L98.2403 31.232C96.3683 31.376 95.3123 32.288 95.3123 33.744C95.3123 35.232 96.3363 36.208 98.0163 36.208ZM98.6562 34.736C97.7763 34.736 97.2963 34.384 97.2963 33.664C97.2963 33.024 97.7603 32.624 98.9763 32.512L100.624 32.384V32.8C100.624 34.016 99.8563 34.736 98.6562 34.736ZM106.398 36V24.096H104.462V36H106.398ZM110.798 36.208C112.03 36.208 113.102 35.648 113.438 34.832L113.582 36H115.294V31.2C115.294 29.008 113.982 27.856 111.854 27.856C109.71 27.856 108.302 28.976 108.302 30.688H109.966C109.966 29.856 110.606 29.376 111.758 29.376C112.75 29.376 113.39 29.808 113.39 30.88V31.056L111.022 31.232C109.15 31.376 108.094 32.288 108.094 33.744C108.094 35.232 109.118 36.208 110.798 36.208ZM111.438 34.736C110.558 34.736 110.078 34.384 110.078 33.664C110.078 33.024 110.542 32.624 111.758 32.512L113.406 32.384V32.8C113.406 34.016 112.638 34.736 111.438 34.736ZM119.163 36V31.744C119.163 30.464 119.899 29.632 121.099 29.632C122.107 29.632 122.763 30.272 122.763 31.6V36H124.715V31.136C124.715 29.088 123.691 27.856 121.707 27.856C120.635 27.856 119.675 28.32 119.179 29.12L119.019 28.096H117.211V36H119.163ZM126.169 32.032C126.169 34.544 127.737 36.208 130.137 36.208C132.201 36.208 133.737 34.944 133.977 33.104H132.009C131.801 33.968 131.113 34.448 130.137 34.448C128.889 34.448 128.121 33.52 128.121 32.032C128.121 30.544 128.953 29.6 130.201 29.6C131.129 29.6 131.785 30.064 132.009 30.96H133.961C133.753 29.056 132.281 27.856 130.121 27.856C127.785 27.856 126.169 29.584 126.169 32.032ZM138.966 36.208C141.03 36.208 142.47 35.168 142.806 33.44H140.998C140.774 34.192 140.07 34.608 138.998 34.608C137.702 34.608 136.966 33.904 136.822 32.512L142.774 32.496V31.904C142.774 29.44 141.27 27.856 138.902 27.856C136.582 27.856 134.966 29.568 134.966 32.048C134.966 34.496 136.614 36.208 138.966 36.208ZM138.918 29.456C140.086 29.456 140.838 30.176 140.838 31.264H136.87C137.062 30.08 137.766 29.456 138.918 29.456Z" fill="#717172"/>
<path d="M601.16 37.52H602.392V36.16C604.536 35.92 605.912 34.576 605.912 32.624C605.912 30.928 604.984 29.936 602.936 29.488L602.392 29.36V25.92C603.224 26.096 603.704 26.656 603.736 27.52H605.72C605.656 25.6 604.408 24.336 602.392 24.128V22.768H601.16V24.128C599.032 24.352 597.624 25.696 597.624 27.568C597.624 29.328 598.632 30.448 600.648 30.88L601.16 30.992V34.4C600.12 34.272 599.528 33.696 599.512 32.784H597.464C597.512 34.736 598.936 36.032 601.16 36.192V37.52ZM601.096 29.072C600.072 28.848 599.624 28.352 599.624 27.504C599.624 26.64 600.2 26.064 601.16 25.904V29.088L601.096 29.072ZM602.504 31.28C603.464 31.488 603.928 31.984 603.928 32.8C603.928 33.616 603.352 34.176 602.392 34.368V31.248L602.504 31.28ZM615.317 35.984V34.08H610.453L612.565 32.272C614.341 30.752 615.237 29.52 615.237 27.888C615.237 25.52 613.685 24.096 611.189 24.096C608.709 24.096 607.077 25.76 607.061 28.32H609.093C609.109 26.816 609.909 25.92 611.189 25.92C612.421 25.92 613.141 26.672 613.141 28C613.141 29.12 612.613 29.888 611.029 31.232L607.205 34.464V36L615.317 35.984ZM616.579 30.176C616.579 33.792 618.419 36.208 621.523 36.208C624.627 36.208 626.483 33.792 626.483 30.176C626.483 26.544 624.515 24.08 621.523 24.08C618.531 24.08 616.579 26.544 616.579 30.176ZM618.595 30.176C618.595 27.408 619.683 25.888 621.523 25.888C623.379 25.888 624.467 27.408 624.467 30.176C624.467 32.88 623.379 34.4 621.523 34.4C619.683 34.4 618.595 32.88 618.595 30.176ZM630.21 35.296C630.21 34.304 629.634 33.648 628.834 33.648C628.114 33.648 627.618 34.16 627.618 34.928C627.618 35.568 628.13 36.032 628.754 36.032C628.946 36.032 629.09 36 629.218 35.936C629.218 36.496 628.674 36.928 627.954 37.056V37.84C629.25 37.68 630.21 36.624 630.21 35.296ZM631.36 30.176C631.36 33.792 633.2 36.208 636.304 36.208C639.408 36.208 641.264 33.792 641.264 30.176C641.264 26.544 639.296 24.08 636.304 24.08C633.312 24.08 631.36 26.544 631.36 30.176ZM633.376 30.176C633.376 27.408 634.464 25.888 636.304 25.888C638.16 25.888 639.248 27.408 639.248 30.176C639.248 32.88 638.16 34.4 636.304 34.4C634.464 34.4 633.376 32.88 633.376 30.176ZM642.641 30.176C642.641 33.792 644.481 36.208 647.585 36.208C650.689 36.208 652.545 33.792 652.545 30.176C652.545 26.544 650.577 24.08 647.585 24.08C644.593 24.08 642.641 26.544 642.641 30.176ZM644.657 30.176C644.657 27.408 645.745 25.888 647.585 25.888C649.441 25.888 650.529 27.408 650.529 30.176C650.529 32.88 649.441 34.4 647.585 34.4C645.745 34.4 644.657 32.88 644.657 30.176ZM653.922 30.176C653.922 33.792 655.762 36.208 658.866 36.208C661.97 36.208 663.826 33.792 663.826 30.176C663.826 26.544 661.858 24.08 658.866 24.08C655.874 24.08 653.922 26.544 653.922 30.176ZM655.938 30.176C655.938 27.408 657.026 25.888 658.866 25.888C660.722 25.888 661.81 27.408 661.81 30.176C661.81 32.88 660.722 34.4 658.866 34.4C657.026 34.4 655.938 32.88 655.938 30.176Z" fill="#151517"/>
<path d="M40.74 76.192C43.508 76.192 45.652 74.56 46.1 72.096H43.972C43.588 73.392 42.372 74.224 40.788 74.224C38.644 74.224 37.268 72.624 37.268 70.144C37.268 67.648 38.628 66.08 40.788 66.08C42.34 66.08 43.508 66.88 43.908 68.24H46.068C45.668 65.728 43.604 64.112 40.836 64.112C37.412 64.112 35.124 66.528 35.124 70.16C35.124 73.824 37.332 76.192 40.74 76.192ZM53.0086 68.096V72.24C53.0086 73.744 52.4166 74.464 51.1846 74.464C50.0966 74.464 49.5046 73.856 49.5046 72.352V68.096H47.5526V73.04C47.5526 74.976 48.6246 76.208 50.4486 76.208C51.5046 76.208 52.5286 75.696 53.0086 74.944L53.1526 76H54.9606V68.096H53.0086ZM61.9368 68.064C61.6168 67.984 61.3448 67.952 61.0728 67.952C60.0168 67.952 59.2648 68.48 58.9288 69.264L58.8168 68.112H56.9768V76H58.9288V72.16C58.9288 70.624 59.8088 69.872 61.2168 69.872H61.9368V68.064ZM68.218 68.064C67.898 67.984 67.626 67.952 67.354 67.952C66.298 67.952 65.546 68.48 65.21 69.264L65.098 68.112H63.258V76H65.21V72.16C65.21 70.624 66.09 69.872 67.498 69.872H68.218V68.064ZM72.8096 76.208C74.8736 76.208 76.3136 75.168 76.6496 73.44H74.8416C74.6176 74.192 73.9136 74.608 72.8416 74.608C71.5456 74.608 70.8096 73.904 70.6656 72.512L76.6176 72.496V71.904C76.6176 69.44 75.1136 67.856 72.7456 67.856C70.4256 67.856 68.8096 69.568 68.8096 72.048C68.8096 74.496 70.4576 76.208 72.8096 76.208ZM72.7616 69.456C73.9296 69.456 74.6816 70.176 74.6816 71.264H70.7136C70.9056 70.08 71.6096 69.456 72.7616 69.456ZM80.1319 76V71.744C80.1319 70.464 80.8679 69.632 82.0679 69.632C83.0759 69.632 83.7319 70.272 83.7319 71.6V76H85.6839V71.136C85.6839 69.088 84.6599 67.856 82.6759 67.856C81.6039 67.856 80.6439 68.32 80.1479 69.12L79.9879 68.096H78.1799V76H80.1319ZM90.2898 76V69.728H91.8258V68.096H90.2898V65.632H88.3378V68.096H86.8178V69.728H88.3378V76H90.2898ZM100.04 76V69.728H101.576V68.096H100.04V65.632H98.0878V68.096H96.5678V69.728H98.0878V76H100.04ZM102.247 72.032C102.247 74.496 104.023 76.192 106.471 76.192C108.919 76.192 110.695 74.496 110.695 72.032C110.695 69.568 108.919 67.872 106.471 67.872C104.023 67.872 102.247 69.568 102.247 72.032ZM104.199 72.032C104.199 70.592 105.127 69.616 106.471 69.616C107.815 69.616 108.743 70.592 108.743 72.032C108.743 73.472 107.815 74.448 106.471 74.448C105.127 74.448 104.199 73.472 104.199 72.032ZM114.21 76V73.872L115.362 72.672L117.426 76H119.666L116.722 71.232L119.73 68.096H117.282L114.21 71.408V64.096H112.274V76H114.21ZM124.028 76.208C126.092 76.208 127.532 75.168 127.868 73.44H126.06C125.836 74.192 125.132 74.608 124.06 74.608C122.764 74.608 122.028 73.904 121.884 72.512L127.836 72.496V71.904C127.836 69.44 126.332 67.856 123.964 67.856C121.644 67.856 120.028 69.568 120.028 72.048C120.028 74.496 121.676 76.208 124.028 76.208ZM123.98 69.456C125.148 69.456 125.9 70.176 125.9 71.264H121.932C122.124 70.08 122.828 69.456 123.98 69.456ZM131.351 76V71.744C131.351 70.464 132.087 69.632 133.287 69.632C134.295 69.632 134.951 70.272 134.951 71.6V76H136.903V71.136C136.903 69.088 135.879 67.856 133.895 67.856C132.823 67.856 131.863 68.32 131.367 69.12L131.207 68.096H129.399V76H131.351ZM143.133 79.664H145.085V74.944C145.581 75.744 146.605 76.208 147.789 76.208C150.141 76.208 151.485 74.416 151.485 71.952C151.485 69.472 150.013 67.856 147.789 67.856C146.589 67.856 145.549 68.384 145.069 69.296L144.941 68.096H143.133V79.664ZM145.101 72.048C145.101 70.624 145.981 69.632 147.325 69.632C148.701 69.632 149.517 70.64 149.517 72.048C149.517 73.456 148.701 74.448 147.325 74.448C145.981 74.448 145.101 73.472 145.101 72.048ZM157.999 68.064C157.679 67.984 157.407 67.952 157.135 67.952C156.079 67.952 155.327 68.48 154.991 69.264L154.879 68.112H153.039V76H154.991V72.16C154.991 70.624 155.871 69.872 157.279 69.872H157.999V68.064ZM160.297 66.512C160.937 66.512 161.465 65.984 161.465 65.328C161.465 64.672 160.937 64.16 160.297 64.16C159.625 64.16 159.097 64.672 159.097 65.328C159.097 65.984 159.625 66.512 160.297 66.512ZM159.321 76H161.273V68.096H159.321V76ZM162.825 72.032C162.825 74.544 164.393 76.208 166.793 76.208C168.857 76.208 170.393 74.944 170.633 73.104H168.665C168.457 73.968 167.769 74.448 166.793 74.448C165.545 74.448 164.777 73.52 164.777 72.032C164.777 70.544 165.609 69.6 166.857 69.6C167.785 69.6 168.441 70.064 168.665 70.96H170.617C170.409 69.056 168.937 67.856 166.777 67.856C164.441 67.856 162.825 69.584 162.825 72.032ZM175.622 76.208C177.686 76.208 179.126 75.168 179.462 73.44H177.654C177.43 74.192 176.726 74.608 175.654 74.608C174.358 74.608 173.622 73.904 173.478 72.512L179.43 72.496V71.904C179.43 69.44 177.926 67.856 175.558 67.856C173.238 67.856 171.622 69.568 171.622 72.048C171.622 74.496 173.27 76.208 175.622 76.208ZM175.574 69.456C176.742 69.456 177.494 70.176 177.494 71.264H173.526C173.718 70.08 174.422 69.456 175.574 69.456Z" fill="#717172"/>
<path d="M629.66 77.52H630.892V76.16C633.036 75.92 634.412 74.576 634.412 72.624C634.412 70.928 633.484 69.936 631.436 69.488L630.892 69.36V65.92C631.724 66.096 632.204 66.656 632.236 67.52H634.22C634.156 65.6 632.908 64.336 630.892 64.128V62.768H629.66V64.128C627.532 64.352 626.124 65.696 626.124 67.568C626.124 69.328 627.132 70.448 629.148 70.88L629.66 70.992V74.4C628.62 74.272 628.028 73.696 628.012 72.784H625.964C626.012 74.736 627.436 76.032 629.66 76.192V77.52ZM629.596 69.072C628.572 68.848 628.124 68.352 628.124 67.504C628.124 66.64 628.7 66.064 629.66 65.904V69.088L629.596 69.072ZM631.004 71.28C631.964 71.488 632.428 71.984 632.428 72.8C632.428 73.616 631.852 74.176 630.892 74.368V71.248L631.004 71.28ZM638.073 66.144V76H640.041V64.304H635.513V66.144H638.073ZM642.032 70.176C642.032 73.792 643.872 76.208 646.976 76.208C650.08 76.208 651.936 73.792 651.936 70.176C651.936 66.544 649.968 64.08 646.976 64.08C643.984 64.08 642.032 66.544 642.032 70.176ZM644.048 70.176C644.048 67.408 645.136 65.888 646.976 65.888C648.832 65.888 649.92 67.408 649.92 70.176C649.92 72.88 648.832 74.4 646.976 74.4C645.136 74.4 644.048 72.88 644.048 70.176ZM653.313 70.176C653.313 73.792 655.153 76.208 658.257 76.208C661.361 76.208 663.217 73.792 663.217 70.176C663.217 66.544 661.249 64.08 658.257 64.08C655.265 64.08 653.313 66.544 653.313 70.176ZM655.329 70.176C655.329 67.408 656.417 65.888 658.257 65.888C660.113 65.888 661.201 67.408 661.201 70.176C661.201 72.88 660.113 74.4 658.257 74.4C656.417 74.4 655.329 72.88 655.329 70.176Z" fill="#151517"/>
<path d="M34.272 106.192H37.696V116H39.744V106.192H43.168V104.304H34.272V106.192ZM48.4524 108.064C48.1324 107.984 47.8604 107.952 47.5884 107.952C46.5324 107.952 45.7804 108.48 45.4444 109.264L45.3324 108.112H43.4924V116H45.4444V112.16C45.4444 110.624 46.3244 109.872 47.7324 109.872H48.4524V108.064ZM51.8131 116.208C53.0451 116.208 54.1171 115.648 54.4531 114.832L54.5971 116H56.3091V111.2C56.3091 109.008 54.9971 107.856 52.8691 107.856C50.7251 107.856 49.3171 108.976 49.3171 110.688H50.9811C50.9811 109.856 51.6211 109.376 52.7731 109.376C53.7651 109.376 54.4051 109.808 54.4051 110.88V111.056L52.0371 111.232C50.1651 111.376 49.1091 112.288 49.1091 113.744C49.1091 115.232 50.1331 116.208 51.8131 116.208ZM52.4531 114.736C51.5731 114.736 51.0931 114.384 51.0931 113.664C51.0931 113.024 51.5571 112.624 52.7731 112.512L54.4211 112.384V112.8C54.4211 114.016 53.6531 114.736 52.4531 114.736ZM60.1788 116V111.744C60.1788 110.464 60.9148 109.632 62.1148 109.632C63.1228 109.632 63.7788 110.272 63.7788 111.6V116H65.7308V111.136C65.7308 109.088 64.7068 107.856 62.7228 107.856C61.6508 107.856 60.6908 108.32 60.1948 109.12L60.0348 108.096H58.2268V116H60.1788ZM66.9469 113.6C66.9469 115.152 68.1949 116.208 70.1629 116.208C72.1149 116.208 73.4749 115.216 73.4749 113.616C73.4749 112.4 72.8029 111.792 71.4749 111.488L70.0509 111.152C69.3789 110.992 69.0269 110.704 69.0269 110.256C69.0269 109.664 69.4749 109.312 70.2429 109.312C70.9949 109.312 71.4429 109.744 71.4589 110.416H73.3149C73.2989 108.88 72.0989 107.856 70.3229 107.856C68.4989 107.856 67.1869 108.784 67.1869 110.336C67.1869 111.6 67.8749 112.272 69.2989 112.592L70.7229 112.928C71.4269 113.088 71.6349 113.376 71.6349 113.776C71.6349 114.352 71.1389 114.72 70.2269 114.72C69.3309 114.72 68.8189 114.288 68.8029 113.6H66.9469ZM77.3131 116.208C78.5451 116.208 79.6171 115.648 79.9531 114.832L80.0971 116H81.8091V111.2C81.8091 109.008 80.4971 107.856 78.3691 107.856C76.2251 107.856 74.8171 108.976 74.8171 110.688H76.4811C76.4811 109.856 77.1211 109.376 78.2731 109.376C79.2651 109.376 79.9051 109.808 79.9051 110.88V111.056L77.5371 111.232C75.6651 111.376 74.6091 112.288 74.6091 113.744C74.6091 115.232 75.6331 116.208 77.3131 116.208ZM77.9531 114.736C77.0731 114.736 76.5931 114.384 76.5931 113.664C76.5931 113.024 77.0571 112.624 78.2731 112.512L79.9211 112.384V112.8C79.9211 114.016 79.1531 114.736 77.9531 114.736ZM83.2628 112.032C83.2628 114.544 84.8307 116.208 87.2308 116.208C89.2948 116.208 90.8308 114.944 91.0708 113.104H89.1028C88.8948 113.968 88.2068 114.448 87.2308 114.448C85.9828 114.448 85.2148 113.52 85.2148 112.032C85.2148 110.544 86.0468 109.6 87.2948 109.6C88.2228 109.6 88.8788 110.064 89.1028 110.96H91.0548C90.8468 109.056 89.3748 107.856 87.2148 107.856C84.8788 107.856 83.2628 109.584 83.2628 112.032ZM95.2116 116V109.728H96.7476V108.096H95.2116V105.632H93.2596V108.096H91.7396V109.728H93.2596V116H95.2116ZM98.9371 106.512C99.5771 106.512 100.105 105.984 100.105 105.328C100.105 104.672 99.5771 104.16 98.9371 104.16C98.2651 104.16 97.7371 104.672 97.7371 105.328C97.7371 105.984 98.2651 106.512 98.9371 106.512ZM97.9611 116H99.9131V108.096H97.9611V116ZM101.466 112.032C101.466 114.496 103.242 116.192 105.69 116.192C108.138 116.192 109.914 114.496 109.914 112.032C109.914 109.568 108.138 107.872 105.69 107.872C103.242 107.872 101.466 109.568 101.466 112.032ZM103.418 112.032C103.418 110.592 104.346 109.616 105.69 109.616C107.034 109.616 107.962 110.592 107.962 112.032C107.962 113.472 107.034 114.448 105.69 114.448C104.346 114.448 103.418 113.472 103.418 112.032ZM113.413 116V111.744C113.413 110.464 114.149 109.632 115.349 109.632C116.357 109.632 117.013 110.272 117.013 111.6V116H118.965V111.136C118.965 109.088 117.941 107.856 115.957 107.856C114.885 107.856 113.925 108.32 113.429 109.12L113.269 108.096H111.461V116H113.413ZM124.412 108.096V109.728H125.548V116H127.484V109.728H129.372V108.096H127.484V107.136C127.484 106.352 127.724 105.84 128.716 105.84H129.404V104.176C129.068 104.112 128.7 104.096 128.396 104.096C126.684 104.096 125.548 104.992 125.548 107.136V108.096H124.412ZM133.919 116.208C135.983 116.208 137.423 115.168 137.759 113.44H135.951C135.727 114.192 135.023 114.608 133.951 114.608C132.655 114.608 131.919 113.904 131.775 112.512L137.727 112.496V111.904C137.727 109.44 136.223 107.856 133.855 107.856C131.535 107.856 129.919 109.568 129.919 112.048C129.919 114.496 131.567 116.208 133.919 116.208ZM133.871 109.456C135.039 109.456 135.791 110.176 135.791 111.264H131.823C132.015 110.08 132.719 109.456 133.871 109.456ZM142.825 116.208C144.889 116.208 146.329 115.168 146.665 113.44H144.857C144.633 114.192 143.929 114.608 142.857 114.608C141.561 114.608 140.825 113.904 140.681 112.512L146.633 112.496V111.904C146.633 109.44 145.129 107.856 142.761 107.856C140.441 107.856 138.825 109.568 138.825 112.048C138.825 114.496 140.473 116.208 142.825 116.208ZM142.777 109.456C143.945 109.456 144.697 110.176 144.697 111.264H140.729C140.921 110.08 141.625 109.456 142.777 109.456Z" fill="#717172"/>
<path d="M643.16 117.52H644.392V116.16C646.536 115.92 647.912 114.576 647.912 112.624C647.912 110.928 646.984 109.936 644.936 109.488L644.392 109.36V105.92C645.224 106.096 645.704 106.656 645.736 107.52H647.72C647.656 105.6 646.408 104.336 644.392 104.128V102.768H643.16V104.128C641.032 104.352 639.624 105.696 639.624 107.568C639.624 109.328 640.632 110.448 642.648 110.88L643.16 110.992V114.4C642.12 114.272 641.528 113.696 641.512 112.784H639.464C639.512 114.736 640.936 116.032 643.16 116.192V117.52ZM643.096 109.072C642.072 108.848 641.624 108.352 641.624 107.504C641.624 106.64 642.2 106.064 643.16 105.904V109.088L643.096 109.072ZM644.504 111.28C645.464 111.488 645.928 111.984 645.928 112.8C645.928 113.616 645.352 114.176 644.392 114.368V111.248L644.504 111.28ZM651.573 106.144V116H653.541V104.304H649.013V106.144H651.573ZM659.454 116.192C662.062 116.192 663.838 114.464 663.838 111.936C663.838 109.632 662.286 108.048 659.95 108.048C659.15 108.048 658.446 108.256 657.886 108.624L658.51 106.192H663.134V104.304H657.038L655.598 110.432L657.406 110.816C657.822 110.208 658.638 109.76 659.534 109.76C660.942 109.76 661.758 110.688 661.758 112.048C661.758 113.472 660.878 114.368 659.502 114.368C658.206 114.368 657.422 113.584 657.422 112.256H655.39C655.39 114.624 657.006 116.192 659.454 116.192Z" fill="#151517"/>
<rect x="1" y="1" width="697" height="138" rx="17" stroke="#E3E3E3" stroke-width="2"/>
</svg>
