<svg width="96" height="96" viewBox="0 0 96 96" fill="none" xmlns="http://www.w3.org/2000/svg">
<circle cx="48" cy="48" r="48" fill="#FF9040"/>
<circle cx="47.5" cy="47.5" r="41.5" fill="#FFA86A"/>
<circle cx="48" cy="48" r="35" fill="#FFC094"/>
<circle cx="47.5" cy="47.5" r="28.5" fill="#FFD9BE"/>
<mask id="mask0_1454_8673" style="mask-type:alpha" maskUnits="userSpaceOnUse" x="32" y="32" width="32" height="32">
<rect x="32" y="32" width="32" height="32" fill="#D9D9D9"/>
</mask>
<g mask="url(#mask0_1454_8673)">
<path d="M37.3337 58.6663C36.6003 58.6663 35.9728 58.4055 35.451 57.8837C34.9283 57.361 34.667 56.733 34.667 55.9997V39.9997C34.667 39.2663 34.9283 38.6388 35.451 38.117C35.9728 37.5943 36.6003 37.333 37.3337 37.333H58.667C59.4003 37.333 60.0283 37.5943 60.551 38.117C61.0728 38.6388 61.3337 39.2663 61.3337 39.9997V47.9997H37.3337V55.9997H50.667V58.6663H37.3337ZM37.3337 42.6663H58.667V39.9997H37.3337V42.6663ZM57.3337 61.333V57.333H53.3337V54.6663H57.3337V50.6663H60.0003V54.6663H64.0003V57.333H60.0003V61.333H57.3337Z" fill="#A34400"/>
</g>
</svg>
