<svg width="217" height="215" viewBox="0 0 217 215" fill="none" xmlns="http://www.w3.org/2000/svg">
<circle cx="107.5" cy="107.5" r="107.5" fill="#FAFAFA"/>
<rect y="86.4473" width="116" height="108" rx="16" transform="rotate(-31.4061 0 86.4473)" fill="white"/>
<g clip-path="url(#clip0_2162_10780)">
<rect x="6.35193" y="87.2559" width="106" height="99" rx="16" transform="rotate(-31.4061 6.35193 87.2559)" fill="#FAFAFA"/>
<path d="M54.0445 126.99C53.2963 125.765 53.2623 124.232 53.9551 122.975L62.8937 106.754C63.5953 105.481 64.9326 104.688 66.3864 104.685L83.9563 104.638C85.3541 104.635 86.6524 105.361 87.3808 106.554L92.3284 114.658C93.4796 116.543 92.8843 119.005 90.9988 120.156L64.4538 136.363C62.5683 137.514 60.1066 136.919 58.9555 135.033L54.0445 126.99Z" fill="#CDCDCD"/>
<path d="M62.8637 118.046C62.1156 116.821 62.0816 115.288 62.7744 114.031L75.8715 90.2636C76.5731 88.9903 77.9104 88.1979 79.3643 88.1941L105.171 88.1262C106.569 88.1225 107.867 88.8488 108.596 90.0418L116.591 103.137C117.742 105.023 117.147 107.484 115.261 108.635L76.3208 132.411C74.4353 133.562 71.9736 132.967 70.8224 131.081L62.8637 118.046Z" fill="#E3E3E3"/>
<circle cx="62.4637" cy="99.4614" r="3.65625" transform="rotate(-31.4061 62.4637 99.4614)" fill="#E3E3E3"/>
<circle cx="69.8031" cy="93.5499" r="1.625" transform="rotate(-31.4061 69.8031 93.5499)" fill="#E3E3E3"/>
<rect x="87.6" y="88.3984" width="13" height="11.375" rx="2" transform="rotate(-31.4061 87.6 88.3984)" fill="#CDCDCD"/>
<rect x="38.8748" y="79.1152" width="43" height="5" rx="2.5" transform="rotate(-31.4061 38.8748 79.1152)" fill="#CDCDCD"/>
</g>
<g filter="url(#filter0_dd_2162_10780)">
<rect x="75" y="54" width="116" height="108" rx="16" fill="white"/>
</g>
<rect x="80" y="58" width="106" height="99" rx="16" fill="#FAFAFA"/>
<path d="M100 116.766C100 115.33 100.769 114.005 102.016 113.293L118.098 104.106C119.36 103.385 120.914 103.405 122.157 104.16L137.177 113.276C138.372 114.001 139.102 115.298 139.102 116.695V126.19C139.102 128.399 137.311 130.19 135.102 130.19H104C101.791 130.19 100 128.399 100 126.19V116.766Z" fill="#6F6FFF"/>
<path d="M112.188 113.727C112.188 112.292 112.957 110.966 114.203 110.254L137.767 96.7935C139.029 96.0724 140.584 96.093 141.826 96.8473L163.888 110.237C165.083 110.963 165.812 112.259 165.812 113.657V129C165.812 131.209 164.022 133 161.812 133H116.187C113.978 133 112.188 131.209 112.188 129V113.727Z" fill="#AEAEFF"/>
<circle cx="121.531" cy="97.6562" r="3.65625" fill="#AEAEFF"/>
<circle cx="130.875" cy="96.4375" r="1.625" fill="#AEAEFF"/>
<rect x="148.75" y="101.312" width="13" height="11.375" rx="2" fill="#6F6FFF"/>
<rect x="112" y="68" width="43" height="5" rx="2.5" fill="#6F6FFF"/>
<circle cx="159.5" cy="132.5" r="10.5" fill="#59595B"/>
<path fill-rule="evenodd" clip-rule="evenodd" d="M158.977 136.477C158.977 136.766 159.211 137 159.5 137C159.789 137 160.023 136.766 160.023 136.477V132.814H163.477C163.766 132.814 164 132.58 164 132.291C164 132.002 163.766 131.767 163.477 131.767H160.023V128.523C160.023 128.234 159.789 128 159.5 128C159.211 128 158.977 128.234 158.977 128.523V131.767H155.523C155.234 131.767 155 132.002 155 132.291C155 132.58 155.234 132.814 155.523 132.814H158.977V136.477Z" fill="white"/>
<defs>
<filter id="filter0_dd_2162_10780" x="49" y="28" width="168" height="160" filterUnits="userSpaceOnUse" color-interpolation-filters="sRGB">
<feFlood flood-opacity="0" result="BackgroundImageFix"/>
<feColorMatrix in="SourceAlpha" type="matrix" values="0 0 0 0 0 0 0 0 0 0 0 0 0 0 0 0 0 0 127 0" result="hardAlpha"/>
<feMorphology radius="2" operator="dilate" in="SourceAlpha" result="effect1_dropShadow_2162_10780"/>
<feOffset dx="8" dy="8"/>
<feGaussianBlur stdDeviation="8"/>
<feComposite in2="hardAlpha" operator="out"/>
<feColorMatrix type="matrix" values="0 0 0 0 0 0 0 0 0 0 0 0 0 0 0 0 0 0 0.05 0"/>
<feBlend mode="normal" in2="BackgroundImageFix" result="effect1_dropShadow_2162_10780"/>
<feColorMatrix in="SourceAlpha" type="matrix" values="0 0 0 0 0 0 0 0 0 0 0 0 0 0 0 0 0 0 127 0" result="hardAlpha"/>
<feMorphology radius="2" operator="dilate" in="SourceAlpha" result="effect2_dropShadow_2162_10780"/>
<feOffset dx="-8" dy="-8"/>
<feGaussianBlur stdDeviation="8"/>
<feComposite in2="hardAlpha" operator="out"/>
<feColorMatrix type="matrix" values="0 0 0 0 0 0 0 0 0 0 0 0 0 0 0 0 0 0 0.05 0"/>
<feBlend mode="normal" in2="effect1_dropShadow_2162_10780" result="effect2_dropShadow_2162_10780"/>
<feBlend mode="normal" in="SourceGraphic" in2="effect2_dropShadow_2162_10780" result="shape"/>
</filter>
<clipPath id="clip0_2162_10780">
<rect x="6.35193" y="87.2559" width="106" height="99" rx="16" transform="rotate(-31.4061 6.35193 87.2559)" fill="white"/>
</clipPath>
</defs>
</svg>
