<svg width="345" height="184" viewBox="0 0 345 184" fill="none" xmlns="http://www.w3.org/2000/svg">
<g clip-path="url(#clip0_1460_7434)">
<rect width="345" height="184" rx="8" fill="url(#paint0_linear_1460_7434)"/>
<path fill-rule="evenodd" clip-rule="evenodd" d="M316.889 -20.1858C316.51 -19.7675 316.134 -19.3446 315.762 -18.9171C284.965 16.4198 288.646 70.0312 323.983 100.827C359.32 131.624 412.931 127.943 443.728 92.6061C466.159 66.8671 470.299 31.4325 457.237 2.18137L449.749 10.7739C458.967 35.5942 454.669 64.55 436.05 85.9148C408.949 117.011 361.771 120.25 330.674 93.1496C299.578 66.0489 296.339 18.8708 323.439 -12.2256C323.812 -12.6533 324.189 -13.0758 324.569 -13.4929L316.889 -20.1858Z" fill="#FFF1E8"/>
<path fill-rule="evenodd" clip-rule="evenodd" d="M335.199 -2.44857C334.93 -2.15168 334.663 -1.8515 334.399 -1.54804C312.533 23.5411 315.147 61.6053 340.236 83.4706C365.325 105.336 403.389 102.723 425.254 77.6334C441.181 59.3588 444.12 34.2002 434.846 13.4319L429.529 19.5329C436.074 37.1551 433.022 57.7135 419.803 72.8823C400.561 94.9608 367.065 97.2606 344.986 78.0191C322.908 58.7775 320.608 25.2811 339.849 3.20265C340.114 2.89904 340.381 2.59917 340.651 2.30305L335.199 -2.44857Z" fill="#FFF1E8"/>
<path fill-rule="evenodd" clip-rule="evenodd" d="M348.459 10.7499C348.276 10.9508 348.096 11.154 347.917 11.3595C333.135 28.3211 334.901 54.0546 351.863 68.8369C368.825 83.6191 394.558 81.8523 409.34 64.8906C420.108 52.536 422.095 35.5275 415.825 21.487L412.229 25.613C416.654 37.5266 414.591 51.4253 405.654 61.6803C392.645 76.6066 370 78.1614 355.074 65.1531C340.147 52.1447 338.593 29.4992 351.601 14.573C351.78 14.3669 351.962 14.1635 352.145 13.9626L348.459 10.7499Z" fill="#FFF1E8"/>
<path fill-rule="evenodd" clip-rule="evenodd" d="M322.979 272.983C323.504 272.776 324.028 272.562 324.551 272.344C367.798 254.266 388.201 204.552 370.123 161.305C352.045 118.058 302.331 97.6552 259.085 115.733C227.584 128.901 208.203 158.853 206.985 190.865L217.501 186.469C220.207 160.131 236.866 136.06 263.013 125.13C301.07 109.221 344.818 127.176 360.727 165.233C376.635 203.29 358.68 247.038 320.623 262.947C320.1 263.166 319.575 263.378 319.05 263.584L322.979 272.983Z" fill="#FFF1E8"/>
<path fill-rule="evenodd" clip-rule="evenodd" d="M314.399 248.978C314.771 248.831 315.143 248.68 315.515 248.524C346.22 235.689 360.706 200.392 347.871 169.687C335.035 138.982 299.739 124.496 269.033 137.331C246.668 146.68 232.908 167.946 232.043 190.675L239.51 187.553C241.431 168.854 253.258 151.763 271.823 144.003C298.843 132.708 329.904 145.456 341.2 172.476C352.495 199.497 339.747 230.558 312.726 241.853C312.355 242.008 311.982 242.159 311.609 242.306L314.399 248.978Z" fill="#FFF1E8"/>
<path fill-rule="evenodd" clip-rule="evenodd" d="M308.341 231.277C308.594 231.178 308.846 231.075 309.097 230.97C329.855 222.293 339.649 198.43 330.971 177.672C322.294 156.913 298.431 147.12 277.673 155.797C262.553 162.118 253.25 176.495 252.665 191.86L257.715 189.749C259.014 177.107 267.01 165.553 279.56 160.307C297.828 152.671 318.827 161.289 326.463 179.556C334.099 197.824 325.481 218.823 307.213 226.459C306.961 226.564 306.709 226.667 306.456 226.766L308.341 231.277Z" fill="#FFF1E8"/>
</g>
<defs>
<linearGradient id="paint0_linear_1460_7434" x1="440" y1="237" x2="35.5" y2="106.5" gradientUnits="userSpaceOnUse">
<stop stop-color="#FFD9BE"/>
<stop offset="1" stop-color="#F57316"/>
</linearGradient>
<clipPath id="clip0_1460_7434">
<rect width="345" height="184" rx="8" fill="white"/>
</clipPath>
</defs>
</svg>
