<svg width="345" height="224" viewBox="0 0 345 224" fill="none" xmlns="http://www.w3.org/2000/svg">
<rect width="345" height="224" fill="white"/>
<g opacity="0.75" filter="url(#filter0_d_1468_7270)">
<path d="M61 178.097L77.625 176.827L94.25 168.701L110.875 168.447L127.5 159.051L144.125 148.386L160.75 152.449L177.375 130.102L194 142.291L210.625 128.071L227.25 125.532L243.875 109.788L260.5 116.898L277.125 93.5355L293.75 98.6143L310.375 93.5355L327 78.2993" stroke="#CECEFF" stroke-linecap="round" stroke-linejoin="round"/>
</g>
<path opacity="0.08" d="M61 178.097V188H327V78.2993L310.375 93.5355L293.75 98.6143L277.125 93.5355L260.5 116.898L243.875 109.788L227.25 125.532L210.625 128.071L194 142.291L177.375 130.102L160.75 152.449L144.125 148.386L127.5 159.051L110.875 168.447L94.25 168.701L77.625 176.827L61 178.097Z" fill="#CECEFF"/>
<path d="M309 25.6665C313.142 25.6665 316.5 24.5472 316.5 23.1665C316.5 21.7858 313.142 20.6665 309 20.6665C304.858 20.6665 301.5 21.7858 301.5 23.1665C301.5 24.5472 304.858 25.6665 309 25.6665Z" stroke="#717172" stroke-width="2" stroke-linecap="round" stroke-linejoin="round"/>
<path d="M316.5 29C316.5 30.3833 313.167 31.5 309 31.5C304.833 31.5 301.5 30.3833 301.5 29" stroke="#717172" stroke-width="2" stroke-linecap="round" stroke-linejoin="round"/>
<path d="M301.5 23.1665V34.8332C301.5 36.2165 304.833 37.3332 309 37.3332C313.167 37.3332 316.5 36.2165 316.5 34.8332V23.1665" stroke="#717172" stroke-width="2" stroke-linecap="round" stroke-linejoin="round"/>
<path d="M67.848 203.608V202.688H65.672V201.096H68.264V200.152H64.648V206H65.672V203.608H67.848ZM73.2191 206V205.056H70.6111V203.504H72.9471V202.6H70.6111V201.096H73.2191V200.152H69.5871V206H73.2191ZM74.7293 206H77.0973C78.3053 206 79.0013 205.416 79.0013 204.416C79.0013 203.736 78.6893 203.272 78.0733 203.072C78.6253 202.84 78.9133 202.376 78.9133 201.728C78.9133 200.752 78.2093 200.152 77.0573 200.152H74.7293V206ZM76.9693 201.056C77.5453 201.056 77.8653 201.328 77.8653 201.832C77.8653 202.352 77.5533 202.648 76.9933 202.648H75.7533V201.056H76.9693ZM77.0573 203.512C77.6253 203.512 77.9533 203.792 77.9533 204.288C77.9533 204.816 77.6333 205.096 77.0573 205.096H75.7533V203.512H77.0573Z" fill="#717172"/>
<path d="M111.64 206V203.904C111.64 203.176 111.632 202.624 111.576 202.272L113.056 206H114L115.488 202.264C115.432 202.68 115.432 203.024 115.432 204.2V206H116.424V200.152H115.416L113.528 204.808L111.64 200.152H110.648V206H111.64ZM118.622 206L119.094 204.648H121.278L121.75 206H122.83L120.718 200.152H119.67L117.558 206H118.622ZM120.062 201.896C120.118 201.736 120.166 201.56 120.19 201.448C120.206 201.568 120.262 201.744 120.31 201.896L120.982 203.784H119.398L120.062 201.896ZM124.988 206V203.816H126.244L127.236 206H128.356L127.244 203.6C127.932 203.32 128.3 202.76 128.3 201.976C128.3 200.824 127.524 200.152 126.196 200.152H123.964V206H124.988ZM124.988 201.064H126.196C126.844 201.064 127.228 201.392 127.228 201.976C127.228 202.568 126.844 202.912 126.196 202.912H124.988V201.064Z" fill="#717172"/>
<path d="M160.152 206L160.624 204.648H162.808L163.28 206H164.36L162.248 200.152H161.2L159.088 206H160.152ZM161.592 201.896C161.648 201.736 161.696 201.56 161.72 201.448C161.736 201.568 161.792 201.744 161.84 201.896L162.512 203.784H160.928L161.592 201.896ZM167.805 203.984C168.973 203.984 169.741 203.192 169.741 202.064C169.741 200.92 168.981 200.152 167.805 200.152H165.493V206H166.517V203.984H167.805ZM167.605 201.064C168.285 201.064 168.669 201.416 168.669 202.056C168.669 202.696 168.293 203.072 167.589 203.072H166.517V201.064H167.605ZM172.027 206V203.816H173.283L174.275 206H175.395L174.283 203.6C174.971 203.32 175.339 202.76 175.339 201.976C175.339 200.824 174.563 200.152 173.235 200.152H171.003V206H172.027ZM172.027 201.064H173.235C173.883 201.064 174.267 201.392 174.267 201.976C174.267 202.568 173.883 202.912 173.235 202.912H172.027V201.064Z" fill="#717172"/>
<path d="M207.64 206V203.904C207.64 203.176 207.632 202.624 207.576 202.272L209.056 206H210L211.488 202.264C211.432 202.68 211.432 203.024 211.432 204.2V206H212.424V200.152H211.416L209.528 204.808L207.64 200.152H206.648V206H207.64ZM214.622 206L215.094 204.648H217.278L217.75 206H218.83L216.718 200.152H215.67L213.558 206H214.622ZM216.062 201.896C216.118 201.736 216.166 201.56 216.19 201.448C216.206 201.568 216.262 201.744 216.31 201.896L216.982 203.784H215.398L216.062 201.896ZM220.762 203.696V206H221.786V203.696L223.754 200.152H222.642L221.498 202.28C221.394 202.472 221.362 202.568 221.29 202.712C221.226 202.568 221.17 202.44 221.082 202.28L219.93 200.152H218.786L220.762 203.696Z" fill="#717172"/>
<path d="M254.16 204.352C254.16 205.36 254.776 206.104 255.976 206.104C257.088 206.104 257.808 205.4 257.808 204.368V200.152H256.784V204.312C256.784 204.824 256.544 205.152 255.968 205.152C255.392 205.152 255.144 204.8 255.144 204.352V204.008H254.16V204.352ZM259.422 203.864C259.422 205.24 260.318 206.096 261.734 206.096C263.158 206.096 264.054 205.232 264.054 203.864V200.152H263.03V203.8C263.03 204.632 262.566 205.104 261.734 205.104C260.902 205.104 260.446 204.64 260.446 203.8V200.152H259.422V203.864ZM266.722 206V201.856L269.474 206H270.482V200.152H269.474V204.296L266.73 200.152H265.714V206H266.722Z" fill="#717172"/>
<path d="M302.16 204.352C302.16 205.36 302.776 206.104 303.976 206.104C305.088 206.104 305.808 205.4 305.808 204.368V200.152H304.784V204.312C304.784 204.824 304.544 205.152 303.968 205.152C303.392 205.152 303.144 204.8 303.144 204.352V204.008H302.16V204.352ZM307.422 203.864C307.422 205.24 308.318 206.096 309.734 206.096C311.158 206.096 312.054 205.232 312.054 203.864V200.152H311.03V203.8C311.03 204.632 310.566 205.104 309.734 205.104C308.902 205.104 308.446 204.64 308.446 203.8V200.152H307.422V203.864ZM314.738 200.152H313.714V206H317.186V205.056H314.738V200.152ZM319.217 203.696V206H320.241V203.696L322.209 200.152H321.097L319.953 202.28C319.849 202.472 319.817 202.568 319.745 202.712C319.681 202.568 319.625 202.44 319.537 202.28L318.385 200.152H317.241L319.217 203.696Z" fill="#717172"/>
<path d="M22.08 86.76H22.696V86.08C23.768 85.96 24.456 85.288 24.456 84.312C24.456 83.464 23.992 82.968 22.968 82.744L22.696 82.68V80.96C23.112 81.048 23.352 81.328 23.368 81.76H24.36C24.328 80.8 23.704 80.168 22.696 80.064V79.384H22.08V80.064C21.016 80.176 20.312 80.848 20.312 81.784C20.312 82.664 20.816 83.224 21.824 83.44L22.08 83.496V85.2C21.56 85.136 21.264 84.848 21.256 84.392H20.232C20.256 85.368 20.968 86.016 22.08 86.096V86.76ZM22.048 82.536C21.536 82.424 21.312 82.176 21.312 81.752C21.312 81.32 21.6 81.032 22.08 80.952V82.544L22.048 82.536ZM22.752 83.64C23.232 83.744 23.464 83.992 23.464 84.4C23.464 84.808 23.176 85.088 22.696 85.184V83.624L22.752 83.64ZM26.6864 81.072V86H27.6704V80.152H25.4064V81.072H26.6864ZM29.0659 83.088C29.0659 84.896 29.9859 86.104 31.5379 86.104C33.0899 86.104 34.0179 84.896 34.0179 83.088C34.0179 81.272 33.0339 80.04 31.5379 80.04C30.0419 80.04 29.0659 81.272 29.0659 83.088ZM30.0739 83.088C30.0739 81.704 30.6179 80.944 31.5379 80.944C32.4659 80.944 33.0099 81.704 33.0099 83.088C33.0099 84.44 32.4659 85.2 31.5379 85.2C30.6179 85.2 30.0739 84.44 30.0739 83.088ZM36.4345 80.152H35.4105V86H36.4345V84.752L37.4025 83.512L38.8505 86H40.0345L38.0745 82.648L40.0105 80.152H38.8025L36.4345 83.224V80.152Z" fill="#717172"/>
<path d="M22.08 112.76H22.696V112.08C23.768 111.96 24.456 111.288 24.456 110.312C24.456 109.464 23.992 108.968 22.968 108.744L22.696 108.68V106.96C23.112 107.048 23.352 107.328 23.368 107.76H24.36C24.328 106.8 23.704 106.168 22.696 106.064V105.384H22.08V106.064C21.016 106.176 20.312 106.848 20.312 107.784C20.312 108.664 20.816 109.224 21.824 109.44L22.08 109.496V111.2C21.56 111.136 21.264 110.848 21.256 110.392H20.232C20.256 111.368 20.968 112.016 22.08 112.096V112.76ZM22.048 108.536C21.536 108.424 21.312 108.176 21.312 107.752C21.312 107.32 21.6 107.032 22.08 106.952V108.544L22.048 108.536ZM22.752 109.64C23.232 109.744 23.464 109.992 23.464 110.4C23.464 110.808 23.176 111.088 22.696 111.184V109.624L22.752 109.64ZM25.4704 110.344C25.4704 111.408 26.3424 112.096 27.6944 112.096C29.0544 112.096 29.9264 111.4 29.9264 110.344C29.9264 109.64 29.5264 109.072 28.9104 108.856C29.4304 108.64 29.7184 108.2 29.7184 107.632C29.7184 106.68 28.9104 106.048 27.7104 106.048C26.5024 106.048 25.6784 106.688 25.6784 107.616C25.6784 108.184 25.9584 108.624 26.4704 108.856C25.8624 109.088 25.4704 109.648 25.4704 110.344ZM26.6064 107.704C26.6064 107.224 27.0304 106.92 27.6944 106.92C28.3504 106.92 28.7664 107.224 28.7664 107.712C28.7664 108.2 28.3504 108.504 27.6944 108.504C27.0304 108.504 26.6064 108.192 26.6064 107.704ZM26.4704 110.272C26.4704 109.704 26.9424 109.352 27.6944 109.352C28.4464 109.352 28.9184 109.704 28.9184 110.272C28.9184 110.84 28.4464 111.192 27.7024 111.192C26.9424 111.192 26.4704 110.84 26.4704 110.272ZM32.3314 106.152H31.3074V112H32.3314V110.752L33.2994 109.512L34.7474 112H35.9314L33.9714 108.648L35.9074 106.152H34.6994L32.3314 109.224V106.152Z" fill="#717172"/>
<path d="M22.08 138.76H22.696V138.08C23.768 137.96 24.456 137.288 24.456 136.312C24.456 135.464 23.992 134.968 22.968 134.744L22.696 134.68V132.96C23.112 133.048 23.352 133.328 23.368 133.76H24.36C24.328 132.8 23.704 132.168 22.696 132.064V131.384H22.08V132.064C21.016 132.176 20.312 132.848 20.312 133.784C20.312 134.664 20.816 135.224 21.824 135.44L22.08 135.496V137.2C21.56 137.136 21.264 136.848 21.256 136.392H20.232C20.256 137.368 20.968 138.016 22.08 138.096V138.76ZM22.048 134.536C21.536 134.424 21.312 134.176 21.312 133.752C21.312 133.32 21.6 133.032 22.08 132.952V134.544L22.048 134.536ZM22.752 135.64C23.232 135.744 23.464 135.992 23.464 136.4C23.464 136.808 23.176 137.088 22.696 137.184V135.624L22.752 135.64ZM26.3104 133.872C25.6544 134.76 25.4224 135.272 25.4224 135.976C25.4224 137.176 26.3664 138.104 27.6304 138.104C28.8784 138.104 29.8064 137.232 29.8064 135.984C29.8064 134.8 28.9904 133.952 27.7824 133.952C27.6384 133.952 27.4864 133.976 27.3424 134.016L28.7424 132.152H27.5744L26.3104 133.872ZM26.4704 135.984C26.4704 135.28 26.9344 134.792 27.6304 134.792C28.3024 134.792 28.7744 135.28 28.7744 135.984C28.7744 136.696 28.2944 137.192 27.6304 137.192C26.9424 137.192 26.4704 136.696 26.4704 135.984ZM32.1673 132.152H31.1433V138H32.1673V136.752L33.1353 135.512L34.5833 138H35.7673L33.8073 134.648L35.7433 132.152H34.5353L32.1673 135.224V132.152Z" fill="#717172"/>
<path d="M22.08 164.76H22.696V164.08C23.768 163.96 24.456 163.288 24.456 162.312C24.456 161.464 23.992 160.968 22.968 160.744L22.696 160.68V158.96C23.112 159.048 23.352 159.328 23.368 159.76H24.36C24.328 158.8 23.704 158.168 22.696 158.064V157.384H22.08V158.064C21.016 158.176 20.312 158.848 20.312 159.784C20.312 160.664 20.816 161.224 21.824 161.44L22.08 161.496V163.2C21.56 163.136 21.264 162.848 21.256 162.392H20.232C20.256 163.368 20.968 164.016 22.08 164.096V164.76ZM22.048 160.536C21.536 160.424 21.312 160.176 21.312 159.752C21.312 159.32 21.6 159.032 22.08 158.952V160.544L22.048 160.536ZM22.752 161.64C23.232 161.744 23.464 161.992 23.464 162.4C23.464 162.808 23.176 163.088 22.696 163.184V161.624L22.752 161.64ZM30.0064 162.888V161.992H29.2944V158.152H28.0064L25.3584 161.992V162.888H28.3264V164H29.2944V162.888H30.0064ZM26.4464 161.992L28.3264 159.256V161.992H26.4464ZM32.3783 158.152H31.3543V164H32.3783V162.752L33.3463 161.512L34.7943 164H35.9783L34.0183 160.648L35.9543 158.152H34.7463L32.3783 161.224V158.152Z" fill="#717172"/>
<path d="M22.08 190.76H22.696V190.08C23.768 189.96 24.456 189.288 24.456 188.312C24.456 187.464 23.992 186.968 22.968 186.744L22.696 186.68V184.96C23.112 185.048 23.352 185.328 23.368 185.76H24.36C24.328 184.8 23.704 184.168 22.696 184.064V183.384H22.08V184.064C21.016 184.176 20.312 184.848 20.312 185.784C20.312 186.664 20.816 187.224 21.824 187.44L22.08 187.496V189.2C21.56 189.136 21.264 188.848 21.256 188.392H20.232C20.256 189.368 20.968 190.016 22.08 190.096V190.76ZM22.048 186.536C21.536 186.424 21.312 186.176 21.312 185.752C21.312 185.32 21.6 185.032 22.08 184.952V186.544L22.048 186.536ZM22.752 187.64C23.232 187.744 23.464 187.992 23.464 188.4C23.464 188.808 23.176 189.088 22.696 189.184V187.624L22.752 187.64ZM29.5584 189.992V189.04H27.1264L28.1824 188.136C29.0704 187.376 29.5184 186.76 29.5184 185.944C29.5184 184.76 28.7424 184.048 27.4944 184.048C26.2544 184.048 25.4384 184.88 25.4304 186.16H26.4464C26.4544 185.408 26.8544 184.96 27.4944 184.96C28.1104 184.96 28.4704 185.336 28.4704 186C28.4704 186.56 28.2064 186.944 27.4144 187.616L25.5024 189.232V190L29.5584 189.992ZM31.9173 184.152H30.8933V190H31.9173V188.752L32.8853 187.512L34.3333 190H35.5173L33.5573 186.648L35.4933 184.152H34.2853L31.9173 187.224V184.152Z" fill="#717172"/>
<line x1="54.9981" y1="83.5542" x2="326.998" y2="82.4999" stroke="#FAFAFA"/>
<line x1="54.9981" y1="135.709" x2="326.998" y2="134.655" stroke="#FAFAFA"/>
<line x1="54.9981" y1="162.608" x2="326.998" y2="161.554" stroke="#FAFAFA"/>
<line x1="54.9982" y1="110.554" x2="326.998" y2="109.554" stroke="#FAFAFA"/>
<rect width="76" height="24" transform="translate(16 15)" fill="#FAFAFA"/>
<path d="M26.09 31V28.27H27.66L28.9 31H30.3L28.91 28C29.77 27.65 30.23 26.95 30.23 25.97C30.23 24.53 29.26 23.69 27.6 23.69H24.81V31H26.09ZM26.09 24.83H27.6C28.41 24.83 28.89 25.24 28.89 25.97C28.89 26.71 28.41 27.14 27.6 27.14H26.09V24.83ZM33.5877 31.13C34.8777 31.13 35.7777 30.48 35.9877 29.4H34.8577C34.7177 29.87 34.2777 30.13 33.6077 30.13C32.7977 30.13 32.3377 29.69 32.2477 28.82L35.9677 28.81V28.44C35.9677 26.9 35.0277 25.91 33.5477 25.91C32.0977 25.91 31.0877 26.98 31.0877 28.53C31.0877 30.06 32.1177 31.13 33.5877 31.13ZM33.5577 26.91C34.2877 26.91 34.7577 27.36 34.7577 28.04H32.2777C32.3977 27.3 32.8377 26.91 33.5577 26.91ZM38.5641 31V28.34C38.5641 27.54 39.0241 27.02 39.7741 27.02C40.4041 27.02 40.8141 27.42 40.8141 28.25V31H42.0341V27.96C42.0341 26.68 41.3941 25.91 40.1541 25.91C39.4841 25.91 38.8841 26.2 38.5741 26.7L38.4741 26.06H37.3441V31H38.5641ZM45.3127 31V27.08H46.2727V26.06H45.3127V24.52H44.0927V26.06H43.1427V27.08H44.0927V31H45.3127ZM48.8719 31.13C49.6419 31.13 50.3119 30.78 50.5219 30.27L50.6119 31H51.6819V28C51.6819 26.63 50.8619 25.91 49.5319 25.91C48.1919 25.91 47.3119 26.61 47.3119 27.68H48.3519C48.3519 27.16 48.7519 26.86 49.4719 26.86C50.0919 26.86 50.4919 27.13 50.4919 27.8V27.91L49.0119 28.02C47.8419 28.11 47.1819 28.68 47.1819 29.59C47.1819 30.52 47.8219 31.13 48.8719 31.13ZM49.2719 30.21C48.7219 30.21 48.4219 29.99 48.4219 29.54C48.4219 29.14 48.7119 28.89 49.4719 28.82L50.5019 28.74V29C50.5019 29.76 50.0219 30.21 49.2719 30.21ZM54.5104 31V23.56H53.3004V31H54.5104ZM61.2255 28.12V31H62.5055V28.12L64.9655 23.69H63.5755L62.1455 26.35C62.0155 26.59 61.9755 26.71 61.8855 26.89C61.8055 26.71 61.7355 26.55 61.6255 26.35L60.1855 23.69H58.7555L61.2255 28.12ZM66.7017 25.07C67.1017 25.07 67.4317 24.74 67.4317 24.33C67.4317 23.92 67.1017 23.6 66.7017 23.6C66.2817 23.6 65.9517 23.92 65.9517 24.33C65.9517 24.74 66.2817 25.07 66.7017 25.07ZM66.0917 31H67.3117V26.06H66.0917V31ZM71.1822 31.13C72.4722 31.13 73.3722 30.48 73.5822 29.4H72.4522C72.3122 29.87 71.8722 30.13 71.2022 30.13C70.3922 30.13 69.9322 29.69 69.8422 28.82L73.5622 28.81V28.44C73.5622 26.9 72.6222 25.91 71.1422 25.91C69.6922 25.91 68.6822 26.98 68.6822 28.53C68.6822 30.06 69.7122 31.13 71.1822 31.13ZM71.1522 26.91C71.8822 26.91 72.3522 27.36 72.3522 28.04H69.8722C69.9922 27.3 70.4322 26.91 71.1522 26.91ZM76.1686 31V23.56H74.9586V31H76.1686ZM79.8784 31.13C80.6284 31.13 81.2684 30.8 81.5684 30.23L81.6484 31H82.7684V23.56H81.5584V26.69C81.2484 26.2 80.6384 25.91 79.9484 25.91C78.4584 25.91 77.5584 27.01 77.5584 28.55C77.5584 30.08 78.4484 31.13 79.8784 31.13ZM80.1484 30.01C79.2984 30.01 78.7784 29.39 78.7784 28.51C78.7784 27.63 79.2984 27 80.1484 27C80.9984 27 81.5484 27.62 81.5484 28.51C81.5484 29.4 80.9984 30.01 80.1484 30.01Z" fill="#717172"/>
<defs>
<filter id="filter0_d_1468_7270" x="44.5" y="69.7993" width="299" height="132.797" filterUnits="userSpaceOnUse" color-interpolation-filters="sRGB">
<feFlood flood-opacity="0" result="BackgroundImageFix"/>
<feColorMatrix in="SourceAlpha" type="matrix" values="0 0 0 0 0 0 0 0 0 0 0 0 0 0 0 0 0 0 127 0" result="hardAlpha"/>
<feOffset dy="8"/>
<feGaussianBlur stdDeviation="8"/>
<feColorMatrix type="matrix" values="0 0 0 0 0.317647 0 0 0 0 0.643137 0 0 0 0 0.964706 0 0 0 0.48 0"/>
<feBlend mode="normal" in2="BackgroundImageFix" result="effect1_dropShadow_1468_7270"/>
<feBlend mode="normal" in="SourceGraphic" in2="effect1_dropShadow_1468_7270" result="shape"/>
</filter>
</defs>
</svg>
