<svg width="345" height="224" viewBox="0 0 345 224" fill="none" xmlns="http://www.w3.org/2000/svg">
<rect width="345" height="224" fill="white"/>
<g opacity="0.75" filter="url(#filter0_d_1468_7269)">
<path d="M61 178.097L77.625 176.827L94.25 168.701L110.875 168.447L127.5 159.051L144.125 148.386L160.75 152.449L177.375 130.102L194 142.291L210.625 128.071L227.25 125.532L243.875 109.788L260.5 116.898L277.125 93.5355L293.75 98.6143L310.375 93.5355L327 78.2993" stroke="#F57316" stroke-linecap="round" stroke-linejoin="round"/>
</g>
<path opacity="0.08" d="M61 178.097V188H327V78.2993L310.375 93.5355L293.75 98.6143L277.125 93.5355L260.5 116.898L243.875 109.788L227.25 125.532L210.625 128.071L194 142.291L177.375 130.102L160.75 152.449L144.125 148.386L127.5 159.051L110.875 168.447L94.25 168.701L77.625 176.827L61 178.097Z" fill="#F57316"/>
<path d="M67.848 203.608V202.688H65.672V201.096H68.264V200.152H64.648V206H65.672V203.608H67.848ZM73.2191 206V205.056H70.6111V203.504H72.9471V202.6H70.6111V201.096H73.2191V200.152H69.5871V206H73.2191ZM74.7293 206H77.0973C78.3053 206 79.0013 205.416 79.0013 204.416C79.0013 203.736 78.6893 203.272 78.0733 203.072C78.6253 202.84 78.9133 202.376 78.9133 201.728C78.9133 200.752 78.2093 200.152 77.0573 200.152H74.7293V206ZM76.9693 201.056C77.5453 201.056 77.8653 201.328 77.8653 201.832C77.8653 202.352 77.5533 202.648 76.9933 202.648H75.7533V201.056H76.9693ZM77.0573 203.512C77.6253 203.512 77.9533 203.792 77.9533 204.288C77.9533 204.816 77.6333 205.096 77.0573 205.096H75.7533V203.512H77.0573Z" fill="#717172"/>
<path d="M111.64 206V203.904C111.64 203.176 111.632 202.624 111.576 202.272L113.056 206H114L115.488 202.264C115.432 202.68 115.432 203.024 115.432 204.2V206H116.424V200.152H115.416L113.528 204.808L111.64 200.152H110.648V206H111.64ZM118.622 206L119.094 204.648H121.278L121.75 206H122.83L120.718 200.152H119.67L117.558 206H118.622ZM120.062 201.896C120.118 201.736 120.166 201.56 120.19 201.448C120.206 201.568 120.262 201.744 120.31 201.896L120.982 203.784H119.398L120.062 201.896ZM124.988 206V203.816H126.244L127.236 206H128.356L127.244 203.6C127.932 203.32 128.3 202.76 128.3 201.976C128.3 200.824 127.524 200.152 126.196 200.152H123.964V206H124.988ZM124.988 201.064H126.196C126.844 201.064 127.228 201.392 127.228 201.976C127.228 202.568 126.844 202.912 126.196 202.912H124.988V201.064Z" fill="#717172"/>
<path d="M160.152 206L160.624 204.648H162.808L163.28 206H164.36L162.248 200.152H161.2L159.088 206H160.152ZM161.592 201.896C161.648 201.736 161.696 201.56 161.72 201.448C161.736 201.568 161.792 201.744 161.84 201.896L162.512 203.784H160.928L161.592 201.896ZM167.805 203.984C168.973 203.984 169.741 203.192 169.741 202.064C169.741 200.92 168.981 200.152 167.805 200.152H165.493V206H166.517V203.984H167.805ZM167.605 201.064C168.285 201.064 168.669 201.416 168.669 202.056C168.669 202.696 168.293 203.072 167.589 203.072H166.517V201.064H167.605ZM172.027 206V203.816H173.283L174.275 206H175.395L174.283 203.6C174.971 203.32 175.339 202.76 175.339 201.976C175.339 200.824 174.563 200.152 173.235 200.152H171.003V206H172.027ZM172.027 201.064H173.235C173.883 201.064 174.267 201.392 174.267 201.976C174.267 202.568 173.883 202.912 173.235 202.912H172.027V201.064Z" fill="#717172"/>
<path d="M207.64 206V203.904C207.64 203.176 207.632 202.624 207.576 202.272L209.056 206H210L211.488 202.264C211.432 202.68 211.432 203.024 211.432 204.2V206H212.424V200.152H211.416L209.528 204.808L207.64 200.152H206.648V206H207.64ZM214.622 206L215.094 204.648H217.278L217.75 206H218.83L216.718 200.152H215.67L213.558 206H214.622ZM216.062 201.896C216.118 201.736 216.166 201.56 216.19 201.448C216.206 201.568 216.262 201.744 216.31 201.896L216.982 203.784H215.398L216.062 201.896ZM220.762 203.696V206H221.786V203.696L223.754 200.152H222.642L221.498 202.28C221.394 202.472 221.362 202.568 221.29 202.712C221.226 202.568 221.17 202.44 221.082 202.28L219.93 200.152H218.786L220.762 203.696Z" fill="#717172"/>
<path d="M254.16 204.352C254.16 205.36 254.776 206.104 255.976 206.104C257.088 206.104 257.808 205.4 257.808 204.368V200.152H256.784V204.312C256.784 204.824 256.544 205.152 255.968 205.152C255.392 205.152 255.144 204.8 255.144 204.352V204.008H254.16V204.352ZM259.422 203.864C259.422 205.24 260.318 206.096 261.734 206.096C263.158 206.096 264.054 205.232 264.054 203.864V200.152H263.03V203.8C263.03 204.632 262.566 205.104 261.734 205.104C260.902 205.104 260.446 204.64 260.446 203.8V200.152H259.422V203.864ZM266.722 206V201.856L269.474 206H270.482V200.152H269.474V204.296L266.73 200.152H265.714V206H266.722Z" fill="#717172"/>
<path d="M302.16 204.352C302.16 205.36 302.776 206.104 303.976 206.104C305.088 206.104 305.808 205.4 305.808 204.368V200.152H304.784V204.312C304.784 204.824 304.544 205.152 303.968 205.152C303.392 205.152 303.144 204.8 303.144 204.352V204.008H302.16V204.352ZM307.422 203.864C307.422 205.24 308.318 206.096 309.734 206.096C311.158 206.096 312.054 205.232 312.054 203.864V200.152H311.03V203.8C311.03 204.632 310.566 205.104 309.734 205.104C308.902 205.104 308.446 204.64 308.446 203.8V200.152H307.422V203.864ZM314.738 200.152H313.714V206H317.186V205.056H314.738V200.152ZM319.217 203.696V206H320.241V203.696L322.209 200.152H321.097L319.953 202.28C319.849 202.472 319.817 202.568 319.745 202.712C319.681 202.568 319.625 202.44 319.537 202.28L318.385 200.152H317.241L319.217 203.696Z" fill="#717172"/>
<path d="M18.08 86.76H18.696V86.08C19.768 85.96 20.456 85.288 20.456 84.312C20.456 83.464 19.992 82.968 18.968 82.744L18.696 82.68V80.96C19.112 81.048 19.352 81.328 19.368 81.76H20.36C20.328 80.8 19.704 80.168 18.696 80.064V79.384H18.08V80.064C17.016 80.176 16.312 80.848 16.312 81.784C16.312 82.664 16.816 83.224 17.824 83.44L18.08 83.496V85.2C17.56 85.136 17.264 84.848 17.256 84.392H16.232C16.256 85.368 16.968 86.016 18.08 86.096V86.76ZM18.048 82.536C17.536 82.424 17.312 82.176 17.312 81.752C17.312 81.32 17.6 81.032 18.08 80.952V82.544L18.048 82.536ZM18.752 83.64C19.232 83.744 19.464 83.992 19.464 84.4C19.464 84.808 19.176 85.088 18.696 85.184V83.624L18.752 83.64ZM23.4944 86.096C24.7984 86.096 25.6864 85.232 25.6864 83.968C25.6864 82.816 24.9104 82.024 23.7424 82.024C23.3424 82.024 22.9904 82.128 22.7104 82.312L23.0224 81.096H25.3344V80.152H22.2864L21.5664 83.216L22.4704 83.408C22.6784 83.104 23.0864 82.88 23.5344 82.88C24.2384 82.88 24.6464 83.344 24.6464 84.024C24.6464 84.736 24.2064 85.184 23.5184 85.184C22.8704 85.184 22.4784 84.792 22.4784 84.128H21.4624C21.4624 85.312 22.2704 86.096 23.4944 86.096ZM26.6753 83.088C26.6753 84.896 27.5953 86.104 29.1473 86.104C30.6993 86.104 31.6273 84.896 31.6273 83.088C31.6273 81.272 30.6433 80.04 29.1473 80.04C27.6513 80.04 26.6753 81.272 26.6753 83.088ZM27.6833 83.088C27.6833 81.704 28.2273 80.944 29.1473 80.944C30.0753 80.944 30.6193 81.704 30.6193 83.088C30.6193 84.44 30.0753 85.2 29.1473 85.2C28.2273 85.2 27.6833 84.44 27.6833 83.088ZM32.7159 83.088C32.7159 84.896 33.6359 86.104 35.1879 86.104C36.7399 86.104 37.6679 84.896 37.6679 83.088C37.6679 81.272 36.6839 80.04 35.1879 80.04C33.6919 80.04 32.7159 81.272 32.7159 83.088ZM33.7239 83.088C33.7239 81.704 34.2679 80.944 35.1879 80.944C36.1159 80.944 36.6599 81.704 36.6599 83.088C36.6599 84.44 36.1159 85.2 35.1879 85.2C34.2679 85.2 33.7239 84.44 33.7239 83.088ZM40.0845 80.152H39.0605V86H40.0845V84.752L41.0525 83.512L42.5005 86H43.6845L41.7245 82.648L43.6605 80.152H42.4525L40.0845 83.224V80.152Z" fill="#717172"/>
<path d="M18.08 112.76H18.696V112.08C19.768 111.96 20.456 111.288 20.456 110.312C20.456 109.464 19.992 108.968 18.968 108.744L18.696 108.68V106.96C19.112 107.048 19.352 107.328 19.368 107.76H20.36C20.328 106.8 19.704 106.168 18.696 106.064V105.384H18.08V106.064C17.016 106.176 16.312 106.848 16.312 107.784C16.312 108.664 16.816 109.224 17.824 109.44L18.08 109.496V111.2C17.56 111.136 17.264 110.848 17.256 110.392H16.232C16.256 111.368 16.968 112.016 18.08 112.096V112.76ZM18.048 108.536C17.536 108.424 17.312 108.176 17.312 107.752C17.312 107.32 17.6 107.032 18.08 106.952V108.544L18.048 108.536ZM18.752 109.64C19.232 109.744 19.464 109.992 19.464 110.4C19.464 110.808 19.176 111.088 18.696 111.184V109.624L18.752 109.64ZM26.0064 110.888V109.992H25.2944V106.152H24.0064L21.3584 109.992V110.888H24.3264V112H25.2944V110.888H26.0064ZM22.4464 109.992L24.3264 107.256V109.992H22.4464ZM27.0503 109.088C27.0503 110.896 27.9703 112.104 29.5223 112.104C31.0743 112.104 32.0023 110.896 32.0023 109.088C32.0023 107.272 31.0183 106.04 29.5223 106.04C28.0263 106.04 27.0503 107.272 27.0503 109.088ZM28.0583 109.088C28.0583 107.704 28.6023 106.944 29.5223 106.944C30.4503 106.944 30.9943 107.704 30.9943 109.088C30.9943 110.44 30.4503 111.2 29.5223 111.2C28.6023 111.2 28.0583 110.44 28.0583 109.088ZM33.0909 109.088C33.0909 110.896 34.0109 112.104 35.5629 112.104C37.1149 112.104 38.0429 110.896 38.0429 109.088C38.0429 107.272 37.0589 106.04 35.5629 106.04C34.0669 106.04 33.0909 107.272 33.0909 109.088ZM34.0989 109.088C34.0989 107.704 34.6429 106.944 35.5629 106.944C36.4909 106.944 37.0349 107.704 37.0349 109.088C37.0349 110.44 36.4909 111.2 35.5629 111.2C34.6429 111.2 34.0989 110.44 34.0989 109.088ZM40.4595 106.152H39.4355V112H40.4595V110.752L41.4275 109.512L42.8755 112H44.0595L42.0995 108.648L44.0355 106.152H42.8275L40.4595 109.224V106.152Z" fill="#717172"/>
<path d="M18.08 138.76H18.696V138.08C19.768 137.96 20.456 137.288 20.456 136.312C20.456 135.464 19.992 134.968 18.968 134.744L18.696 134.68V132.96C19.112 133.048 19.352 133.328 19.368 133.76H20.36C20.328 132.8 19.704 132.168 18.696 132.064V131.384H18.08V132.064C17.016 132.176 16.312 132.848 16.312 133.784C16.312 134.664 16.816 135.224 17.824 135.44L18.08 135.496V137.2C17.56 137.136 17.264 136.848 17.256 136.392H16.232C16.256 137.368 16.968 138.016 18.08 138.096V138.76ZM18.048 134.536C17.536 134.424 17.312 134.176 17.312 133.752C17.312 133.32 17.6 133.032 18.08 132.952V134.544L18.048 134.536ZM18.752 135.64C19.232 135.744 19.464 135.992 19.464 136.4C19.464 136.808 19.176 137.088 18.696 137.184V135.624L18.752 135.64ZM23.2064 135.104C24.0224 135.104 24.4064 135.536 24.4064 136.128C24.4064 136.776 23.9824 137.192 23.3424 137.192C22.7184 137.192 22.3024 136.808 22.3024 136.136H21.2944C21.2944 137.4 22.1824 138.104 23.3264 138.104C24.5104 138.104 25.4464 137.344 25.4464 136.144C25.4464 135.112 24.7504 134.456 23.8544 134.28L25.2784 132.968V132.152H21.5664V133.056H23.9984L22.4944 134.44V135.104H23.2064ZM26.4331 135.088C26.4331 136.896 27.3531 138.104 28.9051 138.104C30.4571 138.104 31.3851 136.896 31.3851 135.088C31.3851 133.272 30.4011 132.04 28.9051 132.04C27.4091 132.04 26.4331 133.272 26.4331 135.088ZM27.4411 135.088C27.4411 133.704 27.9851 132.944 28.9051 132.944C29.8331 132.944 30.3771 133.704 30.3771 135.088C30.3771 136.44 29.8331 137.2 28.9051 137.2C27.9851 137.2 27.4411 136.44 27.4411 135.088ZM32.4737 135.088C32.4737 136.896 33.3937 138.104 34.9457 138.104C36.4977 138.104 37.4257 136.896 37.4257 135.088C37.4257 133.272 36.4417 132.04 34.9457 132.04C33.4497 132.04 32.4737 133.272 32.4737 135.088ZM33.4817 135.088C33.4817 133.704 34.0257 132.944 34.9457 132.944C35.8737 132.944 36.4177 133.704 36.4177 135.088C36.4177 136.44 35.8737 137.2 34.9457 137.2C34.0257 137.2 33.4817 136.44 33.4817 135.088ZM39.8423 132.152H38.8183V138H39.8423V136.752L40.8103 135.512L42.2583 138H43.4423L41.4823 134.648L43.4183 132.152H42.2103L39.8423 135.224V132.152Z" fill="#717172"/>
<path d="M18.08 164.76H18.696V164.08C19.768 163.96 20.456 163.288 20.456 162.312C20.456 161.464 19.992 160.968 18.968 160.744L18.696 160.68V158.96C19.112 159.048 19.352 159.328 19.368 159.76H20.36C20.328 158.8 19.704 158.168 18.696 158.064V157.384H18.08V158.064C17.016 158.176 16.312 158.848 16.312 159.784C16.312 160.664 16.816 161.224 17.824 161.44L18.08 161.496V163.2C17.56 163.136 17.264 162.848 17.256 162.392H16.232C16.256 163.368 16.968 164.016 18.08 164.096V164.76ZM18.048 160.536C17.536 160.424 17.312 160.176 17.312 159.752C17.312 159.32 17.6 159.032 18.08 158.952V160.544L18.048 160.536ZM18.752 161.64C19.232 161.744 19.464 161.992 19.464 162.4C19.464 162.808 19.176 163.088 18.696 163.184V161.624L18.752 161.64ZM25.5584 163.992V163.04H23.1264L24.1824 162.136C25.0704 161.376 25.5184 160.76 25.5184 159.944C25.5184 158.76 24.7424 158.048 23.4944 158.048C22.2544 158.048 21.4384 158.88 21.4304 160.16H22.4464C22.4544 159.408 22.8544 158.96 23.4944 158.96C24.1104 158.96 24.4704 159.336 24.4704 160C24.4704 160.56 24.2064 160.944 23.4144 161.616L21.5024 163.232V164L25.5584 163.992ZM26.5893 161.088C26.5893 162.896 27.5093 164.104 29.0613 164.104C30.6133 164.104 31.5413 162.896 31.5413 161.088C31.5413 159.272 30.5573 158.04 29.0613 158.04C27.5653 158.04 26.5893 159.272 26.5893 161.088ZM27.5973 161.088C27.5973 159.704 28.1413 158.944 29.0613 158.944C29.9893 158.944 30.5333 159.704 30.5333 161.088C30.5333 162.44 29.9893 163.2 29.0613 163.2C28.1413 163.2 27.5973 162.44 27.5973 161.088ZM32.6299 161.088C32.6299 162.896 33.5499 164.104 35.1019 164.104C36.6539 164.104 37.5819 162.896 37.5819 161.088C37.5819 159.272 36.5979 158.04 35.1019 158.04C33.6059 158.04 32.6299 159.272 32.6299 161.088ZM33.6379 161.088C33.6379 159.704 34.1819 158.944 35.1019 158.944C36.0299 158.944 36.5739 159.704 36.5739 161.088C36.5739 162.44 36.0299 163.2 35.1019 163.2C34.1819 163.2 33.6379 162.44 33.6379 161.088ZM39.9986 158.152H38.9746V164H39.9986V162.752L40.9666 161.512L42.4146 164H43.5986L41.6386 160.648L43.5746 158.152H42.3666L39.9986 161.224V158.152Z" fill="#717172"/>
<path d="M18.08 190.76H18.696V190.08C19.768 189.96 20.456 189.288 20.456 188.312C20.456 187.464 19.992 186.968 18.968 186.744L18.696 186.68V184.96C19.112 185.048 19.352 185.328 19.368 185.76H20.36C20.328 184.8 19.704 184.168 18.696 184.064V183.384H18.08V184.064C17.016 184.176 16.312 184.848 16.312 185.784C16.312 186.664 16.816 187.224 17.824 187.44L18.08 187.496V189.2C17.56 189.136 17.264 188.848 17.256 188.392H16.232C16.256 189.368 16.968 190.016 18.08 190.096V190.76ZM18.048 186.536C17.536 186.424 17.312 186.176 17.312 185.752C17.312 185.32 17.6 185.032 18.08 184.952V186.544L18.048 186.536ZM18.752 187.64C19.232 187.744 19.464 187.992 19.464 188.4C19.464 188.808 19.176 189.088 18.696 189.184V187.624L18.752 187.64ZM22.6864 185.072V190H23.6704V184.152H21.4064V185.072H22.6864ZM25.0659 187.088C25.0659 188.896 25.9859 190.104 27.5379 190.104C29.0899 190.104 30.0179 188.896 30.0179 187.088C30.0179 185.272 29.0339 184.04 27.5379 184.04C26.0419 184.04 25.0659 185.272 25.0659 187.088ZM26.0739 187.088C26.0739 185.704 26.6179 184.944 27.5379 184.944C28.4659 184.944 29.0099 185.704 29.0099 187.088C29.0099 188.44 28.4659 189.2 27.5379 189.2C26.6179 189.2 26.0739 188.44 26.0739 187.088ZM31.1065 187.088C31.1065 188.896 32.0265 190.104 33.5785 190.104C35.1305 190.104 36.0585 188.896 36.0585 187.088C36.0585 185.272 35.0745 184.04 33.5785 184.04C32.0825 184.04 31.1065 185.272 31.1065 187.088ZM32.1145 187.088C32.1145 185.704 32.6585 184.944 33.5785 184.944C34.5065 184.944 35.0505 185.704 35.0505 187.088C35.0505 188.44 34.5065 189.2 33.5785 189.2C32.6585 189.2 32.1145 188.44 32.1145 187.088ZM38.4751 184.152H37.4511V190H38.4751V188.752L39.4431 187.512L40.8911 190H42.0751L40.1151 186.648L42.0511 184.152H40.8431L38.4751 187.224V184.152Z" fill="#717172"/>
<line x1="54.9981" y1="83.5542" x2="326.998" y2="82.4999" stroke="#FAFAFA"/>
<line x1="54.9981" y1="135.709" x2="326.998" y2="134.655" stroke="#FAFAFA"/>
<line x1="54.9981" y1="162.608" x2="326.998" y2="161.554" stroke="#FAFAFA"/>
<line x1="54.9982" y1="110.554" x2="326.998" y2="109.554" stroke="#FAFAFA"/>
<rect width="79" height="24" transform="translate(16 15)" fill="#FAFAFA"/>
<path d="M29.35 31V29.82H26.09V27.88H29.01V26.75H26.09V24.87H29.35V23.69H24.81V31H29.35ZM30.6677 28.47C30.6677 30.01 31.5077 31.13 32.9777 31.13C33.7077 31.13 34.3577 30.84 34.6677 30.34V33.29H35.8777V26.06H34.7577L34.6777 26.81C34.3777 26.24 33.7277 25.91 32.9777 25.91C31.5877 25.91 30.6677 26.92 30.6677 28.47ZM31.8877 28.53C31.8877 27.65 32.4077 27.02 33.2577 27.02C34.1077 27.02 34.6577 27.64 34.6577 28.53C34.6577 29.42 34.1077 30.03 33.2577 30.03C32.4077 30.03 31.8877 29.41 31.8877 28.53ZM40.8991 26.06V28.65C40.8991 29.59 40.5291 30.04 39.7591 30.04C39.0791 30.04 38.7091 29.66 38.7091 28.72V26.06H37.4891V29.15C37.4891 30.36 38.1591 31.13 39.2991 31.13C39.9591 31.13 40.5991 30.81 40.8991 30.34L40.9891 31H42.1191V26.06H40.8991ZM44.3892 25.07C44.7892 25.07 45.1192 24.74 45.1192 24.33C45.1192 23.92 44.7892 23.6 44.3892 23.6C43.9692 23.6 43.6392 23.92 43.6392 24.33C43.6392 24.74 43.9692 25.07 44.3892 25.07ZM43.7792 31H44.9992V26.06H43.7792V31ZM48.3397 31V27.08H49.2997V26.06H48.3397V24.52H47.1197V26.06H46.1697V27.08H47.1197V31H48.3397ZM50.0281 33.29C50.2981 33.36 50.5981 33.4 50.9381 33.4C51.7481 33.4 52.2681 33.02 52.6381 32.1L55.0581 26.06H53.7981L52.4581 29.66L51.1881 26.06H49.8981L51.8881 31.21L51.7481 31.58C51.5381 32.16 51.2381 32.27 50.7581 32.27H50.0281V33.29ZM62.5164 31.12C64.2464 31.12 65.5864 30.1 65.8664 28.56H64.5364C64.2964 29.37 63.5364 29.89 62.5464 29.89C61.2064 29.89 60.3464 28.89 60.3464 27.34C60.3464 25.78 61.1964 24.8 62.5464 24.8C63.5164 24.8 64.2464 25.3 64.4964 26.15H65.8464C65.5964 24.58 64.3064 23.57 62.5764 23.57C60.4364 23.57 59.0064 25.08 59.0064 27.35C59.0064 29.64 60.3864 31.12 62.5164 31.12ZM68.4055 31V28.3C68.4055 27.56 68.8555 27.02 69.6255 27.02C70.2455 27.02 70.6555 27.42 70.6555 28.25V31H71.8755V27.96C71.8755 26.68 71.2355 25.91 70.0155 25.91C69.3055 25.91 68.7255 26.22 68.4155 26.7V23.56H67.1855V31H68.4055ZM74.9441 31.13C75.7141 31.13 76.3841 30.78 76.5941 30.27L76.6841 31H77.7541V28C77.7541 26.63 76.9341 25.91 75.6041 25.91C74.2641 25.91 73.3841 26.61 73.3841 27.68H74.4241C74.4241 27.16 74.8241 26.86 75.5441 26.86C76.1641 26.86 76.5641 27.13 76.5641 27.8V27.91L75.0841 28.02C73.9141 28.11 73.2541 28.68 73.2541 29.59C73.2541 30.52 73.8941 31.13 74.9441 31.13ZM75.3441 30.21C74.7941 30.21 74.4941 29.99 74.4941 29.54C74.4941 29.14 74.7841 28.89 75.5441 28.82L76.5741 28.74V29C76.5741 29.76 76.0941 30.21 75.3441 30.21ZM82.4527 26.04C82.2527 25.99 82.0827 25.97 81.9127 25.97C81.2527 25.97 80.7827 26.3 80.5727 26.79L80.5027 26.07H79.3527V31H80.5727V28.6C80.5727 27.64 81.1227 27.17 82.0027 27.17H82.4527V26.04ZM85.5538 31V27.08H86.5138V26.06H85.5538V24.52H84.3338V26.06H83.3838V27.08H84.3338V31H85.5538Z" fill="#717172"/>
<path d="M316 22H324M324 22V30M324 22L316 30L312 26L306 32" stroke="#717172" stroke-width="2" stroke-linecap="round" stroke-linejoin="round"/>
<defs>
<filter id="filter0_d_1468_7269" x="44.5" y="69.7993" width="299" height="132.797" filterUnits="userSpaceOnUse" color-interpolation-filters="sRGB">
<feFlood flood-opacity="0" result="BackgroundImageFix"/>
<feColorMatrix in="SourceAlpha" type="matrix" values="0 0 0 0 0 0 0 0 0 0 0 0 0 0 0 0 0 0 127 0" result="hardAlpha"/>
<feOffset dy="8"/>
<feGaussianBlur stdDeviation="8"/>
<feColorMatrix type="matrix" values="0 0 0 0 0.317647 0 0 0 0 0.643137 0 0 0 0 0.964706 0 0 0 0.48 0"/>
<feBlend mode="normal" in2="BackgroundImageFix" result="effect1_dropShadow_1468_7269"/>
<feBlend mode="normal" in="SourceGraphic" in2="effect1_dropShadow_1468_7269" result="shape"/>
</filter>
</defs>
</svg>
