<svg width="345" height="184" viewBox="0 0 345 184" fill="none" xmlns="http://www.w3.org/2000/svg">
<g clip-path="url(#clip0_1468_7131)">
<rect width="345" height="184" rx="8" fill="url(#paint0_linear_1468_7131)"/>
<path d="M16.508 51V47.724H18.392L19.88 51H21.56L19.892 47.4C20.924 46.98 21.476 46.14 21.476 44.964C21.476 43.236 20.312 42.228 18.32 42.228H14.972V51H16.508ZM16.508 43.596H18.32C19.292 43.596 19.868 44.088 19.868 44.964C19.868 45.852 19.292 46.368 18.32 46.368H16.508V43.596ZM25.4252 51.156C26.9732 51.156 28.0532 50.376 28.3052 49.08H26.9492C26.7812 49.644 26.2532 49.956 25.4492 49.956C24.4772 49.956 23.9252 49.428 23.8172 48.384L28.2812 48.372V47.928C28.2812 46.08 27.1532 44.892 25.3772 44.892C23.6372 44.892 22.4252 46.176 22.4252 48.036C22.4252 49.872 23.6612 51.156 25.4252 51.156ZM25.3892 46.092C26.2652 46.092 26.8292 46.632 26.8292 47.448H23.8532C23.9972 46.56 24.5252 46.092 25.3892 46.092ZM31.3169 51V47.808C31.3169 46.848 31.8689 46.224 32.7689 46.224C33.5249 46.224 34.0169 46.704 34.0169 47.7V51H35.4809V47.352C35.4809 45.816 34.7129 44.892 33.2249 44.892C32.4209 44.892 31.7009 45.24 31.3289 45.84L31.2089 45.072H29.8529V51H31.3169ZM39.3353 51V46.296H40.4873V45.072H39.3353V43.224H37.8713V45.072H36.7313V46.296H37.8713V51H39.3353ZM43.5263 51.156C44.4503 51.156 45.2543 50.736 45.5063 50.124L45.6143 51H46.8983V47.4C46.8983 45.756 45.9143 44.892 44.3183 44.892C42.7103 44.892 41.6543 45.732 41.6543 47.016H42.9023C42.9023 46.392 43.3823 46.032 44.2463 46.032C44.9903 46.032 45.4703 46.356 45.4703 47.16V47.292L43.6943 47.424C42.2903 47.532 41.4983 48.216 41.4983 49.308C41.4983 50.424 42.2663 51.156 43.5263 51.156ZM44.0063 50.052C43.3463 50.052 42.9863 49.788 42.9863 49.248C42.9863 48.768 43.3343 48.468 44.2463 48.384L45.4823 48.288V48.6C45.4823 49.512 44.9063 50.052 44.0063 50.052ZM50.2125 51V42.072H48.7605V51H50.2125ZM57.5346 42.228H55.9986V51H57.5346V42.228ZM61.127 51V47.808C61.127 46.848 61.679 46.224 62.579 46.224C63.335 46.224 63.827 46.704 63.827 47.7V51H65.291V47.352C65.291 45.816 64.523 44.892 63.035 44.892C62.231 44.892 61.511 45.24 61.139 45.84L61.019 45.072H59.663V51H61.127ZM66.7814 48.024C66.7814 49.908 67.9574 51.156 69.7574 51.156C71.3054 51.156 72.4574 50.208 72.6374 48.828H71.1614C71.0054 49.476 70.4894 49.836 69.7574 49.836C68.8214 49.836 68.2454 49.14 68.2454 48.024C68.2454 46.908 68.8694 46.2 69.8054 46.2C70.5014 46.2 70.9934 46.548 71.1614 47.22H72.6254C72.4694 45.792 71.3654 44.892 69.7454 44.892C67.9934 44.892 66.7814 46.188 66.7814 48.024ZM73.7791 48.024C73.7791 49.872 75.1111 51.144 76.9471 51.144C78.7831 51.144 80.1151 49.872 80.1151 48.024C80.1151 46.176 78.7831 44.904 76.9471 44.904C75.1111 44.904 73.7791 46.176 73.7791 48.024ZM75.2431 48.024C75.2431 46.944 75.9391 46.212 76.9471 46.212C77.9551 46.212 78.6511 46.944 78.6511 48.024C78.6511 49.104 77.9551 49.836 76.9471 49.836C75.9391 49.836 75.2431 49.104 75.2431 48.024ZM83.1395 51V47.64C83.1395 46.68 83.7035 46.224 84.3995 46.224C85.0955 46.224 85.5395 46.668 85.5395 47.496V51H87.0035V47.64C87.0035 46.668 87.5435 46.212 88.2515 46.212C88.9475 46.212 89.4035 46.656 89.4035 47.508V51H90.8555V47.124C90.8555 45.756 90.0635 44.892 88.6235 44.892C87.7235 44.892 87.0275 45.336 86.7275 46.02C86.4155 45.336 85.7915 44.892 84.8915 44.892C84.0395 44.892 83.4395 45.276 83.1395 45.768L83.0195 45.072H81.6755V51H83.1395ZM95.3447 51.156C96.8927 51.156 97.9727 50.376 98.2247 49.08H96.8687C96.7007 49.644 96.1727 49.956 95.3687 49.956C94.3967 49.956 93.8447 49.428 93.7367 48.384L98.2007 48.372V47.928C98.2007 46.08 97.0727 44.892 95.2967 44.892C93.5567 44.892 92.3447 46.176 92.3447 48.036C92.3447 49.872 93.5807 51.156 95.3447 51.156ZM95.3087 46.092C96.1847 46.092 96.7487 46.632 96.7487 47.448H93.7727C93.9167 46.56 94.4447 46.092 95.3087 46.092Z" fill="#FFF1E8"/>
<path d="M23.36 103.42H26.132V100.36C30.956 99.82 34.052 96.796 34.052 92.404C34.052 88.588 31.964 86.356 27.356 85.348L26.132 85.06V77.32C28.004 77.716 29.084 78.976 29.156 80.92H33.62C33.476 76.6 30.668 73.756 26.132 73.288V70.228H23.36V73.288C18.572 73.792 15.404 76.816 15.404 81.028C15.404 84.988 17.672 87.508 22.208 88.48L23.36 88.732V96.4C21.02 96.112 19.688 94.816 19.652 92.764H15.044C15.152 97.156 18.356 100.072 23.36 100.432V103.42ZM23.216 84.412C20.912 83.908 19.904 82.792 19.904 80.884C19.904 78.94 21.2 77.644 23.36 77.284V84.448L23.216 84.412ZM26.384 89.38C28.544 89.848 29.588 90.964 29.588 92.8C29.588 94.636 28.292 95.896 26.132 96.328V89.308L26.384 89.38ZM42.2887 77.824V100H46.7167V73.684H36.5287V77.824H42.2887ZM51.1964 86.896C51.1964 95.032 55.3364 100.468 62.3204 100.468C69.3044 100.468 73.4804 95.032 73.4804 86.896C73.4804 78.724 69.0524 73.18 62.3204 73.18C55.5884 73.18 51.1964 78.724 51.1964 86.896ZM55.7324 86.896C55.7324 80.668 58.1804 77.248 62.3204 77.248C66.4964 77.248 68.9444 80.668 68.9444 86.896C68.9444 92.98 66.4964 96.4 62.3204 96.4C58.1804 96.4 55.7324 92.98 55.7324 86.896ZM81.8665 98.416C81.8665 96.184 80.5705 94.708 78.7705 94.708C77.1505 94.708 76.0345 95.86 76.0345 97.588C76.0345 99.028 77.1865 100.072 78.5905 100.072C79.0225 100.072 79.3465 100 79.6345 99.856C79.6345 101.116 78.4105 102.088 76.7905 102.376V104.14C79.7065 103.78 81.8665 101.404 81.8665 98.416ZM84.4543 86.896C84.4543 95.032 88.5943 100.468 95.5783 100.468C102.562 100.468 106.738 95.032 106.738 86.896C106.738 78.724 102.31 73.18 95.5783 73.18C88.8463 73.18 84.4543 78.724 84.4543 86.896ZM88.9903 86.896C88.9903 80.668 91.4383 77.248 95.5783 77.248C99.7543 77.248 102.202 80.668 102.202 86.896C102.202 92.98 99.7543 96.4 95.5783 96.4C91.4383 96.4 88.9903 92.98 88.9903 86.896ZM109.837 86.896C109.837 95.032 113.977 100.468 120.961 100.468C127.945 100.468 132.121 95.032 132.121 86.896C132.121 78.724 127.693 73.18 120.961 73.18C114.229 73.18 109.837 78.724 109.837 86.896ZM114.373 86.896C114.373 80.668 116.821 77.248 120.961 77.248C125.137 77.248 127.585 80.668 127.585 86.896C127.585 92.98 125.137 96.4 120.961 96.4C116.821 96.4 114.373 92.98 114.373 86.896ZM135.22 86.896C135.22 95.032 139.36 100.468 146.344 100.468C153.328 100.468 157.504 95.032 157.504 86.896C157.504 78.724 153.076 73.18 146.344 73.18C139.612 73.18 135.22 78.724 135.22 86.896ZM139.756 86.896C139.756 80.668 142.204 77.248 146.344 77.248C150.52 77.248 152.968 80.668 152.968 86.896C152.968 92.98 150.52 96.4 146.344 96.4C142.204 96.4 139.756 92.98 139.756 86.896Z" fill="#FFF1E8"/>
<path fill-rule="evenodd" clip-rule="evenodd" d="M372.655 38.3224C372.136 38.1015 371.613 37.8851 371.087 37.6735C327.6 20.1807 278.166 41.253 260.674 84.7399C243.181 128.227 264.253 177.66 307.74 195.153C339.415 207.895 374.246 200.176 397.59 178.237L387.015 173.983C366.595 190.837 337.833 196.281 311.541 185.704C273.272 170.311 254.729 126.809 270.122 88.5406C285.516 50.2722 329.018 31.7286 367.286 47.1222C367.812 47.3339 368.335 47.551 368.854 47.7733L372.655 38.3224Z" fill="#EDEDFF"/>
<path fill-rule="evenodd" clip-rule="evenodd" d="M361.91 61.439C361.541 61.2822 361.17 61.1286 360.797 60.9784C329.921 48.5585 294.823 63.5199 282.403 94.3955C269.983 125.271 284.945 160.369 315.82 172.789C338.31 181.836 363.04 176.355 379.614 160.779L372.106 157.758C357.608 169.724 337.186 173.589 318.519 166.08C291.348 155.15 278.183 124.264 289.112 97.0936C300.042 69.923 330.928 56.757 358.098 67.6865C358.472 67.8368 358.843 67.9909 359.211 68.1487L361.91 61.439Z" fill="#EDEDFF"/>
<path fill-rule="evenodd" clip-rule="evenodd" d="M353.795 78.2958C353.545 78.1897 353.294 78.0857 353.041 77.984C332.167 69.5875 308.439 79.7022 300.043 100.576C291.646 121.45 301.761 145.178 322.635 153.574C337.839 159.69 354.557 155.985 365.762 145.455L360.685 143.412C350.883 151.502 337.077 154.115 324.457 149.038C306.088 141.649 297.187 120.768 304.576 102.4C311.965 84.0308 332.846 75.1298 351.215 82.5188C351.468 82.6208 351.72 82.7253 351.97 82.8324L353.795 78.2958Z" fill="#EDEDFF"/>
<path fill-rule="evenodd" clip-rule="evenodd" d="M307.979 295.983C308.504 295.776 309.028 295.562 309.551 295.344C352.798 277.266 373.201 227.552 355.123 184.305C337.045 141.058 287.331 120.655 244.085 138.733C212.584 151.901 193.203 181.853 191.985 213.865L202.501 209.469C205.207 183.131 221.866 159.06 248.013 148.13C286.07 132.221 329.818 150.176 345.727 188.233C361.635 226.29 343.68 270.038 305.623 285.947C305.1 286.166 304.575 286.378 304.05 286.584L307.979 295.983Z" fill="#EDEDFF"/>
<path fill-rule="evenodd" clip-rule="evenodd" d="M299.399 271.978C299.771 271.831 300.143 271.68 300.515 271.524C331.22 258.689 345.706 223.392 332.871 192.687C320.035 161.982 284.739 147.496 254.033 160.331C231.668 169.68 217.908 190.946 217.043 213.675L224.51 210.553C226.431 191.854 238.258 174.763 256.823 167.003C283.843 155.708 314.904 168.456 326.2 195.476C337.495 222.497 324.747 253.558 297.726 264.853C297.355 265.008 296.982 265.159 296.609 265.306L299.399 271.978Z" fill="#EDEDFF"/>
<path fill-rule="evenodd" clip-rule="evenodd" d="M293.341 254.277C293.594 254.178 293.846 254.075 294.097 253.97C314.855 245.293 324.649 221.43 315.971 200.672C307.294 179.913 283.431 170.12 262.673 178.797C247.553 185.118 238.25 199.495 237.665 214.86L242.715 212.749C244.014 200.107 252.01 188.553 264.56 183.307C282.828 175.671 303.827 184.289 311.463 202.556C319.099 220.824 310.481 241.823 292.213 249.459C291.961 249.564 291.709 249.667 291.456 249.766L293.341 254.277Z" fill="#EDEDFF"/>
</g>
<defs>
<linearGradient id="paint0_linear_1468_7131" x1="440" y1="237" x2="35.5" y2="106.5" gradientUnits="userSpaceOnUse">
<stop stop-color="#CECEFF"/>
<stop offset="1" stop-color="#6F6FFF"/>
</linearGradient>
<clipPath id="clip0_1468_7131">
<rect width="345" height="184" rx="8" fill="white"/>
</clipPath>
</defs>
</svg>
