<svg width="345" height="184" viewBox="0 0 345 184" fill="none" xmlns="http://www.w3.org/2000/svg">
<g clip-path="url(#clip0_1468_7131)">
<rect width="345" height="184" rx="8" fill="url(#paint0_linear_1468_7131)"/>
<path fill-rule="evenodd" clip-rule="evenodd" d="M372.655 38.3224C372.136 38.1015 371.613 37.8851 371.087 37.6735C327.6 20.1807 278.166 41.253 260.674 84.7399C243.181 128.227 264.253 177.66 307.74 195.153C339.415 207.895 374.246 200.176 397.59 178.237L387.015 173.983C366.595 190.837 337.833 196.281 311.541 185.704C273.272 170.311 254.729 126.809 270.122 88.5406C285.516 50.2722 329.018 31.7286 367.286 47.1222C367.812 47.3339 368.335 47.551 368.854 47.7733L372.655 38.3224Z" fill="#EDEDFF"/>
<path fill-rule="evenodd" clip-rule="evenodd" d="M361.91 61.439C361.541 61.2822 361.17 61.1286 360.797 60.9784C329.921 48.5585 294.823 63.5199 282.403 94.3955C269.983 125.271 284.945 160.369 315.82 172.789C338.31 181.836 363.04 176.355 379.614 160.779L372.106 157.758C357.608 169.724 337.186 173.589 318.519 166.08C291.348 155.15 278.183 124.264 289.112 97.0936C300.042 69.923 330.928 56.757 358.098 67.6865C358.472 67.8368 358.843 67.9909 359.211 68.1487L361.91 61.439Z" fill="#EDEDFF"/>
<path fill-rule="evenodd" clip-rule="evenodd" d="M353.795 78.2958C353.545 78.1897 353.294 78.0857 353.041 77.984C332.167 69.5875 308.439 79.7022 300.043 100.576C291.646 121.45 301.761 145.178 322.635 153.574C337.839 159.69 354.557 155.985 365.762 145.455L360.685 143.412C350.883 151.502 337.077 154.115 324.457 149.038C306.088 141.649 297.187 120.768 304.576 102.4C311.965 84.0308 332.846 75.1298 351.215 82.5188C351.468 82.6208 351.72 82.7253 351.97 82.8324L353.795 78.2958Z" fill="#EDEDFF"/>
<path fill-rule="evenodd" clip-rule="evenodd" d="M307.979 295.983C308.504 295.776 309.028 295.562 309.551 295.344C352.798 277.266 373.201 227.552 355.123 184.305C337.045 141.058 287.331 120.655 244.085 138.733C212.584 151.901 193.203 181.853 191.985 213.865L202.501 209.469C205.207 183.131 221.866 159.06 248.013 148.13C286.07 132.221 329.818 150.176 345.727 188.233C361.635 226.29 343.68 270.038 305.623 285.947C305.1 286.166 304.575 286.378 304.05 286.584L307.979 295.983Z" fill="#EDEDFF"/>
<path fill-rule="evenodd" clip-rule="evenodd" d="M299.399 271.978C299.771 271.831 300.143 271.68 300.515 271.524C331.22 258.689 345.706 223.392 332.871 192.687C320.035 161.982 284.739 147.496 254.033 160.331C231.668 169.68 217.908 190.946 217.043 213.675L224.51 210.553C226.431 191.854 238.258 174.763 256.823 167.003C283.843 155.708 314.904 168.456 326.2 195.476C337.495 222.497 324.747 253.558 297.726 264.853C297.355 265.008 296.982 265.159 296.609 265.306L299.399 271.978Z" fill="#EDEDFF"/>
<path fill-rule="evenodd" clip-rule="evenodd" d="M293.341 254.277C293.594 254.178 293.846 254.075 294.097 253.97C314.855 245.293 324.649 221.43 315.971 200.672C307.294 179.913 283.431 170.12 262.673 178.797C247.553 185.118 238.25 199.495 237.665 214.86L242.715 212.749C244.014 200.107 252.01 188.553 264.56 183.307C282.828 175.671 303.827 184.289 311.463 202.556C319.099 220.824 310.481 241.823 292.213 249.459C291.961 249.564 291.709 249.667 291.456 249.766L293.341 254.277Z" fill="#EDEDFF"/>
</g>
<defs>
<linearGradient id="paint0_linear_1468_7131" x1="440" y1="237" x2="35.5" y2="106.5" gradientUnits="userSpaceOnUse">
<stop stop-color="#CECEFF"/>
<stop offset="1" stop-color="#6F6FFF"/>
</linearGradient>
<clipPath id="clip0_1468_7131">
<rect width="345" height="184" rx="8" fill="white"/>
</clipPath>
</defs>
</svg>
