<svg width="207" height="107" viewBox="0 0 207 107" fill="none" xmlns="http://www.w3.org/2000/svg">
<rect width="207" height="107" rx="8" fill="white"/>
<rect width="50" height="50" transform="translate(143 32)" fill="#FAFAFA"/>
<path fill-rule="evenodd" clip-rule="evenodd" d="M168.496 49.1322C168.345 49.0459 168.174 49.0005 168 49.0005C167.826 49.0005 167.655 49.0459 167.504 49.1322L160.504 53.1322C160.313 53.2416 160.163 53.4112 160.078 53.6146C159.993 53.818 159.977 54.0438 160.034 54.2568C160.091 54.4698 160.216 54.6582 160.391 54.7927C160.565 54.9271 160.78 55 161 55.0002V62.0002C160.735 62.0002 160.48 62.1055 160.293 62.2931C160.105 62.4806 160 62.7349 160 63.0002C160 63.2654 160.105 63.5197 160.293 63.7073C160.48 63.8948 160.735 64.0002 161 64.0002H175C175.265 64.0002 175.52 63.8948 175.707 63.7073C175.895 63.5197 176 63.2654 176 63.0002C176 62.7349 175.895 62.4806 175.707 62.2931C175.52 62.1055 175.265 62.0002 175 62.0002V55.0002C175.22 55 175.435 54.9271 175.609 54.7927C175.784 54.6582 175.909 54.4698 175.966 54.2568C176.023 54.0438 176.007 53.818 175.922 53.6146C175.837 53.4112 175.687 53.2416 175.496 53.1322L168.496 49.1322ZM164 56.0002C163.735 56.0002 163.48 56.1055 163.293 56.2931C163.105 56.4806 163 56.7349 163 57.0002V60.0002C163 60.2654 163.105 60.5197 163.293 60.7073C163.48 60.8948 163.735 61.0002 164 61.0002C164.265 61.0002 164.52 60.8948 164.707 60.7073C164.895 60.5197 165 60.2654 165 60.0002V57.0002C165 56.7349 164.895 56.4806 164.707 56.2931C164.52 56.1055 164.265 56.0002 164 56.0002ZM167 57.0002C167 56.7349 167.105 56.4806 167.293 56.2931C167.48 56.1055 167.735 56.0002 168 56.0002C168.265 56.0002 168.52 56.1055 168.707 56.2931C168.895 56.4806 169 56.7349 169 57.0002V60.0002C169 60.2654 168.895 60.5197 168.707 60.7073C168.52 60.8948 168.265 61.0002 168 61.0002C167.735 61.0002 167.48 60.8948 167.293 60.7073C167.105 60.5197 167 60.2654 167 60.0002V57.0002ZM172 56.0002C171.735 56.0002 171.48 56.1055 171.293 56.2931C171.105 56.4806 171 56.7349 171 57.0002V60.0002C171 60.2654 171.105 60.5197 171.293 60.7073C171.48 60.8948 171.735 61.0002 172 61.0002C172.265 61.0002 172.52 60.8948 172.707 60.7073C172.895 60.5197 173 60.2654 173 60.0002V57.0002C173 56.7349 172.895 56.4806 172.707 56.2931C172.52 56.1055 172.265 56.0002 172 56.0002Z" fill="#717172"/>
<path d="M13.204 32.644H15.772V40H17.308V32.644H19.876V31.228H13.204V32.644ZM19.8783 37.024C19.8783 38.872 21.2103 40.144 23.0463 40.144C24.8823 40.144 26.2143 38.872 26.2143 37.024C26.2143 35.176 24.8823 33.904 23.0463 33.904C21.2103 33.904 19.8783 35.176 19.8783 37.024ZM21.3423 37.024C21.3423 35.944 22.0383 35.212 23.0463 35.212C24.0543 35.212 24.7503 35.944 24.7503 37.024C24.7503 38.104 24.0543 38.836 23.0463 38.836C22.0383 38.836 21.3423 38.104 21.3423 37.024ZM29.7322 40V35.296H30.8842V34.072H29.7322V32.224H28.2682V34.072H27.1282V35.296H28.2682V40H29.7322ZM33.9231 40.156C34.8471 40.156 35.6511 39.736 35.9031 39.124L36.0111 40H37.2951V36.4C37.2951 34.756 36.3111 33.892 34.7151 33.892C33.1071 33.892 32.0511 34.732 32.0511 36.016H33.2991C33.2991 35.392 33.7791 35.032 34.6431 35.032C35.3871 35.032 35.8671 35.356 35.8671 36.16V36.292L34.0911 36.424C32.6871 36.532 31.8951 37.216 31.8951 38.308C31.8951 39.424 32.6631 40.156 33.9231 40.156ZM34.4031 39.052C33.7431 39.052 33.3831 38.788 33.3831 38.248C33.3831 37.768 33.7311 37.468 34.6431 37.384L35.8791 37.288V37.6C35.8791 38.512 35.3031 39.052 34.4031 39.052ZM40.6093 40V31.072H39.1573V40H40.6093ZM47.1514 40L47.8594 37.972H51.1354L51.8434 40H53.4634L50.2954 31.228H48.7234L45.5554 40H47.1514ZM49.3114 33.844C49.3954 33.604 49.4674 33.34 49.5034 33.172C49.5274 33.352 49.6114 33.616 49.6834 33.844L50.6914 36.676H48.3154L49.3114 33.844ZM54.2914 38.2C54.2914 39.364 55.2274 40.156 56.7034 40.156C58.1674 40.156 59.1874 39.412 59.1874 38.212C59.1874 37.3 58.6834 36.844 57.6874 36.616L56.6194 36.364C56.1154 36.244 55.8514 36.028 55.8514 35.692C55.8514 35.248 56.1874 34.984 56.7634 34.984C57.3274 34.984 57.6634 35.308 57.6754 35.812H59.0674C59.0554 34.66 58.1554 33.892 56.8234 33.892C55.4554 33.892 54.4714 34.588 54.4714 35.752C54.4714 36.7 54.9874 37.204 56.0554 37.444L57.1234 37.696C57.6514 37.816 57.8074 38.032 57.8074 38.332C57.8074 38.764 57.4354 39.04 56.7514 39.04C56.0794 39.04 55.6954 38.716 55.6834 38.2H54.2914ZM60.2461 38.2C60.2461 39.364 61.1821 40.156 62.6581 40.156C64.1221 40.156 65.1421 39.412 65.1421 38.212C65.1421 37.3 64.6381 36.844 63.6421 36.616L62.5741 36.364C62.0701 36.244 61.8061 36.028 61.8061 35.692C61.8061 35.248 62.1421 34.984 62.7181 34.984C63.2821 34.984 63.6181 35.308 63.6301 35.812H65.0221C65.0101 34.66 64.1101 33.892 62.7781 33.892C61.4101 33.892 60.4261 34.588 60.4261 35.752C60.4261 36.7 60.9421 37.204 62.0101 37.444L63.0781 37.696C63.6061 37.816 63.7621 38.032 63.7621 38.332C63.7621 38.764 63.3901 39.04 62.7061 39.04C62.0341 39.04 61.6501 38.716 61.6381 38.2H60.2461ZM69.3088 40.156C70.8568 40.156 71.9368 39.376 72.1888 38.08H70.8328C70.6648 38.644 70.1368 38.956 69.3328 38.956C68.3608 38.956 67.8088 38.428 67.7008 37.384L72.1648 37.372V36.928C72.1648 35.08 71.0368 33.892 69.2608 33.892C67.5208 33.892 66.3088 35.176 66.3088 37.036C66.3088 38.872 67.5448 40.156 69.3088 40.156ZM69.2728 35.092C70.1488 35.092 70.7128 35.632 70.7128 36.448H67.7368C67.8808 35.56 68.4088 35.092 69.2728 35.092ZM75.6939 40V35.296H76.8459V34.072H75.6939V32.224H74.2299V34.072H73.0899V35.296H74.2299V40H75.6939ZM82.5224 32.884C83.0024 32.884 83.3984 32.488 83.3984 31.996C83.3984 31.504 83.0024 31.12 82.5224 31.12C82.0184 31.12 81.6224 31.504 81.6224 31.996C81.6224 32.488 82.0184 32.884 82.5224 32.884ZM81.7904 40H83.2544V34.072H81.7904V40ZM86.6309 40V36.808C86.6309 35.848 87.1829 35.224 88.0829 35.224C88.8389 35.224 89.3309 35.704 89.3309 36.7V40H90.7949V36.352C90.7949 34.816 90.0269 33.892 88.5389 33.892C87.7349 33.892 87.0149 34.24 86.6429 34.84L86.5229 34.072H85.1669V40H86.6309ZM94.1962 40H95.6362L98.1082 34.072H96.5962L95.5162 36.796C95.2642 37.444 95.0482 38.068 94.9642 38.44C94.8922 38.116 94.6882 37.504 94.4362 36.796L93.4042 34.072H91.8442L94.1962 40ZM101.709 40.156C103.257 40.156 104.337 39.376 104.589 38.08H103.233C103.065 38.644 102.537 38.956 101.733 38.956C100.761 38.956 100.209 38.428 100.101 37.384L104.565 37.372V36.928C104.565 35.08 103.437 33.892 101.661 33.892C99.9208 33.892 98.7088 35.176 98.7088 37.036C98.7088 38.872 99.9448 40.156 101.709 40.156ZM101.673 35.092C102.549 35.092 103.113 35.632 103.113 36.448H100.137C100.281 35.56 100.809 35.092 101.673 35.092ZM105.68 38.2C105.68 39.364 106.616 40.156 108.092 40.156C109.556 40.156 110.576 39.412 110.576 38.212C110.576 37.3 110.072 36.844 109.076 36.616L108.008 36.364C107.504 36.244 107.24 36.028 107.24 35.692C107.24 35.248 107.576 34.984 108.152 34.984C108.716 34.984 109.052 35.308 109.064 35.812H110.456C110.444 34.66 109.544 33.892 108.212 33.892C106.844 33.892 105.86 34.588 105.86 35.752C105.86 36.7 106.376 37.204 107.444 37.444L108.512 37.696C109.04 37.816 109.196 38.032 109.196 38.332C109.196 38.764 108.824 39.04 108.14 39.04C107.468 39.04 107.084 38.716 107.072 38.2H105.68ZM114.107 40V35.296H115.259V34.072H114.107V32.224H112.643V34.072H111.503V35.296H112.643V40H114.107ZM119.163 40.156C120.711 40.156 121.791 39.376 122.043 38.08H120.687C120.519 38.644 119.991 38.956 119.187 38.956C118.215 38.956 117.663 38.428 117.555 37.384L122.019 37.372V36.928C122.019 35.08 120.891 33.892 119.115 33.892C117.375 33.892 116.163 35.176 116.163 37.036C116.163 38.872 117.399 40.156 119.163 40.156ZM119.127 35.092C120.003 35.092 120.567 35.632 120.567 36.448H117.591C117.735 35.56 118.263 35.092 119.127 35.092ZM126.026 40.156C126.926 40.156 127.694 39.76 128.054 39.076L128.15 40H129.494V31.072H128.042V34.828C127.67 34.24 126.938 33.892 126.11 33.892C124.322 33.892 123.242 35.212 123.242 37.06C123.242 38.896 124.31 40.156 126.026 40.156ZM126.35 38.812C125.33 38.812 124.706 38.068 124.706 37.012C124.706 35.956 125.33 35.2 126.35 35.2C127.37 35.2 128.03 35.944 128.03 37.012C128.03 38.08 127.37 38.812 126.35 38.812Z" fill="#717172"/>
<path d="M22.44 79.384C27.656 79.384 31.208 75.928 31.208 70.872C31.208 66.264 28.104 63.096 23.432 63.096C21.832 63.096 20.424 63.512 19.304 64.248L20.552 59.384H29.8V55.608H17.608L14.728 67.864L18.344 68.632C19.176 67.416 20.808 66.52 22.6 66.52C25.416 66.52 27.048 68.376 27.048 71.096C27.048 73.944 25.288 75.736 22.536 75.736C19.944 75.736 18.376 74.168 18.376 71.512H14.312C14.312 76.248 17.544 79.384 22.44 79.384ZM33.5635 67.352C33.5635 74.584 37.2435 79.416 43.4515 79.416C49.6595 79.416 53.3715 74.584 53.3715 67.352C53.3715 60.088 49.4355 55.16 43.4515 55.16C37.4675 55.16 33.5635 60.088 33.5635 67.352ZM37.5955 67.352C37.5955 61.816 39.7715 58.776 43.4515 58.776C47.1635 58.776 49.3395 61.816 49.3395 67.352C49.3395 72.76 47.1635 75.8 43.4515 75.8C39.7715 75.8 37.5955 72.76 37.5955 67.352Z" fill="#717172"/>
</svg>
