<svg width="207" height="107" viewBox="0 0 207 107" fill="none" xmlns="http://www.w3.org/2000/svg">
<rect width="207" height="107" rx="8" fill="white"/>
<rect width="50" height="50" transform="translate(143 32)" fill="#FAFAFA"/>
<path d="M166.433 54.4179C166.588 54.3149 166.779 54.2219 167 54.1509V55.8489C166.8 55.7861 166.609 55.6963 166.433 55.5819C166.07 55.3399 166 55.1139 166 54.9999C166 54.8859 166.07 54.6599 166.433 54.4179ZM169 59.8489V58.1509C169.22 58.2219 169.412 58.3149 169.567 58.4179C169.931 58.6609 170 58.8859 170 58.9999C170 59.1139 169.93 59.3399 169.567 59.5819C169.391 59.6963 169.2 59.7861 169 59.8489Z" fill="#717172"/>
<path fill-rule="evenodd" clip-rule="evenodd" d="M168 65C170.122 65 172.157 64.1571 173.657 62.6569C175.157 61.1566 176 59.1217 176 57C176 54.8783 175.157 52.8434 173.657 51.3431C172.157 49.8429 170.122 49 168 49C165.878 49 163.843 49.8429 162.343 51.3431C160.843 52.8434 160 54.8783 160 57C160 59.1217 160.843 61.1566 162.343 62.6569C163.843 64.1571 165.878 65 168 65ZM169 52C169 51.7348 168.895 51.4804 168.707 51.2929C168.52 51.1054 168.265 51 168 51C167.735 51 167.48 51.1054 167.293 51.2929C167.105 51.4804 167 51.7348 167 52V52.092C166.403 52.1983 165.833 52.4234 165.324 52.754C164.602 53.234 164 54.009 164 55C164 55.99 164.602 56.765 165.324 57.246C165.804 57.566 166.378 57.791 167 57.908V59.849C166.609 59.722 166.32 59.532 166.157 59.345C166.072 59.2412 165.968 59.1554 165.849 59.0928C165.731 59.0302 165.601 58.992 165.468 58.9804C165.334 58.9689 165.2 58.9843 165.073 59.0257C164.945 59.0671 164.828 59.1336 164.726 59.2214C164.625 59.3091 164.543 59.4163 164.484 59.5365C164.425 59.6568 164.391 59.7876 164.383 59.9214C164.376 60.0551 164.395 60.1889 164.441 60.3149C164.486 60.441 164.556 60.5566 164.647 60.655C165.209 61.304 166.06 61.731 167 61.908V62C167 62.2652 167.105 62.5196 167.293 62.7071C167.48 62.8946 167.735 63 168 63C168.265 63 168.52 62.8946 168.707 62.7071C168.895 62.5196 169 62.2652 169 62V61.908C169.597 61.8017 170.167 61.5766 170.676 61.246C171.398 60.766 172 59.991 172 59C172 58.01 171.398 57.235 170.676 56.754C170.167 56.4234 169.597 56.1983 169 56.092V54.151C169.391 54.278 169.68 54.468 169.843 54.655C169.928 54.7563 170.033 54.8396 170.151 54.9002C170.269 54.9607 170.398 54.9972 170.53 55.0075C170.662 55.0178 170.795 55.0018 170.92 54.9604C171.046 54.9189 171.163 54.8529 171.263 54.7661C171.363 54.6793 171.445 54.5735 171.504 54.4548C171.562 54.3361 171.597 54.2069 171.606 54.0747C171.614 53.9424 171.596 53.8098 171.553 53.6846C171.51 53.5593 171.442 53.4439 171.354 53.345C170.791 52.696 169.941 52.269 169 52.092V52Z" fill="#717172"/>
<path d="M13.204 32.644H15.772V40H17.308V32.644H19.876V31.228H13.204V32.644ZM19.8783 37.024C19.8783 38.872 21.2103 40.144 23.0463 40.144C24.8823 40.144 26.2143 38.872 26.2143 37.024C26.2143 35.176 24.8823 33.904 23.0463 33.904C21.2103 33.904 19.8783 35.176 19.8783 37.024ZM21.3423 37.024C21.3423 35.944 22.0383 35.212 23.0463 35.212C24.0543 35.212 24.7503 35.944 24.7503 37.024C24.7503 38.104 24.0543 38.836 23.0463 38.836C22.0383 38.836 21.3423 38.104 21.3423 37.024ZM29.7322 40V35.296H30.8842V34.072H29.7322V32.224H28.2682V34.072H27.1282V35.296H28.2682V40H29.7322ZM33.9231 40.156C34.8471 40.156 35.6511 39.736 35.9031 39.124L36.0111 40H37.2951V36.4C37.2951 34.756 36.3111 33.892 34.7151 33.892C33.1071 33.892 32.0511 34.732 32.0511 36.016H33.2991C33.2991 35.392 33.7791 35.032 34.6431 35.032C35.3871 35.032 35.8671 35.356 35.8671 36.16V36.292L34.0911 36.424C32.6871 36.532 31.8951 37.216 31.8951 38.308C31.8951 39.424 32.6631 40.156 33.9231 40.156ZM34.4031 39.052C33.7431 39.052 33.3831 38.788 33.3831 38.248C33.3831 37.768 33.7311 37.468 34.6431 37.384L35.8791 37.288V37.6C35.8791 38.512 35.3031 39.052 34.4031 39.052ZM40.6093 40V31.072H39.1573V40H40.6093ZM47.1514 40L47.8594 37.972H51.1354L51.8434 40H53.4634L50.2954 31.228H48.7234L45.5554 40H47.1514ZM49.3114 33.844C49.3954 33.604 49.4674 33.34 49.5034 33.172C49.5274 33.352 49.6114 33.616 49.6834 33.844L50.6914 36.676H48.3154L49.3114 33.844ZM54.2914 38.2C54.2914 39.364 55.2274 40.156 56.7034 40.156C58.1674 40.156 59.1874 39.412 59.1874 38.212C59.1874 37.3 58.6834 36.844 57.6874 36.616L56.6194 36.364C56.1154 36.244 55.8514 36.028 55.8514 35.692C55.8514 35.248 56.1874 34.984 56.7634 34.984C57.3274 34.984 57.6634 35.308 57.6754 35.812H59.0674C59.0554 34.66 58.1554 33.892 56.8234 33.892C55.4554 33.892 54.4714 34.588 54.4714 35.752C54.4714 36.7 54.9874 37.204 56.0554 37.444L57.1234 37.696C57.6514 37.816 57.8074 38.032 57.8074 38.332C57.8074 38.764 57.4354 39.04 56.7514 39.04C56.0794 39.04 55.6954 38.716 55.6834 38.2H54.2914ZM60.2461 38.2C60.2461 39.364 61.1821 40.156 62.6581 40.156C64.1221 40.156 65.1421 39.412 65.1421 38.212C65.1421 37.3 64.6381 36.844 63.6421 36.616L62.5741 36.364C62.0701 36.244 61.8061 36.028 61.8061 35.692C61.8061 35.248 62.1421 34.984 62.7181 34.984C63.2821 34.984 63.6181 35.308 63.6301 35.812H65.0221C65.0101 34.66 64.1101 33.892 62.7781 33.892C61.4101 33.892 60.4261 34.588 60.4261 35.752C60.4261 36.7 60.9421 37.204 62.0101 37.444L63.0781 37.696C63.6061 37.816 63.7621 38.032 63.7621 38.332C63.7621 38.764 63.3901 39.04 62.7061 39.04C62.0341 39.04 61.6501 38.716 61.6381 38.2H60.2461ZM69.3088 40.156C70.8568 40.156 71.9368 39.376 72.1888 38.08H70.8328C70.6648 38.644 70.1368 38.956 69.3328 38.956C68.3608 38.956 67.8088 38.428 67.7008 37.384L72.1648 37.372V36.928C72.1648 35.08 71.0368 33.892 69.2608 33.892C67.5208 33.892 66.3088 35.176 66.3088 37.036C66.3088 38.872 67.5448 40.156 69.3088 40.156ZM69.2728 35.092C70.1488 35.092 70.7128 35.632 70.7128 36.448H67.7368C67.8808 35.56 68.4088 35.092 69.2728 35.092ZM75.6939 40V35.296H76.8459V34.072H75.6939V32.224H74.2299V34.072H73.0899V35.296H74.2299V40H75.6939ZM81.3344 38.2C81.3344 39.364 82.2704 40.156 83.7464 40.156C85.2104 40.156 86.2304 39.412 86.2304 38.212C86.2304 37.3 85.7264 36.844 84.7304 36.616L83.6624 36.364C83.1584 36.244 82.8944 36.028 82.8944 35.692C82.8944 35.248 83.2304 34.984 83.8064 34.984C84.3704 34.984 84.7064 35.308 84.7184 35.812H86.1104C86.0984 34.66 85.1984 33.892 83.8664 33.892C82.4984 33.892 81.5144 34.588 81.5144 35.752C81.5144 36.7 82.0304 37.204 83.0984 37.444L84.1664 37.696C84.6944 37.816 84.8504 38.032 84.8504 38.332C84.8504 38.764 84.4784 39.04 83.7944 39.04C83.1224 39.04 82.7384 38.716 82.7264 38.2H81.3344ZM87.3971 37.024C87.3971 38.872 88.7291 40.144 90.5651 40.144C92.4011 40.144 93.7331 38.872 93.7331 37.024C93.7331 35.176 92.4011 33.904 90.5651 33.904C88.7291 33.904 87.3971 35.176 87.3971 37.024ZM88.8611 37.024C88.8611 35.944 89.5571 35.212 90.5651 35.212C91.5731 35.212 92.2691 35.944 92.2691 37.024C92.2691 38.104 91.5731 38.836 90.5651 38.836C89.5571 38.836 88.8611 38.104 88.8611 37.024ZM96.7695 40V31.072H95.3175V40H96.7695ZM101.141 40.156C102.041 40.156 102.809 39.76 103.169 39.076L103.265 40H104.609V31.072H103.157V34.828C102.785 34.24 102.053 33.892 101.225 33.892C99.4372 33.892 98.3572 35.212 98.3572 37.06C98.3572 38.896 99.4252 40.156 101.141 40.156ZM101.465 38.812C100.445 38.812 99.8212 38.068 99.8212 37.012C99.8212 35.956 100.445 35.2 101.465 35.2C102.485 35.2 103.145 35.944 103.145 37.012C103.145 38.08 102.485 38.812 101.465 38.812Z" fill="#717172"/>
<path d="M30.696 78.968V75.16H20.968L25.192 71.544C28.744 68.504 30.536 66.04 30.536 62.776C30.536 58.04 27.432 55.192 22.44 55.192C17.48 55.192 14.216 58.52 14.184 63.64H18.248C18.28 60.632 19.88 58.84 22.44 58.84C24.904 58.84 26.344 60.344 26.344 63C26.344 65.24 25.288 66.776 22.12 69.464L14.472 75.928V79L30.696 78.968ZM33.1878 72.376C33.1878 76.632 36.6758 79.384 42.0838 79.384C47.5238 79.384 51.0118 76.6 51.0118 72.376C51.0118 69.56 49.4118 67.288 46.9478 66.424C49.0278 65.56 50.1798 63.8 50.1798 61.528C50.1798 57.72 46.9478 55.192 42.1478 55.192C37.3158 55.192 34.0198 57.752 34.0198 61.464C34.0198 63.736 35.1398 65.496 37.1878 66.424C34.7558 67.352 33.1878 69.592 33.1878 72.376ZM37.7318 61.816C37.7318 59.896 39.4278 58.68 42.0838 58.68C44.7078 58.68 46.3718 59.896 46.3718 61.848C46.3718 63.8 44.7078 65.016 42.0838 65.016C39.4278 65.016 37.7318 63.768 37.7318 61.816ZM37.1878 72.088C37.1878 69.816 39.0758 68.408 42.0838 68.408C45.0918 68.408 46.9798 69.816 46.9798 72.088C46.9798 74.36 45.0918 75.768 42.1158 75.768C39.0758 75.768 37.1878 74.36 37.1878 72.088Z" fill="#717172"/>
</svg>
