<svg width="44" height="44" viewBox="0 0 44 44" fill="none" xmlns="http://www.w3.org/2000/svg">
<path d="M27.3904 9.51496C28.0835 8.71614 28.612 7.78827 28.9455 6.78464C29.279 5.78101 29.4109 4.72139 29.3338 3.66663C27.206 3.83839 25.2308 4.83915 23.8338 6.45329C23.1648 7.22691 22.6578 8.1269 22.3429 9.09997C22.028 10.073 21.9116 11.0994 22.0004 12.1183C23.0384 12.1269 24.0644 11.8966 24.999 11.4452C25.9337 10.9938 26.7519 10.3333 27.3904 9.51496ZM32.0104 23.155C32.0227 21.7501 32.3928 20.3716 33.0856 19.1495C33.7785 17.9274 34.7713 16.9019 35.9704 16.17C35.2137 15.0796 34.2133 14.1805 33.0486 13.544C31.8838 12.9076 30.5869 12.5512 29.2604 12.5033C26.4004 12.21 23.7604 14.1716 22.2388 14.1716C20.7171 14.1716 18.5721 12.54 16.1888 12.5766C14.6307 12.628 13.1125 13.0822 11.7823 13.8951C10.452 14.708 9.35523 15.8518 8.59878 17.215C5.37211 22.825 7.77378 31.1666 11.0004 35.695C12.4671 37.9133 14.3004 40.425 16.7204 40.3333C19.1404 40.2416 19.9288 38.83 22.7338 38.83C25.5388 38.83 26.4004 40.3333 28.7838 40.2783C31.1671 40.2233 32.8538 38.005 34.3938 35.7866C35.4847 34.1761 36.3369 32.4162 36.9238 30.5616C35.4708 29.942 34.2312 28.9103 33.358 27.594C32.4848 26.2777 32.0164 24.7345 32.0104 23.155Z" fill="black"/>
</svg>
