<svg width="1240" height="488" viewBox="0 0 1240 488" fill="none" xmlns="http://www.w3.org/2000/svg">
<g clip-path="url(#clip0_1217_5314)">
<rect width="1240" height="488" fill="black"/>
<path fill-rule="evenodd" clip-rule="evenodd" d="M-110.628 532.747C-110.011 533.529 -109.385 534.307 -108.75 535.08C-56.2777 598.997 38.0747 608.275 101.992 555.802C165.909 503.329 175.186 408.977 122.713 345.06C84.493 298.504 24.0533 280.936 -30.6598 295.106L-17.9005 310.648C27.9791 301.87 77.1004 317.817 108.825 356.461C155.001 412.708 146.837 495.738 90.5901 541.914C34.3433 588.09 -48.6868 579.926 -94.8627 523.679C-95.4977 522.905 -96.1225 522.127 -96.737 521.343L-110.628 532.747Z" fill="#424245"/>
<path fill-rule="evenodd" clip-rule="evenodd" d="M-74.4129 506.079C-73.9751 506.634 -73.5308 507.186 -73.0802 507.735C-35.8246 553.116 31.1655 559.703 76.5465 522.448C121.928 485.192 128.515 418.202 91.259 372.821C64.1225 339.766 21.2103 327.293 -17.636 337.353L-8.57644 348.389C23.9978 342.156 58.8735 353.479 81.3979 380.916C114.183 420.852 108.386 479.803 68.451 512.588C28.5157 545.373 -30.4356 539.576 -63.2205 499.641C-63.6714 499.092 -64.1149 498.539 -64.5512 497.983L-74.4129 506.079Z" fill="#424245"/>
<path fill-rule="evenodd" clip-rule="evenodd" d="M-47.5713 486.87C-47.275 487.246 -46.9743 487.619 -46.6693 487.991C-21.4824 518.671 23.8067 523.124 54.4868 497.937C85.1669 472.751 89.6201 427.461 64.4333 396.781C46.0876 374.434 17.0769 366.002 -9.18526 372.803L-3.05855 380.266C18.9635 376.053 42.5415 383.708 57.7694 402.257C79.9338 429.255 76.0151 469.11 49.0166 491.274C22.018 513.438 -17.8364 509.52 -40.0008 482.521C-40.3067 482.149 -40.6076 481.773 -40.9035 481.396L-47.5713 486.87Z" fill="#424245"/>
<path fill-rule="evenodd" clip-rule="evenodd" d="M658.689 641.371C659.042 640.439 659.386 639.502 659.722 638.559C687.477 560.659 646.826 475.009 568.926 447.254C491.026 419.5 405.376 460.151 377.621 538.051C357.405 594.792 373.481 655.645 413.81 695.242L420.559 676.3C389.401 641.497 377.767 591.18 394.547 544.081C418.971 475.529 494.344 439.757 562.896 464.181C631.448 488.605 667.22 563.977 642.796 632.529C642.46 633.472 642.115 634.408 641.76 635.339L658.689 641.371Z" fill="#424245"/>
<path fill-rule="evenodd" clip-rule="evenodd" d="M617.176 624.067C617.426 623.406 617.671 622.741 617.909 622.072C637.615 566.763 608.753 505.951 553.444 486.245C498.135 466.539 437.323 495.401 417.617 550.71C403.264 590.997 414.678 634.203 443.311 662.316L448.103 648.867C425.982 624.157 417.722 588.432 429.636 554.992C446.977 506.32 500.491 480.922 549.163 498.263C597.835 515.604 623.234 569.118 605.893 617.79C605.654 618.459 605.409 619.124 605.157 619.785L617.176 624.067Z" fill="#424245"/>
<path fill-rule="evenodd" clip-rule="evenodd" d="M277.023 -70.2576C276.582 -68.7393 276.155 -67.2134 275.743 -65.6799C241.643 61.0589 316.742 191.444 443.481 225.544C570.22 259.643 700.605 184.544 734.705 57.8053C759.542 -34.5098 726.445 -128.76 657.655 -186.325L649.363 -155.507C703.04 -104.371 727.783 -26.2303 707.166 50.3961C677.159 161.926 562.42 228.013 450.89 198.006C339.36 167.998 273.272 53.2593 303.28 -58.2709C303.693 -59.8049 304.121 -61.3303 304.566 -62.8469L277.023 -70.2576Z" fill="#424245"/>
<path fill-rule="evenodd" clip-rule="evenodd" d="M344.878 -48.1102C344.565 -47.0325 344.262 -45.9493 343.969 -44.8608C319.758 45.1238 373.079 137.697 463.063 161.908C553.048 186.119 645.621 132.798 669.832 42.8137C687.467 -22.73 663.968 -89.6472 615.127 -130.519L609.24 -108.637C647.349 -72.3306 664.916 -16.851 650.279 37.5532C628.973 116.74 547.509 163.662 468.322 142.356C389.136 121.051 342.214 39.586 363.519 -39.6004C363.812 -40.6894 364.117 -41.7723 364.432 -42.849L344.878 -48.1102Z" fill="#424245"/>
<path fill-rule="evenodd" clip-rule="evenodd" d="M394.452 -31.1812C394.24 -30.4518 394.035 -29.7187 393.837 -28.982C377.469 31.8526 413.516 94.4375 474.351 110.805C535.186 127.173 597.771 91.1255 614.138 30.2909C626.06 -14.0199 610.174 -59.2593 577.156 -86.891L573.174 -72.0925C598.938 -47.5472 610.814 -10.04 600.919 26.7402C586.515 80.2747 531.44 111.997 477.906 97.5929C424.371 83.1892 392.649 28.1145 407.053 -25.42C407.252 -26.1588 407.458 -26.8936 407.673 -27.6241L394.452 -31.1812Z" fill="#424245"/>
<path fill-rule="evenodd" clip-rule="evenodd" d="M771.355 621.161C772.461 622.564 773.584 623.959 774.723 625.346C868.854 740.007 1038.11 756.65 1152.77 662.519C1267.44 568.388 1284.08 399.129 1189.95 284.468C1121.38 200.95 1012.96 169.436 914.81 194.854L937.699 222.735C1020 206.988 1108.12 235.597 1165.03 304.921C1247.87 405.822 1233.22 554.771 1132.32 637.606C1031.42 720.441 882.471 705.795 799.636 604.894C798.496 603.506 797.376 602.109 796.273 600.704L771.355 621.161Z" fill="#424245"/>
<path fill-rule="evenodd" clip-rule="evenodd" d="M836.322 573.321C837.107 574.317 837.904 575.307 838.713 576.292C905.546 657.701 1025.72 669.518 1107.13 602.685C1188.54 535.852 1200.36 415.678 1133.52 334.268C1084.84 274.971 1007.86 252.596 938.175 270.643L954.427 290.439C1012.86 279.26 1075.43 299.572 1115.83 348.791C1174.65 420.432 1164.25 526.185 1092.61 584.998C1020.97 643.811 915.213 633.412 856.4 561.772C855.591 560.787 854.796 559.796 854.013 558.798L836.322 573.321Z" fill="#424245"/>
<path fill-rule="evenodd" clip-rule="evenodd" d="M884.474 538.862C885.005 539.536 885.544 540.206 886.092 540.873C931.274 595.91 1012.52 603.899 1067.56 558.716C1122.59 513.533 1130.58 432.288 1085.4 377.251C1052.49 337.163 1000.45 322.036 953.335 334.236L964.326 347.624C1003.83 340.066 1046.13 353.798 1073.44 387.073C1113.21 435.506 1106.18 507.001 1057.74 546.762C1009.31 586.523 937.815 579.493 898.054 531.06C897.505 530.392 896.966 529.719 896.435 529.042L884.474 538.862Z" fill="#424245"/>
</g>
<defs>
<clipPath id="clip0_1217_5314">
<rect width="1240" height="488" fill="white"/>
</clipPath>
</defs>
</svg>
