<svg width="804" height="429" viewBox="0 0 804 429" fill="none" xmlns="http://www.w3.org/2000/svg">
<g filter="url(#filter0_d_281_2231)">
<g clip-path="url(#clip0_281_2231)">
<rect x="4" width="796" height="421" rx="8" fill="#0A0400"/>
<g filter="url(#filter1_b_281_2231)">
<rect x="611" y="359.912" width="72" height="72" rx="10" transform="rotate(-45 611 359.912)" fill="#0A0400"/>
<rect x="610.293" y="359.912" width="73" height="73" rx="10.5" transform="rotate(-45 610.293 359.912)" stroke="#3B1A03"/>
</g>
<g filter="url(#filter2_b_281_2231)">
<rect x="749" y="213.912" width="72" height="72" rx="10" transform="rotate(-45 749 213.912)" fill="#0A0400"/>
<rect x="748.293" y="213.912" width="73" height="73" rx="10.5" transform="rotate(-45 748.293 213.912)" stroke="#3B1A03"/>
</g>
<g filter="url(#filter3_b_281_2231)">
<rect x="683" y="290.912" width="72" height="72" rx="10" transform="rotate(-45 683 290.912)" fill="#0A0400"/>
<rect x="682.293" y="290.912" width="73" height="73" rx="10.5" transform="rotate(-45 682.293 290.912)" stroke="#3B1A03"/>
</g>
<g filter="url(#filter4_b_281_2231)">
<rect x="742" y="359.912" width="72" height="72" rx="10" transform="rotate(-45 742 359.912)" fill="#0A0400"/>
<rect x="741.293" y="359.912" width="73" height="73" rx="10.5" transform="rotate(-45 741.293 359.912)" stroke="#3B1A03"/>
</g>
<g filter="url(#filter5_b_281_2231)">
<rect x="742" y="85.9116" width="72" height="72" rx="10" transform="rotate(-45 742 85.9116)" fill="#0A0400"/>
<rect x="741.293" y="85.9116" width="73" height="73" rx="10.5" transform="rotate(-45 741.293 85.9116)" stroke="#3B1A03"/>
</g>
<g filter="url(#filter6_b_281_2231)">
<rect x="683" y="151.912" width="72" height="72" rx="10" transform="rotate(-45 683 151.912)" fill="#0A0400"/>
<rect x="682.293" y="151.912" width="73" height="73" rx="10.5" transform="rotate(-45 682.293 151.912)" stroke="#3B1A03"/>
</g>
<g filter="url(#filter7_b_281_2231)">
<rect x="625" y="217.912" width="72" height="72" rx="10" transform="rotate(-45 625 217.912)" fill="#0A0400"/>
<rect x="624.293" y="217.912" width="73" height="73" rx="10.5" transform="rotate(-45 624.293 217.912)" stroke="#3B1A03"/>
</g>
<g filter="url(#filter8_b_281_2231)">
<rect x="548" y="423.912" width="72" height="72" rx="10" transform="rotate(-45 548 423.912)" fill="#0A0400"/>
<rect x="547.293" y="423.912" width="73" height="73" rx="10.5" transform="rotate(-45 547.293 423.912)" stroke="#3B1A03"/>
</g>
<g filter="url(#filter9_b_281_2231)">
<rect x="676" y="423.912" width="72" height="72" rx="10" transform="rotate(-45 676 423.912)" fill="#0A0400"/>
<rect x="675.293" y="423.912" width="73" height="73" rx="10.5" transform="rotate(-45 675.293 423.912)" stroke="#3B1A03"/>
</g>
</g>
<rect x="4.5" y="0.5" width="795" height="420" rx="7.5" stroke="#6B3005" shape-rendering="crispEdges"/>
</g>
<defs>
<filter id="filter0_d_281_2231" x="0" y="0" width="804" height="429" filterUnits="userSpaceOnUse" color-interpolation-filters="sRGB">
<feFlood flood-opacity="0" result="BackgroundImageFix"/>
<feColorMatrix in="SourceAlpha" type="matrix" values="0 0 0 0 0 0 0 0 0 0 0 0 0 0 0 0 0 0 127 0" result="hardAlpha"/>
<feOffset dy="4"/>
<feGaussianBlur stdDeviation="2"/>
<feComposite in2="hardAlpha" operator="out"/>
<feColorMatrix type="matrix" values="0 0 0 0 0.96 0 0 0 0 0.449778 0 0 0 0 0.0853333 0 0 0 0.05 0"/>
<feBlend mode="normal" in2="BackgroundImageFix" result="effect1_dropShadow_281_2231"/>
<feBlend mode="normal" in="SourceGraphic" in2="effect1_dropShadow_281_2231" result="shape"/>
</filter>
<filter id="filter1_b_281_2231" x="604.142" y="302.142" width="115.539" height="115.539" filterUnits="userSpaceOnUse" color-interpolation-filters="sRGB">
<feFlood flood-opacity="0" result="BackgroundImageFix"/>
<feGaussianBlur in="BackgroundImageFix" stdDeviation="5"/>
<feComposite in2="SourceAlpha" operator="in" result="effect1_backgroundBlur_281_2231"/>
<feBlend mode="normal" in="SourceGraphic" in2="effect1_backgroundBlur_281_2231" result="shape"/>
</filter>
<filter id="filter2_b_281_2231" x="742.142" y="156.142" width="115.539" height="115.539" filterUnits="userSpaceOnUse" color-interpolation-filters="sRGB">
<feFlood flood-opacity="0" result="BackgroundImageFix"/>
<feGaussianBlur in="BackgroundImageFix" stdDeviation="5"/>
<feComposite in2="SourceAlpha" operator="in" result="effect1_backgroundBlur_281_2231"/>
<feBlend mode="normal" in="SourceGraphic" in2="effect1_backgroundBlur_281_2231" result="shape"/>
</filter>
<filter id="filter3_b_281_2231" x="676.142" y="233.142" width="115.539" height="115.539" filterUnits="userSpaceOnUse" color-interpolation-filters="sRGB">
<feFlood flood-opacity="0" result="BackgroundImageFix"/>
<feGaussianBlur in="BackgroundImageFix" stdDeviation="5"/>
<feComposite in2="SourceAlpha" operator="in" result="effect1_backgroundBlur_281_2231"/>
<feBlend mode="normal" in="SourceGraphic" in2="effect1_backgroundBlur_281_2231" result="shape"/>
</filter>
<filter id="filter4_b_281_2231" x="735.142" y="302.142" width="115.539" height="115.539" filterUnits="userSpaceOnUse" color-interpolation-filters="sRGB">
<feFlood flood-opacity="0" result="BackgroundImageFix"/>
<feGaussianBlur in="BackgroundImageFix" stdDeviation="5"/>
<feComposite in2="SourceAlpha" operator="in" result="effect1_backgroundBlur_281_2231"/>
<feBlend mode="normal" in="SourceGraphic" in2="effect1_backgroundBlur_281_2231" result="shape"/>
</filter>
<filter id="filter5_b_281_2231" x="735.142" y="28.1421" width="115.539" height="115.539" filterUnits="userSpaceOnUse" color-interpolation-filters="sRGB">
<feFlood flood-opacity="0" result="BackgroundImageFix"/>
<feGaussianBlur in="BackgroundImageFix" stdDeviation="5"/>
<feComposite in2="SourceAlpha" operator="in" result="effect1_backgroundBlur_281_2231"/>
<feBlend mode="normal" in="SourceGraphic" in2="effect1_backgroundBlur_281_2231" result="shape"/>
</filter>
<filter id="filter6_b_281_2231" x="676.142" y="94.1421" width="115.539" height="115.539" filterUnits="userSpaceOnUse" color-interpolation-filters="sRGB">
<feFlood flood-opacity="0" result="BackgroundImageFix"/>
<feGaussianBlur in="BackgroundImageFix" stdDeviation="5"/>
<feComposite in2="SourceAlpha" operator="in" result="effect1_backgroundBlur_281_2231"/>
<feBlend mode="normal" in="SourceGraphic" in2="effect1_backgroundBlur_281_2231" result="shape"/>
</filter>
<filter id="filter7_b_281_2231" x="618.142" y="160.142" width="115.539" height="115.539" filterUnits="userSpaceOnUse" color-interpolation-filters="sRGB">
<feFlood flood-opacity="0" result="BackgroundImageFix"/>
<feGaussianBlur in="BackgroundImageFix" stdDeviation="5"/>
<feComposite in2="SourceAlpha" operator="in" result="effect1_backgroundBlur_281_2231"/>
<feBlend mode="normal" in="SourceGraphic" in2="effect1_backgroundBlur_281_2231" result="shape"/>
</filter>
<filter id="filter8_b_281_2231" x="541.142" y="366.142" width="115.539" height="115.539" filterUnits="userSpaceOnUse" color-interpolation-filters="sRGB">
<feFlood flood-opacity="0" result="BackgroundImageFix"/>
<feGaussianBlur in="BackgroundImageFix" stdDeviation="5"/>
<feComposite in2="SourceAlpha" operator="in" result="effect1_backgroundBlur_281_2231"/>
<feBlend mode="normal" in="SourceGraphic" in2="effect1_backgroundBlur_281_2231" result="shape"/>
</filter>
<filter id="filter9_b_281_2231" x="669.142" y="366.142" width="115.539" height="115.539" filterUnits="userSpaceOnUse" color-interpolation-filters="sRGB">
<feFlood flood-opacity="0" result="BackgroundImageFix"/>
<feGaussianBlur in="BackgroundImageFix" stdDeviation="5"/>
<feComposite in2="SourceAlpha" operator="in" result="effect1_backgroundBlur_281_2231"/>
<feBlend mode="normal" in="SourceGraphic" in2="effect1_backgroundBlur_281_2231" result="shape"/>
</filter>
<clipPath id="clip0_281_2231">
<rect x="4" width="796" height="421" rx="8" fill="white"/>
</clipPath>
</defs>
</svg>
