<svg width="103" height="99" viewBox="0 0 103 99" fill="none" xmlns="http://www.w3.org/2000/svg">
<circle opacity="0.2" cx="58" cy="58" r="58" fill="#F57316"/>
<path d="M79 43.6562V68C79 69.5913 78.3679 71.1174 77.2426 72.2426C76.1174 73.3679 74.5913 74 73 74H45C43.4087 74 41.8826 73.3679 40.7574 72.2426C39.6321 71.1174 39 69.5913 39 68V28C39 26.4087 39.6321 24.8826 40.7574 23.7574C41.8826 22.6321 43.4087 22 45 22H57.3438C58.4042 22.0002 59.4213 22.4214 60.1712 23.1712L77.8288 40.8288C78.5786 41.5787 78.9998 42.5958 79 43.6562Z" stroke="#F57316" stroke-width="2" stroke-linejoin="round"/>
<path d="M59 23V38C59 39.0609 59.4214 40.0783 60.1716 40.8284C60.9217 41.5786 61.9391 42 63 42H78M49 52H69M49 62H69" stroke="#F57316" stroke-width="2" stroke-linecap="round" stroke-linejoin="round"/>
</svg>
