<svg width="371" height="341" viewBox="0 0 371 341" fill="none" xmlns="http://www.w3.org/2000/svg">
<path d="M185.295 119.828L370.943 223.34L186.097 328.369L-6.47565e-05 225.406L185.295 119.828Z" fill="#CECEFF"/>
<path d="M91.4701 138.345L141.22 122.784L207.098 208.881L205.168 281.007L91.4701 214.64L91.4701 138.345Z" fill="#8E8EFF"/>
<rect width="16.2633" height="25.7379" transform="matrix(0.866025 0.5 -2.20305e-08 1 106.349 145.16)" fill="#CECEFF"/>
<rect width="16.2633" height="25.7379" transform="matrix(0.866025 0.5 -2.20305e-08 1 106.349 184.915)" fill="#CECEFF"/>
<rect width="16.2633" height="25.7379" transform="matrix(0.866025 0.5 -2.20305e-08 1 133.837 160.38)" fill="#CECEFF"/>
<rect width="16.2633" height="25.7379" transform="matrix(0.866025 0.5 -2.20305e-08 1 133.837 200.135)" fill="#CECEFF"/>
<rect width="16.2633" height="25.7379" transform="matrix(0.866025 0.5 -2.20305e-08 1 161.324 173.783)" fill="#CECEFF"/>
<rect width="16.2633" height="25.7379" transform="matrix(0.866025 0.5 -2.20305e-08 1 161.324 213.538)" fill="#CECEFF"/>
<path d="M0.0349121 224.409L186.085 328.237L185.659 339.444L0.205288 233.194L0.0349121 224.409Z" fill="#6F6FFF"/>
<path d="M206.417 216.035L307.847 149.249L305.462 212.97L205.168 281.232L206.417 216.035Z" fill="#6F6FFF"/>
<path d="M186.449 328.113L371 223.42L371 232.279L185.631 339.502L186.449 328.113Z" fill="#6F6FFF"/>
<path d="M186.219 72.6213L79.9982 134.029L143.666 113.56L250.374 51.3398L186.219 72.6213Z" fill="#6F6FFF"/>
<path d="M250.268 51.3398L143.378 113.385L206.798 216.036L312.391 146.682L250.268 51.3398Z" fill="#6F6FFF"/>
<path d="M260.596 120.73L206.757 90.1855V216.264L260.596 120.73Z" fill="#AEAEFF"/>
<path d="M263.375 115.188L206.53 90.1855L254.442 117.786L311.936 146.523L263.375 115.188Z" fill="#8E8EFF"/>
<path d="M260.597 120.854L206.53 216.037L222.117 205.659L264.494 131.88L304.272 151.987L312.391 146.798L260.597 120.854Z" fill="#4F4FFF"/>
<path d="M206.758 204.253L144.271 113.357L79.9982 133.808L83.5689 141.113L141.349 123.583L206.758 216.264V204.253Z" fill="#6F6FFF"/>
<path fill-rule="evenodd" clip-rule="evenodd" d="M280.779 175.343L243.524 196.853C244.44 185.376 252.43 172.205 262.151 166.592C271.873 160.979 279.863 164.925 280.779 175.343Z" fill="#CECEFF"/>
<rect width="16.2633" height="25.7379" transform="matrix(0.866025 -0.5 2.20305e-08 1 226.487 223.259)" fill="#CECEFF"/>
<rect width="16.2633" height="25.7379" transform="matrix(0.866025 -0.5 2.20305e-08 1 255.11 204.859)" fill="#CECEFF"/>
<rect width="16.2633" height="25.7379" transform="matrix(0.866025 -0.5 2.20305e-08 1 283.767 188.048)" fill="#CECEFF"/>
<rect width="84.464" height="50.5454" rx="4" transform="matrix(0.866025 0.5 -2.20305e-08 1 168.332 0)" fill="url(#paint0_linear_1500_7354)"/>
<g filter="url(#filter0_dd_1500_7354)">
<rect width="13.8093" height="5.96221" rx="2.98111" transform="matrix(0.866025 0.5 -2.20305e-08 1 173.851 42.0918)" fill="#FFD9BE"/>
</g>
<g filter="url(#filter1_dd_1500_7354)">
<rect width="7.58753" height="5.96221" rx="2.98111" transform="matrix(0.866025 0.5 -2.20305e-08 1 229.573 42.5371)" fill="#FFD9BE"/>
</g>
<g filter="url(#filter2_dd_1500_7354)">
<rect width="29.2879" height="5.96221" rx="2.98111" transform="matrix(0.866025 0.5 -2.20305e-08 1 173.851 31.6719)" fill="#FFD9BE"/>
</g>
<rect width="14.4252" height="14.4252" transform="matrix(0.866025 -0.5 2.20305e-08 1 41.6601 222.057)" fill="#F57316"/>
<rect width="14.4252" height="14.4252" transform="matrix(0.866025 0.5 -2.20305e-08 1 29.2109 214.844)" fill="#B04E06"/>
<rect width="14.4252" height="14.4252" transform="matrix(0.866025 0.5 -0.866025 0.5 41.6048 207.631)" fill="#FFBE8F"/>
<rect width="6.39986" height="6.39986" transform="matrix(0.866025 0.5 -2.20305e-08 1 44.796 223.325)" fill="#6F6FFF"/>
<rect width="6.39986" height="6.39986" transform="matrix(0.866025 0.5 -0.866025 0.5 50.2945 220.125)" fill="#FFBE8F"/>
<rect width="6.39986" height="6.39986" transform="matrix(0.866025 -0.5 2.20305e-08 1 50.3192 226.525)" fill="#F57316"/>
<rect width="14.4252" height="14.4252" transform="matrix(0.866025 -0.5 2.20305e-08 1 112.502 261.811)" fill="#F57316"/>
<rect width="14.4252" height="14.4252" transform="matrix(0.866025 0.5 -2.20305e-08 1 100.053 254.599)" fill="#B04E06"/>
<rect width="14.4252" height="14.4252" transform="matrix(0.866025 0.5 -0.866025 0.5 112.447 247.386)" fill="#FFBE8F"/>
<rect width="6.39986" height="6.39986" transform="matrix(0.866025 0.5 -2.20305e-08 1 115.638 263.08)" fill="#6F6FFF"/>
<rect width="6.39986" height="6.39986" transform="matrix(0.866025 0.5 -0.866025 0.5 121.137 259.88)" fill="#FFBE8F"/>
<rect width="6.39986" height="6.39986" transform="matrix(0.866025 -0.5 2.20305e-08 1 121.162 266.28)" fill="#F57316"/>
<rect width="14.4252" height="14.4252" transform="matrix(0.866025 -0.5 2.20305e-08 1 187.922 302.474)" fill="#F57316"/>
<rect width="14.4252" height="14.4252" transform="matrix(0.866025 0.5 -2.20305e-08 1 175.473 295.262)" fill="#B04E06"/>
<rect width="14.4252" height="14.4252" transform="matrix(0.866025 0.5 -0.866025 0.5 187.867 288.049)" fill="#FFBE8F"/>
<rect width="6.39986" height="6.39986" transform="matrix(0.866025 0.5 -2.20305e-08 1 191.057 303.743)" fill="#6F6FFF"/>
<rect width="6.39986" height="6.39986" transform="matrix(0.866025 0.5 -0.866025 0.5 196.556 300.543)" fill="#FFBE8F"/>
<rect width="6.39986" height="6.39986" transform="matrix(0.866025 -0.5 2.20305e-08 1 196.581 306.943)" fill="#F57316"/>
<rect width="14.4252" height="14.4252" transform="matrix(0.866025 -0.5 2.20305e-08 1 333.991 222.057)" fill="#F57316"/>
<rect width="14.4252" height="14.4252" transform="matrix(0.866025 0.5 -2.20305e-08 1 321.541 214.844)" fill="#B04E06"/>
<rect width="14.4252" height="14.4252" transform="matrix(0.866025 0.5 -0.866025 0.5 333.935 207.631)" fill="#FFBE8F"/>
<rect width="6.39986" height="6.39986" transform="matrix(0.866025 0.5 -2.20305e-08 1 337.127 223.325)" fill="#6F6FFF"/>
<rect width="6.39986" height="6.39986" transform="matrix(0.866025 0.5 -0.866025 0.5 342.625 220.125)" fill="#FFBE8F"/>
<rect width="6.39986" height="6.39986" transform="matrix(0.866025 -0.5 2.20305e-08 1 342.65 226.525)" fill="#F57316"/>
<rect width="14.4252" height="14.4252" transform="matrix(0.866025 -0.5 2.20305e-08 1 264.023 263.401)" fill="#F57316"/>
<rect width="14.4252" height="14.4252" transform="matrix(0.866025 0.5 -2.20305e-08 1 251.573 256.188)" fill="#B04E06"/>
<rect width="14.4252" height="14.4252" transform="matrix(0.866025 0.5 -0.866025 0.5 263.968 248.976)" fill="#FFBE8F"/>
<rect width="6.39986" height="6.39986" transform="matrix(0.866025 0.5 -2.20305e-08 1 267.159 264.669)" fill="#6F6FFF"/>
<rect width="6.39986" height="6.39986" transform="matrix(0.866025 0.5 -0.866025 0.5 272.657 261.47)" fill="#FFBE8F"/>
<rect width="6.39986" height="6.39986" transform="matrix(0.866025 -0.5 2.20305e-08 1 272.682 267.87)" fill="#F57316"/>
<defs>
<filter id="filter0_dd_1500_7354" x="147.851" y="17.23" width="63.9592" height="62.5908" filterUnits="userSpaceOnUse" color-interpolation-filters="sRGB">
<feFlood flood-opacity="0" result="BackgroundImageFix"/>
<feColorMatrix in="SourceAlpha" type="matrix" values="0 0 0 0 0 0 0 0 0 0 0 0 0 0 0 0 0 0 127 0" result="hardAlpha"/>
<feMorphology radius="2" operator="dilate" in="SourceAlpha" result="effect1_dropShadow_1500_7354"/>
<feOffset dx="8" dy="8"/>
<feGaussianBlur stdDeviation="8"/>
<feComposite in2="hardAlpha" operator="out"/>
<feColorMatrix type="matrix" values="0 0 0 0 0 0 0 0 0 0 0 0 0 0 0 0 0 0 0.05 0"/>
<feBlend mode="normal" in2="BackgroundImageFix" result="effect1_dropShadow_1500_7354"/>
<feColorMatrix in="SourceAlpha" type="matrix" values="0 0 0 0 0 0 0 0 0 0 0 0 0 0 0 0 0 0 127 0" result="hardAlpha"/>
<feMorphology radius="2" operator="dilate" in="SourceAlpha" result="effect2_dropShadow_1500_7354"/>
<feOffset dx="-8" dy="-8"/>
<feGaussianBlur stdDeviation="8"/>
<feComposite in2="hardAlpha" operator="out"/>
<feColorMatrix type="matrix" values="0 0 0 0 0 0 0 0 0 0 0 0 0 0 0 0 0 0 0.05 0"/>
<feBlend mode="normal" in2="effect1_dropShadow_1500_7354" result="effect2_dropShadow_1500_7354"/>
<feBlend mode="normal" in="SourceGraphic" in2="effect2_dropShadow_1500_7354" result="shape"/>
</filter>
<filter id="filter1_dd_1500_7354" x="203.573" y="17.6753" width="58.571" height="59.48" filterUnits="userSpaceOnUse" color-interpolation-filters="sRGB">
<feFlood flood-opacity="0" result="BackgroundImageFix"/>
<feColorMatrix in="SourceAlpha" type="matrix" values="0 0 0 0 0 0 0 0 0 0 0 0 0 0 0 0 0 0 127 0" result="hardAlpha"/>
<feMorphology radius="2" operator="dilate" in="SourceAlpha" result="effect1_dropShadow_1500_7354"/>
<feOffset dx="8" dy="8"/>
<feGaussianBlur stdDeviation="8"/>
<feComposite in2="hardAlpha" operator="out"/>
<feColorMatrix type="matrix" values="0 0 0 0 0 0 0 0 0 0 0 0 0 0 0 0 0 0 0.05 0"/>
<feBlend mode="normal" in2="BackgroundImageFix" result="effect1_dropShadow_1500_7354"/>
<feColorMatrix in="SourceAlpha" type="matrix" values="0 0 0 0 0 0 0 0 0 0 0 0 0 0 0 0 0 0 127 0" result="hardAlpha"/>
<feMorphology radius="2" operator="dilate" in="SourceAlpha" result="effect2_dropShadow_1500_7354"/>
<feOffset dx="-8" dy="-8"/>
<feGaussianBlur stdDeviation="8"/>
<feComposite in2="hardAlpha" operator="out"/>
<feColorMatrix type="matrix" values="0 0 0 0 0 0 0 0 0 0 0 0 0 0 0 0 0 0 0.05 0"/>
<feBlend mode="normal" in2="effect1_dropShadow_1500_7354" result="effect2_dropShadow_1500_7354"/>
<feBlend mode="normal" in="SourceGraphic" in2="effect2_dropShadow_1500_7354" result="shape"/>
</filter>
<filter id="filter2_dd_1500_7354" x="147.851" y="6.81006" width="77.364" height="70.3301" filterUnits="userSpaceOnUse" color-interpolation-filters="sRGB">
<feFlood flood-opacity="0" result="BackgroundImageFix"/>
<feColorMatrix in="SourceAlpha" type="matrix" values="0 0 0 0 0 0 0 0 0 0 0 0 0 0 0 0 0 0 127 0" result="hardAlpha"/>
<feMorphology radius="2" operator="dilate" in="SourceAlpha" result="effect1_dropShadow_1500_7354"/>
<feOffset dx="8" dy="8"/>
<feGaussianBlur stdDeviation="8"/>
<feComposite in2="hardAlpha" operator="out"/>
<feColorMatrix type="matrix" values="0 0 0 0 0 0 0 0 0 0 0 0 0 0 0 0 0 0 0.05 0"/>
<feBlend mode="normal" in2="BackgroundImageFix" result="effect1_dropShadow_1500_7354"/>
<feColorMatrix in="SourceAlpha" type="matrix" values="0 0 0 0 0 0 0 0 0 0 0 0 0 0 0 0 0 0 127 0" result="hardAlpha"/>
<feMorphology radius="2" operator="dilate" in="SourceAlpha" result="effect2_dropShadow_1500_7354"/>
<feOffset dx="-8" dy="-8"/>
<feGaussianBlur stdDeviation="8"/>
<feComposite in2="hardAlpha" operator="out"/>
<feColorMatrix type="matrix" values="0 0 0 0 0 0 0 0 0 0 0 0 0 0 0 0 0 0 0.05 0"/>
<feBlend mode="normal" in2="effect1_dropShadow_1500_7354" result="effect2_dropShadow_1500_7354"/>
<feBlend mode="normal" in="SourceGraphic" in2="effect2_dropShadow_1500_7354" result="shape"/>
</filter>
<linearGradient id="paint0_linear_1500_7354" x1="-11.93" y1="47.5003" x2="27.1538" y2="82.1959" gradientUnits="userSpaceOnUse">
<stop offset="0.0015673" stop-color="#FFC094"/>
<stop offset="1" stop-color="#F57316"/>
</linearGradient>
</defs>
</svg>
