<svg width="218" height="498" viewBox="0 0 218 498" fill="none" xmlns="http://www.w3.org/2000/svg">
<rect width="52.1371" height="240" transform="matrix(0.866025 0.5 -2.20305e-08 1 107 37.7488)" fill="#CECEFF"/>
<path d="M173.017 0.200195L216.961 26.366L152.153 63.8802L107.436 38.063L173.017 0.200195Z" fill="#8E8EFF"/>
<rect width="75" height="240" transform="matrix(0.866025 -0.5 2.20305e-08 1 152 63.8887)" fill="#6F6FFF"/>
<rect width="41.4335" height="190.728" transform="matrix(0.866025 0.5 -2.20305e-08 1 42 181.04)" fill="#CECEFF"/>
<path d="M94.4639 151.2L129.386 171.994L77.8837 201.807L42.3472 181.29L94.4639 151.2Z" fill="#8E8EFF"/>
<rect width="59.6026" height="190.728" transform="matrix(0.866025 -0.5 2.20305e-08 1 77.7617 201.813)" fill="#6F6FFF"/>
<rect width="27.3467" height="112.49" transform="matrix(0.894633 0.446802 -2.54679e-08 1 0 321.8)" fill="#CECEFF"/>
<path d="M35.7705 304.2L59.5813 316.464L24.4658 334.048L0.236393 321.947L35.7705 304.2Z" fill="#8E8EFF"/>
<rect width="39.3387" height="112.49" transform="matrix(0.894633 -0.446802 2.54679e-08 1 24.3828 334.052)" fill="#6F6FFF"/>
</svg>
