<svg width="129" height="123" viewBox="0 0 129 123" fill="none" xmlns="http://www.w3.org/2000/svg">
<circle r="26.962" transform="matrix(0.898109 -0.439773 -0.0681995 0.997671 79.6016 58.9556)" fill="#6F6FFF"/>
<path d="M61.7521 86.7313L54.3115 81.7825L60.7875 80.4339L68.6373 86.9043L61.7521 86.7313Z" fill="#6F6FFF"/>
<path d="M97.9904 31.6402L90.6006 26.6157L91.6123 33.3956L100.606 38.1647L97.9904 31.6402Z" fill="#6F6FFF"/>
<circle r="26.962" transform="matrix(0.898109 -0.439773 -0.0681995 0.997671 71.9298 53.7984)" fill="#CECEFF"/>
<path fill-rule="evenodd" clip-rule="evenodd" d="M55.7817 62.8806C57.9109 52.5576 65.937 41.5624 75.0003 37.1244C76.8213 36.2328 78.5601 35.6665 80.1828 35.403L81.6089 32.4795C79.5877 32.7108 77.3925 33.3743 75.0786 34.5073C65.4247 39.2345 56.8222 50.6091 53.9601 61.656L55.7817 62.8806Z" fill="#6F6FFF"/>
<path d="M57.6634 74.6226C52.2383 75.7493 52.8683 66.4485 53.9651 61.6608L55.7735 62.8764C54.8439 66.4948 54.0044 73.6745 58.1561 73.4951L57.6634 74.6226Z" fill="#6F6FFF"/>
<ellipse opacity="0.5" rx="7.4183" ry="7.4183" transform="matrix(0.898109 -0.439773 -0.0681995 0.997671 70.6438 54.2087)" fill="#EDEDFF"/>
<path d="M61.355 65.8084L62.2261 63.6065C60.8195 63.6465 59.6602 63.4632 58.7482 63.0565L59.8547 60.2594C61.1122 60.5963 62.2912 60.73 63.3915 60.6606L65.2161 56.0484C63.3461 55.6527 62.1553 55.1472 61.6437 54.5319C61.0501 53.8727 61.0123 52.8884 61.5303 51.5792C62.0796 50.1905 63.015 49.0063 64.3365 48.0263C65.6948 47.0036 67.3417 46.2557 69.2773 45.7825L70.4309 42.8664L72.4252 42.5714L71.2951 45.428C72.8701 45.2136 74.2121 45.2111 75.3214 45.4205L76.1743 47.0312L75.6799 48.281C74.016 47.9669 72.2766 47.9441 70.4617 48.2126C70.3351 48.2314 70.2401 48.2454 70.1768 48.2548L68.2463 53.1348C70.0952 53.5336 71.2637 54.0704 71.7518 54.7452C72.282 55.4138 72.2921 56.3929 71.782 57.6823C71.2562 59.0114 70.322 60.1675 68.9794 61.1505C67.6079 62.1565 66.0294 62.857 64.244 63.2519L63.3493 65.5134L61.355 65.8084ZM66.9161 56.4972L65.4094 60.306C66.0449 60.156 66.6009 59.9056 67.0774 59.555C67.4984 59.1939 67.8031 58.7753 67.9914 58.2992C68.1719 57.8429 68.201 57.4931 68.0788 57.2497C67.9746 56.9103 67.5871 56.6594 66.9161 56.4972ZM66.5463 52.686L68.1237 48.6986C67.4803 48.8685 66.9309 49.1272 66.4755 49.4748C65.949 49.8515 65.5641 50.3473 65.3208 50.9623C65.1325 51.4384 65.1338 51.8117 65.3248 52.0823C65.4682 52.3225 65.8753 52.5238 66.5463 52.686Z" fill="#6F6FFF"/>
<circle r="26.962" transform="matrix(0.898109 -0.439773 -0.0681995 0.997671 56.1016 68.9556)" fill="#6F6FFF"/>
<path d="M38.2521 96.7313L30.8115 91.7825L37.2875 90.4339L45.1373 96.9043L38.2521 96.7313Z" fill="#6F6FFF"/>
<path d="M74.4904 41.6402L67.1006 36.6157L68.1123 43.3956L77.1058 48.1647L74.4904 41.6402Z" fill="#6F6FFF"/>
<circle r="26.962" transform="matrix(0.898109 -0.439773 -0.0681995 0.997671 48.4298 63.7984)" fill="#CECEFF"/>
<path fill-rule="evenodd" clip-rule="evenodd" d="M32.2817 72.8806C34.4109 62.5575 42.437 51.5624 51.5003 47.1244C53.3213 46.2328 55.0601 45.6665 56.6828 45.403L58.1089 42.4795C56.0877 42.7108 53.8925 43.3743 51.5786 44.5073C41.9247 49.2345 33.3222 60.6091 30.4601 71.656L32.2817 72.8806Z" fill="#6F6FFF"/>
<path fill-rule="evenodd" clip-rule="evenodd" d="M65.0675 48.7137C64.1857 59.2172 57.5292 71.0918 49.0603 76.5798C47.3588 77.6824 45.7002 78.4521 44.1206 78.9074L43.0537 81.98C45.0322 81.509 47.1318 80.5884 49.2932 79.1878C58.3142 73.3419 65.4978 61.0212 67.0207 49.7113L65.0675 48.7137Z" fill="#6F6FFF"/>
<path d="M34.1634 84.6226C28.7383 85.7493 29.3683 76.4485 30.4651 71.6608L32.2735 72.8764C31.3439 76.4948 30.5044 83.6745 34.6561 83.4951L34.1634 84.6226Z" fill="#6F6FFF"/>
<ellipse opacity="0.5" rx="7.4183" ry="7.4183" transform="matrix(0.898109 -0.439773 -0.0681995 0.997671 47.1438 64.2087)" fill="#EDEDFF"/>
<path d="M35.853 76.0041L44.2814 54.6987L54.3795 53.2046C56.6798 52.8643 58.255 53.1262 59.1053 53.9902C60.0376 54.8981 60.1898 56.1456 59.562 57.7326C59.201 58.6451 58.6444 59.4745 57.8922 60.2208C57.1689 60.9441 56.1147 61.7258 54.7294 62.5657C56.6702 63.5859 57.2326 65.1276 56.4164 67.1906C55.6788 69.0554 54.3253 70.6937 52.3561 72.1056C50.6396 73.3308 48.5362 74.1276 46.046 74.496L35.853 76.0041ZM47.4868 57.6702L45.5798 62.4907L50.6764 61.7367C52.85 61.4151 54.2547 60.4508 54.8904 58.844C55.526 57.2372 54.757 56.5946 52.5834 56.9162L47.4868 57.6702ZM44.1319 66.1507L41.9542 71.6556L47.5256 70.8313C49.8258 70.491 51.337 69.4083 52.059 67.5832C52.7888 65.7383 52.0036 64.9861 49.7033 65.3264L44.1319 66.1507Z" fill="#6F6FFF"/>
</svg>
