<svg width="281" height="266" viewBox="0 0 281 266" fill="none" xmlns="http://www.w3.org/2000/svg">
<circle r="69.9156" transform="matrix(0.898109 -0.439773 -0.0681995 0.997671 206.416 152.879)" fill="#3B1A03"/>
<path d="M160.13 224.904L140.836 212.071L157.629 208.574L177.984 225.352L160.13 224.904Z" fill="#3B1A03"/>
<path d="M254.1 82.0469L234.938 69.0179L237.561 86.5989L260.882 98.9658L254.1 82.0469Z" fill="#3B1A03"/>
<circle r="69.9156" transform="matrix(0.898109 -0.439773 -0.0681995 0.997671 186.522 139.506)" fill="#FDCECE"/>
<path fill-rule="evenodd" clip-rule="evenodd" d="M144.648 163.058C150.169 136.289 170.982 107.777 194.484 96.2688C199.206 93.9566 203.715 92.4884 207.923 91.805L211.621 84.2238C206.38 84.8235 200.687 86.544 194.687 89.482C169.653 101.74 147.346 131.236 139.924 159.882L144.648 163.058Z" fill="#3B1A03"/>
<path d="M149.528 193.504C135.46 196.426 137.093 172.308 139.938 159.893L144.627 163.045C142.216 172.428 140.039 191.046 150.805 190.581L149.528 193.504Z" fill="#3B1A03"/>
<ellipse opacity="0.5" rx="19.2365" ry="19.2365" transform="matrix(0.898109 -0.439773 -0.0681995 0.997671 183.187 140.569)" fill="#FBCAA7"/>
<path d="M159.22 170.348L161.479 164.638C157.831 164.742 154.825 164.266 152.46 163.212L155.329 155.959C158.59 156.832 161.647 157.179 164.5 156.999L169.232 145.039C164.383 144.013 161.295 142.702 159.968 141.107C158.429 139.397 158.331 136.845 159.674 133.45C161.099 129.849 163.524 126.778 166.951 124.237C170.473 121.585 174.744 119.645 179.763 118.418L182.754 110.857L187.926 110.092L184.995 117.499C189.079 116.943 192.56 116.937 195.436 117.48L197.648 121.656L196.366 124.897C192.051 124.083 187.541 124.024 182.834 124.72C182.506 124.769 182.26 124.805 182.096 124.829L177.089 137.484C181.884 138.518 184.914 139.91 186.18 141.66C187.554 143.394 187.581 145.932 186.258 149.276C184.894 152.722 182.472 155.72 178.991 158.269C175.434 160.878 171.341 162.694 166.711 163.718L164.391 169.583L159.22 170.348ZM173.64 146.203L169.733 156.08C171.381 155.69 172.823 155.041 174.058 154.132C175.15 153.196 175.94 152.11 176.429 150.875C176.897 149.692 176.972 148.785 176.655 148.154C176.385 147.274 175.38 146.623 173.64 146.203ZM172.681 136.32L176.772 125.98C175.103 126.421 173.679 127.092 172.498 127.993C171.132 128.97 170.134 130.255 169.503 131.85C169.015 133.085 169.018 134.053 169.514 134.754C169.885 135.377 170.941 135.899 172.681 136.32Z" fill="#3B1A03"/>
<circle r="69.9156" transform="matrix(0.898109 -0.439773 -0.0681995 0.997671 145.478 178.81)" fill="#3B1A03"/>
<path d="M99.1918 250.835L79.8975 238.002L96.6903 234.505L117.046 251.284L99.1918 250.835Z" fill="#3B1A03"/>
<path d="M193.162 107.978L174 94.9495L176.623 112.53L199.944 124.897L193.162 107.978Z" fill="#3B1A03"/>
<circle r="69.9156" transform="matrix(0.898109 -0.439773 -0.0681995 0.997671 125.584 165.437)" fill="#FDCECE"/>
<path fill-rule="evenodd" clip-rule="evenodd" d="M83.7106 188.989C89.2316 162.22 110.044 133.708 133.547 122.2C138.269 119.888 142.777 118.42 146.985 117.736L150.683 110.155C145.442 110.755 139.75 112.475 133.75 115.413C108.716 127.672 86.4085 157.167 78.9868 185.814L83.7106 188.989Z" fill="#3B1A03"/>
<path fill-rule="evenodd" clip-rule="evenodd" d="M168.727 126.32C166.441 153.557 149.18 184.349 127.219 198.58C122.807 201.44 118.506 203.435 114.41 204.616L111.643 212.584C116.774 211.362 122.218 208.975 127.822 205.343C151.215 190.184 169.843 158.235 173.792 128.907L168.727 126.32Z" fill="#3B1A03"/>
<path d="M88.5892 219.436C74.5213 222.358 76.1549 198.24 78.9992 185.824L83.6885 188.977C81.2779 198.36 79.1009 216.977 89.8668 216.512L88.5892 219.436Z" fill="#3B1A03"/>
<ellipse opacity="0.5" rx="19.2365" ry="19.2365" transform="matrix(0.898109 -0.439773 -0.0681995 0.997671 122.249 166.501)" fill="#FBCAA7"/>
<path d="M93.2623 196.35L115.118 141.103L141.304 137.229C147.269 136.346 151.353 137.025 153.558 139.266C155.976 141.62 156.37 144.855 154.742 148.97C153.806 151.336 152.363 153.487 150.413 155.422C148.537 157.298 145.803 159.325 142.211 161.503C147.244 164.148 148.702 168.146 146.586 173.496C144.673 178.331 141.163 182.58 136.057 186.241C131.606 189.418 126.151 191.484 119.694 192.439L93.2623 196.35ZM123.43 148.808L118.485 161.308L131.701 159.353C137.338 158.519 140.98 156.019 142.628 151.852C144.277 147.685 142.283 146.019 136.646 146.853L123.43 148.808ZM114.731 170.799L109.084 185.074L123.531 182.936C129.496 182.054 133.414 179.246 135.286 174.514C137.179 169.73 135.143 167.779 129.178 168.662L114.731 170.799Z" fill="#3B1A03"/>
</svg>
