<svg width="821" height="786" viewBox="0 0 821 786" fill="none" xmlns="http://www.w3.org/2000/svg">
<ellipse rx="107.848" ry="107.848" transform="matrix(0.898109 -0.439773 -0.0681995 0.997672 626.406 529.823)" fill="#6F6FFF"/>
<path d="M555.007 640.925L525.244 621.13L551.148 615.736L582.547 641.618L555.007 640.925Z" fill="#6F6FFF"/>
<path d="M699.962 420.56L670.403 400.463L674.45 427.582L710.424 446.659L699.962 420.56Z" fill="#6F6FFF"/>
<ellipse rx="107.848" ry="107.848" transform="matrix(0.898109 -0.439773 -0.0681995 0.997672 595.719 509.194)" fill="#CECEFF"/>
<path fill-rule="evenodd" clip-rule="evenodd" d="M531.133 545.526C539.648 504.233 571.753 460.25 608.008 442.497C615.29 438.931 622.244 436.667 628.734 435.612L634.438 423.919C626.356 424.845 617.579 427.499 608.327 432.029C569.709 450.939 535.298 496.441 523.851 540.631L531.133 545.526Z" fill="#6F6FFF"/>
<path d="M538.662 592.491C516.962 596.998 519.482 559.795 523.869 540.643L531.103 545.506C527.384 559.98 524.026 588.699 540.633 587.981L538.662 592.491Z" fill="#6F6FFF"/>
<ellipse opacity="0.5" rx="29.6732" ry="29.6732" transform="matrix(0.898109 -0.439773 -0.0681995 0.997672 590.589 510.836)" fill="#EDEDFF"/>
<path d="M603.576 454.557L593.826 455.999L589.824 466.116C572.15 470.412 557.306 482.021 551.561 496.543C546.57 509.159 550.995 515.452 565.884 516.387L569.812 516.702L559.689 542.292C553.622 541.957 551.472 538.353 553.761 531.964L538.06 534.287C532.916 548.495 539.073 556.436 554.415 555.623L550.413 565.74L560.163 564.298L564.165 554.181C581.665 550.022 596.763 538.376 602.272 524.45C607.451 511.357 602.77 504.206 588.087 503.353L584.365 503.119L594.394 477.767C602.248 477.501 605.238 481.093 602.681 487.858L618.888 485.46C624.253 470.996 616.797 463.022 599.668 464.436L603.576 454.557ZM579.221 517.327C586.666 517.794 588.751 520.959 586.256 527.268C583.713 533.695 577.46 538.654 569.392 540.969L578.762 517.283L579.221 517.327ZM574.576 502.55C567.591 502.127 565.379 498.98 567.78 492.91C570.182 486.84 576.388 482 584.55 479.447L575.368 502.657L574.576 502.55Z" fill="#6F6FFF"/>
<ellipse rx="107.848" ry="107.848" transform="matrix(0.898109 -0.439773 -0.0681995 0.997672 224.406 235.823)" fill="#6F6FFF"/>
<path d="M153.007 346.925L123.244 327.13L149.148 321.736L180.547 347.618L153.007 346.925Z" fill="#6F6FFF"/>
<path d="M297.962 126.56L268.403 106.463L272.45 133.582L308.424 152.659L297.962 126.56Z" fill="#6F6FFF"/>
<ellipse rx="107.848" ry="107.848" transform="matrix(0.898109 -0.439773 -0.0681995 0.997672 193.719 215.194)" fill="#CECEFF"/>
<path fill-rule="evenodd" clip-rule="evenodd" d="M129.133 251.526C137.648 210.233 169.753 166.25 206.008 148.497C213.29 144.931 220.244 142.667 226.734 141.612L232.438 129.919C224.356 130.845 215.579 133.499 206.327 138.029C167.709 156.939 133.298 202.441 121.851 246.631L129.133 251.526Z" fill="#6F6FFF"/>
<path d="M136.662 298.491C114.962 302.998 117.482 265.795 121.869 246.643L129.103 251.506C125.384 265.98 122.026 294.699 138.633 293.981L136.662 298.491Z" fill="#6F6FFF"/>
<ellipse opacity="0.5" rx="29.6732" ry="29.6732" transform="matrix(0.898109 -0.439773 -0.0681995 0.997672 188.589 216.836)" fill="#EDEDFF"/>
<path d="M201.576 160.557L191.826 161.999L187.824 172.116C170.15 176.412 155.306 188.021 149.561 202.543C144.57 215.159 148.995 221.452 163.884 222.387L167.812 222.702L157.689 248.292C151.622 247.957 149.472 244.353 151.761 237.964L136.06 240.287C130.916 254.495 137.073 262.436 152.415 261.623L148.413 271.74L158.163 270.298L162.165 260.181C179.665 256.022 194.763 244.376 200.272 230.45C205.451 217.357 200.77 210.206 186.087 209.353L182.365 209.119L192.394 183.767C200.248 183.501 203.238 187.093 200.681 193.858L216.888 191.46C222.253 176.996 214.797 169.022 197.668 170.436L201.576 160.557ZM177.221 223.327C184.666 223.794 186.751 226.959 184.256 233.268C181.713 239.695 175.46 244.654 167.392 246.969L176.762 223.283L177.221 223.327ZM172.576 208.55C165.591 208.127 163.379 204.98 165.78 198.91C168.182 192.84 174.388 188 182.55 185.447L173.368 208.657L172.576 208.55Z" fill="#6F6FFF"/>
<ellipse rx="107.848" ry="107.848" transform="matrix(0.898109 -0.439773 -0.0681995 0.997672 532.406 569.823)" fill="#6F6FFF"/>
<path d="M461.007 680.925L431.244 661.13L457.148 655.736L488.547 681.618L461.007 680.925Z" fill="#6F6FFF"/>
<path d="M605.962 460.56L576.403 440.463L580.45 467.582L616.424 486.659L605.962 460.56Z" fill="#6F6FFF"/>
<ellipse rx="107.848" ry="107.848" transform="matrix(0.898109 -0.439773 -0.0681995 0.997672 501.719 549.194)" fill="#CECEFF"/>
<path fill-rule="evenodd" clip-rule="evenodd" d="M437.133 585.526C445.648 544.233 477.753 500.25 514.008 482.497C521.29 478.931 528.244 476.667 534.734 475.612L540.438 463.919C532.356 464.845 523.579 467.499 514.327 472.029C475.709 490.939 441.298 536.441 429.851 580.631L437.133 585.526Z" fill="#6F6FFF"/>
<path d="M444.662 632.491C422.962 636.998 425.482 599.795 429.869 580.643L437.103 585.506C433.384 599.98 430.026 628.699 446.633 627.981L444.662 632.491Z" fill="#6F6FFF"/>
<ellipse opacity="0.5" rx="29.6732" ry="29.6732" transform="matrix(0.898109 -0.439773 -0.0681995 0.997672 496.589 550.836)" fill="#EDEDFF"/>
<path d="M509.576 494.557L499.826 495.999L495.824 506.116C478.15 510.412 463.306 522.021 457.561 536.543C452.57 549.159 456.995 555.452 471.884 556.387L475.812 556.702L465.689 582.292C459.622 581.957 457.472 578.353 459.761 571.964L444.06 574.287C438.916 588.495 445.073 596.436 460.415 595.623L456.413 605.74L466.163 604.298L470.165 594.181C487.665 590.022 502.763 578.376 508.272 564.45C513.451 551.357 508.77 544.206 494.087 543.353L490.365 543.119L500.394 517.767C508.248 517.501 511.238 521.093 508.681 527.858L524.888 525.46C530.253 510.996 522.797 503.022 505.668 504.436L509.576 494.557ZM485.221 557.327C492.666 557.794 494.751 560.959 492.256 567.268C489.713 573.695 483.46 578.654 475.392 580.969L484.762 557.283L485.221 557.327ZM480.576 542.55C473.591 542.127 471.379 538.98 473.78 532.91C476.182 526.84 482.388 522 490.55 519.447L481.368 542.657L480.576 542.55Z" fill="#6F6FFF"/>
<path fill-rule="evenodd" clip-rule="evenodd" d="M450.671 321.145L395.235 316.604L402.8 371.709L416.572 357.162L449.108 387.965L469.436 366.494L436.899 335.691L450.671 321.145Z" fill="#6F6FFF"/>
<path fill-rule="evenodd" clip-rule="evenodd" d="M349.816 429.475L405.407 431.316L395.174 376.644L382.125 391.843L348.13 362.657L328.87 385.09L362.865 414.276L349.816 429.475Z" fill="#6F6FFF"/>
</svg>
