<svg width="493" height="373" viewBox="0 0 493 373" fill="none" xmlns="http://www.w3.org/2000/svg">
<circle r="102.768" transform="matrix(0.866025 0.5 -0.866025 0.5 178 138.203)" fill="#6F6FFF"/>
<path d="M52.1815 140.804L52.0137 106.744L70.0506 124.361L66.2754 162.952L52.1815 140.804Z" fill="#6F6FFF"/>
<path d="M303.512 138.287L303.691 104.227L284.396 121.844L288.435 160.435L303.512 138.287Z" fill="#6F6FFF"/>
<circle r="102.768" transform="matrix(0.866025 0.5 -0.866025 0.5 178 102.969)" fill="#CECEFF"/>
<path fill-rule="evenodd" clip-rule="evenodd" d="M114.933 71.2071C152.115 55.9889 203.965 57.9964 237.278 77.2295C243.97 81.0929 249.457 85.3882 253.741 89.9599L266.021 88.2544C260.992 82.3554 254.227 76.8247 245.727 71.9167C210.242 51.4297 155.964 48.4063 114.933 62.8465V71.2071Z" fill="#6F6FFF"/>
<path d="M81.7951 102.13C66.6944 87.3645 97.4551 69.5793 114.933 62.8679L114.933 71.1733C101.51 75.9272 77.0133 88.539 86.4092 101.291L81.7951 102.13Z" fill="#6F6FFF"/>
<circle opacity="0.5" r="28.2756" transform="matrix(0.866025 0.5 -0.866025 0.5 173.975 99.7844)" fill="#EDEDFF"/>
<path d="M227.455 78.294L220.819 71.0073L210.19 73.33C196.764 61.0592 178.848 55.2162 163.592 58.55C150.337 61.4466 147.583 68.6295 155.114 81.5076L157.044 84.9437L130.158 90.8189C127.052 85.5975 128.843 81.8021 135.423 80.1372L124.736 68.4027C110.075 72.0604 106.918 81.6006 116.153 93.8795L105.524 96.2022L112.16 103.489L122.789 101.166C136.003 113.37 154.092 119.402 168.723 116.205C182.478 113.199 185.802 105.324 178.318 92.6627L176.435 89.4431L203.071 83.6226C207.673 89.9923 206.36 94.4775 199.319 96.1297L210.351 108.243C225.348 104.625 227.806 93.9892 217.076 80.5621L227.455 78.294ZM161.774 93.1009C165.54 99.5399 164.077 103.037 157.449 104.485C150.696 105.961 143.092 103.538 136.67 98.133L161.555 92.695L161.774 93.1009ZM171.446 81.0021C167.901 74.969 169.278 71.3775 175.655 69.9838C182.033 68.5902 189.512 71.0405 196.184 76.3906L171.8 81.7192L171.446 81.0021Z" fill="#6F6FFF"/>
<circle r="102.768" transform="matrix(0.866025 0.5 -0.866025 0.5 315 270.203)" fill="#6F6FFF"/>
<path d="M189.181 272.804L189.014 238.744L207.051 256.361L203.275 294.952L189.181 272.804Z" fill="#6F6FFF"/>
<path d="M440.512 270.287L440.691 236.227L421.396 253.844L425.435 292.435L440.512 270.287Z" fill="#6F6FFF"/>
<circle r="102.768" transform="matrix(0.866025 0.5 -0.866025 0.5 315 234.969)" fill="#CECEFF"/>
<path fill-rule="evenodd" clip-rule="evenodd" d="M251.933 203.207C289.115 187.989 340.965 189.997 374.278 209.23C380.97 213.093 386.457 217.388 390.741 221.96L403.021 220.255C397.992 214.356 391.227 208.825 382.727 203.917C347.242 183.43 292.964 180.407 251.933 194.847V203.207Z" fill="#6F6FFF"/>
<path d="M218.795 234.13C203.694 219.365 234.455 201.579 251.933 194.868L251.933 203.173C238.51 207.927 214.013 220.539 223.409 233.291L218.795 234.13Z" fill="#6F6FFF"/>
<circle opacity="0.5" r="28.2756" transform="matrix(0.866025 0.5 -0.866025 0.5 310.975 231.784)" fill="#EDEDFF"/>
<path d="M364.455 210.294L357.819 203.007L347.19 205.33C333.764 193.059 315.848 187.216 300.592 190.55C287.337 193.447 284.583 200.63 292.114 213.508L294.044 216.944L267.158 222.819C264.052 217.597 265.843 213.802 272.423 212.137L261.736 200.403C247.075 204.06 243.918 213.601 253.153 225.879L242.524 228.202L249.16 235.489L259.789 233.166C273.003 245.37 291.092 251.402 305.723 248.205C319.478 245.199 322.802 237.324 315.318 224.663L313.435 221.443L340.071 215.623C344.673 221.992 343.36 226.477 336.319 228.13L347.351 240.243C362.348 236.625 364.806 225.989 354.076 212.562L364.455 210.294ZM298.774 225.101C302.54 231.54 301.077 235.037 294.449 236.485C287.696 237.961 280.092 235.538 273.67 230.133L298.555 224.695L298.774 225.101ZM308.446 213.002C304.901 206.969 306.278 203.377 312.655 201.984C319.033 200.59 326.512 203.041 333.184 208.391L308.8 213.719L308.446 213.002Z" fill="#6F6FFF"/>
<path fill-rule="evenodd" clip-rule="evenodd" d="M128.299 328.161L144.436 274.932L88.9765 270.697L100.289 287.229L63.3126 312.531L80.01 336.932L116.986 311.63L128.299 328.161Z" fill="#6F6FFF"/>
<circle r="102.768" transform="matrix(0.866025 0.5 -0.866025 0.5 274 145.203)" fill="#6F6FFF"/>
<path d="M148.181 147.804L148.014 113.744L166.051 131.361L162.275 169.952L148.181 147.804Z" fill="#6F6FFF"/>
<path d="M399.512 145.287L399.691 111.227L380.396 128.844L384.435 167.435L399.512 145.287Z" fill="#6F6FFF"/>
<circle r="102.768" transform="matrix(0.866025 0.5 -0.866025 0.5 274 109.969)" fill="#CECEFF"/>
<path fill-rule="evenodd" clip-rule="evenodd" d="M210.933 78.2073C248.115 62.9891 299.965 64.9966 333.278 84.2297C339.97 88.0931 345.457 92.3884 349.741 96.9601L362.021 95.2546C356.992 89.3555 350.227 83.8249 341.727 78.917C306.242 58.43 251.964 55.4066 210.933 69.8468V78.2073Z" fill="#6F6FFF"/>
<path d="M177.795 109.13C162.694 94.3645 193.455 76.5793 210.933 69.8679L210.933 78.1733C197.51 82.9272 173.013 95.539 182.409 108.291L177.795 109.13Z" fill="#6F6FFF"/>
<circle opacity="0.5" r="28.2756" transform="matrix(0.866025 0.5 -0.866025 0.5 269.975 106.784)" fill="#EDEDFF"/>
<path d="M323.455 85.294L316.819 78.0073L306.19 80.33C292.764 68.0592 274.848 62.2162 259.592 65.55C246.337 68.4466 243.583 75.6295 251.114 88.5076L253.044 91.9437L226.158 97.8189C223.052 92.5975 224.843 88.8021 231.423 87.1372L220.736 75.4027C206.075 79.0604 202.918 88.6006 212.153 100.879L201.524 103.202L208.16 110.489L218.789 108.166C232.003 120.37 250.092 126.402 264.723 123.205C278.478 120.199 281.802 112.324 274.318 99.6627L272.435 96.4431L299.071 90.6226C303.673 96.9923 302.36 101.477 295.319 103.13L306.351 115.243C321.348 111.625 323.806 100.989 313.076 87.5621L323.455 85.294ZM257.774 100.101C261.54 106.54 260.077 110.037 253.449 111.485C246.696 112.961 239.092 110.538 232.67 105.133L257.555 99.695L257.774 100.101ZM267.446 88.0021C263.901 81.969 265.278 78.3775 271.655 76.9838C278.033 75.5902 285.512 78.0405 292.184 83.3906L267.8 88.7192L267.446 88.0021Z" fill="#6F6FFF"/>
</svg>
