<svg width="1440" height="5602" viewBox="0 0 1440 5602" fill="none" xmlns="http://www.w3.org/2000/svg">
<g clip-path="url(#clip0_281_1914)">
<rect width="1440" height="5602" fill="#0A0400"/>
<g opacity="0.2">
<circle cx="680" cy="743" r="512" fill="url(#paint0_radial_281_1914)" fill-opacity="0.2"/>
<circle cx="163" cy="146" r="512" fill="url(#paint1_radial_281_1914)" fill-opacity="0.2"/>
<circle cx="1366" cy="146" r="512" fill="url(#paint2_radial_281_1914)" fill-opacity="0.2"/>
</g>
<g opacity="0.02">
<mask id="path-4-outside-1_281_1914" maskUnits="userSpaceOnUse" x="276.462" y="2.27831" width="886.222" height="877.083" fill="black">
<rect fill="white" x="276.462" y="2.27831" width="886.222" height="877.083"/>
<path fill-rule="evenodd" clip-rule="evenodd" d="M984.527 631.786C985.715 629.973 986.888 628.145 988.046 626.301C1083.73 473.909 1037.77 272.801 885.375 177.112C732.984 81.4235 531.875 127.391 436.186 279.782C366.488 390.783 371.945 527.63 438.942 630.758L462.21 593.702C412.434 505.082 411.445 392.709 469.298 300.573C553.504 166.468 730.48 126.017 864.585 210.223C998.689 294.429 1039.14 471.405 954.935 605.51C953.776 607.354 952.601 609.181 951.408 610.99L984.527 631.786Z"/>
</mask>
<path d="M984.527 631.786L983.995 632.633L984.825 633.154L985.363 632.334L984.527 631.786ZM438.942 630.758L438.104 631.303L438.957 632.616L439.789 631.29L438.942 630.758ZM462.21 593.702L463.057 594.234L463.373 593.731L463.082 593.212L462.21 593.702ZM951.408 610.99L950.573 610.439L950.01 611.293L950.876 611.837L951.408 610.99ZM985.363 632.334C986.555 630.516 987.731 628.682 988.893 626.833L987.199 625.769C986.045 627.608 984.875 629.43 983.69 631.237L985.363 632.334ZM988.893 626.833C1084.87 473.973 1038.77 272.247 885.907 176.265L884.844 177.959C1036.77 273.354 1082.59 473.845 987.199 625.769L988.893 626.833ZM885.907 176.265C733.048 80.283 531.322 126.391 435.339 279.251L437.033 280.314C532.428 128.39 732.92 82.5641 884.844 177.959L885.907 176.265ZM435.339 279.251C365.426 390.593 370.902 527.861 438.104 631.303L439.781 630.214C372.988 527.4 367.549 390.973 437.033 280.314L435.339 279.251ZM439.789 631.29L463.057 594.234L461.363 593.17L438.095 630.227L439.789 631.29ZM468.451 300.041C410.395 392.5 411.39 505.265 461.338 594.192L463.082 593.212C413.478 504.899 412.494 392.919 470.145 301.105L468.451 300.041ZM865.116 209.376C730.544 124.877 552.951 165.469 468.451 300.041L470.145 301.105C554.057 167.468 730.416 127.158 864.053 211.07L865.116 209.376ZM955.782 606.041C1040.28 471.469 999.689 293.876 865.116 209.376L864.053 211.07C997.69 294.982 1038 471.341 954.088 604.978L955.782 606.041ZM952.243 611.54C953.44 609.725 954.619 607.892 955.782 606.041L954.088 604.978C952.934 606.816 951.762 608.637 950.573 610.439L952.243 611.54ZM950.876 611.837L983.995 632.633L985.058 630.939L951.94 610.143L950.876 611.837Z" fill="#C4C4D4" mask="url(#path-4-outside-1_281_1914)"/>
<mask id="path-6-outside-2_281_1914" maskUnits="userSpaceOnUse" x="401.484" y="128.063" width="629.909" height="623.292" fill="black">
<rect fill="white" x="401.484" y="128.063" width="629.909" height="623.292"/>
<path fill-rule="evenodd" clip-rule="evenodd" d="M904.502 575.455C905.346 574.168 906.178 572.871 907 571.562C974.939 463.364 942.302 320.577 834.104 252.638C725.906 184.699 583.119 217.336 515.18 325.534C465.694 404.344 469.568 501.505 517.136 574.726L533.657 548.415C498.317 485.495 497.616 405.712 538.691 340.296C598.477 245.081 724.13 216.361 819.345 276.147C914.559 335.933 943.279 461.586 883.493 556.801C882.671 558.11 881.836 559.407 880.99 560.691L904.502 575.455Z"/>
</mask>
<path d="M904.502 575.455L903.971 576.302L904.801 576.823L905.339 576.003L904.502 575.455ZM517.136 574.726L516.298 575.271L517.151 576.584L517.983 575.258L517.136 574.726ZM533.657 548.415L534.504 548.947L534.82 548.444L534.529 547.925L533.657 548.415ZM880.99 560.691L880.155 560.14L879.592 560.994L880.458 561.538L880.99 560.691ZM905.339 576.003C906.186 574.711 907.022 573.408 907.847 572.094L906.153 571.03C905.335 572.333 904.506 573.625 903.666 574.906L905.339 576.003ZM907.847 572.094C976.079 463.428 943.302 320.023 834.636 251.791L833.572 253.485C941.303 321.13 973.798 463.3 906.153 571.03L907.847 572.094ZM834.636 251.791C725.97 183.558 582.565 216.336 514.333 325.002L516.027 326.065C583.672 218.335 725.842 185.839 833.572 253.485L834.636 251.791ZM514.333 325.002C464.632 404.154 468.525 501.736 516.298 575.271L517.975 574.182C470.611 501.275 466.755 404.534 516.027 326.065L514.333 325.002ZM517.983 575.258L534.504 548.947L532.811 547.883L516.289 574.195L517.983 575.258ZM537.844 339.764C496.566 405.502 497.273 485.679 532.786 548.905L534.529 547.925C499.361 485.312 498.665 405.921 539.538 340.828L537.844 339.764ZM819.876 275.3C724.194 215.221 597.924 244.082 537.844 339.764L539.538 340.828C599.031 246.081 724.066 217.502 818.813 276.994L819.876 275.3ZM884.34 557.332C944.42 461.65 915.558 335.38 819.876 275.3L818.813 276.994C913.559 336.487 942.139 461.522 882.646 556.269L884.34 557.332ZM881.824 561.241C882.675 559.951 883.514 558.648 884.34 557.332L882.646 556.269C881.828 557.572 880.997 558.862 880.155 560.14L881.824 561.241ZM880.458 561.538L903.971 576.302L905.034 574.608L881.521 559.844L880.458 561.538Z" fill="#C4C4D4" mask="url(#path-6-outside-2_281_1914)"/>
<mask id="path-8-outside-3_281_1914" maskUnits="userSpaceOnUse" x="505.741" y="230.415" width="426.833" height="422.421" fill="black">
<rect fill="white" x="505.741" y="230.415" width="426.833" height="422.421"/>
<path fill-rule="evenodd" clip-rule="evenodd" d="M846.339 533.32C846.91 532.449 847.474 531.57 848.03 530.684C893.961 457.536 871.897 361.004 798.749 315.074C725.6 269.143 629.068 291.207 583.138 364.355C549.683 417.635 552.302 483.322 584.46 532.823L595.633 515.03C571.74 472.493 571.266 418.554 599.035 374.329C639.454 309.958 724.402 290.542 788.773 330.961C853.143 371.379 872.559 456.328 832.141 520.698C831.583 521.587 831.016 522.466 830.442 523.338L846.339 533.32Z"/>
</mask>
<path d="M846.339 533.32L845.807 534.167L846.638 534.688L847.175 533.868L846.339 533.32ZM584.46 532.823L583.622 533.368L584.475 534.681L585.307 533.355L584.46 532.823ZM595.633 515.03L596.48 515.562L596.796 515.059L596.505 514.54L595.633 515.03ZM830.442 523.338L829.607 522.787L829.044 523.641L829.91 524.185L830.442 523.338ZM847.175 533.868C847.75 532.992 848.317 532.108 848.877 531.216L847.183 530.153C846.631 531.033 846.07 531.906 845.503 532.772L847.175 533.868ZM848.877 531.216C895.101 457.6 872.896 360.451 799.28 314.227L798.217 315.921C870.897 361.557 892.82 457.472 847.183 530.153L848.877 531.216ZM799.28 314.227C725.665 268.003 628.515 290.208 582.291 363.824L583.985 364.887C629.621 292.207 725.536 270.284 798.217 315.921L799.28 314.227ZM582.291 363.824C548.621 417.446 551.259 483.552 583.622 533.368L585.299 532.278C553.345 483.091 550.744 417.825 583.985 364.887L582.291 363.824ZM585.307 533.355L596.48 515.562L594.786 514.498L583.613 532.291L585.307 533.355ZM598.188 373.797C570.216 418.345 570.696 472.676 594.761 515.52L596.505 514.54C572.784 472.31 572.315 418.763 599.882 374.86L598.188 373.797ZM789.304 330.114C724.466 289.401 638.901 308.959 598.188 373.797L599.882 374.86C640.007 310.958 724.338 291.682 788.241 331.808L789.304 330.114ZM832.987 521.23C873.7 456.392 854.142 370.826 789.304 330.114L788.241 331.808C852.143 371.933 871.419 456.264 831.294 520.166L832.987 521.23ZM831.277 523.888C831.855 523.011 832.426 522.125 832.987 521.23L831.294 520.166C830.74 521.048 830.177 521.922 829.607 522.787L831.277 523.888ZM829.91 524.185L845.807 534.167L846.871 532.473L830.973 522.491L829.91 524.185Z" fill="#C4C4D4" mask="url(#path-8-outside-3_281_1914)"/>
</g>
<circle cx="720" cy="314" r="512" fill="url(#paint3_radial_281_1914)" fill-opacity="0.4"/>
<rect y="1048" width="1440" height="1234" fill="#0A0400"/>
<g opacity="0.2">
<circle cx="635" cy="1940" r="512" fill="url(#paint4_radial_281_1914)" fill-opacity="0.2"/>
<circle cx="118" cy="1343" r="512" fill="url(#paint5_radial_281_1914)" fill-opacity="0.2"/>
<circle cx="1321" cy="1343" r="512" fill="url(#paint6_radial_281_1914)" fill-opacity="0.2"/>
</g>
<g opacity="0.2">
<circle cx="634" cy="3446" r="512" fill="url(#paint7_radial_281_1914)" fill-opacity="0.2"/>
<circle cx="117" cy="2849" r="512" fill="url(#paint8_radial_281_1914)" fill-opacity="0.2"/>
<circle cx="1320" cy="2849" r="512" fill="url(#paint9_radial_281_1914)" fill-opacity="0.2"/>
</g>
<g clip-path="url(#clip1_281_1914)">
<g opacity="0.2">
<mask id="path-18-outside-4_281_1914" maskUnits="userSpaceOnUse" x="-781.11" y="3581.67" width="1236.3" height="1262.1" fill="black">
<rect fill="white" x="-781.11" y="3581.67" width="1236.3" height="1262.1"/>
<path fill-rule="evenodd" clip-rule="evenodd" d="M-24.0596 4688.23C-20.9464 4687.17 -17.8367 4686.08 -14.7308 4684.96C241.967 4592.08 374.771 4308.69 281.894 4051.99C189.017 3795.3 -94.37 3662.49 -351.068 3755.37C-538.044 3823.02 -659.288 3991.75 -675.465 4177.61L-613.044 4155.03C-589.822 4002.59 -486.087 3867.3 -330.887 3811.14C-104.992 3729.41 144.388 3846.28 226.12 4072.17C307.852 4298.07 190.985 4547.45 -34.9098 4629.18C-38.017 4630.3 -41.1287 4631.39 -44.2443 4632.44L-24.0596 4688.23Z"/>
</mask>
<path d="M-24.0596 4688.23L-27.821 4689.59L-26.4865 4693.28L-22.7728 4692.02L-24.0596 4688.23ZM-675.465 4177.61L-679.45 4177.26L-679.993 4183.5L-674.104 4181.37L-675.465 4177.61ZM-613.044 4155.03L-611.683 4158.79L-609.448 4157.98L-609.09 4155.63L-613.044 4155.03ZM-44.2443 4632.44L-45.521 4628.65L-49.3973 4629.96L-48.0057 4633.8L-44.2443 4632.44ZM-22.7728 4692.02C-19.6347 4690.95 -16.5003 4689.85 -13.3699 4688.72L-16.0918 4681.19C-19.173 4682.31 -22.258 4683.39 -25.3465 4684.44L-22.7728 4692.02ZM-13.3699 4688.72C245.406 4595.09 379.284 4309.41 285.655 4050.63L278.132 4053.35C370.258 4307.98 238.529 4589.07 -16.0918 4681.19L-13.3699 4688.72ZM285.655 4050.63C192.027 3791.86 -93.6535 3657.98 -352.429 3751.61L-349.707 3759.13C-95.0864 3667.01 186.007 3798.73 278.132 4053.35L285.655 4050.63ZM-352.429 3751.61C-540.924 3819.81 -663.143 3989.9 -679.45 4177.26L-671.48 4177.96C-655.433 3993.59 -535.165 3826.23 -349.707 3759.13L-352.429 3751.61ZM-674.104 4181.37L-611.683 4158.79L-614.405 4151.26L-676.826 4173.85L-674.104 4181.37ZM-332.248 3807.38C-488.88 3864.05 -593.565 4000.59 -616.999 4154.42L-609.09 4155.63C-586.08 4004.58 -483.294 3870.54 -329.526 3814.91L-332.248 3807.38ZM229.881 4070.81C147.398 3842.84 -104.276 3724.9 -332.248 3807.38L-329.526 3814.91C-105.709 3733.93 141.378 3849.72 222.359 4073.53L229.881 4070.81ZM-33.5489 4632.94C194.423 4550.46 312.365 4298.78 229.881 4070.81L222.359 4073.53C303.339 4297.35 187.546 4544.44 -36.2707 4625.42L-33.5489 4632.94ZM-42.9676 4636.23C-39.8238 4635.17 -36.6841 4634.08 -33.5489 4632.94L-36.2707 4625.42C-39.35 4626.53 -42.4336 4627.61 -45.521 4628.65L-42.9676 4636.23ZM-48.0057 4633.8L-27.821 4689.59L-20.2983 4686.87L-40.4829 4631.08L-48.0057 4633.8Z" fill="#3B1A03" mask="url(#path-18-outside-4_281_1914)"/>
<mask id="path-20-outside-5_281_1914" maskUnits="userSpaceOnUse" x="-606.401" y="3759.19" width="880.996" height="898.999" fill="black">
<rect fill="white" x="-606.401" y="3759.19" width="880.996" height="898.999"/>
<path fill-rule="evenodd" clip-rule="evenodd" d="M-67.1521 4546.16C-64.9425 4545.41 -62.7354 4544.63 -60.5311 4543.83C121.725 4477.89 216.015 4276.69 150.072 4094.43C84.1297 3912.17 -117.075 3817.88 -299.331 3883.83C-432.084 3931.86 -518.167 4051.65 -529.652 4183.62L-485.332 4167.58C-468.843 4059.35 -395.191 3963.3 -285 3923.43C-124.615 3865.4 52.4449 3948.38 110.474 4108.76C168.504 4269.15 85.5284 4446.21 -74.8567 4504.24C-77.0621 4505.03 -79.2708 4505.81 -81.4822 4506.55L-67.1521 4546.16Z"/>
</mask>
<path d="M-67.1521 4546.16L-70.9134 4547.52L-69.5789 4551.21L-65.8652 4549.94L-67.1521 4546.16ZM-529.652 4183.62L-533.637 4183.27L-534.18 4189.51L-528.291 4187.38L-529.652 4183.62ZM-485.332 4167.58L-483.971 4171.34L-481.735 4170.53L-481.377 4168.18L-485.332 4167.58ZM-81.4822 4506.55L-82.7589 4502.76L-86.6352 4504.06L-85.2436 4507.91L-81.4822 4506.55ZM-65.8652 4549.94C-63.6308 4549.18 -61.3991 4548.4 -59.1702 4547.6L-61.892 4540.07C-64.0717 4540.86 -66.2542 4541.63 -68.439 4542.37L-65.8652 4549.94ZM-59.1702 4547.6C125.163 4480.9 220.528 4277.4 153.834 4093.07L146.311 4095.79C211.502 4275.97 118.286 4474.88 -61.892 4540.07L-59.1702 4547.6ZM153.834 4093.07C87.1394 3908.74 -116.358 3813.37 -300.692 3880.07L-297.97 3887.59C-117.791 3822.4 81.12 3915.61 146.311 4095.79L153.834 4093.07ZM-300.692 3880.07C-434.963 3928.65 -522.021 4049.81 -533.637 4183.27L-525.667 4183.96C-514.312 4053.49 -429.204 3935.07 -297.97 3887.59L-300.692 3880.07ZM-528.291 4187.38L-483.971 4171.34L-486.693 4163.82L-531.013 4179.86L-528.291 4187.38ZM-286.361 3919.67C-397.984 3960.06 -472.585 4057.36 -489.286 4166.98L-481.377 4168.18C-465.1 4061.35 -392.398 3966.54 -283.639 3927.19L-286.361 3919.67ZM114.236 4107.4C55.4546 3944.94 -123.899 3860.89 -286.361 3919.67L-283.639 3927.19C-125.332 3869.91 49.4351 3951.81 106.713 4110.12L114.236 4107.4ZM-73.4958 4508C88.9667 4449.22 173.017 4269.86 114.236 4107.4L106.713 4110.12C163.991 4268.43 82.0902 4443.2 -76.2176 4500.47L-73.4958 4508ZM-80.2055 4510.34C-77.9658 4509.59 -75.7292 4508.81 -73.4958 4508L-76.2176 4500.47C-78.3951 4501.26 -80.5757 4502.02 -82.7589 4502.76L-80.2055 4510.34ZM-85.2436 4507.91L-70.9134 4547.52L-63.3907 4544.8L-77.7208 4505.19L-85.2436 4507.91Z" fill="#3B1A03" mask="url(#path-20-outside-5_281_1914)"/>
<mask id="path-22-outside-6_281_1914" maskUnits="userSpaceOnUse" x="-464.362" y="3907.39" width="599.709" height="611.712" fill="black">
<rect fill="white" x="-464.362" y="3907.39" width="599.709" height="611.712"/>
<path fill-rule="evenodd" clip-rule="evenodd" d="M-97.359 4441.47C-95.8628 4440.96 -94.3683 4440.44 -92.8757 4439.9C30.3395 4395.32 94.0851 4259.29 49.5041 4136.08C4.92317 4012.86 -131.102 3949.12 -254.318 3993.7C-344.066 4026.17 -402.262 4107.16 -410.028 4196.37L-380.056 4185.53C-368.91 4112.36 -319.117 4047.42 -244.621 4020.46C-136.192 3981.23 -16.489 4037.33 22.7423 4145.76C61.9735 4254.19 5.87738 4373.89 -102.552 4413.12C-104.049 4413.66 -105.547 4414.19 -107.048 4414.69L-97.359 4441.47Z"/>
</mask>
<path d="M-97.359 4441.47L-101.12 4442.83L-99.7859 4446.52L-96.0722 4445.26L-97.359 4441.47ZM-410.028 4196.37L-414.013 4196.02L-414.556 4202.26L-408.667 4200.13L-410.028 4196.37ZM-380.056 4185.53L-378.696 4189.29L-376.46 4188.48L-376.102 4186.13L-380.056 4185.53ZM-107.048 4414.69L-108.324 4410.9L-112.201 4412.21L-110.809 4416.05L-107.048 4414.69ZM-96.0722 4445.26C-94.5512 4444.74 -93.032 4444.21 -91.5148 4443.66L-94.2366 4436.14C-95.7046 4436.67 -97.1744 4437.18 -98.6458 4437.68L-96.0722 4445.26ZM-91.5148 4443.66C33.7777 4398.33 98.5981 4260.01 53.2655 4134.72L45.7428 4137.44C89.5721 4258.58 26.9012 4392.31 -94.2366 4436.14L-91.5148 4443.66ZM53.2655 4134.72C7.93293 4009.42 -130.386 3944.6 -255.679 3989.94L-252.957 3997.46C-131.819 3953.63 1.91341 4016.3 45.7428 4137.44L53.2655 4134.72ZM-255.679 3989.94C-346.945 4022.96 -406.117 4105.32 -414.013 4196.02L-406.043 4196.72C-398.408 4109 -341.186 4029.38 -252.957 3997.46L-255.679 3989.94ZM-408.667 4200.13L-378.696 4189.29L-381.417 4181.77L-411.389 4192.61L-408.667 4200.13ZM-245.982 4016.7C-321.91 4044.18 -372.652 4110.36 -384.011 4184.92L-376.102 4186.13C-365.167 4114.35 -316.323 4050.66 -243.26 4024.23L-245.982 4016.7ZM26.5037 4144.4C-13.4792 4033.89 -135.475 3976.72 -245.982 4016.7L-243.26 4024.23C-136.908 3985.75 -19.4987 4040.77 18.9809 4147.12L26.5037 4144.4ZM-101.191 4416.88C9.31565 4376.9 66.4865 4254.9 26.5037 4144.4L18.9809 4147.12C57.4605 4253.47 2.43912 4370.88 -103.913 4409.36L-101.191 4416.88ZM-105.772 4418.48C-104.243 4417.97 -102.716 4417.44 -101.191 4416.88L-103.913 4409.36C-105.381 4409.89 -106.852 4410.41 -108.324 4410.9L-105.772 4418.48ZM-110.809 4416.05L-101.12 4442.83L-93.5976 4440.11L-103.287 4413.33L-110.809 4416.05Z" fill="#3B1A03" mask="url(#path-22-outside-6_281_1914)"/>
</g>
<circle cx="635" cy="4624" r="512" fill="url(#paint10_radial_281_1914)" fill-opacity="0.2"/>
<circle cx="118" cy="4027" r="512" fill="url(#paint11_radial_281_1914)" fill-opacity="0.2"/>
<circle cx="1321" cy="4027" r="512" fill="url(#paint12_radial_281_1914)" fill-opacity="0.2"/>
</g>
</g>
<defs>
<radialGradient id="paint0_radial_281_1914" cx="0" cy="0" r="1" gradientUnits="userSpaceOnUse" gradientTransform="translate(680 743) rotate(90) scale(512)">
<stop stop-color="#FF6A00"/>
<stop offset="1" stop-opacity="0.09"/>
<stop offset="1" stop-opacity="0.09"/>
</radialGradient>
<radialGradient id="paint1_radial_281_1914" cx="0" cy="0" r="1" gradientUnits="userSpaceOnUse" gradientTransform="translate(163 146) rotate(90) scale(512)">
<stop stop-color="#FF6A00"/>
<stop offset="1" stop-opacity="0.09"/>
<stop offset="1" stop-opacity="0.09"/>
</radialGradient>
<radialGradient id="paint2_radial_281_1914" cx="0" cy="0" r="1" gradientUnits="userSpaceOnUse" gradientTransform="translate(1366 146) rotate(90) scale(512)">
<stop stop-color="#FF6A00"/>
<stop offset="1" stop-opacity="0.09"/>
<stop offset="1" stop-opacity="0.09"/>
</radialGradient>
<radialGradient id="paint3_radial_281_1914" cx="0" cy="0" r="1" gradientUnits="userSpaceOnUse" gradientTransform="translate(720 314) rotate(90) scale(512)">
<stop stop-color="#FF6A00" stop-opacity="0.45"/>
<stop offset="1" stop-color="#444B52" stop-opacity="0"/>
</radialGradient>
<radialGradient id="paint4_radial_281_1914" cx="0" cy="0" r="1" gradientUnits="userSpaceOnUse" gradientTransform="translate(635 1940) rotate(90) scale(512)">
<stop stop-color="#FF6A00"/>
<stop offset="1" stop-opacity="0.09"/>
<stop offset="1" stop-opacity="0.09"/>
</radialGradient>
<radialGradient id="paint5_radial_281_1914" cx="0" cy="0" r="1" gradientUnits="userSpaceOnUse" gradientTransform="translate(118 1343) rotate(90) scale(512)">
<stop stop-color="#FF6A00"/>
<stop offset="1" stop-opacity="0.09"/>
<stop offset="1" stop-opacity="0.09"/>
</radialGradient>
<radialGradient id="paint6_radial_281_1914" cx="0" cy="0" r="1" gradientUnits="userSpaceOnUse" gradientTransform="translate(1321 1343) rotate(90) scale(512)">
<stop stop-color="#FF6A00"/>
<stop offset="1" stop-opacity="0.09"/>
<stop offset="1" stop-opacity="0.09"/>
</radialGradient>
<radialGradient id="paint7_radial_281_1914" cx="0" cy="0" r="1" gradientUnits="userSpaceOnUse" gradientTransform="translate(634 3446) rotate(90) scale(512)">
<stop stop-color="#FF6A00"/>
<stop offset="1" stop-opacity="0.09"/>
<stop offset="1" stop-opacity="0.09"/>
</radialGradient>
<radialGradient id="paint8_radial_281_1914" cx="0" cy="0" r="1" gradientUnits="userSpaceOnUse" gradientTransform="translate(117 2849) rotate(90) scale(512)">
<stop stop-color="#FF6A00"/>
<stop offset="1" stop-opacity="0.09"/>
<stop offset="1" stop-opacity="0.09"/>
</radialGradient>
<radialGradient id="paint9_radial_281_1914" cx="0" cy="0" r="1" gradientUnits="userSpaceOnUse" gradientTransform="translate(1320 2849) rotate(90) scale(512)">
<stop stop-color="#FF6A00"/>
<stop offset="1" stop-opacity="0.09"/>
<stop offset="1" stop-opacity="0.09"/>
</radialGradient>
<radialGradient id="paint10_radial_281_1914" cx="0" cy="0" r="1" gradientUnits="userSpaceOnUse" gradientTransform="translate(635 4624) rotate(90) scale(512)">
<stop stop-color="#FF6A00"/>
<stop offset="1" stop-opacity="0.09"/>
<stop offset="1" stop-opacity="0.09"/>
</radialGradient>
<radialGradient id="paint11_radial_281_1914" cx="0" cy="0" r="1" gradientUnits="userSpaceOnUse" gradientTransform="translate(118 4027) rotate(90) scale(512)">
<stop stop-color="#FF6A00"/>
<stop offset="1" stop-opacity="0.09"/>
<stop offset="1" stop-opacity="0.09"/>
</radialGradient>
<radialGradient id="paint12_radial_281_1914" cx="0" cy="0" r="1" gradientUnits="userSpaceOnUse" gradientTransform="translate(1321 4027) rotate(90) scale(512)">
<stop stop-color="#FF6A00"/>
<stop offset="1" stop-opacity="0.09"/>
<stop offset="1" stop-opacity="0.09"/>
</radialGradient>
<clipPath id="clip0_281_1914">
<rect width="1440" height="5602" fill="white"/>
</clipPath>
<clipPath id="clip1_281_1914">
<rect width="1440" height="2087" fill="white" transform="translate(0 3515)"/>
</clipPath>
</defs>
</svg>
