<svg width="25" height="25" viewBox="0 0 25 25" fill="none" xmlns="http://www.w3.org/2000/svg">
<path d="M15.507 16.6052C15.6036 16.7139 15.6036 16.9433 15.507 17.0761C14.6256 17.9212 12.9836 17.9937 12.4886 17.9937C12.0177 17.9937 10.3757 17.9212 9.51852 17.0761C9.39778 16.9433 9.39778 16.7139 9.51852 16.6052C9.65133 16.4845 9.85658 16.4845 9.97731 16.6052C10.5327 17.1606 11.6797 17.3176 12.4886 17.3176C13.3217 17.3176 14.4928 17.1606 15.0241 16.6052C15.1569 16.4845 15.3621 16.4845 15.507 16.6052ZM10.9794 13.7438C10.9794 13.0556 10.412 12.4881 9.72377 12.4881C9.03557 12.4881 8.46812 13.0556 8.46812 13.7438C8.46812 14.432 9.03557 15.0115 9.72377 14.9994C10.412 14.9994 10.9794 14.432 10.9794 13.7438ZM15.2535 12.4881C14.5653 12.4881 13.9978 13.0918 13.9978 13.7559C13.9978 14.4199 14.5653 15.0115 15.2535 15.0115C15.9417 15.0115 16.5091 14.432 16.5091 13.7559C16.5091 13.0918 15.9417 12.4881 15.2535 12.4881ZM24.5622 12.4881C24.5622 19.1286 19.1291 24.5617 12.4886 24.5617C5.84815 24.5617 0.415039 19.1286 0.415039 12.4881C0.415039 5.84766 5.84815 0.414551 12.4886 0.414551C19.1291 0.414551 24.5622 5.84766 24.5622 12.4881ZM20.5417 12.4881C20.5417 11.5102 19.7328 10.7254 18.791 10.7254C18.3081 10.7254 17.8734 10.9186 17.5595 11.2204C16.3522 10.3511 14.6981 9.79572 12.8508 9.72328L13.6598 5.94425L16.2797 6.51171C16.3039 7.17576 16.8593 7.70699 17.5354 7.70699C18.2236 7.70699 18.791 7.13953 18.791 6.45134C18.791 5.76315 18.2236 5.19569 17.5354 5.19569C17.0404 5.19569 16.6057 5.48545 16.4125 5.90803L13.4787 5.2802C13.3941 5.24398 13.3096 5.2802 13.2493 5.3285C13.1768 5.37679 13.1406 5.44923 13.1285 5.53375L12.2351 9.73535C10.3637 9.79572 8.67337 10.3511 7.44186 11.2325C7.12795 10.9306 6.6933 10.7495 6.22243 10.7495C5.24447 10.7495 4.45969 11.5343 4.45969 12.4881C4.45969 13.2246 4.89434 13.8283 5.49802 14.106C5.47387 14.2992 5.46179 14.444 5.46179 14.6372C5.46179 17.3176 8.613 19.5512 12.4886 19.5512C16.3884 19.5512 19.5517 17.3538 19.5517 14.6372C19.5517 14.4682 19.5396 14.2992 19.5034 14.106C20.107 13.8283 20.5417 13.2125 20.5417 12.4881Z" fill="#FAFAFA"/>
</svg>
