<svg width="1440" height="1453" viewBox="0 0 1440 1453" fill="none" xmlns="http://www.w3.org/2000/svg">
<g clip-path="url(#clip0_1_1323)">
<rect width="1440" height="1453" fill="white"/>
<mask id="path-1-outside-1_1_1323" maskUnits="userSpaceOnUse" x="1108.49" y="1007.53" width="818.848" height="835.651" fill="black">
<rect fill="white" x="1108.49" y="1007.53" width="818.848" height="835.651"/>
<path fill-rule="evenodd" clip-rule="evenodd" d="M1609.68 1738.77C1611.74 1738.07 1613.79 1737.35 1615.83 1736.61C1785.04 1675.39 1872.58 1488.59 1811.36 1319.38C1750.14 1150.17 1563.34 1062.63 1394.13 1123.85C1270.88 1168.45 1190.96 1279.66 1180.3 1402.18L1221.44 1387.29C1236.75 1286.81 1305.13 1197.63 1407.43 1160.62C1556.33 1106.74 1720.72 1183.78 1774.59 1332.68C1828.47 1481.58 1751.43 1645.97 1602.53 1699.84C1600.48 1700.58 1598.43 1701.3 1596.38 1701.99L1609.68 1738.77Z"/>
</mask>
<path d="M1609.68 1738.77L1605.92 1740.13L1607.26 1743.82L1610.97 1742.55L1609.68 1738.77ZM1180.3 1402.18L1176.31 1401.83L1175.77 1408.07L1181.66 1405.94L1180.3 1402.18ZM1221.44 1387.29L1222.8 1391.06L1225.04 1390.25L1225.4 1387.9L1221.44 1387.29ZM1596.38 1701.99L1595.1 1698.2L1591.23 1699.51L1592.62 1703.35L1596.38 1701.99ZM1610.97 1742.55C1613.05 1741.85 1615.12 1741.12 1617.19 1740.37L1614.47 1732.85C1612.45 1733.58 1610.42 1734.29 1608.4 1734.98L1610.97 1742.55ZM1617.19 1740.37C1788.48 1678.4 1877.09 1489.3 1815.12 1318.02L1807.6 1320.74C1868.07 1487.87 1781.6 1672.38 1614.47 1732.85L1617.19 1740.37ZM1815.12 1318.02C1753.15 1146.73 1564.05 1058.12 1392.77 1120.09L1395.49 1127.61C1562.62 1067.14 1747.13 1153.61 1807.6 1320.74L1815.12 1318.02ZM1392.77 1120.09C1268 1165.23 1187.1 1277.82 1176.31 1401.83L1184.28 1402.53C1194.81 1281.51 1273.76 1171.66 1395.49 1127.61L1392.77 1120.09ZM1181.66 1405.94L1222.8 1391.06L1220.08 1383.53L1178.93 1398.42L1181.66 1405.94ZM1406.07 1156.86C1302.33 1194.39 1233.01 1284.82 1217.49 1386.69L1225.4 1387.9C1240.49 1288.8 1307.92 1200.88 1408.79 1164.38L1406.07 1156.86ZM1778.36 1331.32C1723.73 1180.34 1557.05 1102.23 1406.07 1156.86L1408.79 1164.38C1555.62 1111.26 1717.71 1187.22 1770.83 1334.04L1778.36 1331.32ZM1603.89 1703.61C1754.87 1648.98 1832.98 1482.3 1778.36 1331.32L1770.83 1334.04C1823.96 1480.87 1748 1642.96 1601.17 1696.08L1603.89 1703.61ZM1597.65 1705.78C1599.74 1705.08 1601.82 1704.36 1603.89 1703.61L1601.17 1696.08C1599.15 1696.81 1597.13 1697.52 1595.1 1698.2L1597.65 1705.78ZM1592.62 1703.35L1605.92 1740.13L1613.44 1737.41L1600.14 1700.63L1592.62 1703.35Z" fill="#FFF1E8" mask="url(#path-1-outside-1_1_1323)"/>
<mask id="path-3-outside-2_1_1323" maskUnits="userSpaceOnUse" x="1223.01" y="1124.38" width="585.283" height="596.685" fill="black">
<rect fill="white" x="1223.01" y="1124.38" width="585.283" height="596.685"/>
<path fill-rule="evenodd" clip-rule="evenodd" d="M1581.28 1645.12C1582.73 1644.62 1584.19 1644.11 1585.64 1643.59C1705.78 1600.12 1767.93 1467.49 1724.47 1347.35C1681 1227.21 1548.37 1165.06 1428.23 1208.53C1340.73 1240.19 1283.98 1319.15 1276.41 1406.14L1305.63 1395.57C1316.49 1324.23 1365.04 1260.91 1437.68 1234.63C1543.4 1196.38 1660.11 1251.08 1698.36 1356.8C1736.62 1462.52 1681.92 1579.23 1576.2 1617.48C1574.75 1618.01 1573.29 1618.52 1571.83 1619.01L1581.28 1645.12Z"/>
</mask>
<path d="M1581.28 1645.12L1577.52 1646.48L1578.85 1650.17L1582.56 1648.9L1581.28 1645.12ZM1276.41 1406.14L1272.43 1405.79L1271.88 1412.03L1277.77 1409.9L1276.41 1406.14ZM1305.63 1395.57L1306.99 1399.33L1309.22 1398.52L1309.58 1396.17L1305.63 1395.57ZM1571.83 1619.01L1570.55 1615.22L1566.68 1616.52L1568.07 1620.37L1571.83 1619.01ZM1582.56 1648.9C1584.05 1648.4 1585.53 1647.88 1587 1647.35L1584.28 1639.82C1582.85 1640.34 1581.42 1640.84 1579.99 1641.33L1582.56 1648.9ZM1587 1647.35C1709.22 1603.13 1772.45 1468.21 1728.23 1345.99L1720.7 1348.71C1763.42 1466.77 1702.34 1597.11 1584.28 1639.82L1587 1647.35ZM1728.23 1345.99C1684.01 1223.78 1549.09 1160.55 1426.87 1204.77L1429.59 1212.29C1547.65 1169.57 1677.99 1230.65 1720.7 1348.71L1728.23 1345.99ZM1426.87 1204.77C1337.85 1236.98 1280.13 1317.31 1272.43 1405.79L1280.4 1406.49C1287.84 1321 1343.6 1243.4 1429.59 1212.29L1426.87 1204.77ZM1277.77 1409.9L1306.99 1399.33L1304.26 1391.81L1275.05 1402.38L1277.77 1409.9ZM1436.32 1230.87C1362.25 1257.67 1312.75 1322.24 1301.67 1394.97L1309.58 1396.17C1320.24 1326.22 1367.84 1264.16 1439.04 1238.39L1436.32 1230.87ZM1702.13 1355.44C1663.12 1247.64 1544.12 1191.87 1436.32 1230.87L1439.04 1238.39C1542.68 1200.89 1657.1 1254.52 1694.6 1358.16L1702.13 1355.44ZM1577.56 1621.25C1685.36 1582.24 1741.13 1463.24 1702.13 1355.44L1694.6 1358.16C1732.1 1461.8 1678.48 1576.22 1574.84 1613.72L1577.56 1621.25ZM1573.11 1622.8C1574.59 1622.3 1576.08 1621.78 1577.56 1621.25L1574.84 1613.72C1573.41 1614.24 1571.98 1614.74 1570.55 1615.22L1573.11 1622.8ZM1568.07 1620.37L1577.52 1646.48L1585.04 1643.76L1575.59 1617.65L1568.07 1620.37Z" fill="#FFF1E8" mask="url(#path-3-outside-2_1_1323)"/>
<mask id="path-5-outside-3_1_1323" maskUnits="userSpaceOnUse" x="1316.73" y="1222.42" width="399.779" height="406.981" fill="black">
<rect fill="white" x="1316.73" y="1222.42" width="399.779" height="406.981"/>
<path fill-rule="evenodd" clip-rule="evenodd" d="M1561.37 1576.11C1562.35 1575.78 1563.34 1575.43 1564.32 1575.07C1645.54 1545.69 1687.56 1456.02 1658.17 1374.8C1628.79 1293.58 1539.12 1251.56 1457.9 1280.95C1398.74 1302.36 1360.38 1355.74 1355.26 1414.55L1375.02 1407.4C1382.37 1359.17 1415.19 1316.36 1464.3 1298.6C1535.77 1272.74 1614.67 1309.71 1640.53 1381.19C1666.39 1452.66 1629.42 1531.56 1557.94 1557.42C1556.96 1557.78 1555.97 1558.13 1554.98 1558.46L1561.37 1576.11Z"/>
</mask>
<path d="M1561.37 1576.11L1557.6 1577.47L1558.94 1581.16L1562.65 1579.9L1561.37 1576.11ZM1355.26 1414.55L1351.28 1414.2L1350.74 1420.44L1356.62 1418.31L1355.26 1414.55ZM1375.02 1407.4L1376.38 1411.16L1378.62 1410.35L1378.97 1408L1375.02 1407.4ZM1554.98 1558.46L1553.7 1554.67L1549.83 1555.97L1551.22 1559.82L1554.98 1558.46ZM1562.65 1579.9C1563.66 1579.56 1564.67 1579.2 1565.68 1578.84L1562.96 1571.31C1562 1571.66 1561.04 1572 1560.08 1572.32L1562.65 1579.9ZM1565.68 1578.84C1648.98 1548.7 1692.07 1456.74 1661.94 1373.44L1654.41 1376.16C1683.05 1455.31 1642.1 1542.68 1562.96 1571.31L1565.68 1578.84ZM1661.94 1373.44C1631.8 1290.15 1539.84 1247.05 1456.54 1277.19L1459.26 1284.71C1538.41 1256.08 1625.78 1297.02 1654.41 1376.16L1661.94 1373.44ZM1456.54 1277.19C1395.86 1299.14 1356.53 1353.9 1351.28 1414.2L1359.25 1414.9C1364.24 1357.58 1401.62 1305.57 1459.26 1284.71L1456.54 1277.19ZM1356.62 1418.31L1376.38 1411.16L1373.66 1403.64L1353.9 1410.79L1356.62 1418.31ZM1462.93 1294.83C1412.4 1313.12 1378.62 1357.18 1371.07 1406.8L1378.97 1408C1386.11 1361.16 1417.98 1319.61 1465.66 1302.36L1462.93 1294.83ZM1644.29 1379.83C1617.68 1306.27 1536.49 1268.22 1462.93 1294.83L1465.66 1302.36C1535.05 1277.25 1611.66 1313.15 1636.77 1382.55L1644.29 1379.83ZM1559.3 1561.19C1632.85 1534.57 1670.91 1453.38 1644.29 1379.83L1636.77 1382.55C1661.88 1451.94 1625.98 1528.55 1556.58 1553.66L1559.3 1561.19ZM1556.26 1562.25C1557.27 1561.91 1558.29 1561.55 1559.3 1561.19L1556.58 1553.66C1555.62 1554.01 1554.66 1554.34 1553.7 1554.67L1556.26 1562.25ZM1551.22 1559.82L1557.6 1577.47L1565.13 1574.75L1558.74 1557.1L1551.22 1559.82Z" fill="#FFF1E8" mask="url(#path-5-outside-3_1_1323)"/>
<mask id="path-7-outside-4_1_1323" maskUnits="userSpaceOnUse" x="-781.11" y="66.6657" width="1236.3" height="1262.1" fill="black">
<rect fill="white" x="-781.11" y="66.6657" width="1236.3" height="1262.1"/>
<path fill-rule="evenodd" clip-rule="evenodd" d="M-24.0596 1173.23C-20.9464 1172.17 -17.8367 1171.08 -14.7308 1169.96C241.967 1077.08 374.771 793.692 281.894 536.994C189.017 280.295 -94.37 147.492 -351.068 240.369C-538.044 308.019 -659.288 476.745 -675.465 662.61L-613.044 640.025C-589.822 487.587 -486.087 352.297 -330.887 296.144C-104.992 214.412 144.388 331.279 226.12 557.174C307.852 783.068 190.985 1032.45 -34.9098 1114.18C-38.017 1115.3 -41.1287 1116.39 -44.2443 1117.44L-24.0596 1173.23Z"/>
</mask>
<path d="M-24.0596 1173.23L-27.821 1174.59L-26.4865 1178.28L-22.7728 1177.02L-24.0596 1173.23ZM-675.465 662.61L-679.45 662.263L-679.993 668.502L-674.104 666.371L-675.465 662.61ZM-613.044 640.025L-611.683 643.787L-609.448 642.978L-609.09 640.628L-613.044 640.025ZM-44.2443 1117.44L-45.521 1113.65L-49.3973 1114.96L-48.0057 1118.8L-44.2443 1117.44ZM-22.7728 1177.02C-19.6347 1175.95 -16.5003 1174.85 -13.3699 1173.72L-16.0918 1166.19C-19.173 1167.31 -22.258 1168.39 -25.3465 1169.44L-22.7728 1177.02ZM-13.3699 1173.72C245.406 1080.09 379.284 794.408 285.655 535.633L278.132 538.354C370.258 792.975 238.529 1074.07 -16.0918 1166.19L-13.3699 1173.72ZM285.655 535.633C192.027 276.857 -93.6535 142.979 -352.429 236.608L-349.707 244.13C-95.0864 152.005 186.007 283.734 278.132 538.354L285.655 535.633ZM-352.429 236.608C-540.924 304.808 -663.143 474.904 -679.45 662.263L-671.48 662.957C-655.433 478.586 -535.165 311.231 -349.707 244.13L-352.429 236.608ZM-674.104 666.371L-611.683 643.787L-614.405 636.264L-676.826 658.848L-674.104 666.371ZM-332.248 292.383C-488.88 349.054 -593.565 485.594 -616.999 639.423L-609.09 640.628C-586.08 489.579 -483.294 355.541 -329.526 299.905L-332.248 292.383ZM229.881 555.813C147.398 327.841 -104.276 209.899 -332.248 292.383L-329.526 299.905C-105.709 218.925 141.378 334.717 222.359 558.535L229.881 555.813ZM-33.5489 1117.94C194.423 1035.46 312.365 783.784 229.881 555.813L222.359 558.535C303.339 782.352 187.546 1029.44 -36.2707 1110.42L-33.5489 1117.94ZM-42.9676 1121.23C-39.8238 1120.17 -36.6841 1119.08 -33.5489 1117.94L-36.2707 1110.42C-39.35 1111.53 -42.4336 1112.61 -45.521 1113.65L-42.9676 1121.23ZM-48.0057 1118.8L-27.821 1174.59L-20.2983 1171.87L-40.4829 1116.08L-48.0057 1118.8Z" fill="#FFF1E8" mask="url(#path-7-outside-4_1_1323)"/>
<mask id="path-9-outside-5_1_1323" maskUnits="userSpaceOnUse" x="-606.401" y="244.191" width="880.996" height="898.999" fill="black">
<rect fill="white" x="-606.401" y="244.191" width="880.996" height="898.999"/>
<path fill-rule="evenodd" clip-rule="evenodd" d="M-67.1518 1031.16C-64.9422 1030.41 -62.7352 1029.63 -60.5309 1028.83C121.725 962.891 216.015 761.687 150.073 579.431C84.1299 397.175 -117.075 302.885 -299.33 368.827C-432.083 416.859 -518.166 536.654 -529.652 668.618L-485.331 652.582C-468.843 544.352 -395.191 448.299 -285 408.43C-124.615 350.401 52.4451 433.376 110.475 593.761C168.504 754.146 85.5287 931.206 -74.8564 989.236C-77.0619 990.034 -79.2705 990.805 -81.4819 991.55L-67.1518 1031.16Z"/>
</mask>
<path d="M-67.1518 1031.16L-70.9132 1032.52L-69.5787 1036.21L-65.8649 1034.94L-67.1518 1031.16ZM-529.652 668.618L-533.637 668.271L-534.18 674.51L-528.291 672.379L-529.652 668.618ZM-485.331 652.582L-483.97 656.344L-481.735 655.535L-481.377 653.185L-485.331 652.582ZM-81.4819 991.55L-82.7587 987.759L-86.6349 989.065L-85.2433 992.911L-81.4819 991.55ZM-65.8649 1034.94C-63.6306 1034.18 -61.3989 1033.4 -59.17 1032.6L-61.8918 1025.07C-64.0715 1025.86 -66.2539 1026.63 -68.4387 1027.37L-65.8649 1034.94ZM-59.17 1032.6C125.163 965.901 220.528 762.403 153.834 578.07L146.311 580.792C211.502 760.97 118.287 959.881 -61.8918 1025.07L-59.17 1032.6ZM153.834 578.07C87.1397 393.737 -116.358 298.372 -300.691 365.066L-297.97 372.589C-117.791 307.398 81.1202 400.613 146.311 580.792L153.834 578.07ZM-300.691 365.066C-434.963 413.647 -522.021 534.813 -533.637 668.271L-525.667 668.965C-514.311 538.495 -429.204 420.071 -297.97 372.589L-300.691 365.066ZM-528.291 672.379L-483.97 656.344L-486.692 648.821L-531.013 664.857L-528.291 672.379ZM-286.361 404.669C-397.984 445.056 -472.585 542.36 -489.286 651.98L-481.377 653.185C-465.1 546.345 -392.398 451.542 -283.639 412.192L-286.361 404.669ZM114.236 592.4C55.4548 429.938 -123.898 345.888 -286.361 404.669L-283.639 412.192C-125.331 354.914 49.4353 436.814 106.713 595.122L114.236 592.4ZM-73.4955 992.997C88.9669 934.216 173.017 754.863 114.236 592.4L106.713 595.122C163.991 753.43 82.0904 928.197 -76.2173 985.475L-73.4955 992.997ZM-80.2052 995.341C-77.9656 994.586 -75.7289 993.805 -73.4955 992.997L-76.2173 985.475C-78.3949 986.262 -80.5754 987.024 -82.7587 987.759L-80.2052 995.341ZM-85.2433 992.911L-70.9132 1032.52L-63.3904 1029.8L-77.7206 990.189L-85.2433 992.911Z" fill="#FFF1E8" mask="url(#path-9-outside-5_1_1323)"/>
<mask id="path-11-outside-6_1_1323" maskUnits="userSpaceOnUse" x="-464.362" y="392.393" width="599.709" height="611.712" fill="black">
<rect fill="white" x="-464.362" y="392.393" width="599.709" height="611.712"/>
<path fill-rule="evenodd" clip-rule="evenodd" d="M-97.3592 926.471C-95.8631 925.963 -94.3686 925.439 -92.8759 924.899C30.3392 880.318 94.0848 744.292 49.5039 621.077C4.92293 497.862 -131.103 434.116 -254.318 478.697C-344.066 511.169 -402.263 592.157 -410.028 681.371L-380.057 670.527C-368.91 597.357 -319.117 532.418 -244.621 505.465C-136.192 466.234 -16.4892 522.33 22.742 630.759C61.9733 739.188 5.87714 858.891 -102.552 898.122C-104.049 898.664 -105.548 899.187 -107.048 899.692L-97.3592 926.471Z"/>
</mask>
<path d="M-97.3592 926.471L-101.121 927.832L-99.7862 931.52L-96.0725 930.258L-97.3592 926.471ZM-410.028 681.371L-414.013 681.024L-414.556 687.263L-408.667 685.133L-410.028 681.371ZM-380.057 670.527L-378.696 674.288L-376.46 673.48L-376.102 671.13L-380.057 670.527ZM-107.048 899.692L-108.325 895.901L-112.201 897.207L-110.81 901.053L-107.048 899.692ZM-96.0725 930.258C-94.5515 929.742 -93.0323 929.209 -91.515 928.66L-94.2369 921.137C-95.7048 921.668 -97.1746 922.184 -98.646 922.684L-96.0725 930.258ZM-91.515 928.66C33.7775 883.327 98.5978 745.008 53.2653 619.716L45.7425 622.438C89.5719 743.576 26.901 877.308 -94.2369 921.137L-91.515 928.66ZM53.2653 619.716C7.93269 494.423 -130.386 429.603 -255.679 474.936L-252.957 482.458C-131.819 438.629 1.91317 501.3 45.7425 622.438L53.2653 619.716ZM-255.679 474.936C-346.946 507.957 -406.118 590.316 -414.013 681.024L-406.043 681.718C-398.408 593.998 -341.186 514.381 -252.957 482.458L-255.679 474.936ZM-408.667 685.133L-378.696 674.288L-381.418 666.766L-411.389 677.61L-408.667 685.133ZM-245.982 501.703C-321.91 529.175 -372.652 595.364 -384.011 669.925L-376.102 671.13C-365.167 599.35 -316.324 535.662 -243.26 509.226L-245.982 501.703ZM26.5034 629.398C-13.4794 518.891 -135.475 461.721 -245.982 501.703L-243.26 509.226C-136.908 470.747 -19.499 525.768 18.9807 632.12L26.5034 629.398ZM-101.191 901.884C9.3154 861.901 66.4863 739.905 26.5034 629.398L18.9807 632.12C57.4603 738.472 2.43888 855.881 -103.913 894.361L-101.191 901.884ZM-105.772 903.483C-104.243 902.968 -102.716 902.435 -101.191 901.884L-103.913 894.361C-105.382 894.892 -106.852 895.406 -108.325 895.901L-105.772 903.483ZM-110.81 901.053L-101.121 927.832L-93.5979 925.11L-103.287 898.331L-110.81 901.053Z" fill="#FFF1E8" mask="url(#path-11-outside-6_1_1323)"/>
<circle cx="1116" cy="1105" r="512" fill="url(#paint0_radial_1_1323)" fill-opacity="0.2"/>
<circle cx="100" cy="181" r="512" fill="url(#paint1_radial_1_1323)" fill-opacity="0.2"/>
<g opacity="0.02">
<mask id="path-15-outside-7_1_1323" maskUnits="userSpaceOnUse" x="339.137" y="321.461" width="169.479" height="168.162" fill="black">
<rect fill="white" x="339.137" y="321.461" width="169.479" height="168.162"/>
<path fill-rule="evenodd" clip-rule="evenodd" d="M476.442 374.378C476.22 374.038 475.994 373.699 475.764 373.362C456.758 345.465 418.736 338.257 390.839 357.264C362.942 376.27 355.735 414.292 374.741 442.189C388.585 462.509 412.518 471.852 435.279 468.083L430.657 461.3C411.684 463.199 392.293 454.927 380.802 438.06C364.076 413.511 370.419 380.051 394.968 363.325C419.517 346.6 452.977 352.943 469.703 377.492C469.932 377.829 470.158 378.168 470.379 378.509L476.442 374.378Z"/>
</mask>
<path d="M476.442 374.378L476.865 374.998L477.473 374.584L477.071 373.968L476.442 374.378ZM435.279 468.083L435.401 468.823L436.56 468.631L435.899 467.661L435.279 468.083ZM430.657 461.3L431.278 460.878L431.026 460.509L430.583 460.553L430.657 461.3ZM470.379 378.509L469.75 378.918L470.168 379.561L470.802 379.129L470.379 378.509ZM477.071 373.968C476.846 373.624 476.617 373.281 476.384 372.939L475.144 373.784C475.371 374.118 475.595 374.452 475.814 374.789L477.071 373.968ZM476.384 372.939C457.145 344.7 418.656 337.404 390.416 356.644L391.261 357.884C418.816 339.111 456.371 346.23 475.144 373.784L476.384 372.939ZM390.416 356.644C362.177 375.883 354.881 414.372 374.121 442.612L375.361 441.767C356.588 414.212 363.707 376.657 391.261 357.884L390.416 356.644ZM374.121 442.612C388.135 463.182 412.363 472.638 435.401 468.823L435.156 467.343C412.673 471.066 389.034 461.836 375.361 441.767L374.121 442.612ZM435.899 467.661L431.278 460.878L430.037 461.723L434.659 468.506L435.899 467.661ZM380.182 438.482C391.834 455.585 411.497 463.972 430.732 462.047L430.583 460.553C411.872 462.426 392.753 454.268 381.422 437.637L380.182 438.482ZM394.546 362.705C369.654 379.664 363.223 413.591 380.182 438.482L381.422 437.637C364.93 413.431 371.184 380.438 395.391 363.946L394.546 362.705ZM470.323 377.069C453.364 352.178 419.437 345.747 394.546 362.705L395.391 363.946C419.597 347.453 452.59 353.707 469.082 377.914L470.323 377.069ZM471.009 378.101C470.784 377.755 470.556 377.411 470.323 377.069L469.082 377.914C469.309 378.247 469.532 378.582 469.75 378.918L471.009 378.101ZM470.802 379.129L476.865 374.998L476.02 373.758L469.957 377.889L470.802 379.129Z" fill="url(#paint2_linear_1_1323)" mask="url(#path-15-outside-7_1_1323)"/>
<mask id="path-17-outside-8_1_1323" maskUnits="userSpaceOnUse" x="362.546" y="345.923" width="121.411" height="120.357" fill="black">
<rect fill="white" x="362.546" y="345.923" width="121.411" height="120.357"/>
<path fill-rule="evenodd" clip-rule="evenodd" d="M460.751 383.898C460.593 383.656 460.432 383.416 460.269 383.176C446.774 363.369 419.778 358.252 399.972 371.746C380.165 385.24 375.048 412.236 388.542 432.043C398.371 446.469 415.362 453.103 431.521 450.428L428.239 445.611C414.77 446.958 401.004 441.084 392.846 429.11C380.971 411.68 385.474 387.924 402.904 376.049C420.334 364.174 444.091 368.677 455.966 386.107C456.129 386.347 456.29 386.588 456.447 386.831L460.751 383.898Z"/>
</mask>
<path d="M460.751 383.898L461.173 384.519L461.781 384.104L461.379 383.488L460.751 383.898ZM431.521 450.428L431.643 451.169L432.803 450.977L432.141 450.006L431.521 450.428ZM428.239 445.611L428.859 445.189L428.608 444.82L428.164 444.864L428.239 445.611ZM456.447 386.831L455.818 387.239L456.235 387.883L456.869 387.451L456.447 386.831ZM461.379 383.488C461.218 383.242 461.055 382.997 460.889 382.753L459.649 383.598C459.809 383.834 459.967 384.071 460.122 384.309L461.379 383.488ZM460.889 382.753C447.161 362.604 419.698 357.398 399.549 371.126L400.394 372.366C419.858 359.105 446.388 364.134 459.649 383.598L460.889 382.753ZM399.549 371.126C379.4 384.854 374.194 412.316 387.922 432.466L389.162 431.621C375.901 412.156 380.93 385.627 400.394 372.366L399.549 371.126ZM387.922 432.466C397.921 447.142 415.207 453.889 431.643 451.169L431.398 449.688C415.517 452.317 398.82 445.796 389.162 431.621L387.922 432.466ZM432.141 450.006L428.859 445.189L427.619 446.034L430.901 450.851L432.141 450.006ZM392.226 429.533C400.545 441.743 414.582 447.731 428.314 446.358L428.164 444.864C414.957 446.185 401.463 440.426 393.466 428.688L392.226 429.533ZM402.482 375.429C384.709 387.537 380.118 411.76 392.226 429.533L393.466 428.688C381.824 411.6 386.239 388.311 403.327 376.669L402.482 375.429ZM456.586 385.684C444.477 367.912 420.254 363.32 402.482 375.429L403.327 376.669C420.414 365.027 443.704 369.442 455.345 386.529L456.586 385.684ZM457.076 386.422C456.916 386.175 456.752 385.929 456.586 385.684L455.345 386.529C455.506 386.765 455.663 387.001 455.818 387.239L457.076 386.422ZM456.869 387.451L461.173 384.519L460.328 383.278L456.024 386.21L456.869 387.451Z" fill="url(#paint3_linear_1_1323)" mask="url(#path-17-outside-8_1_1323)"/>
<mask id="path-19-outside-9_1_1323" maskUnits="userSpaceOnUse" x="382.144" y="364.608" width="83.6317" height="83.1049" fill="black">
<rect fill="white" x="382.144" y="364.608" width="83.6317" height="83.1049"/>
<path fill-rule="evenodd" clip-rule="evenodd" d="M449.137 390.732C449.03 390.569 448.921 390.406 448.811 390.243C439.688 376.853 421.437 373.393 408.047 382.516C394.656 391.639 391.197 409.89 400.319 423.28C406.964 433.033 418.451 437.518 429.376 435.71L427.157 432.453C418.051 433.364 408.743 429.394 403.228 421.298C395.2 409.514 398.244 393.453 410.028 385.425C421.811 377.397 437.872 380.441 445.9 392.225C446.011 392.388 446.12 392.551 446.226 392.716L449.137 390.732Z"/>
</mask>
<path d="M449.137 390.732L449.56 391.353L450.168 390.938L449.766 390.322L449.137 390.732ZM429.376 435.71L429.498 436.45L430.657 436.258L429.996 435.287L429.376 435.71ZM427.157 432.453L427.777 432.031L427.526 431.662L427.083 431.707L427.157 432.453ZM446.226 392.716L445.597 393.124L446.015 393.768L446.649 393.336L446.226 392.716ZM449.766 390.322C449.656 390.154 449.544 389.987 449.431 389.821L448.191 390.666C448.299 390.824 448.405 390.983 448.509 391.143L449.766 390.322ZM449.431 389.821C440.075 376.088 421.357 372.54 407.624 381.896L408.469 383.136C421.517 374.247 439.301 377.618 448.191 390.666L449.431 389.821ZM407.624 381.896C393.891 391.252 390.343 409.97 399.699 423.703L400.94 422.858C392.05 409.81 395.421 392.026 408.469 383.136L407.624 381.896ZM399.699 423.703C406.515 433.706 418.296 438.304 429.498 436.45L429.253 434.969C418.606 436.732 407.414 432.36 400.94 422.858L399.699 423.703ZM429.996 435.287L427.777 432.031L426.537 432.876L428.756 436.132L429.996 435.287ZM402.608 421.72C408.284 430.052 417.863 434.137 427.232 433.2L427.083 431.707C418.238 432.591 409.203 428.735 403.848 420.875L402.608 421.72ZM409.605 384.805C397.479 393.067 394.346 409.594 402.608 421.72L403.848 420.875C396.053 409.434 399.009 393.84 410.45 386.045L409.605 384.805ZM446.52 391.803C438.259 379.676 421.731 376.544 409.605 384.805L410.45 386.045C421.891 378.251 437.485 381.206 445.28 392.648L446.52 391.803ZM446.856 392.307C446.746 392.138 446.634 391.97 446.52 391.803L445.28 392.648C445.388 392.806 445.493 392.965 445.597 393.124L446.856 392.307ZM446.649 393.336L449.56 391.353L448.715 390.112L445.804 392.096L446.649 393.336Z" fill="url(#paint4_linear_1_1323)" mask="url(#path-19-outside-9_1_1323)"/>
</g>
</g>
<defs>
<radialGradient id="paint0_radial_1_1323" cx="0" cy="0" r="1" gradientUnits="userSpaceOnUse" gradientTransform="translate(1116 1105) rotate(90) scale(512)">
<stop stop-color="#FF6A00" stop-opacity="0.45"/>
<stop offset="1" stop-color="#444B52" stop-opacity="0"/>
</radialGradient>
<radialGradient id="paint1_radial_1_1323" cx="0" cy="0" r="1" gradientUnits="userSpaceOnUse" gradientTransform="translate(100 181) rotate(90) scale(512)">
<stop stop-color="#FF6A00" stop-opacity="0.45"/>
<stop offset="1" stop-color="#444B52" stop-opacity="0"/>
</radialGradient>
<linearGradient id="paint2_linear_1_1323" x1="474.178" y1="371.033" x2="373.154" y2="439.86" gradientUnits="userSpaceOnUse">
<stop stop-color="#9747FF"/>
<stop offset="1" stop-color="#258CF4"/>
</linearGradient>
<linearGradient id="paint3_linear_1_1323" x1="459.142" y1="381.522" x2="387.415" y2="430.389" gradientUnits="userSpaceOnUse">
<stop stop-color="#9747FF"/>
<stop offset="1" stop-color="#258CF4"/>
</linearGradient>
<linearGradient id="paint4_linear_1_1323" x1="448.049" y1="389.125" x2="399.558" y2="422.162" gradientUnits="userSpaceOnUse">
<stop stop-color="#9747FF"/>
<stop offset="1" stop-color="#258CF4"/>
</linearGradient>
<clipPath id="clip0_1_1323">
<rect width="1440" height="1453" fill="white"/>
</clipPath>
</defs>
</svg>
