<svg width="1440" height="1194" viewBox="0 0 1440 1194" fill="none" xmlns="http://www.w3.org/2000/svg">
<g clip-path="url(#clip0_1217_5255)">
<rect width="1440" height="1194" fill="white"/>
<ellipse cx="131" cy="256" rx="319" ry="328" fill="url(#paint0_radial_1217_5255)" fill-opacity="0.5"/>
<mask id="path-2-outside-1_1217_5255" maskUnits="userSpaceOnUse" x="-280.555" y="757.512" width="899.904" height="921.229" fill="black">
<rect fill="white" x="-280.555" y="757.512" width="899.904" height="921.229"/>
<path fill-rule="evenodd" clip-rule="evenodd" d="M254.441 1577.86C256.801 1577.2 259.161 1576.5 261.518 1575.79C456.387 1516.64 566.406 1310.71 507.253 1115.84C448.1 920.972 242.174 810.953 47.3054 870.106C-94.635 913.193 -191.558 1034.15 -210.878 1171.98L-163.493 1157.6C-140.232 1044.94 -57.6596 948.212 60.1583 912.448C231.643 860.393 412.857 957.21 464.912 1128.69C516.967 1300.18 420.15 1481.39 248.666 1533.45C246.307 1534.16 243.947 1534.85 241.585 1535.51L254.441 1577.86Z"/>
</mask>
<path d="M254.441 1577.86L250.613 1579.02L251.752 1582.78L255.527 1581.71L254.441 1577.86ZM-210.878 1171.98L-214.839 1171.43L-215.709 1177.63L-209.716 1175.81L-210.878 1171.98ZM-163.493 1157.6L-162.332 1161.43L-160.057 1160.74L-159.576 1158.41L-163.493 1157.6ZM241.585 1535.51L240.509 1531.66L236.57 1532.76L237.758 1536.67L241.585 1535.51ZM255.527 1581.71C257.913 1581.04 260.297 1580.34 262.68 1579.62L260.356 1571.96C258.024 1572.67 255.69 1573.35 253.354 1574.01L255.527 1581.71ZM262.68 1579.62C459.663 1519.82 570.875 1311.66 511.08 1114.68L503.425 1117C561.937 1309.76 453.111 1513.45 260.356 1571.96L262.68 1579.62ZM511.08 1114.68C451.286 917.697 243.126 806.484 46.1435 866.279L48.4672 873.934C241.222 815.422 444.914 924.248 503.425 1117L511.08 1114.68ZM46.1435 866.279C-97.3424 909.835 -195.311 1032.11 -214.839 1171.43L-206.917 1172.54C-187.805 1036.19 -91.9276 916.551 48.4672 873.934L46.1435 866.279ZM-209.716 1175.81L-162.332 1161.43L-164.655 1153.77L-212.04 1168.16L-209.716 1175.81ZM58.9964 908.621C-60.279 944.827 -143.865 1042.76 -167.411 1156.79L-159.576 1158.41C-136.599 1047.13 -55.0402 951.597 61.3202 916.276L58.9964 908.621ZM468.74 1127.53C416.043 953.934 232.595 855.924 58.9964 908.621L61.3202 916.276C230.691 864.863 409.671 960.486 461.085 1129.86L468.74 1127.53ZM249.827 1537.28C423.426 1484.58 521.436 1301.13 468.74 1127.53L461.085 1129.86C512.498 1299.23 416.874 1478.21 247.504 1529.62L249.827 1537.28ZM242.662 1539.36C245.052 1538.7 247.441 1538 249.827 1537.28L247.504 1529.62C245.174 1530.33 242.842 1531.01 240.509 1531.66L242.662 1539.36ZM237.758 1536.67L250.613 1579.02L258.268 1576.7L245.413 1534.35L237.758 1536.67Z" fill="#FFF1E8" fill-opacity="0.44" mask="url(#path-2-outside-1_1217_5255)"/>
<mask id="path-4-outside-2_1217_5255" maskUnits="userSpaceOnUse" x="-154.116" y="886.422" width="642.54" height="657.201" fill="black">
<rect fill="white" x="-154.116" y="886.422" width="642.54" height="657.201"/>
<path fill-rule="evenodd" clip-rule="evenodd" d="M227.893 1470.34C229.569 1469.86 231.244 1469.37 232.917 1468.86C371.274 1426.87 449.388 1280.66 407.389 1142.3C365.39 1003.95 219.183 925.832 80.8262 967.83C-19.9511 998.422 -88.7665 1084.3 -102.484 1182.16L-68.8393 1171.95C-52.3227 1091.96 6.3032 1023.29 89.9529 997.894C211.707 960.935 340.369 1029.68 377.328 1151.43C414.287 1273.18 345.547 1401.85 223.793 1438.8C222.119 1439.31 220.443 1439.8 218.766 1440.27L227.893 1470.34Z"/>
</mask>
<path d="M227.893 1470.34L224.065 1471.5L225.204 1475.25L228.979 1474.19L227.893 1470.34ZM-102.484 1182.16L-106.445 1181.61L-107.315 1187.81L-101.322 1185.99L-102.484 1182.16ZM-68.8393 1171.95L-67.6774 1175.78L-65.4027 1175.09L-64.9219 1172.76L-68.8393 1171.95ZM218.766 1440.27L217.69 1436.42L213.75 1437.52L214.938 1441.43L218.766 1440.27ZM228.979 1474.19C230.68 1473.71 232.38 1473.21 234.079 1472.69L231.755 1465.04C230.107 1465.54 228.457 1466.02 226.806 1466.49L228.979 1474.19ZM234.079 1472.69C374.55 1430.05 453.857 1281.61 411.217 1141.14L403.561 1143.46C444.919 1279.71 367.998 1423.68 231.755 1465.04L234.079 1472.69ZM411.217 1141.14C368.576 1000.67 220.135 921.362 79.6643 964.003L81.9881 971.658C218.231 930.301 362.204 1007.22 403.561 1143.46L411.217 1141.14ZM79.6643 964.003C-22.6586 995.063 -92.5196 1082.26 -106.445 1181.61L-98.5227 1182.72C-85.0135 1086.34 -17.2437 1001.78 81.9881 971.658L79.6643 964.003ZM-101.322 1185.99L-67.6774 1175.78L-70.0011 1168.12L-103.646 1178.34L-101.322 1185.99ZM88.791 994.067C3.68381 1019.9 -55.9557 1089.78 -72.7566 1171.14L-64.9219 1172.76C-48.6898 1094.15 8.92259 1026.67 91.1148 1001.72L88.791 994.067ZM381.156 1150.27C343.555 1026.4 212.659 956.466 88.791 994.067L91.1148 1001.72C210.755 965.405 337.183 1032.95 373.501 1152.59L381.156 1150.27ZM224.955 1442.63C348.823 1405.03 418.756 1274.14 381.156 1150.27L373.501 1152.59C409.818 1272.23 342.271 1398.66 222.631 1434.98L224.955 1442.63ZM219.842 1444.12C221.548 1443.65 223.252 1443.15 224.955 1442.63L222.631 1434.98C220.985 1435.48 219.338 1435.96 217.69 1436.42L219.842 1444.12ZM214.938 1441.43L224.065 1471.5L231.72 1469.17L222.593 1439.11L214.938 1441.43Z" fill="#FFF1E8" fill-opacity="0.44" mask="url(#path-4-outside-2_1217_5255)"/>
<mask id="path-6-outside-3_1217_5255" maskUnits="userSpaceOnUse" x="-50.9084" y="995.031" width="438.145" height="447.475" fill="black">
<rect fill="white" x="-50.9084" y="995.031" width="438.145" height="447.475"/>
<path fill-rule="evenodd" clip-rule="evenodd" d="M209.483 1391.17C210.617 1390.84 211.751 1390.51 212.883 1390.17C306.42 1361.78 359.23 1262.93 330.836 1169.39C302.442 1075.86 203.598 1023.05 110.061 1051.44C41.9305 1072.12 -4.5924 1130.18 -13.8666 1196.34L8.88672 1189.43C20.0528 1135.36 59.6872 1088.93 116.239 1071.76C198.552 1046.78 285.535 1093.25 310.521 1175.56C335.507 1257.87 289.035 1344.86 206.723 1369.84C205.587 1370.19 204.45 1370.52 203.312 1370.84L209.483 1391.17Z"/>
</mask>
<path d="M209.483 1391.17L205.655 1392.33L206.795 1396.08L210.57 1395.01L209.483 1391.17ZM-13.8666 1196.34L-17.8279 1195.79L-18.6973 1201.99L-12.7048 1200.17L-13.8666 1196.34ZM8.88672 1189.43L10.0486 1193.26L12.3233 1192.57L12.8041 1190.24L8.88672 1189.43ZM203.312 1370.84L202.236 1366.98L198.297 1368.08L199.485 1372L203.312 1370.84ZM210.57 1395.01C211.729 1394.69 212.887 1394.35 214.045 1394L211.721 1386.34C210.614 1386.68 209.505 1387 208.397 1387.32L210.57 1395.01ZM214.045 1394C309.696 1364.96 363.699 1263.88 334.664 1168.23L327.008 1170.56C354.76 1261.98 303.145 1358.59 211.721 1386.34L214.045 1394ZM334.664 1168.23C305.628 1072.58 204.55 1018.58 108.899 1047.61L111.223 1055.27C202.646 1027.52 299.257 1079.13 327.008 1170.56L334.664 1168.23ZM108.899 1047.61C39.2231 1068.76 -8.34547 1128.14 -17.8279 1195.79L-9.90537 1196.9C-0.839326 1132.22 44.638 1075.48 111.223 1055.27L108.899 1047.61ZM-12.7048 1200.17L10.0486 1193.26L7.72485 1185.61L-15.0285 1192.51L-12.7048 1200.17ZM115.077 1067.94C57.0679 1085.54 16.4199 1133.17 4.96937 1188.63L12.8041 1190.24C23.6858 1137.55 62.3066 1092.31 117.401 1075.59L115.077 1067.94ZM314.349 1174.4C288.721 1089.97 199.504 1042.31 115.077 1067.94L117.401 1075.59C197.6 1051.25 282.349 1096.52 306.693 1176.72L314.349 1174.4ZM207.885 1373.67C292.311 1348.04 339.977 1258.83 314.349 1174.4L306.693 1176.72C331.038 1256.92 285.759 1341.67 205.561 1366.02L207.885 1373.67ZM204.388 1374.69C205.555 1374.36 206.72 1374.02 207.885 1373.67L205.561 1366.02C204.453 1366.35 203.345 1366.67 202.236 1366.98L204.388 1374.69ZM199.485 1372L205.655 1392.33L213.311 1390L207.14 1369.67L199.485 1372Z" fill="#FFF1E8" fill-opacity="0.44" mask="url(#path-6-outside-3_1217_5255)"/>
<mask id="path-8-outside-4_1217_5255" maskUnits="userSpaceOnUse" x="724.889" y="483.402" width="832.7" height="796.562" fill="black">
<rect fill="white" x="724.889" y="483.402" width="832.7" height="796.562"/>
<path fill-rule="evenodd" clip-rule="evenodd" d="M736.53 846.155C736.415 848.848 736.326 851.547 736.264 854.253C731.111 1077.92 908.254 1263.42 1131.92 1268.57C1355.59 1273.72 1541.09 1096.58 1546.24 872.911C1549.99 709.993 1457.03 567.328 1319.82 499.857L1318.56 554.245C1428.15 617.187 1500.76 736.561 1497.64 871.792C1493.11 1068.62 1329.87 1224.51 1133.04 1219.97C936.213 1215.44 780.327 1052.2 784.861 855.373C784.924 852.666 785.016 849.966 785.138 847.275L736.53 846.155Z"/>
</mask>
<path d="M736.53 846.155L736.576 844.156L734.615 844.111L734.531 846.07L736.53 846.155ZM1319.82 499.857L1320.7 498.062L1317.89 496.68L1317.82 499.811L1319.82 499.857ZM1318.56 554.245L1316.56 554.198L1316.54 555.387L1317.57 555.979L1318.56 554.245ZM785.138 847.275L787.136 847.366L787.229 845.323L785.184 845.276L785.138 847.275ZM734.531 846.07C734.416 848.776 734.327 851.488 734.264 854.207L738.263 854.299C738.325 851.606 738.413 848.92 738.528 846.241L734.531 846.07ZM734.264 854.207C729.086 1078.98 907.104 1265.39 1131.88 1270.57L1131.97 1266.57C909.404 1261.44 733.136 1076.86 738.263 854.299L734.264 854.207ZM1131.88 1270.57C1356.65 1275.75 1543.06 1097.73 1548.24 872.957L1544.24 872.865C1539.11 1095.43 1354.53 1271.7 1131.97 1266.57L1131.88 1270.57ZM1548.24 872.957C1552.01 709.232 1458.58 565.864 1320.7 498.062L1318.93 501.651C1455.47 568.792 1547.98 710.755 1544.24 872.865L1548.24 872.957ZM1317.82 499.811L1316.56 554.198L1320.56 554.291L1321.82 499.903L1317.82 499.811ZM1499.64 871.838C1502.77 735.846 1429.75 615.803 1319.56 552.51L1317.57 555.979C1426.54 618.572 1498.74 737.277 1495.64 871.746L1499.64 871.838ZM1133 1221.97C1330.93 1226.53 1495.08 1069.77 1499.64 871.838L1495.64 871.746C1491.13 1067.47 1328.81 1222.48 1133.09 1217.97L1133 1221.97ZM782.862 855.327C778.302 1053.26 935.063 1217.41 1133 1221.97L1133.09 1217.97C937.363 1213.46 782.352 1051.14 786.861 855.419L782.862 855.327ZM783.14 847.184C783.017 849.891 782.924 852.605 782.862 855.327L786.861 855.419C786.923 852.727 787.015 850.042 787.136 847.366L783.14 847.184ZM785.184 845.276L736.576 844.156L736.483 848.155L785.092 849.275L785.184 845.276Z" fill="#FFF1E8" mask="url(#path-8-outside-4_1217_5255)"/>
<mask id="path-10-outside-5_1217_5255" maskUnits="userSpaceOnUse" x="848.997" y="596.746" width="592.604" height="567.21" fill="black">
<rect fill="white" x="848.997" y="596.746" width="592.604" height="567.21"/>
<path fill-rule="evenodd" clip-rule="evenodd" d="M857.855 855.355C857.774 857.267 857.711 859.183 857.667 861.104C854.008 1019.91 979.78 1151.61 1138.58 1155.27C1297.39 1158.93 1429.09 1033.16 1432.75 874.351C1435.41 758.68 1369.41 657.387 1271.99 609.483L1271.1 648.1C1348.9 692.79 1400.45 777.545 1398.24 873.557C1395.02 1013.31 1279.13 1123.98 1139.38 1120.77C999.629 1117.55 888.95 1001.65 892.169 861.9C892.214 859.978 892.279 858.061 892.366 856.15L857.855 855.355Z"/>
</mask>
<path d="M857.855 855.355L857.901 853.356L855.941 853.311L855.857 855.27L857.855 855.355ZM1271.99 609.483L1272.87 607.688L1270.06 606.306L1269.99 609.437L1271.99 609.483ZM1271.1 648.1L1269.1 648.054L1269.07 649.242L1270.1 649.834L1271.1 648.1ZM892.366 856.15L894.364 856.241L894.456 854.198L892.412 854.151L892.366 856.15ZM855.857 855.27C855.775 857.195 855.712 859.124 855.667 861.058L859.666 861.15C859.71 859.242 859.773 857.339 859.854 855.441L855.857 855.27ZM855.667 861.058C851.984 1020.97 978.629 1153.59 1138.54 1157.27L1138.63 1153.27C980.93 1149.64 856.033 1018.85 859.666 861.15L855.667 861.058ZM1138.54 1157.27C1298.45 1160.95 1431.07 1034.31 1434.75 874.397L1430.75 874.305C1427.12 1032.01 1296.33 1156.9 1138.63 1153.27L1138.54 1157.27ZM1434.75 874.397C1437.43 757.918 1370.97 655.924 1272.87 607.688L1271.11 611.278C1367.86 658.851 1433.4 759.441 1430.75 874.305L1434.75 874.397ZM1269.99 609.437L1269.1 648.054L1273.1 648.146L1273.99 609.529L1269.99 609.437ZM1400.24 873.603C1402.47 776.829 1350.51 691.406 1272.1 646.366L1270.1 649.834C1347.3 694.174 1398.44 778.26 1396.24 873.511L1400.24 873.603ZM1139.33 1122.76C1280.18 1126.01 1397 1014.46 1400.24 873.603L1396.24 873.511C1393.05 1012.16 1278.07 1121.96 1139.42 1118.77L1139.33 1122.76ZM890.17 861.854C886.925 1002.71 998.479 1119.52 1139.33 1122.76L1139.42 1118.77C1000.78 1115.57 890.975 1000.59 894.169 861.946L890.17 861.854ZM890.368 856.06C890.281 857.985 890.214 859.917 890.17 861.854L894.169 861.946C894.213 860.039 894.278 858.137 894.364 856.241L890.368 856.06ZM892.412 854.151L857.901 853.356L857.809 857.355L892.32 858.15L892.412 854.151Z" fill="#FFF1E8" mask="url(#path-10-outside-5_1217_5255)"/>
<mask id="path-12-outside-6_1217_5255" maskUnits="userSpaceOnUse" x="940.146" y="686.656" width="401.578" height="385.95" fill="black">
<rect fill="white" x="940.146" y="686.656" width="401.578" height="385.95"/>
<path fill-rule="evenodd" clip-rule="evenodd" d="M946.797 863.318C946.742 864.611 946.699 865.908 946.669 867.208C944.196 974.569 1029.22 1063.61 1136.59 1066.08C1243.95 1068.55 1332.99 983.525 1335.46 876.164C1337.26 797.964 1292.64 729.485 1226.78 697.099L1226.18 723.215C1278.77 753.428 1313.63 810.727 1312.13 875.636C1309.95 970.114 1231.6 1044.94 1137.12 1042.76C1042.64 1040.59 967.819 962.233 969.996 867.755C970.026 866.452 970.07 865.152 970.129 863.855L946.797 863.318Z"/>
</mask>
<path d="M946.797 863.318L946.843 861.319L944.883 861.273L944.799 863.233L946.797 863.318ZM1226.78 697.099L1227.66 695.304L1224.85 693.922L1224.78 697.053L1226.78 697.099ZM1226.18 723.215L1224.18 723.169L1224.15 724.357L1225.18 724.95L1226.18 723.215ZM970.129 863.855L972.127 863.946L972.22 861.903L970.175 861.856L970.129 863.855ZM944.799 863.233C944.743 864.539 944.7 865.849 944.67 867.162L948.669 867.254C948.698 865.967 948.741 864.684 948.795 863.403L944.799 863.233ZM944.67 867.162C942.171 975.627 1028.07 1065.58 1136.54 1068.08L1136.63 1064.08C1030.38 1061.63 946.221 973.511 948.669 867.254L944.67 867.162ZM1136.54 1068.08C1245.01 1070.58 1334.96 984.675 1337.46 876.21L1333.46 876.118C1331.01 982.375 1242.89 1066.53 1136.63 1064.08L1136.54 1068.08ZM1337.46 876.21C1339.28 797.203 1294.19 728.022 1227.66 695.304L1225.89 698.893C1291.08 730.949 1335.24 798.725 1333.46 876.118L1337.46 876.21ZM1224.78 697.053L1224.18 723.169L1228.17 723.261L1228.78 697.145L1224.78 697.053ZM1314.13 875.682C1315.64 810.012 1280.38 752.044 1227.17 721.481L1225.18 724.95C1277.17 754.812 1311.61 811.442 1310.13 875.59L1314.13 875.682ZM1137.08 1044.76C1232.66 1046.96 1311.93 971.265 1314.13 875.682L1310.13 875.59C1307.98 968.964 1230.54 1042.91 1137.17 1040.76L1137.08 1044.76ZM967.996 867.709C965.794 963.291 1041.49 1042.56 1137.08 1044.76L1137.17 1040.76C1043.79 1038.61 969.844 961.175 971.995 867.801L967.996 867.709ZM968.131 863.765C968.072 865.076 968.027 866.391 967.996 867.709L971.995 867.801C972.025 866.513 972.069 865.227 972.127 863.946L968.131 863.765ZM970.175 861.856L946.843 861.319L946.751 865.317L970.083 865.855L970.175 861.856Z" fill="#FFF1E8" mask="url(#path-12-outside-6_1217_5255)"/>
</g>
<defs>
<radialGradient id="paint0_radial_1217_5255" cx="0" cy="0" r="1" gradientUnits="userSpaceOnUse" gradientTransform="translate(131 256) rotate(90) scale(328 319)">
<stop stop-color="#FFD9BE"/>
<stop offset="1" stop-color="#FFD9BE" stop-opacity="0"/>
</radialGradient>
<clipPath id="clip0_1217_5255">
<rect width="1440" height="1194" fill="white"/>
</clipPath>
</defs>
</svg>
