<svg width="1440" height="1024" viewBox="0 0 1440 1024" fill="none" xmlns="http://www.w3.org/2000/svg">
<g clip-path="url(#clip0_1199_4873)">
<rect width="1440" height="1024" fill="white"/>
<mask id="path-1-outside-1_1199_4873" maskUnits="userSpaceOnUse" x="-549.515" y="22.5317" width="818.848" height="835.651" fill="black">
<rect fill="white" x="-549.515" y="22.5317" width="818.848" height="835.651"/>
<path fill-rule="evenodd" clip-rule="evenodd" d="M-48.3177 753.766C-46.2656 753.069 -44.2159 752.35 -42.1687 751.609C127.04 690.387 214.58 503.587 153.358 334.379C92.136 165.17 -94.6645 77.6302 -263.873 138.852C-387.122 183.445 -467.043 294.665 -477.706 417.181L-436.56 402.294C-421.253 301.811 -352.874 212.632 -250.57 175.617C-101.667 121.742 62.7178 198.777 116.593 347.681C170.468 496.584 93.433 660.969 -55.4703 714.844C-57.5183 715.585 -59.5693 716.301 -61.6229 716.993L-48.3177 753.766Z"/>
</mask>
<path d="M-48.3177 753.766L-52.0791 755.127L-50.7446 758.815L-47.0308 757.554L-48.3177 753.766ZM-477.706 417.181L-481.691 416.835L-482.234 423.074L-476.345 420.943L-477.706 417.181ZM-436.56 402.294L-435.199 406.056L-432.964 405.247L-432.606 402.897L-436.56 402.294ZM-61.6229 716.993L-62.8996 713.202L-66.7759 714.507L-65.3843 718.354L-61.6229 716.993ZM-47.0308 757.554C-44.954 756.848 -42.8795 756.12 -40.8078 755.371L-43.5296 747.848C-45.5522 748.58 -47.5773 749.29 -49.6046 749.979L-47.0308 757.554ZM-40.8078 755.371C130.478 693.397 219.093 504.303 157.119 333.018L149.597 335.74C210.067 502.87 123.601 687.378 -43.5296 747.848L-40.8078 755.371ZM157.119 333.018C95.1458 161.732 -93.9481 73.1172 -265.234 135.091L-262.512 142.613C-95.381 82.1432 89.1262 168.609 149.597 335.74L157.119 333.018ZM-265.234 135.091C-390.002 180.234 -470.897 292.824 -481.691 416.835L-473.721 417.528C-463.188 296.506 -384.242 186.657 -262.512 142.613L-265.234 135.091ZM-476.345 420.943L-435.199 406.056L-437.921 398.533L-479.067 413.42L-476.345 420.943ZM-251.931 171.856C-355.667 209.389 -424.996 299.819 -440.515 401.692L-432.606 402.897C-417.51 303.804 -350.08 215.875 -249.209 179.379L-251.931 171.856ZM120.354 346.32C65.7276 195.339 -100.95 117.229 -251.931 171.856L-249.209 179.379C-102.383 126.255 59.7081 202.216 112.832 349.042L120.354 346.32ZM-54.1094 718.605C96.8712 663.978 174.981 497.3 120.354 346.32L112.832 349.042C165.955 495.868 89.9947 657.959 -56.8312 711.082L-54.1094 718.605ZM-60.3462 720.783C-58.2644 720.082 -56.1854 719.356 -54.1094 718.605L-56.8312 711.082C-58.8513 711.813 -60.8742 712.52 -62.8996 713.202L-60.3462 720.783ZM-65.3843 718.354L-52.0791 755.127L-44.5563 752.405L-57.8615 715.632L-65.3843 718.354Z" fill="#FFF1E8" mask="url(#path-1-outside-1_1199_4873)"/>
<mask id="path-3-outside-2_1199_4873" maskUnits="userSpaceOnUse" x="-434.991" y="139.38" width="585.283" height="596.685" fill="black">
<rect fill="white" x="-434.991" y="139.38" width="585.283" height="596.685"/>
<path fill-rule="evenodd" clip-rule="evenodd" d="M-76.7232 660.117C-75.2668 659.622 -73.8119 659.112 -72.3589 658.586C47.7789 615.118 109.933 482.49 66.465 362.352C22.9974 242.214 -109.631 180.061 -229.769 223.528C-317.276 255.189 -374.019 334.155 -381.59 421.142L-352.375 410.571C-341.506 339.229 -292.957 275.913 -220.323 249.633C-114.601 211.382 2.11163 266.077 40.3631 371.798C78.6145 477.52 23.9194 594.233 -81.8019 632.484C-83.2557 633.01 -84.7116 633.518 -86.1692 634.009L-76.7232 660.117Z"/>
</mask>
<path d="M-76.7232 660.117L-80.4846 661.478L-79.1501 665.166L-75.4363 663.904L-76.7232 660.117ZM-381.59 421.142L-385.575 420.795L-386.118 427.034L-380.229 424.903L-381.59 421.142ZM-352.375 410.571L-351.015 414.333L-348.779 413.524L-348.421 411.174L-352.375 410.571ZM-86.1692 634.009L-87.446 630.219L-91.3222 631.524L-89.9306 635.37L-86.1692 634.009ZM-75.4363 663.904C-73.9551 663.401 -72.4756 662.882 -70.998 662.347L-73.7198 654.824C-75.1483 655.341 -76.5784 655.843 -78.0101 656.329L-75.4363 663.904ZM-70.998 662.347C51.2172 618.128 114.445 483.206 70.2263 360.991L62.7036 363.713C105.42 481.773 44.3407 612.109 -73.7198 654.824L-70.998 662.347ZM70.2263 360.991C26.0072 238.776 -108.915 175.548 -231.13 219.767L-228.408 227.289C-110.347 184.574 19.9876 245.652 62.7036 363.713L70.2263 360.991ZM-231.13 219.767C-320.156 251.978 -377.874 332.314 -385.575 420.795L-377.605 421.488C-370.164 335.996 -314.396 258.401 -228.408 227.289L-231.13 219.767ZM-380.229 424.903L-351.015 414.333L-353.736 406.81L-382.951 417.38L-380.229 424.903ZM-221.684 245.872C-295.751 272.67 -345.249 337.237 -356.33 409.969L-348.421 411.174C-337.764 341.222 -290.164 279.157 -218.962 253.395L-221.684 245.872ZM44.1244 370.437C5.12139 262.639 -113.885 206.869 -221.684 245.872L-218.962 253.395C-115.318 215.895 -0.898128 269.515 36.6017 373.159L44.1244 370.437ZM-80.441 636.245C27.3576 597.242 83.1275 478.236 44.1244 370.437L36.6017 373.159C74.1015 476.803 20.4811 591.223 -83.1628 628.723L-80.441 636.245ZM-84.8925 637.8C-83.4067 637.3 -81.9227 636.781 -80.441 636.245L-83.1628 628.723C-84.5887 629.238 -86.0165 629.737 -87.446 630.219L-84.8925 637.8ZM-89.9306 635.37L-80.4846 661.478L-72.9619 658.756L-82.4079 632.648L-89.9306 635.37Z" fill="#FFF1E8" mask="url(#path-3-outside-2_1199_4873)"/>
<mask id="path-5-outside-3_1199_4873" maskUnits="userSpaceOnUse" x="-341.274" y="237.416" width="399.779" height="406.981" fill="black">
<rect fill="white" x="-341.274" y="237.416" width="399.779" height="406.981"/>
<path fill-rule="evenodd" clip-rule="evenodd" d="M-96.6338 591.111C-95.6477 590.776 -94.6627 590.431 -93.6789 590.075C-12.459 560.688 29.5603 471.024 0.173828 389.804C-29.2127 308.584 -118.877 266.565 -200.097 295.951C-259.256 317.356 -297.618 370.741 -302.737 429.549L-282.98 422.4C-275.633 374.169 -242.81 331.363 -193.705 313.596C-122.231 287.736 -43.3267 324.713 -17.4666 396.186C8.39357 467.66 -28.5834 546.564 -100.057 572.424C-101.043 572.781 -102.031 573.126 -103.02 573.459L-96.6338 591.111Z"/>
</mask>
<path d="M-96.6338 591.111L-100.395 592.472L-99.0607 596.16L-95.347 594.899L-96.6338 591.111ZM-302.737 429.549L-306.722 429.202L-307.265 435.441L-301.376 433.31L-302.737 429.549ZM-282.98 422.4L-281.619 426.162L-279.384 425.353L-279.026 423.003L-282.98 422.4ZM-103.02 573.459L-104.297 569.669L-108.174 570.974L-106.782 574.82L-103.02 573.459ZM-95.347 594.899C-94.3361 594.555 -93.3264 594.201 -92.318 593.836L-95.0398 586.313C-95.999 586.66 -96.9593 586.997 -97.9206 587.324L-95.347 594.899ZM-92.318 593.836C-9.02071 563.698 34.0733 471.74 3.9352 388.443L-3.58754 391.165C25.0474 470.308 -15.8972 557.678 -95.0398 586.313L-92.318 593.836ZM3.9352 388.443C-26.2029 305.146 -118.161 262.052 -201.458 292.19L-198.736 299.713C-119.593 271.078 -32.2224 312.022 -3.58754 391.165L3.9352 388.443ZM-201.458 292.19C-262.136 314.144 -301.473 368.9 -306.722 429.202L-298.752 429.895C-293.763 372.582 -256.377 320.568 -198.736 299.713L-201.458 292.19ZM-301.376 433.31L-281.619 426.162L-284.341 418.639L-304.098 425.787L-301.376 433.31ZM-195.066 309.834C-245.604 328.12 -279.375 372.176 -286.935 421.798L-279.026 423.003C-271.89 376.161 -240.017 334.606 -192.344 317.357L-195.066 309.834ZM-13.7052 394.825C-40.3169 321.274 -121.515 283.223 -195.066 309.834L-192.344 317.357C-122.948 292.249 -46.3364 328.151 -21.2279 397.547L-13.7052 394.825ZM-98.6961 576.186C-25.1452 549.574 12.9066 468.376 -13.7052 394.825L-21.2279 397.547C3.88059 466.943 -32.0217 543.555 -101.418 568.663L-98.6961 576.186ZM-101.744 577.25C-100.727 576.908 -99.7106 576.553 -98.6961 576.186L-101.418 568.663C-102.376 569.01 -103.336 569.345 -104.297 569.669L-101.744 577.25ZM-106.782 574.82L-100.395 592.472L-92.8724 589.75L-99.2591 572.098L-106.782 574.82Z" fill="#FFF1E8" mask="url(#path-5-outside-3_1199_4873)"/>
<mask id="path-7-outside-4_1199_4873" maskUnits="userSpaceOnUse" x="1043.48" y="658.532" width="818.848" height="835.651" fill="black">
<rect fill="white" x="1043.48" y="658.532" width="818.848" height="835.651"/>
<path fill-rule="evenodd" clip-rule="evenodd" d="M1544.68 1389.77C1546.73 1389.07 1548.78 1388.35 1550.83 1387.61C1720.04 1326.39 1807.58 1139.59 1746.36 970.379C1685.14 801.17 1498.34 713.63 1329.13 774.852C1205.88 819.445 1125.96 930.665 1115.29 1053.18L1156.44 1038.29C1171.75 937.811 1240.13 848.632 1342.43 811.617C1491.33 757.742 1655.72 834.777 1709.59 983.681C1763.47 1132.58 1686.43 1296.97 1537.53 1350.84C1535.48 1351.58 1533.43 1352.3 1531.38 1352.99L1544.68 1389.77Z"/>
</mask>
<path d="M1544.68 1389.77L1540.92 1391.13L1542.26 1394.82L1545.97 1393.55L1544.68 1389.77ZM1115.29 1053.18L1111.31 1052.83L1110.77 1059.07L1116.66 1056.94L1115.29 1053.18ZM1156.44 1038.29L1157.8 1042.06L1160.04 1041.25L1160.39 1038.9L1156.44 1038.29ZM1531.38 1352.99L1530.1 1349.2L1526.22 1350.51L1527.62 1354.35L1531.38 1352.99ZM1545.97 1393.55C1548.05 1392.85 1550.12 1392.12 1552.19 1391.37L1549.47 1383.85C1547.45 1384.58 1545.42 1385.29 1543.4 1385.98L1545.97 1393.55ZM1552.19 1391.37C1723.48 1329.4 1812.09 1140.3 1750.12 969.018L1742.6 971.74C1803.07 1138.87 1716.6 1323.38 1549.47 1383.85L1552.19 1391.37ZM1750.12 969.018C1688.15 797.732 1499.05 709.117 1327.77 771.091L1330.49 778.613C1497.62 718.143 1682.13 804.609 1742.6 971.74L1750.12 969.018ZM1327.77 771.091C1203 816.234 1122.1 928.824 1111.31 1052.83L1119.28 1053.53C1129.81 932.506 1208.76 822.657 1330.49 778.613L1327.77 771.091ZM1116.66 1056.94L1157.8 1042.06L1155.08 1034.53L1113.93 1049.42L1116.66 1056.94ZM1341.07 807.856C1237.33 845.389 1168 935.819 1152.49 1037.69L1160.39 1038.9C1175.49 939.804 1242.92 851.875 1343.79 815.379L1341.07 807.856ZM1713.35 982.32C1658.73 831.339 1492.05 753.229 1341.07 807.856L1343.79 815.379C1490.62 762.255 1652.71 838.216 1705.83 985.042L1713.35 982.32ZM1538.89 1354.61C1689.87 1299.98 1767.98 1133.3 1713.35 982.32L1705.83 985.042C1758.96 1131.87 1682.99 1293.96 1536.17 1347.08L1538.89 1354.61ZM1532.65 1356.78C1534.74 1356.08 1536.81 1355.36 1538.89 1354.61L1536.17 1347.08C1534.15 1347.81 1532.13 1348.52 1530.1 1349.2L1532.65 1356.78ZM1527.62 1354.35L1540.92 1391.13L1548.44 1388.41L1535.14 1351.63L1527.62 1354.35Z" fill="#FFF1E8" mask="url(#path-7-outside-4_1199_4873)"/>
<mask id="path-9-outside-5_1199_4873" maskUnits="userSpaceOnUse" x="1158.01" y="775.38" width="585.283" height="596.685" fill="black">
<rect fill="white" x="1158.01" y="775.38" width="585.283" height="596.685"/>
<path fill-rule="evenodd" clip-rule="evenodd" d="M1516.28 1296.12C1517.73 1295.62 1519.19 1295.11 1520.64 1294.59C1640.78 1251.12 1702.93 1118.49 1659.46 998.352C1616 878.214 1483.37 816.061 1363.23 859.528C1275.72 891.189 1218.98 970.155 1211.41 1057.14L1240.62 1046.57C1251.49 975.229 1300.04 911.913 1372.68 885.633C1478.4 847.382 1595.11 902.077 1633.36 1007.8C1671.61 1113.52 1616.92 1230.23 1511.2 1268.48C1509.74 1269.01 1508.29 1269.52 1506.83 1270.01L1516.28 1296.12Z"/>
</mask>
<path d="M1516.28 1296.12L1512.52 1297.48L1513.85 1301.17L1517.56 1299.9L1516.28 1296.12ZM1211.41 1057.14L1207.42 1056.79L1206.88 1063.03L1212.77 1060.9L1211.41 1057.14ZM1240.62 1046.57L1241.99 1050.33L1244.22 1049.52L1244.58 1047.17L1240.62 1046.57ZM1506.83 1270.01L1505.55 1266.22L1501.68 1267.52L1503.07 1271.37L1506.83 1270.01ZM1517.56 1299.9C1519.04 1299.4 1520.52 1298.88 1522 1298.35L1519.28 1290.82C1517.85 1291.34 1516.42 1291.84 1514.99 1292.33L1517.56 1299.9ZM1522 1298.35C1644.22 1254.13 1707.45 1119.21 1663.23 996.991L1655.7 999.713C1698.42 1117.77 1637.34 1248.11 1519.28 1290.82L1522 1298.35ZM1663.23 996.991C1619.01 874.776 1484.09 811.548 1361.87 855.767L1364.59 863.289C1482.65 820.574 1612.99 881.652 1655.7 999.713L1663.23 996.991ZM1361.87 855.767C1272.84 887.978 1215.13 968.314 1207.42 1056.79L1215.39 1057.49C1222.84 971.996 1278.6 894.401 1364.59 863.289L1361.87 855.767ZM1212.77 1060.9L1241.99 1050.33L1239.26 1042.81L1210.05 1053.38L1212.77 1060.9ZM1371.32 881.872C1297.25 908.67 1247.75 973.237 1236.67 1045.97L1244.58 1047.17C1255.24 977.222 1302.84 915.157 1374.04 889.395L1371.32 881.872ZM1637.12 1006.44C1598.12 898.639 1479.12 842.869 1371.32 881.872L1374.04 889.395C1477.68 851.895 1592.1 905.515 1629.6 1009.16L1637.12 1006.44ZM1512.56 1272.25C1620.36 1233.24 1676.13 1114.24 1637.12 1006.44L1629.6 1009.16C1667.1 1112.8 1613.48 1227.22 1509.84 1264.72L1512.56 1272.25ZM1508.11 1273.8C1509.59 1273.3 1511.08 1272.78 1512.56 1272.25L1509.84 1264.72C1508.41 1265.24 1506.98 1265.74 1505.55 1266.22L1508.11 1273.8ZM1503.07 1271.37L1512.52 1297.48L1520.04 1294.76L1510.59 1268.65L1503.07 1271.37Z" fill="#FFF1E8" mask="url(#path-9-outside-5_1199_4873)"/>
<mask id="path-11-outside-6_1199_4873" maskUnits="userSpaceOnUse" x="1251.72" y="873.416" width="399.779" height="406.981" fill="black">
<rect fill="white" x="1251.72" y="873.416" width="399.779" height="406.981"/>
<path fill-rule="evenodd" clip-rule="evenodd" d="M1496.37 1227.11C1497.35 1226.78 1498.34 1226.43 1499.32 1226.07C1580.54 1196.69 1622.56 1107.02 1593.17 1025.8C1563.79 944.584 1474.12 902.565 1392.9 931.951C1333.74 953.356 1295.38 1006.74 1290.26 1065.55L1310.02 1058.4C1317.37 1010.17 1350.19 967.363 1399.29 949.596C1470.77 923.736 1549.67 960.713 1575.53 1032.19C1601.39 1103.66 1564.42 1182.56 1492.94 1208.42C1491.96 1208.78 1490.97 1209.13 1489.98 1209.46L1496.37 1227.11Z"/>
</mask>
<path d="M1496.37 1227.11L1492.6 1228.47L1493.94 1232.16L1497.65 1230.9L1496.37 1227.11ZM1290.26 1065.55L1286.28 1065.2L1285.73 1071.44L1291.62 1069.31L1290.26 1065.55ZM1310.02 1058.4L1311.38 1062.16L1313.62 1061.35L1313.97 1059L1310.02 1058.4ZM1489.98 1209.46L1488.7 1205.67L1484.83 1206.97L1486.22 1210.82L1489.98 1209.46ZM1497.65 1230.9C1498.66 1230.56 1499.67 1230.2 1500.68 1229.84L1497.96 1222.31C1497 1222.66 1496.04 1223 1495.08 1223.32L1497.65 1230.9ZM1500.68 1229.84C1583.98 1199.7 1627.07 1107.74 1596.93 1024.44L1589.41 1027.16C1618.05 1106.31 1577.1 1193.68 1497.96 1222.31L1500.68 1229.84ZM1596.93 1024.44C1566.8 941.146 1474.84 898.052 1391.54 928.19L1394.26 935.713C1473.41 907.078 1560.78 948.022 1589.41 1027.16L1596.93 1024.44ZM1391.54 928.19C1330.86 950.144 1291.53 1004.9 1286.28 1065.2L1294.25 1065.9C1299.24 1008.58 1336.62 956.568 1394.26 935.713L1391.54 928.19ZM1291.62 1069.31L1311.38 1062.16L1308.66 1054.64L1288.9 1061.79L1291.62 1069.31ZM1397.93 945.834C1347.4 964.12 1313.62 1008.18 1306.06 1057.8L1313.97 1059C1321.11 1012.16 1352.98 970.606 1400.66 953.357L1397.93 945.834ZM1579.29 1030.83C1552.68 957.274 1471.48 919.223 1397.93 945.834L1400.66 953.357C1470.05 928.249 1546.66 964.151 1571.77 1033.55L1579.29 1030.83ZM1494.3 1212.19C1567.85 1185.57 1605.91 1104.38 1579.29 1030.83L1571.77 1033.55C1596.88 1102.94 1560.98 1179.55 1491.58 1204.66L1494.3 1212.19ZM1491.25 1213.25C1492.27 1212.91 1493.29 1212.55 1494.3 1212.19L1491.58 1204.66C1490.62 1205.01 1489.66 1205.34 1488.7 1205.67L1491.25 1213.25ZM1486.22 1210.82L1492.6 1228.47L1500.13 1225.75L1493.74 1208.1L1486.22 1210.82Z" fill="#FFF1E8" mask="url(#path-11-outside-6_1199_4873)"/>
<circle cx="146" cy="916" r="236" fill="url(#paint0_radial_1199_4873)" fill-opacity="0.5"/>
</g>
<defs>
<radialGradient id="paint0_radial_1199_4873" cx="0" cy="0" r="1" gradientUnits="userSpaceOnUse" gradientTransform="translate(146 916) rotate(90) scale(236)">
<stop stop-color="#FFD9BE"/>
<stop offset="1" stop-color="#FFD9BE" stop-opacity="0"/>
</radialGradient>
<clipPath id="clip0_1199_4873">
<rect width="1440" height="1024" fill="white"/>
</clipPath>
</defs>
</svg>
