<svg width="1435" height="1025" viewBox="0 0 1435 1025" fill="none" xmlns="http://www.w3.org/2000/svg">
<g clip-path="url(#clip0_1199_4874)">
<rect width="1440" height="1024" transform="translate(0 0.200195)" fill="white"/>
<mask id="path-1-outside-1_1199_4874" maskUnits="userSpaceOnUse" x="1122.48" y="63.7319" width="818.848" height="835.651" fill="black">
<rect fill="white" x="1122.48" y="63.7319" width="818.848" height="835.651"/>
<path fill-rule="evenodd" clip-rule="evenodd" d="M1623.68 794.966C1625.73 794.269 1627.78 793.55 1629.83 792.81C1799.04 731.588 1886.58 544.787 1825.36 375.579C1764.14 206.371 1577.34 118.83 1408.13 180.052C1284.88 224.646 1204.96 335.865 1194.29 458.382L1235.44 443.495C1250.75 343.011 1319.13 253.832 1421.43 216.818C1570.33 162.942 1734.72 239.978 1788.59 388.881C1842.47 537.784 1765.43 702.169 1616.53 756.044C1614.48 756.785 1612.43 757.501 1610.38 758.193L1623.68 794.966Z"/>
</mask>
<path d="M1623.68 794.966L1619.92 796.327L1621.26 800.016L1624.97 798.754L1623.68 794.966ZM1194.29 458.382L1190.31 458.035L1189.77 464.274L1195.66 462.143L1194.29 458.382ZM1235.44 443.495L1236.8 447.256L1239.04 446.447L1239.39 444.097L1235.44 443.495ZM1610.38 758.193L1609.1 754.402L1605.22 755.708L1606.62 759.554L1610.38 758.193ZM1624.97 798.754C1627.05 798.048 1629.12 797.321 1631.19 796.571L1628.47 789.048C1626.45 789.78 1624.42 790.49 1622.4 791.179L1624.97 798.754ZM1631.19 796.571C1802.48 734.597 1891.09 545.504 1829.12 374.218L1821.6 376.94C1882.07 544.071 1795.6 728.578 1628.47 789.048L1631.19 796.571ZM1829.12 374.218C1767.15 202.932 1578.05 114.317 1406.77 176.291L1409.49 183.814C1576.62 123.343 1761.13 209.809 1821.6 376.94L1829.12 374.218ZM1406.77 176.291C1282 221.434 1201.1 334.024 1190.31 458.035L1198.28 458.728C1208.81 337.706 1287.76 227.857 1409.49 183.814L1406.77 176.291ZM1195.66 462.143L1236.8 447.256L1234.08 439.733L1192.93 454.62L1195.66 462.143ZM1420.07 213.056C1316.33 250.589 1247 341.019 1231.49 442.892L1239.39 444.097C1254.49 345.004 1321.92 257.076 1422.79 220.579L1420.07 213.056ZM1792.35 387.52C1737.73 236.539 1571.05 158.429 1420.07 213.056L1422.79 220.579C1569.62 167.455 1731.71 243.416 1784.83 390.242L1792.35 387.52ZM1617.89 759.805C1768.87 705.178 1846.98 538.501 1792.35 387.52L1784.83 390.242C1837.96 537.068 1761.99 699.159 1615.17 752.283L1617.89 759.805ZM1611.65 761.984C1613.74 761.283 1615.81 760.556 1617.89 759.805L1615.17 752.283C1613.15 753.013 1611.13 753.72 1609.1 754.402L1611.65 761.984ZM1606.62 759.554L1619.92 796.327L1627.44 793.606L1614.14 756.832L1606.62 759.554Z" fill="#FFF1E8" mask="url(#path-1-outside-1_1199_4874)"/>
<mask id="path-3-outside-2_1199_4874" maskUnits="userSpaceOnUse" x="1237.01" y="180.58" width="585.283" height="596.685" fill="black">
<rect fill="white" x="1237.01" y="180.58" width="585.283" height="596.685"/>
<path fill-rule="evenodd" clip-rule="evenodd" d="M1595.28 701.317C1596.73 700.822 1598.19 700.312 1599.64 699.786C1719.78 656.318 1781.93 523.69 1738.46 403.552C1695 283.414 1562.37 221.261 1442.23 264.728C1354.72 296.39 1297.98 375.355 1290.41 462.342L1319.62 451.772C1330.49 380.43 1379.04 317.114 1451.68 290.833C1557.4 252.582 1674.11 307.277 1712.36 412.998C1750.61 518.72 1695.92 635.433 1590.2 673.684C1588.74 674.21 1587.29 674.719 1585.83 675.21L1595.28 701.317Z"/>
</mask>
<path d="M1595.28 701.317L1591.52 702.678L1592.85 706.366L1596.56 705.104L1595.28 701.317ZM1290.41 462.342L1286.42 461.995L1285.88 468.234L1291.77 466.103L1290.41 462.342ZM1319.62 451.772L1320.99 455.533L1323.22 454.724L1323.58 452.374L1319.62 451.772ZM1585.83 675.21L1584.55 671.419L1580.68 672.724L1582.07 676.57L1585.83 675.21ZM1596.56 705.104C1598.04 704.601 1599.52 704.082 1601 703.547L1598.28 696.025C1596.85 696.541 1595.42 697.043 1593.99 697.53L1596.56 705.104ZM1601 703.547C1723.22 659.328 1786.45 524.407 1742.23 402.191L1734.7 404.913C1777.42 522.974 1716.34 653.309 1598.28 696.025L1601 703.547ZM1742.23 402.191C1698.01 279.976 1563.09 216.748 1440.87 260.967L1443.59 268.49C1561.65 225.774 1691.99 286.853 1734.7 404.913L1742.23 402.191ZM1440.87 260.967C1351.84 293.178 1294.13 373.514 1286.42 461.995L1294.39 462.689C1301.84 377.196 1357.6 299.601 1443.59 268.49L1440.87 260.967ZM1291.77 466.103L1320.99 455.533L1318.26 448.01L1289.05 458.58L1291.77 466.103ZM1450.32 287.072C1376.25 313.871 1326.75 378.437 1315.67 451.169L1323.58 452.374C1334.24 382.422 1381.84 320.357 1453.04 294.595L1450.32 287.072ZM1716.12 411.638C1677.12 303.839 1558.12 248.069 1450.32 287.072L1453.04 294.595C1556.68 257.095 1671.1 310.715 1708.6 414.359L1716.12 411.638ZM1591.56 677.446C1699.36 638.442 1755.13 519.436 1716.12 411.638L1708.6 414.359C1746.1 518.003 1692.48 632.423 1588.84 669.923L1591.56 677.446ZM1587.11 679C1588.59 678.5 1590.08 677.982 1591.56 677.446L1588.84 669.923C1587.41 670.439 1585.98 670.937 1584.55 671.419L1587.11 679ZM1582.07 676.57L1591.52 702.678L1599.04 699.956L1589.59 673.849L1582.07 676.57Z" fill="#FFF1E8" mask="url(#path-3-outside-2_1199_4874)"/>
<mask id="path-5-outside-3_1199_4874" maskUnits="userSpaceOnUse" x="1330.72" y="278.616" width="399.779" height="406.981" fill="black">
<rect fill="white" x="1330.72" y="278.616" width="399.779" height="406.981"/>
<path fill-rule="evenodd" clip-rule="evenodd" d="M1575.37 632.311C1576.35 631.976 1577.34 631.631 1578.32 631.275C1659.54 601.888 1701.56 512.224 1672.17 431.004C1642.79 349.784 1553.12 307.765 1471.9 337.151C1412.74 358.556 1374.38 411.941 1369.26 470.749L1389.02 463.601C1396.37 415.369 1429.19 372.563 1478.29 354.796C1549.77 328.936 1628.67 365.913 1654.53 437.386C1680.39 508.86 1643.42 587.765 1571.94 613.625C1570.96 613.982 1569.97 614.327 1568.98 614.66L1575.37 632.311Z"/>
</mask>
<path d="M1575.37 632.311L1571.6 633.672L1572.94 637.36L1576.65 636.099L1575.37 632.311ZM1369.26 470.749L1365.28 470.402L1364.73 476.641L1370.62 474.51L1369.26 470.749ZM1389.02 463.601L1390.38 467.362L1392.62 466.553L1392.97 464.203L1389.02 463.601ZM1568.98 614.66L1567.7 610.869L1563.83 612.174L1565.22 616.02L1568.98 614.66ZM1576.65 636.099C1577.66 635.755 1578.67 635.401 1579.68 635.036L1576.96 627.514C1576 627.861 1575.04 628.197 1574.08 628.524L1576.65 636.099ZM1579.68 635.036C1662.98 604.898 1706.07 512.941 1675.93 429.643L1668.41 432.365C1697.05 511.508 1656.1 598.879 1576.96 627.514L1579.68 635.036ZM1675.93 429.643C1645.8 346.346 1553.84 303.252 1470.54 333.39L1473.26 340.913C1552.41 312.278 1639.78 353.222 1668.41 432.365L1675.93 429.643ZM1470.54 333.39C1409.86 355.344 1370.53 410.1 1365.28 470.402L1373.25 471.096C1378.24 413.782 1415.62 361.768 1473.26 340.913L1470.54 333.39ZM1370.62 474.51L1390.38 467.362L1387.66 459.839L1367.9 466.987L1370.62 474.51ZM1476.93 351.035C1426.4 369.32 1392.62 413.376 1385.06 462.998L1392.97 464.203C1400.11 417.361 1431.98 375.806 1479.66 358.557L1476.93 351.035ZM1658.29 436.026C1631.68 362.475 1550.48 324.423 1476.93 351.035L1479.66 358.557C1549.05 333.449 1625.66 369.351 1650.77 438.747L1658.29 436.026ZM1573.3 617.386C1646.85 590.774 1684.91 509.576 1658.29 436.026L1650.77 438.747C1675.88 508.144 1639.98 584.755 1570.58 609.863L1573.3 617.386ZM1570.25 618.45C1571.27 618.108 1572.29 617.753 1573.3 617.386L1570.58 609.863C1569.62 610.21 1568.66 610.545 1567.7 610.869L1570.25 618.45ZM1565.22 616.02L1571.6 633.672L1579.13 630.95L1572.74 613.299L1565.22 616.02Z" fill="#FFF1E8" mask="url(#path-5-outside-3_1199_4874)"/>
</g>
<defs>
<clipPath id="clip0_1199_4874">
<rect width="1440" height="1024" fill="white" transform="translate(0 0.200195)"/>
</clipPath>
</defs>
</svg>
