<svg width="30" height="29" viewBox="0 0 30 29" fill="none" xmlns="http://www.w3.org/2000/svg">
<path d="M10.3474 2.41455H20.4892C24.3528 2.41455 27.4919 5.55368 27.4919 9.41723V19.559C27.4919 21.4163 26.7541 23.1974 25.4408 24.5107C24.1276 25.8239 22.3464 26.5617 20.4892 26.5617H10.3474C6.48386 26.5617 3.34473 23.4226 3.34473 19.559V9.41723C3.34473 7.56 4.08251 5.77884 5.39576 4.46559C6.70902 3.15233 8.49018 2.41455 10.3474 2.41455ZM10.1059 4.82927C8.95317 4.82927 7.84762 5.2872 7.0325 6.10232C6.21737 6.91745 5.75944 8.02299 5.75944 9.17576V19.8005C5.75944 22.2031 7.70329 24.147 10.1059 24.147H20.7307C21.8834 24.147 22.989 23.6891 23.8041 22.8739C24.6192 22.0588 25.0772 20.9533 25.0772 19.8005V9.17576C25.0772 6.77311 23.1333 4.82927 20.7307 4.82927H10.1059ZM21.7569 6.6403C22.1572 6.6403 22.5411 6.79931 22.8241 7.08234C23.1071 7.36537 23.2661 7.74924 23.2661 8.1495C23.2661 8.54976 23.1071 8.93364 22.8241 9.21666C22.5411 9.49969 22.1572 9.6587 21.7569 9.6587C21.3567 9.6587 20.9728 9.49969 20.6898 9.21666C20.4067 8.93364 20.2477 8.54976 20.2477 8.1495C20.2477 7.74924 20.4067 7.36537 20.6898 7.08234C20.9728 6.79931 21.3567 6.6403 21.7569 6.6403ZM15.4183 8.45134C17.0194 8.45134 18.5548 9.08736 19.687 10.2195C20.8191 11.3516 21.4551 12.8871 21.4551 14.4881C21.4551 16.0892 20.8191 17.6247 19.687 18.7568C18.5548 19.8889 17.0194 20.5249 15.4183 20.5249C13.8172 20.5249 12.2818 19.8889 11.1497 18.7568C10.0175 17.6247 9.38152 16.0892 9.38152 14.4881C9.38152 12.8871 10.0175 11.3516 11.1497 10.2195C12.2818 9.08736 13.8172 8.45134 15.4183 8.45134ZM15.4183 10.8661C14.4577 10.8661 13.5364 11.2477 12.8571 11.9269C12.1778 12.6062 11.7962 13.5275 11.7962 14.4881C11.7962 15.4488 12.1778 16.3701 12.8571 17.0493C13.5364 17.7286 14.4577 18.1102 15.4183 18.1102C16.3789 18.1102 17.3002 17.7286 17.9795 17.0493C18.6588 16.3701 19.0404 15.4488 19.0404 14.4881C19.0404 13.5275 18.6588 12.6062 17.9795 11.9269C17.3002 11.2477 16.3789 10.8661 15.4183 10.8661Z" fill="#FAFAFA"/>
</svg>
