<svg width="30" height="29" viewBox="0 0 30 29" fill="none" xmlns="http://www.w3.org/2000/svg">
<path d="M23.8929 3.62207C24.5333 3.62207 25.1475 3.87648 25.6004 4.32932C26.0532 4.78217 26.3076 5.39636 26.3076 6.03679V22.9398C26.3076 23.5802 26.0532 24.1944 25.6004 24.6473C25.1475 25.1001 24.5333 25.3545 23.8929 25.3545H6.98991C6.34949 25.3545 5.7353 25.1001 5.28245 24.6473C4.8296 24.1944 4.5752 23.5802 4.5752 22.9398V6.03679C4.5752 5.39636 4.8296 4.78217 5.28245 4.32932C5.7353 3.87648 6.34949 3.62207 6.98991 3.62207H23.8929ZM23.2892 22.3361V15.9371C23.2892 14.8932 22.8746 13.8921 22.1364 13.154C21.3983 12.4158 20.3971 12.0011 19.3533 12.0011C18.327 12.0011 17.1317 12.629 16.5522 13.5707V12.2305H13.1837V22.3361H16.5522V16.3838C16.5522 15.4542 17.3007 14.6935 18.2304 14.6935C18.6787 14.6935 19.1086 14.8716 19.4256 15.1886C19.7426 15.5056 19.9207 15.9355 19.9207 16.3838V22.3361H23.2892ZM9.25974 10.335C9.7977 10.335 10.3136 10.1213 10.694 9.74089C11.0744 9.3605 11.2881 8.84457 11.2881 8.30662C11.2881 7.18378 10.3826 6.26618 9.25974 6.26618C8.71859 6.26618 8.19959 6.48116 7.81694 6.86381C7.43428 7.24647 7.21931 7.76546 7.21931 8.30662C7.21931 9.42946 8.1369 10.335 9.25974 10.335ZM10.938 22.3361V12.2305H7.59359V22.3361H10.938Z" fill="#FAFAFA"/>
</svg>
