<svg width="514" height="392" viewBox="0 0 514 392" fill="none" xmlns="http://www.w3.org/2000/svg">
<path d="M175.194 84.215L513.42 276.039L338.424 373.966L0.000156516 182.786L175.194 84.215Z" fill="#CECEFF"/>
<path d="M0.000244141 182.795L338.44 373.926L337.665 387.098L0.31017 193.304L0.000244141 182.795Z" fill="#6F6FFF"/>
<path d="M338.44 373.926L513.548 276.145L513.548 290.087L337.665 387.098L338.44 373.926Z" fill="#6F6FFF"/>
<rect width="21.6948" height="21.6948" transform="matrix(0.866025 0.5 -2.20305e-08 1 45.3342 161.781)" fill="#B04E06"/>
<rect width="8.73136" height="8.73136" transform="matrix(0.866025 -0.5 2.20305e-08 1 51.2952 178.537)" fill="#F57316"/>
<rect width="6.08382" height="21.6948" transform="matrix(0.866025 0.5 -2.20305e-08 1 58.8858 177.587)" fill="#B04E06"/>
<rect width="21.6948" height="21.6948" transform="matrix(0.866025 -0.5 2.20305e-08 1 64.0571 172.629)" fill="#F57316"/>
<rect width="6.08382" height="21.6948" transform="matrix(0.866025 -0.5 2.20305e-08 1 64.1546 180.63)" fill="#F57316"/>
<rect width="21.6948" height="21.6948" transform="matrix(0.866025 0.5 -0.866025 0.5 63.9736 150.934)" fill="#FFBE8F"/>
<rect width="8.73136" height="8.73136" transform="matrix(0.866025 -0.5 2.20305e-08 1 77.1507 180.617)" fill="#F57316"/>
<rect width="8.73136" height="8.73136" transform="matrix(0.866025 0.5 -2.20305e-08 1 43.7594 174.171)" fill="#6F6FFF"/>
<rect width="8.73136" height="8.73136" transform="matrix(0.866025 0.5 -2.20305e-08 1 69.6152 176.251)" fill="#6F6FFF"/>
<rect width="8.73136" height="8.73136" transform="matrix(0.866025 0.5 -0.866025 0.5 51.2612 169.806)" fill="#FFBE8F"/>
<rect width="8.73136" height="8.73136" transform="matrix(0.866025 0.5 -0.866025 0.5 77.117 171.886)" fill="#FFBE8F"/>
<rect width="21.6948" height="21.6948" transform="matrix(0.866025 0.5 -2.20305e-08 1 181.082 237.404)" fill="#B04E06"/>
<rect width="8.73136" height="8.73136" transform="matrix(0.866025 -0.5 2.20305e-08 1 187.043 254.159)" fill="#F57316"/>
<rect width="6.08382" height="21.6948" transform="matrix(0.866025 0.5 -2.20305e-08 1 194.634 253.21)" fill="#B04E06"/>
<rect width="21.6948" height="21.6948" transform="matrix(0.866025 -0.5 2.20305e-08 1 199.805 248.251)" fill="#F57316"/>
<rect width="6.08382" height="21.6948" transform="matrix(0.866025 -0.5 2.20305e-08 1 199.903 256.252)" fill="#F57316"/>
<rect width="21.6948" height="21.6948" transform="matrix(0.866025 0.5 -0.866025 0.5 199.722 226.556)" fill="#FFBE8F"/>
<rect width="8.73136" height="8.73136" transform="matrix(0.866025 -0.5 2.20305e-08 1 212.899 256.239)" fill="#F57316"/>
<rect width="8.73136" height="8.73136" transform="matrix(0.866025 0.5 -2.20305e-08 1 179.508 249.793)" fill="#6F6FFF"/>
<rect width="8.73136" height="8.73136" transform="matrix(0.866025 0.5 -2.20305e-08 1 205.363 251.874)" fill="#6F6FFF"/>
<rect width="8.73136" height="8.73136" transform="matrix(0.866025 0.5 -0.866025 0.5 187.009 245.428)" fill="#FFBE8F"/>
<rect width="8.73136" height="8.73136" transform="matrix(0.866025 0.5 -0.866025 0.5 212.865 247.508)" fill="#FFBE8F"/>
<rect width="21.6948" height="21.6948" transform="matrix(0.866025 0.5 -2.20305e-08 1 322.068 318.604)" fill="#B04E06"/>
<rect width="8.73136" height="8.73136" transform="matrix(0.866025 -0.5 2.20305e-08 1 328.029 335.359)" fill="#F57316"/>
<rect width="6.08382" height="21.6948" transform="matrix(0.866025 0.5 -2.20305e-08 1 335.62 334.411)" fill="#B04E06"/>
<rect width="21.6948" height="21.6948" transform="matrix(0.866025 -0.5 2.20305e-08 1 340.79 329.452)" fill="#F57316"/>
<rect width="6.08382" height="21.6948" transform="matrix(0.866025 -0.5 2.20305e-08 1 340.888 337.453)" fill="#F57316"/>
<rect width="21.6948" height="21.6948" transform="matrix(0.866025 0.5 -0.866025 0.5 340.707 307.757)" fill="#FFBE8F"/>
<rect width="8.73136" height="8.73136" transform="matrix(0.866025 -0.5 2.20305e-08 1 353.884 337.44)" fill="#F57316"/>
<rect width="8.73136" height="8.73136" transform="matrix(0.866025 0.5 -2.20305e-08 1 320.493 330.994)" fill="#6F6FFF"/>
<rect width="8.73136" height="8.73136" transform="matrix(0.866025 0.5 -2.20305e-08 1 346.349 333.075)" fill="#6F6FFF"/>
<rect width="8.73136" height="8.73136" transform="matrix(0.866025 0.5 -0.866025 0.5 327.995 326.628)" fill="#FFBE8F"/>
<rect width="8.73136" height="8.73136" transform="matrix(0.866025 0.5 -0.866025 0.5 353.85 328.708)" fill="#FFBE8F"/>
<rect width="44.0182" height="27.5736" transform="matrix(0.866025 -0.5 2.20305e-08 1 193.789 197.737)" fill="#8E8EFF"/>
<rect width="103.783" height="17.0162" transform="matrix(0.866025 0.5 -2.20305e-08 1 150.4 16.7358)" fill="#6F6FFF"/>
<rect width="104.856" height="131.099" transform="matrix(0.866025 0.5 -2.20305e-08 1 150.4 33.1621)" fill="#8E8EFF"/>
<path fill-rule="evenodd" clip-rule="evenodd" d="M294.471 67.254L177.983 0L150.069 16.1162L239.984 68.0287L201.066 90.4984L370.16 188.125L436.993 149.539L294.471 67.254L294.471 67.254Z" fill="#8E8EFF"/>
<path fill-rule="evenodd" clip-rule="evenodd" d="M159.387 16.5815L249.893 69.3331L211.3 90.8084L368.992 180.475L426.639 148.645L288.754 70.0251L178.757 5.73427L159.387 16.5815ZM251.495 164.768L150.636 107.667L93.3671 139.963L194.304 196.861L251.495 164.768Z" fill="#AEAEFF"/>
<rect width="194.682" height="131.099" transform="matrix(0.866025 0.5 -2.20305e-08 1 201.538 98.9141)" fill="#8E8EFF"/>
<rect width="37.9344" height="35.1143" transform="matrix(0.866025 0.5 -2.20305e-08 1 216.414 136.987)" fill="#AEAEFF"/>
<rect width="37.9344" height="35.1143" transform="matrix(0.866025 0.5 -2.20305e-08 1 159.388 58.5762)" fill="#AEAEFF"/>
<rect width="37.9344" height="35.1143" transform="matrix(0.866025 0.5 -2.20305e-08 1 264.143 163.951)" fill="#AEAEFF"/>
<rect width="37.9344" height="35.1143" transform="matrix(0.866025 0.5 -2.20305e-08 1 311.872 190.915)" fill="#AEAEFF"/>
<rect width="37.9344" height="35.1143" transform="matrix(0.866025 0.5 -2.20305e-08 1 216.414 187.505)" fill="#AEAEFF"/>
<rect width="102.351" height="24.4404" transform="matrix(0.866025 0.5 -2.20305e-08 1 105.151 149.694)" fill="#8E8EFF"/>
<rect width="37.9344" height="35.1143" transform="matrix(0.866025 0.5 -2.20305e-08 1 264.143 213.229)" fill="#AEAEFF"/>
<rect width="37.9344" height="35.1143" transform="matrix(0.866025 0.5 -2.20305e-08 1 311.872 240.193)" fill="#AEAEFF"/>
<rect width="195.04" height="17.0162" transform="matrix(0.866025 0.5 -2.20305e-08 1 201.538 90.6611)" fill="#6F6FFF"/>
<path d="M93.3735 139.933L194.409 196.803L193.79 210.609L93.3735 152.634L93.3735 139.933Z" fill="#6F6FFF"/>
<path d="M178.758 5.73361L426.854 148.609L419.416 152.638L178.603 13.5622L178.758 5.73361Z" fill="#6F6FFF"/>
<rect width="77.3003" height="131.099" transform="matrix(0.866025 -0.5 2.20305e-08 1 370.137 195.211)" fill="#6F6FFF"/>
<rect width="77.3003" height="17.0162" transform="matrix(0.866025 -0.5 2.20305e-08 1 370.137 188.345)" fill="#6F6FFF"/>
<path d="M159.388 16.5811L178.603 5.88848L178.603 13.6651L165.741 20.6101L159.388 16.5811Z" fill="#6F6FFF"/>
<rect width="77.3003" height="2.90555" transform="matrix(0.866025 -0.5 2.20305e-08 1 370.137 226.954)" fill="#4F4FFF"/>
<rect width="77.3003" height="2.90555" transform="matrix(0.866025 -0.5 2.20305e-08 1 370.137 249.448)" fill="#4F4FFF"/>
<rect width="77.3003" height="2.90555" transform="matrix(0.866025 -0.5 2.20305e-08 1 370.137 271.19)" fill="#4F4FFF"/>
<rect width="77.3003" height="2.90555" transform="matrix(0.866025 -0.5 2.20305e-08 1 370.137 296.116)" fill="#4F4FFF"/>
<path d="M194.409 196.803L201.538 192.842L201.538 206.334L193.789 210.593L194.409 196.803Z" fill="#6F6FFF"/>
<rect width="54.5741" height="32.6585" rx="4" transform="matrix(0.0143019 0.999898 -0.858786 0.512335 327.401 47.1089)" fill="url(#paint0_linear_1500_7260)"/>
<g filter="url(#filter0_dd_1500_7260)">
<rect width="26.0141" height="20.8838" rx="4" transform="matrix(0.0143019 0.999898 -0.858786 0.512335 323.832 59.5591)" fill="#FFD9BE"/>
</g>
<g filter="url(#filter1_dd_1500_7260)">
<rect width="4.90247" height="3.85232" rx="1.92616" transform="matrix(0.0143019 0.999898 -0.858786 0.512335 324.07 95.1714)" fill="#FFD9BE"/>
</g>
<ellipse cx="316.435" cy="123.073" rx="18.3593" ry="2.30547" transform="rotate(-30.051 316.435 123.073)" fill="#6F6FFF"/>
<rect width="21.6948" height="21.6948" transform="matrix(0.866025 0.5 -2.20305e-08 1 455.366 247.941)" fill="#B04E06"/>
<rect width="8.73136" height="8.73136" transform="matrix(0.866025 -0.5 2.20305e-08 1 461.327 264.696)" fill="#F57316"/>
<rect width="6.08382" height="21.6948" transform="matrix(0.866025 0.5 -2.20305e-08 1 468.919 263.747)" fill="#B04E06"/>
<rect width="21.6948" height="21.6948" transform="matrix(0.866025 -0.5 2.20305e-08 1 474.09 258.788)" fill="#F57316"/>
<rect width="6.08382" height="21.6948" transform="matrix(0.866025 -0.5 2.20305e-08 1 474.187 266.789)" fill="#F57316"/>
<rect width="21.6948" height="21.6948" transform="matrix(0.866025 0.5 -0.866025 0.5 474.006 237.093)" fill="#FFBE8F"/>
<rect width="8.73136" height="8.73136" transform="matrix(0.866025 -0.5 2.20305e-08 1 487.183 266.777)" fill="#F57316"/>
<rect width="8.73136" height="8.73136" transform="matrix(0.866025 0.5 -2.20305e-08 1 453.792 260.331)" fill="#6F6FFF"/>
<rect width="8.73136" height="8.73136" transform="matrix(0.866025 0.5 -2.20305e-08 1 479.648 262.411)" fill="#6F6FFF"/>
<rect width="8.73136" height="8.73136" transform="matrix(0.866025 0.5 -0.866025 0.5 461.294 255.965)" fill="#FFBE8F"/>
<rect width="8.73136" height="8.73136" transform="matrix(0.866025 0.5 -0.866025 0.5 487.149 258.045)" fill="#FFBE8F"/>
<defs>
<filter id="filter0_dd_1500_7260" x="279.954" y="35.1128" width="70.1932" height="85.603" filterUnits="userSpaceOnUse" color-interpolation-filters="sRGB">
<feFlood flood-opacity="0" result="BackgroundImageFix"/>
<feColorMatrix in="SourceAlpha" type="matrix" values="0 0 0 0 0 0 0 0 0 0 0 0 0 0 0 0 0 0 127 0" result="hardAlpha"/>
<feMorphology radius="2" operator="dilate" in="SourceAlpha" result="effect1_dropShadow_1500_7260"/>
<feOffset dx="8" dy="8"/>
<feGaussianBlur stdDeviation="8"/>
<feComposite in2="hardAlpha" operator="out"/>
<feColorMatrix type="matrix" values="0 0 0 0 0 0 0 0 0 0 0 0 0 0 0 0 0 0 0.05 0"/>
<feBlend mode="normal" in2="BackgroundImageFix" result="effect1_dropShadow_1500_7260"/>
<feColorMatrix in="SourceAlpha" type="matrix" values="0 0 0 0 0 0 0 0 0 0 0 0 0 0 0 0 0 0 127 0" result="hardAlpha"/>
<feMorphology radius="2" operator="dilate" in="SourceAlpha" result="effect2_dropShadow_1500_7260"/>
<feOffset dx="-8" dy="-8"/>
<feGaussianBlur stdDeviation="8"/>
<feComposite in2="hardAlpha" operator="out"/>
<feColorMatrix type="matrix" values="0 0 0 0 0 0 0 0 0 0 0 0 0 0 0 0 0 0 0.05 0"/>
<feBlend mode="normal" in2="effect1_dropShadow_1500_7260" result="effect2_dropShadow_1500_7260"/>
<feBlend mode="normal" in="SourceGraphic" in2="effect2_dropShadow_1500_7260" result="shape"/>
</filter>
<filter id="filter1_dd_1500_7260" x="294.789" y="69.9194" width="55.3238" height="57.3794" filterUnits="userSpaceOnUse" color-interpolation-filters="sRGB">
<feFlood flood-opacity="0" result="BackgroundImageFix"/>
<feColorMatrix in="SourceAlpha" type="matrix" values="0 0 0 0 0 0 0 0 0 0 0 0 0 0 0 0 0 0 127 0" result="hardAlpha"/>
<feMorphology radius="2" operator="dilate" in="SourceAlpha" result="effect1_dropShadow_1500_7260"/>
<feOffset dx="8" dy="8"/>
<feGaussianBlur stdDeviation="8"/>
<feComposite in2="hardAlpha" operator="out"/>
<feColorMatrix type="matrix" values="0 0 0 0 0 0 0 0 0 0 0 0 0 0 0 0 0 0 0.05 0"/>
<feBlend mode="normal" in2="BackgroundImageFix" result="effect1_dropShadow_1500_7260"/>
<feColorMatrix in="SourceAlpha" type="matrix" values="0 0 0 0 0 0 0 0 0 0 0 0 0 0 0 0 0 0 127 0" result="hardAlpha"/>
<feMorphology radius="2" operator="dilate" in="SourceAlpha" result="effect2_dropShadow_1500_7260"/>
<feOffset dx="-8" dy="-8"/>
<feGaussianBlur stdDeviation="8"/>
<feComposite in2="hardAlpha" operator="out"/>
<feColorMatrix type="matrix" values="0 0 0 0 0 0 0 0 0 0 0 0 0 0 0 0 0 0 0.05 0"/>
<feBlend mode="normal" in2="effect1_dropShadow_1500_7260" result="effect2_dropShadow_1500_7260"/>
<feBlend mode="normal" in="SourceGraphic" in2="effect2_dropShadow_1500_7260" result="shape"/>
</filter>
<linearGradient id="paint0_linear_1500_7260" x1="-7.70823" y1="30.691" x2="17.5447" y2="53.1086" gradientUnits="userSpaceOnUse">
<stop offset="0.0015673" stop-color="#FFC094"/>
<stop offset="1" stop-color="#F57316"/>
</linearGradient>
</defs>
</svg>
