<svg width="1440" height="1024" viewBox="0 0 1440 1024" fill="none" xmlns="http://www.w3.org/2000/svg">
<g clip-path="url(#clip0_1_1220)">
<rect width="1440" height="1024" fill="#FAFAFA"/>
<g opacity="0.02">
<mask id="path-1-outside-1_1_1220" maskUnits="userSpaceOnUse" x="276.462" y="2.27831" width="886.222" height="877.083" fill="black">
<rect fill="white" x="276.462" y="2.27831" width="886.222" height="877.083"/>
<path fill-rule="evenodd" clip-rule="evenodd" d="M984.527 631.786C985.715 629.973 986.888 628.145 988.046 626.301C1083.73 473.909 1037.77 272.801 885.375 177.112C732.984 81.4235 531.875 127.391 436.186 279.782C366.488 390.783 371.945 527.63 438.942 630.758L462.21 593.702C412.434 505.082 411.445 392.709 469.298 300.573C553.504 166.468 730.48 126.017 864.585 210.223C998.689 294.429 1039.14 471.405 954.935 605.51C953.776 607.354 952.601 609.181 951.408 610.99L984.527 631.786Z"/>
</mask>
<path d="M984.527 631.786L983.995 632.633L984.825 633.154L985.363 632.334L984.527 631.786ZM438.942 630.758L438.104 631.303L438.957 632.616L439.789 631.29L438.942 630.758ZM462.21 593.702L463.057 594.234L463.373 593.731L463.082 593.212L462.21 593.702ZM951.408 610.99L950.573 610.439L950.01 611.293L950.876 611.837L951.408 610.99ZM985.363 632.334C986.555 630.516 987.731 628.682 988.893 626.833L987.199 625.769C986.045 627.608 984.875 629.43 983.69 631.237L985.363 632.334ZM988.893 626.833C1084.87 473.973 1038.77 272.247 885.907 176.265L884.844 177.959C1036.77 273.354 1082.59 473.845 987.199 625.769L988.893 626.833ZM885.907 176.265C733.048 80.283 531.322 126.391 435.339 279.251L437.033 280.314C532.428 128.39 732.92 82.5641 884.844 177.959L885.907 176.265ZM435.339 279.251C365.426 390.593 370.902 527.861 438.104 631.303L439.781 630.214C372.988 527.4 367.549 390.973 437.033 280.314L435.339 279.251ZM439.789 631.29L463.057 594.234L461.363 593.17L438.095 630.227L439.789 631.29ZM468.451 300.041C410.395 392.5 411.39 505.265 461.338 594.192L463.082 593.212C413.478 504.899 412.494 392.919 470.145 301.105L468.451 300.041ZM865.116 209.376C730.544 124.877 552.951 165.469 468.451 300.041L470.145 301.105C554.057 167.468 730.416 127.158 864.053 211.07L865.116 209.376ZM955.782 606.041C1040.28 471.469 999.689 293.876 865.116 209.376L864.053 211.07C997.69 294.982 1038 471.341 954.088 604.978L955.782 606.041ZM952.243 611.54C953.44 609.725 954.619 607.892 955.782 606.041L954.088 604.978C952.934 606.816 951.762 608.637 950.573 610.439L952.243 611.54ZM950.876 611.837L983.995 632.633L985.058 630.939L951.94 610.143L950.876 611.837Z" fill="#C4C4D4" mask="url(#path-1-outside-1_1_1220)"/>
<mask id="path-3-outside-2_1_1220" maskUnits="userSpaceOnUse" x="401.483" y="128.063" width="629.909" height="623.292" fill="black">
<rect fill="white" x="401.483" y="128.063" width="629.909" height="623.292"/>
<path fill-rule="evenodd" clip-rule="evenodd" d="M904.502 575.455C905.345 574.168 906.178 572.871 907 571.562C974.939 463.364 942.302 320.577 834.104 252.638C725.906 184.699 583.118 217.336 515.179 325.534C465.694 404.344 469.568 501.505 517.136 574.726L533.657 548.415C498.317 485.495 497.616 405.712 538.691 340.296C598.477 245.081 724.13 216.361 819.344 276.147C914.559 335.933 943.279 461.586 883.493 556.801C882.671 558.11 881.836 559.407 880.989 560.691L904.502 575.455Z"/>
</mask>
<path d="M904.502 575.455L903.97 576.302L904.801 576.823L905.338 576.003L904.502 575.455ZM517.136 574.726L516.297 575.271L517.15 576.584L517.983 575.258L517.136 574.726ZM533.657 548.415L534.504 548.947L534.82 548.444L534.529 547.925L533.657 548.415ZM880.989 560.691L880.154 560.14L879.592 560.994L880.458 561.538L880.989 560.691ZM905.338 576.003C906.185 574.711 907.021 573.408 907.847 572.094L906.153 571.03C905.335 572.333 904.506 573.625 903.666 574.906L905.338 576.003ZM907.847 572.094C976.079 463.428 943.301 320.023 834.636 251.791L833.572 253.485C941.302 321.13 973.798 463.3 906.153 571.03L907.847 572.094ZM834.636 251.791C725.97 183.558 582.565 216.336 514.333 325.002L516.026 326.065C583.672 218.335 725.842 185.839 833.572 253.485L834.636 251.791ZM514.333 325.002C464.632 404.154 468.525 501.736 516.297 575.271L517.975 574.182C470.611 501.275 466.755 404.534 516.026 326.065L514.333 325.002ZM517.983 575.258L534.504 548.947L532.81 547.883L516.289 574.195L517.983 575.258ZM537.844 339.764C496.566 405.502 497.273 485.679 532.785 548.905L534.529 547.925C499.361 485.312 498.665 405.921 539.538 340.828L537.844 339.764ZM819.876 275.3C724.194 215.221 597.924 244.082 537.844 339.764L539.538 340.828C599.03 246.081 724.066 217.502 818.813 276.994L819.876 275.3ZM884.34 557.332C944.42 461.65 915.558 335.38 819.876 275.3L818.813 276.994C913.559 336.487 942.138 461.522 882.646 556.269L884.34 557.332ZM881.824 561.241C882.675 559.951 883.514 558.648 884.34 557.332L882.646 556.269C881.828 557.572 880.997 558.862 880.154 560.14L881.824 561.241ZM880.458 561.538L903.97 576.302L905.034 574.608L881.521 559.844L880.458 561.538Z" fill="#C4C4D4" mask="url(#path-3-outside-2_1_1220)"/>
<mask id="path-5-outside-3_1_1220" maskUnits="userSpaceOnUse" x="505.741" y="230.415" width="426.833" height="422.421" fill="black">
<rect fill="white" x="505.741" y="230.415" width="426.833" height="422.421"/>
<path fill-rule="evenodd" clip-rule="evenodd" d="M846.339 533.32C846.91 532.449 847.474 531.57 848.031 530.684C893.961 457.536 871.897 361.004 798.749 315.074C725.601 269.143 629.068 291.207 583.138 364.355C549.683 417.635 552.302 483.322 584.46 532.823L595.633 515.03C571.74 472.493 571.266 418.554 599.035 374.329C639.454 309.958 724.403 290.542 788.773 330.961C853.143 371.379 872.56 456.328 832.141 520.698C831.583 521.587 831.017 522.466 830.442 523.338L846.339 533.32Z"/>
</mask>
<path d="M846.339 533.32L845.808 534.167L846.638 534.688L847.176 533.868L846.339 533.32ZM584.46 532.823L583.622 533.368L584.475 534.681L585.307 533.355L584.46 532.823ZM595.633 515.03L596.48 515.562L596.796 515.059L596.505 514.54L595.633 515.03ZM830.442 523.338L829.607 522.787L829.044 523.641L829.91 524.185L830.442 523.338ZM847.176 533.868C847.75 532.992 848.318 532.108 848.877 531.216L847.184 530.153C846.631 531.033 846.071 531.906 845.503 532.772L847.176 533.868ZM848.877 531.216C895.102 457.6 872.896 360.451 799.281 314.227L798.217 315.921C870.897 361.557 892.82 457.472 847.184 530.153L848.877 531.216ZM799.281 314.227C725.665 268.003 628.515 290.208 582.291 363.824L583.985 364.887C629.622 292.207 725.537 270.284 798.217 315.921L799.281 314.227ZM582.291 363.824C548.621 417.446 551.259 483.552 583.622 533.368L585.299 532.278C553.345 483.091 550.745 417.825 583.985 364.887L582.291 363.824ZM585.307 533.355L596.48 515.562L594.786 514.498L583.614 532.291L585.307 533.355ZM598.188 373.797C570.216 418.345 570.696 472.676 594.761 515.52L596.505 514.54C572.784 472.31 572.315 418.763 599.882 374.86L598.188 373.797ZM789.305 330.114C724.467 289.401 638.901 308.959 598.188 373.797L599.882 374.86C640.007 310.958 724.339 291.682 788.241 331.808L789.305 330.114ZM832.988 521.23C873.7 456.392 854.143 370.826 789.305 330.114L788.241 331.808C852.144 371.933 871.419 456.264 831.294 520.166L832.988 521.23ZM831.277 523.888C831.855 523.011 832.426 522.125 832.988 521.23L831.294 520.166C830.74 521.048 830.178 521.922 829.607 522.787L831.277 523.888ZM829.91 524.185L845.808 534.167L846.871 532.473L830.974 522.491L829.91 524.185Z" fill="#C4C4D4" mask="url(#path-5-outside-3_1_1220)"/>
</g>
<circle cx="720" cy="314" r="512" fill="url(#paint0_radial_1_1220)" fill-opacity="0.4"/>
</g>
<defs>
<radialGradient id="paint0_radial_1_1220" cx="0" cy="0" r="1" gradientUnits="userSpaceOnUse" gradientTransform="translate(720 314) rotate(90) scale(512)">
<stop stop-color="#FF6A00" stop-opacity="0.45"/>
<stop offset="1" stop-color="#444B52" stop-opacity="0"/>
</radialGradient>
<clipPath id="clip0_1_1220">
<rect width="1440" height="1024" fill="white"/>
</clipPath>
</defs>
</svg>
