<svg width="32" height="32" viewBox="0 0 32 32" fill="none" xmlns="http://www.w3.org/2000/svg">
<g clip-path="url(#clip0_1217_5382)">
<path d="M1.73964 31.8715L31.3355 17.075C32.2215 16.6321 32.2215 15.3678 31.3355 14.9249L1.73964 0.128451C0.940356 -0.271153 0 0.309996 0 1.20346V30.7965C0 31.69 0.940356 32.2711 1.73964 31.8715Z" fill="#F6B94C"/>
<path d="M0.401426 0.306885C0.15897 0.522172 0 0.836311 0 1.20344V30.7965C0 31.1636 0.15897 31.4777 0.401426 31.693L16.0945 16L0.401426 0.306885Z" fill="#52C1FF"/>
<path d="M21.8912 10.2033L1.73959 0.128497C1.26869 -0.106908 0.74909 -0.00172035 0.401367 0.306953L16.0944 16L21.8912 10.2033Z" fill="#67C7A5"/>
<path d="M0.401367 31.6931C0.74909 32.0017 1.26869 32.1069 1.73959 31.8715L21.8912 21.7967L16.0944 16L0.401367 31.6931Z" fill="#F56C61"/>
</g>
<defs>
<clipPath id="clip0_1217_5382">
<rect width="32" height="32" fill="white"/>
</clipPath>
</defs>
</svg>
