<svg width="1440" height="409" viewBox="0 0 1440 409" fill="none" xmlns="http://www.w3.org/2000/svg">
<g clip-path="url(#clip0_1217_5231)">
<rect width="1440" height="409" fill="black"/>
<g filter="url(#filter0_d_1217_5231)">
<mask id="path-1-outside-1_1217_5231" maskUnits="userSpaceOnUse" x="99.8915" y="-37.5342" width="1236.3" height="1262.1" fill="black">
<rect fill="white" x="99.8915" y="-37.5342" width="1236.3" height="1262.1"/>
<path fill-rule="evenodd" clip-rule="evenodd" d="M856.942 1069.03C860.056 1067.97 863.165 1066.88 866.271 1065.76C1122.97 972.879 1255.77 689.492 1162.9 432.794C1070.02 176.095 786.632 43.2919 529.934 136.169C342.958 203.819 221.714 372.545 205.537 558.41L267.958 535.825C291.18 383.387 394.915 248.097 550.115 191.944C776.01 110.212 1025.39 227.079 1107.12 452.974C1188.85 678.868 1071.99 928.248 846.092 1009.98C842.985 1011.1 839.873 1012.19 836.758 1013.24L856.942 1069.03Z"/>
</mask>
<path d="M856.942 1069.03L853.181 1070.39L854.515 1074.08L858.229 1072.82L856.942 1069.03ZM205.537 558.41L201.552 558.063L201.009 564.302L206.898 562.171L205.537 558.41ZM267.958 535.825L269.319 539.587L271.554 538.778L271.912 536.428L267.958 535.825ZM836.758 1013.24L835.481 1009.45L831.605 1010.76L832.996 1014.6L836.758 1013.24ZM858.229 1072.82C861.367 1071.75 864.502 1070.65 867.632 1069.52L864.91 1061.99C861.829 1063.11 858.744 1064.19 855.655 1065.24L858.229 1072.82ZM867.632 1069.52C1126.41 975.888 1260.29 690.208 1166.66 431.433L1159.13 434.154C1251.26 688.775 1119.53 969.869 864.91 1061.99L867.632 1069.52ZM1166.66 431.433C1073.03 172.657 787.348 38.7789 528.573 132.408L531.295 139.93C785.916 47.8049 1067.01 179.534 1159.13 434.154L1166.66 431.433ZM528.573 132.408C340.078 200.608 217.859 370.704 201.552 558.063L209.522 558.757C225.569 374.386 345.837 207.031 531.295 139.93L528.573 132.408ZM206.898 562.171L269.319 539.587L266.597 532.064L204.176 554.648L206.898 562.171ZM548.754 188.183C392.122 244.854 287.437 381.394 264.003 535.223L271.912 536.428C294.922 385.38 397.708 251.341 551.476 195.705L548.754 188.183ZM1110.88 451.613C1028.4 223.641 776.726 105.699 548.754 188.183L551.476 195.705C775.293 114.725 1022.38 230.517 1103.36 454.335L1110.88 451.613ZM847.453 1013.74C1075.42 931.258 1193.37 679.585 1110.88 451.613L1103.36 454.335C1184.34 678.152 1068.55 925.239 844.731 1006.22L847.453 1013.74ZM838.034 1017.03C841.178 1015.97 844.318 1014.88 847.453 1013.74L844.731 1006.22C841.652 1007.33 838.568 1008.41 835.481 1009.45L838.034 1017.03ZM832.996 1014.6L853.181 1070.39L860.704 1067.67L840.519 1011.88L832.996 1014.6Z" fill="#F57316" fill-opacity="0.08" mask="url(#path-1-outside-1_1217_5231)"/>
<mask id="path-3-outside-2_1217_5231" maskUnits="userSpaceOnUse" x="274.601" y="139.991" width="880.996" height="898.999" fill="black">
<rect fill="white" x="274.601" y="139.991" width="880.996" height="898.999"/>
<path fill-rule="evenodd" clip-rule="evenodd" d="M813.85 926.956C816.06 926.206 818.267 925.431 820.471 924.634C1002.73 858.691 1097.02 657.487 1031.07 475.231C965.132 292.975 763.928 198.685 581.672 264.627C448.919 312.659 362.836 432.454 351.35 564.418L398.329 547.42C419.063 445.372 490.917 356.251 596.002 318.23C756.387 260.201 933.447 343.176 991.477 503.561C1049.51 663.946 966.531 841.006 806.146 899.036C805.439 899.292 804.731 899.545 804.023 899.795L813.85 926.956Z"/>
</mask>
<path d="M813.85 926.956L810.089 928.317L811.424 932.006L815.137 930.744L813.85 926.956ZM351.35 564.418L347.365 564.071L346.822 570.31L352.711 568.179L351.35 564.418ZM398.329 547.42L399.69 551.182L401.802 550.418L402.249 548.217L398.329 547.42ZM804.023 899.795L802.689 896.024L798.891 897.368L800.262 901.156L804.023 899.795ZM815.137 930.744C817.372 929.984 819.603 929.202 821.832 928.395L819.11 920.872C816.931 921.661 814.748 922.427 812.563 923.169L815.137 930.744ZM821.832 928.395C1006.17 861.701 1101.53 658.203 1034.84 473.87L1027.31 476.592C1092.5 656.77 999.289 855.681 819.11 920.872L821.832 928.395ZM1034.84 473.87C968.142 289.537 764.644 194.172 580.311 260.866L583.033 268.389C763.211 203.198 962.122 296.413 1027.31 476.592L1034.84 473.87ZM580.311 260.866C446.039 309.447 358.981 430.613 347.365 564.071L355.335 564.765C366.691 434.295 451.799 315.871 583.033 268.389L580.311 260.866ZM352.711 568.179L399.69 551.182L396.968 543.659L349.989 560.657L352.711 568.179ZM594.641 314.469C488.191 352.984 415.41 443.265 394.409 546.624L402.249 548.217C422.717 447.478 493.643 359.519 597.363 321.991L594.641 314.469ZM995.238 502.2C936.457 339.738 757.104 255.688 594.641 314.469L597.363 321.991C755.671 264.714 930.437 346.614 987.715 504.922L995.238 502.2ZM807.507 902.797C969.969 844.016 1054.02 664.663 995.238 502.2L987.715 504.922C1044.99 663.23 963.093 837.997 804.785 895.274L807.507 902.797ZM805.357 903.566C806.074 903.313 806.79 903.056 807.507 902.797L804.785 895.274C804.087 895.527 803.388 895.777 802.689 896.024L805.357 903.566ZM800.262 901.156L810.089 928.317L817.612 925.595L807.785 898.434L800.262 901.156Z" fill="#F57316" fill-opacity="0.08" mask="url(#path-3-outside-2_1217_5231)"/>
<mask id="path-5-outside-3_1217_5231" maskUnits="userSpaceOnUse" x="416.64" y="288.193" width="599.709" height="611.712" fill="black">
<rect fill="white" x="416.64" y="288.193" width="599.709" height="611.712"/>
<path fill-rule="evenodd" clip-rule="evenodd" d="M783.642 822.271C785.139 821.763 786.633 821.239 788.126 820.699C911.341 776.118 975.087 640.092 930.506 516.877C885.925 393.662 749.899 329.916 626.684 374.497C536.936 406.969 478.739 487.957 470.974 577.171L500.945 566.327C512.092 493.157 561.885 428.218 636.381 401.265C744.81 362.034 864.513 418.13 903.744 526.559C942.975 634.988 886.879 754.691 778.45 793.922C776.953 794.464 775.454 794.987 773.954 795.492L783.642 822.271Z"/>
</mask>
<path d="M783.642 822.271L779.881 823.632L781.216 827.32L784.929 826.059L783.642 822.271ZM470.974 577.171L466.989 576.824L466.446 583.063L472.335 580.933L470.974 577.171ZM500.945 566.327L502.306 570.088L504.541 569.28L504.899 566.93L500.945 566.327ZM773.954 795.492L772.677 791.701L768.8 793.007L770.192 796.853L773.954 795.492ZM784.929 826.059C786.45 825.542 787.969 825.009 789.487 824.46L786.765 816.937C785.297 817.468 783.827 817.984 782.356 818.484L784.929 826.059ZM789.487 824.46C914.779 779.127 979.6 640.808 934.267 515.516L926.744 518.238C970.574 639.376 907.903 773.108 786.765 816.937L789.487 824.46ZM934.267 515.516C888.934 390.223 750.615 325.403 625.323 370.736L628.045 378.258C749.183 334.429 882.915 397.1 926.744 518.238L934.267 515.516ZM625.323 370.736C534.056 403.757 474.884 486.116 466.989 576.824L474.959 577.518C482.594 489.798 539.816 410.181 628.045 378.258L625.323 370.736ZM472.335 580.933L502.306 570.088L499.584 562.566L469.613 573.41L472.335 580.933ZM635.02 397.503C559.092 424.975 508.349 491.164 496.991 565.725L504.899 566.93C515.834 495.15 564.678 431.462 637.742 405.026L635.02 397.503ZM907.505 525.198C867.522 414.691 745.526 357.521 635.02 397.503L637.742 405.026C744.094 366.547 861.503 421.568 899.982 527.92L907.505 525.198ZM779.81 797.684C890.317 757.701 947.488 635.705 907.505 525.198L899.982 527.92C938.462 634.272 883.441 751.681 777.089 790.161L779.81 797.684ZM775.23 799.283C776.759 798.768 778.286 798.235 779.81 797.684L777.089 790.161C775.62 790.692 774.149 791.206 772.677 791.701L775.23 799.283ZM770.192 796.853L779.881 823.632L787.404 820.91L777.715 794.131L770.192 796.853Z" fill="#F57316" fill-opacity="0.08" mask="url(#path-5-outside-3_1217_5231)"/>
</g>
</g>
<defs>
<filter id="filter0_d_1217_5231" x="197.01" y="102.546" width="1003.51" height="979.531" filterUnits="userSpaceOnUse" color-interpolation-filters="sRGB">
<feFlood flood-opacity="0" result="BackgroundImageFix"/>
<feColorMatrix in="SourceAlpha" type="matrix" values="0 0 0 0 0 0 0 0 0 0 0 0 0 0 0 0 0 0 127 0" result="hardAlpha"/>
<feOffset dy="4"/>
<feGaussianBlur stdDeviation="2"/>
<feComposite in2="hardAlpha" operator="out"/>
<feColorMatrix type="matrix" values="0 0 0 0 0 0 0 0 0 0 0 0 0 0 0 0 0 0 0.25 0"/>
<feBlend mode="normal" in2="BackgroundImageFix" result="effect1_dropShadow_1217_5231"/>
<feBlend mode="normal" in="SourceGraphic" in2="effect1_dropShadow_1217_5231" result="shape"/>
</filter>
<clipPath id="clip0_1217_5231">
<rect width="1440" height="409" fill="white"/>
</clipPath>
</defs>
</svg>
