<svg width="30" height="29" viewBox="0 0 30 29" fill="none" xmlns="http://www.w3.org/2000/svg">
<path d="M28.0939 7.24431C27.1642 7.66688 26.1621 7.94457 25.1238 8.07738C26.1862 7.43748 27.0072 6.4233 27.3936 5.20387C26.3915 5.80755 25.2807 6.23013 24.1096 6.4716C23.1558 5.43327 21.8156 4.82959 20.2943 4.82959C17.457 4.82959 15.1389 7.14772 15.1389 10.0092C15.1389 10.4197 15.1872 10.8181 15.2717 11.1924C10.9735 10.975 7.1462 8.91046 4.59868 5.7834C4.15196 6.54404 3.89841 7.43748 3.89841 8.37922C3.89841 10.1782 4.80393 11.7719 6.20447 12.6774C5.34724 12.6774 4.55039 12.4359 3.85012 12.0737V12.11C3.85012 14.6213 5.63701 16.7221 8.00343 17.1929C7.24367 17.4009 6.44605 17.4298 5.67323 17.2775C6.00115 18.3067 6.64339 19.2073 7.50964 19.8527C8.37589 20.498 9.42261 20.8557 10.5027 20.8754C8.67186 22.3247 6.40247 23.1082 4.06744 23.0969C3.65694 23.0969 3.24644 23.0728 2.83594 23.0245C5.12992 24.4974 7.85855 25.3547 10.7804 25.3547C20.2943 25.3547 25.5222 17.4586 25.5222 10.6128C25.5222 10.3834 25.5222 10.1661 25.5101 9.93671C26.5243 9.2123 27.3936 8.29471 28.0939 7.24431Z" fill="#FAFAFA"/>
</svg>
