<svg width="1440" height="1811" viewBox="0 0 1440 1811" fill="none" xmlns="http://www.w3.org/2000/svg">
<g clip-path="url(#clip0_1201_5102)">
<rect width="1440" height="1810" transform="translate(0 0.200195)" fill="white"/>
<mask id="path-1-outside-1_1201_5102" maskUnits="userSpaceOnUse" x="-781.108" y="66.6657" width="1236.3" height="1262.1" fill="black">
<rect fill="white" x="-781.108" y="66.6657" width="1236.3" height="1262.1"/>
<path fill-rule="evenodd" clip-rule="evenodd" d="M-24.0577 1173.23C-20.9444 1172.17 -17.8347 1171.08 -14.7289 1169.96C241.969 1077.08 374.773 793.692 281.896 536.994C189.019 280.295 -94.368 147.492 -351.066 240.369C-538.042 308.019 -659.286 476.745 -675.463 662.61L-613.042 640.025C-589.82 487.587 -486.085 352.297 -330.885 296.144C-104.99 214.412 144.39 331.279 226.122 557.174C307.854 783.068 190.987 1032.45 -34.9078 1114.18C-38.0151 1115.3 -41.1267 1116.39 -44.2424 1117.44L-24.0577 1173.23Z"/>
</mask>
<path d="M-24.0577 1173.23L-27.8191 1174.59L-26.4846 1178.28L-22.7708 1177.02L-24.0577 1173.23ZM-675.463 662.61L-679.448 662.263L-679.991 668.502L-674.102 666.371L-675.463 662.61ZM-613.042 640.025L-611.681 643.787L-609.446 642.978L-609.088 640.628L-613.042 640.025ZM-44.2424 1117.44L-45.5191 1113.65L-49.3953 1114.96L-48.0037 1118.8L-44.2424 1117.44ZM-22.7708 1177.02C-19.6328 1175.95 -16.4984 1174.85 -13.368 1173.72L-16.0898 1166.19C-19.171 1167.31 -22.2561 1168.39 -25.3446 1169.44L-22.7708 1177.02ZM-13.368 1173.72C245.408 1080.09 379.286 794.408 285.657 535.633L278.134 538.354C370.26 792.975 238.531 1074.07 -16.0898 1166.19L-13.368 1173.72ZM285.657 535.633C192.028 276.857 -93.6516 142.979 -352.427 236.608L-349.705 244.13C-95.0844 152.005 186.009 283.734 278.134 538.354L285.657 535.633ZM-352.427 236.608C-540.922 304.808 -663.141 474.904 -679.448 662.263L-671.478 662.957C-655.431 478.586 -535.163 311.231 -349.705 244.13L-352.427 236.608ZM-674.102 666.371L-611.681 643.787L-614.403 636.264L-676.824 658.848L-674.102 666.371ZM-332.246 292.383C-488.878 349.054 -593.563 485.594 -616.997 639.423L-609.088 640.628C-586.078 489.579 -483.292 355.541 -329.524 299.905L-332.246 292.383ZM229.883 555.813C147.4 327.841 -104.274 209.899 -332.246 292.383L-329.524 299.905C-105.707 218.925 141.38 334.717 222.36 558.535L229.883 555.813ZM-33.5469 1117.94C194.425 1035.46 312.367 783.784 229.883 555.813L222.36 558.535C303.341 782.352 187.548 1029.44 -36.2688 1110.42L-33.5469 1117.94ZM-42.9657 1121.23C-39.8219 1120.17 -36.6821 1119.08 -33.5469 1117.94L-36.2688 1110.42C-39.348 1111.53 -42.4316 1112.61 -45.5191 1113.65L-42.9657 1121.23ZM-48.0037 1118.8L-27.8191 1174.59L-20.2963 1171.87L-40.481 1116.08L-48.0037 1118.8Z" fill="#FFF1E8" mask="url(#path-1-outside-1_1201_5102)"/>
<mask id="path-3-outside-2_1201_5102" maskUnits="userSpaceOnUse" x="-606.399" y="244.191" width="880.996" height="898.999" fill="black">
<rect fill="white" x="-606.399" y="244.191" width="880.996" height="898.999"/>
<path fill-rule="evenodd" clip-rule="evenodd" d="M-67.1496 1031.16C-64.9401 1030.41 -62.733 1029.63 -60.5287 1028.83C121.727 962.891 216.018 761.687 150.075 579.431C84.1321 397.175 -117.072 302.885 -299.328 368.827C-432.081 416.859 -518.164 536.654 -529.65 668.618L-485.329 652.582C-468.84 544.352 -395.189 448.299 -284.998 408.43C-124.613 350.401 52.4473 433.376 110.477 593.761C168.506 754.146 85.5309 931.206 -74.8542 989.236C-77.0597 990.034 -79.2683 990.805 -81.4797 991.55L-67.1496 1031.16Z"/>
</mask>
<path d="M-67.1496 1031.16L-70.911 1032.52L-69.5765 1036.21L-65.8627 1034.94L-67.1496 1031.16ZM-529.65 668.618L-533.635 668.271L-534.178 674.51L-528.289 672.379L-529.65 668.618ZM-485.329 652.582L-483.968 656.344L-481.733 655.535L-481.375 653.185L-485.329 652.582ZM-81.4797 991.55L-82.7565 987.759L-86.6327 989.065L-85.2411 992.911L-81.4797 991.55ZM-65.8627 1034.94C-63.6284 1034.18 -61.3967 1033.4 -59.1678 1032.6L-61.8896 1025.07C-64.0693 1025.86 -66.2517 1026.63 -68.4365 1027.37L-65.8627 1034.94ZM-59.1678 1032.6C125.165 965.901 220.53 762.403 153.836 578.07L146.313 580.792C211.505 760.97 118.289 959.881 -61.8896 1025.07L-59.1678 1032.6ZM153.836 578.07C87.1419 393.737 -116.356 298.372 -300.689 365.066L-297.967 372.589C-117.789 307.398 81.1224 400.613 146.313 580.792L153.836 578.07ZM-300.689 365.066C-434.961 413.647 -522.019 534.813 -533.635 668.271L-525.665 668.965C-514.309 538.495 -429.201 420.071 -297.967 372.589L-300.689 365.066ZM-528.289 672.379L-483.968 656.344L-486.69 648.821L-531.011 664.857L-528.289 672.379ZM-286.359 404.669C-397.982 445.056 -472.583 542.36 -489.284 651.98L-481.375 653.185C-465.098 546.345 -392.395 451.542 -283.637 412.192L-286.359 404.669ZM114.238 592.4C55.457 429.938 -123.896 345.888 -286.359 404.669L-283.637 412.192C-125.329 354.914 49.4375 436.814 106.715 595.122L114.238 592.4ZM-73.4933 992.997C88.9691 934.216 173.019 754.863 114.238 592.4L106.715 595.122C163.993 753.43 82.0926 928.197 -76.2151 985.475L-73.4933 992.997ZM-80.203 995.341C-77.9634 994.586 -75.7267 993.805 -73.4933 992.997L-76.2151 985.475C-78.3927 986.262 -80.5732 987.024 -82.7565 987.759L-80.203 995.341ZM-85.2411 992.911L-70.911 1032.52L-63.3882 1029.8L-77.7184 990.189L-85.2411 992.911Z" fill="#FFF1E8" mask="url(#path-3-outside-2_1201_5102)"/>
<mask id="path-5-outside-3_1201_5102" maskUnits="userSpaceOnUse" x="-464.36" y="392.392" width="599.709" height="611.712" fill="black">
<rect fill="white" x="-464.36" y="392.392" width="599.709" height="611.712"/>
<path fill-rule="evenodd" clip-rule="evenodd" d="M-97.3575 926.471C-95.8613 925.963 -94.3668 925.439 -92.8742 924.898C30.3409 880.317 94.0866 744.292 49.5056 621.077C4.92464 497.862 -131.101 434.116 -254.316 478.697C-344.064 511.169 -402.261 592.156 -410.026 681.371L-380.055 670.527C-368.908 597.357 -319.115 532.418 -244.619 505.465C-136.19 466.233 -16.4875 522.33 22.7438 630.759C61.975 739.188 5.87885 858.891 -102.55 898.122C-104.047 898.664 -105.546 899.187 -107.046 899.692L-97.3575 926.471Z"/>
</mask>
<path d="M-97.3575 926.471L-101.119 927.832L-99.7845 931.52L-96.0707 930.258L-97.3575 926.471ZM-410.026 681.371L-414.011 681.024L-414.554 687.263L-408.665 685.132L-410.026 681.371ZM-380.055 670.527L-378.694 674.288L-376.459 673.48L-376.101 671.129L-380.055 670.527ZM-107.046 899.692L-108.323 895.901L-112.2 897.207L-110.808 901.053L-107.046 899.692ZM-96.0707 930.258C-94.5498 929.742 -93.0305 929.209 -91.5133 928.66L-94.2351 921.137C-95.7031 921.668 -97.1729 922.184 -98.6443 922.684L-96.0707 930.258ZM-91.5133 928.66C33.7792 883.327 98.5995 745.008 53.267 619.716L45.7442 622.438C89.5736 743.575 26.9027 877.308 -94.2351 921.137L-91.5133 928.66ZM53.267 619.716C7.93439 494.423 -130.385 429.603 -255.677 474.936L-252.955 482.458C-131.817 438.629 1.91488 501.3 45.7442 622.438L53.267 619.716ZM-255.677 474.936C-346.944 507.957 -406.116 590.315 -414.011 681.024L-406.041 681.718C-398.406 593.997 -341.184 514.381 -252.955 482.458L-255.677 474.936ZM-408.665 685.132L-378.694 674.288L-381.416 666.766L-411.387 677.61L-408.665 685.132ZM-245.98 501.703C-321.908 529.175 -372.651 595.364 -384.009 669.925L-376.101 671.129C-365.166 599.35 -316.322 535.661 -243.258 509.226L-245.98 501.703ZM26.5051 629.398C-13.4777 518.891 -135.474 461.72 -245.98 501.703L-243.258 509.226C-136.906 470.746 -19.4973 525.768 18.9824 632.12L26.5051 629.398ZM-101.19 901.883C9.31711 861.901 66.488 739.905 26.5051 629.398L18.9824 632.12C57.462 738.472 2.44059 855.881 -103.911 894.361L-101.19 901.883ZM-105.77 903.483C-104.241 902.968 -102.714 902.435 -101.19 901.883L-103.911 894.361C-105.38 894.892 -106.851 895.406 -108.323 895.901L-105.77 903.483ZM-110.808 901.053L-101.119 927.832L-93.5962 925.11L-103.285 898.331L-110.808 901.053Z" fill="#FFF1E8" mask="url(#path-5-outside-3_1201_5102)"/>
<mask id="path-7-outside-4_1201_5102" maskUnits="userSpaceOnUse" x="913.326" y="571.463" width="887.826" height="877.622" fill="black">
<rect fill="white" x="913.326" y="571.463" width="887.826" height="877.622"/>
<path fill-rule="evenodd" clip-rule="evenodd" d="M1064.97 1155.97C1066.02 1157.87 1067.09 1159.76 1068.18 1161.64C1158.33 1317.37 1357.66 1370.54 1513.39 1280.39C1669.12 1190.23 1722.29 990.908 1632.14 835.176C1566.47 721.743 1442.88 662.727 1320.41 673.875L1342.33 711.743C1443.94 709.059 1543.79 760.609 1598.3 854.765C1677.63 991.808 1630.85 1167.22 1493.8 1246.55C1356.76 1325.88 1181.35 1279.1 1102.02 1142.05C1100.93 1140.17 1099.86 1138.28 1098.82 1136.38L1064.97 1155.97Z"/>
</mask>
<path d="M1064.97 1155.97L1062.97 1152.51L1059.57 1154.47L1061.47 1157.91L1064.97 1155.97ZM1320.41 673.875L1320.05 669.891L1313.81 670.459L1316.95 675.879L1320.41 673.875ZM1342.33 711.743L1338.87 713.747L1340.06 715.805L1342.44 715.742L1342.33 711.743ZM1098.82 1136.38L1102.32 1134.45L1100.35 1130.87L1096.81 1132.92L1098.82 1136.38ZM1061.47 1157.91C1062.53 1159.83 1063.61 1161.74 1064.72 1163.65L1071.64 1159.64C1070.56 1157.78 1069.51 1155.91 1068.47 1154.03L1061.47 1157.91ZM1064.72 1163.65C1155.98 1321.29 1357.75 1375.11 1515.39 1283.85L1511.39 1276.92C1357.57 1365.97 1160.69 1313.46 1071.64 1159.64L1064.72 1163.65ZM1515.39 1283.85C1673.04 1192.59 1726.85 990.816 1635.6 833.172L1628.67 837.18C1717.72 991 1665.21 1187.88 1511.39 1276.92L1515.39 1283.85ZM1635.6 833.172C1569.12 718.341 1444.01 658.607 1320.05 669.891L1320.77 677.859C1441.75 666.846 1563.82 725.145 1628.67 837.18L1635.6 833.172ZM1316.95 675.879L1338.87 713.747L1345.79 709.739L1323.87 671.871L1316.95 675.879ZM1601.76 852.761C1546.49 757.287 1445.24 705.023 1342.22 707.745L1342.44 715.742C1442.64 713.095 1541.09 763.931 1594.84 856.769L1601.76 852.761ZM1495.81 1250.01C1634.76 1169.57 1682.2 991.716 1601.76 852.761L1594.84 856.769C1673.06 991.901 1626.93 1164.86 1491.8 1243.09L1495.81 1250.01ZM1098.56 1144.06C1179 1283.01 1356.85 1330.45 1495.81 1250.01L1491.8 1243.09C1356.67 1321.31 1183.71 1275.18 1105.48 1140.05L1098.56 1144.06ZM1095.31 1138.3C1096.37 1140.23 1097.45 1142.15 1098.56 1144.06L1105.48 1140.05C1104.4 1138.19 1103.35 1136.32 1102.32 1134.45L1095.31 1138.3ZM1096.81 1132.92L1062.97 1152.51L1066.98 1159.43L1100.82 1139.84L1096.81 1132.92Z" fill="#FFF1E8" mask="url(#path-7-outside-4_1201_5102)"/>
<mask id="path-9-outside-5_1201_5102" maskUnits="userSpaceOnUse" x="1042.39" y="694.01" width="634.077" height="627.152" fill="black">
<rect fill="white" x="1042.39" y="694.01" width="634.077" height="627.152"/>
<path fill-rule="evenodd" clip-rule="evenodd" d="M1152.13 1111.47C1152.87 1112.81 1153.63 1114.16 1154.41 1115.49C1218.41 1226.06 1359.94 1263.81 1470.51 1199.8C1581.08 1135.79 1618.82 994.272 1554.82 883.702C1508.19 803.165 1420.45 761.263 1333.49 769.178L1349.05 796.066C1421.19 794.161 1492.09 830.762 1530.79 897.611C1587.12 994.913 1553.9 1119.45 1456.6 1175.78C1359.3 1232.1 1234.76 1198.89 1178.43 1101.59C1177.66 1100.25 1176.9 1098.91 1176.16 1097.56L1152.13 1111.47Z"/>
</mask>
<path d="M1152.13 1111.47L1150.13 1108.01L1146.73 1109.97L1148.63 1113.4L1152.13 1111.47ZM1333.49 769.178L1333.13 765.195L1326.89 765.763L1330.03 771.182L1333.49 769.178ZM1349.05 796.066L1345.59 798.07L1346.78 800.128L1349.16 800.065L1349.05 796.066ZM1176.16 1097.56L1179.66 1095.63L1177.69 1092.05L1174.15 1094.1L1176.16 1097.56ZM1148.63 1113.4C1149.39 1114.77 1150.16 1116.14 1150.95 1117.5L1157.87 1113.49C1157.11 1112.17 1156.36 1110.85 1155.63 1109.53L1148.63 1113.4ZM1150.95 1117.5C1216.06 1229.98 1360.03 1268.38 1472.51 1203.26L1468.5 1196.34C1359.84 1259.24 1220.77 1222.15 1157.87 1113.49L1150.95 1117.5ZM1472.51 1203.26C1584.99 1138.15 1623.39 994.18 1558.28 881.698L1551.35 885.706C1614.25 994.364 1577.16 1133.44 1468.5 1196.34L1472.51 1203.26ZM1558.28 881.698C1510.85 799.763 1421.58 757.144 1333.13 765.195L1333.85 773.162C1419.31 765.383 1505.54 806.566 1551.35 885.706L1558.28 881.698ZM1330.03 771.182L1345.59 798.07L1352.52 794.062L1336.95 767.174L1330.03 771.182ZM1534.25 895.607C1494.79 827.439 1422.49 790.126 1348.95 792.068L1349.16 800.065C1419.89 798.197 1489.39 834.084 1527.33 899.615L1534.25 895.607ZM1458.6 1179.24C1557.81 1121.81 1591.68 994.821 1534.25 895.607L1527.33 899.615C1582.55 995.005 1549.98 1117.1 1454.59 1172.32L1458.6 1179.24ZM1174.97 1103.59C1232.4 1202.8 1359.39 1236.67 1458.6 1179.24L1454.59 1172.32C1359.2 1227.54 1237.11 1194.97 1181.89 1099.58L1174.97 1103.59ZM1172.65 1099.48C1173.41 1100.86 1174.18 1102.23 1174.97 1103.59L1181.89 1099.58C1181.13 1098.27 1180.39 1096.95 1179.66 1095.63L1172.65 1099.48ZM1174.15 1094.1L1150.13 1108.01L1154.13 1114.93L1178.16 1101.02L1174.15 1094.1Z" fill="#FFF1E8" mask="url(#path-9-outside-5_1201_5102)"/>
<mask id="path-11-outside-6_1201_5102" maskUnits="userSpaceOnUse" x="1140.16" y="794.975" width="432.617" height="428.244" fill="black">
<rect fill="white" x="1140.16" y="794.975" width="432.617" height="428.244"/>
<path fill-rule="evenodd" clip-rule="evenodd" d="M1216.53 1079.68C1217.04 1080.59 1217.55 1081.5 1218.08 1082.4C1261.35 1157.16 1357.02 1182.67 1431.78 1139.4C1506.53 1096.13 1532.05 1000.45 1488.77 925.701C1457.25 871.253 1397.93 842.925 1339.15 848.276L1349.67 866.459C1398.44 865.171 1446.37 889.915 1472.54 935.109C1510.62 1000.89 1488.16 1085.09 1422.38 1123.17C1356.6 1161.25 1272.4 1138.79 1234.32 1073.01C1233.8 1072.1 1233.28 1071.19 1232.78 1070.27L1216.53 1079.68Z"/>
</mask>
<path d="M1216.53 1079.68L1214.53 1076.22L1211.13 1078.18L1213.03 1081.61L1216.53 1079.68ZM1339.15 848.276L1338.78 844.293L1332.55 844.86L1335.68 850.28L1339.15 848.276ZM1349.67 866.459L1346.21 868.463L1347.4 870.521L1349.78 870.458L1349.67 866.459ZM1232.78 1070.27L1236.28 1068.35L1234.32 1064.76L1230.77 1066.81L1232.78 1070.27ZM1213.03 1081.61C1213.55 1082.55 1214.08 1083.48 1214.61 1084.41L1221.54 1080.4C1221.03 1079.52 1220.52 1078.63 1220.03 1077.74L1213.03 1081.61ZM1214.61 1084.41C1258.99 1161.07 1357.12 1187.24 1433.78 1142.86L1429.77 1135.94C1356.93 1178.11 1263.7 1153.24 1221.54 1080.4L1214.61 1084.41ZM1433.78 1142.86C1510.44 1098.48 1536.61 1000.36 1492.24 923.697L1485.31 927.705C1527.48 1000.54 1502.61 1093.77 1429.77 1135.94L1433.78 1142.86ZM1492.24 923.697C1459.91 867.851 1399.06 838.806 1338.78 844.293L1339.51 852.26C1396.8 847.045 1454.6 874.655 1485.31 927.705L1492.24 923.697ZM1335.68 850.28L1346.21 868.463L1353.13 864.455L1342.61 846.272L1335.68 850.28ZM1476 933.105C1449.07 886.592 1399.74 861.135 1349.57 862.461L1349.78 870.458C1397.14 869.206 1443.67 893.237 1469.07 937.113L1476 933.105ZM1424.38 1126.63C1492.07 1087.44 1515.18 1000.8 1476 933.105L1469.07 937.113C1506.05 1000.98 1484.24 1082.73 1420.37 1119.7L1424.38 1126.63ZM1230.86 1075.01C1270.05 1142.71 1356.69 1165.81 1424.38 1126.63L1420.37 1119.7C1356.5 1156.68 1274.76 1134.87 1237.78 1071L1230.86 1075.01ZM1229.27 1072.2C1229.79 1073.14 1230.32 1074.08 1230.86 1075.01L1237.78 1071C1237.27 1070.12 1236.77 1069.24 1236.28 1068.35L1229.27 1072.2ZM1230.77 1066.81L1214.53 1076.22L1218.54 1083.14L1234.78 1073.74L1230.77 1066.81Z" fill="#FFF1E8" mask="url(#path-11-outside-6_1201_5102)"/>
<ellipse cx="1378.5" cy="336.7" rx="458.5" ry="471.5" fill="url(#paint0_radial_1201_5102)" fill-opacity="0.5"/>
</g>
<defs>
<radialGradient id="paint0_radial_1201_5102" cx="0" cy="0" r="1" gradientUnits="userSpaceOnUse" gradientTransform="translate(1378.5 336.7) rotate(90) scale(471.5 458.5)">
<stop stop-color="#FFD9BE"/>
<stop offset="1" stop-color="#FFD9BE" stop-opacity="0"/>
</radialGradient>
<clipPath id="clip0_1201_5102">
<rect width="1440" height="1810" fill="white" transform="translate(0 0.200195)"/>
</clipPath>
</defs>
</svg>
