<svg width="30" height="29" viewBox="0 0 30 29" fill="none" xmlns="http://www.w3.org/2000/svg">
<g clip-path="url(#clip0_1217_5227)">
<path fill-rule="evenodd" clip-rule="evenodd" d="M28.6279 7.3528C27.8419 5.95468 26.9889 5.69752 25.2521 5.59972C23.5172 5.482 19.1544 5.43311 15.3747 5.43311C11.5879 5.43311 7.22325 5.482 5.49009 5.59791C3.75693 5.69752 2.90212 5.95287 2.10888 7.3528C1.29935 8.74911 0.882812 11.1542 0.882812 15.3884V15.4029C0.882812 19.619 1.29935 22.0421 2.10888 23.4239C2.90212 24.8221 3.75512 25.0756 5.48828 25.1933C7.22325 25.2947 11.5879 25.3545 15.3747 25.3545C19.1544 25.3545 23.5172 25.2947 25.2539 25.1951C26.9907 25.0774 27.8437 24.8239 28.6297 23.4258C29.4465 22.0439 29.8594 19.6208 29.8594 15.4047V15.3902C29.8594 11.1542 29.4465 8.74911 28.6279 7.3528Z" fill="#FAFAFA"/>
<path fill-rule="evenodd" clip-rule="evenodd" d="M11.749 20.8269V9.96069L20.8042 15.3938L11.749 20.8269Z" fill="#151517"/>
</g>
<defs>
<clipPath id="clip0_1217_5227">
<rect width="28.9766" height="28.9766" fill="white" transform="translate(0.882812)"/>
</clipPath>
</defs>
</svg>
