<svg width="29" height="29" viewBox="0 0 29 29" fill="none" xmlns="http://www.w3.org/2000/svg">
<circle cx="14.5" cy="14.5" r="14.5" fill="#FFF1E8"/>
<path fill-rule="evenodd" clip-rule="evenodd" d="M16.7068 10.2928C16.8943 10.4803 16.9996 10.7346 16.9996 10.9998C16.9996 11.265 16.8943 11.5193 16.7068 11.7068L13.4138 14.9998L16.7068 18.2928C16.8889 18.4814 16.9897 18.734 16.9875 18.9962C16.9852 19.2584 16.88 19.5092 16.6946 19.6946C16.5092 19.88 16.2584 19.9852 15.9962 19.9875C15.734 19.9897 15.4814 19.8889 15.2928 19.7068L11.2928 15.7068C11.1053 15.5193 11 15.265 11 14.9998C11 14.7346 11.1053 14.4803 11.2928 14.2928L15.2928 10.2928C15.4803 10.1053 15.7346 10 15.9998 10C16.265 10 16.5193 10.1053 16.7068 10.2928Z" fill="#7A3300"/>
</svg>
