<svg width="29" height="29" viewBox="0 0 29 29" fill="none" xmlns="http://www.w3.org/2000/svg">
<circle cx="14.5" cy="14.5" r="14.5" fill="#FFF1E8"/>
<path fill-rule="evenodd" clip-rule="evenodd" d="M11.2928 19.7064C11.1053 19.5189 11 19.2646 11 18.9994C11 18.7343 11.1053 18.48 11.2928 18.2924L14.5858 14.9994L11.2928 11.7064C11.1106 11.5178 11.0098 11.2652 11.0121 11.003C11.0144 10.7408 11.1196 10.49 11.305 10.3046C11.4904 10.1192 11.7412 10.014 12.0034 10.0118C12.2656 10.0095 12.5182 10.1103 12.7068 10.2924L16.7068 14.2924C16.8943 14.48 16.9996 14.7343 16.9996 14.9994C16.9996 15.2646 16.8943 15.5189 16.7068 15.7064L12.7068 19.7064C12.5193 19.8939 12.265 19.9992 11.9998 19.9992C11.7346 19.9992 11.4803 19.8939 11.2928 19.7064Z" fill="#7A3300"/>
</svg>
