<svg width="1440" height="821" viewBox="0 0 1440 821" fill="none" xmlns="http://www.w3.org/2000/svg">
<g clip-path="url(#clip0_188_350)">
<rect width="1440" height="821" fill="white"/>
<g opacity="0.02">
<mask id="path-1-outside-1_188_350" maskUnits="userSpaceOnUse" x="261.396" y="61.4635" width="913.696" height="906.134" fill="black">
<rect fill="white" x="261.396" y="61.4635" width="913.696" height="906.134"/>
<path fill-rule="evenodd" clip-rule="evenodd" d="M984.527 703.379C985.715 701.566 986.889 699.738 988.046 697.894C1083.73 545.503 1037.77 344.394 885.376 248.705C732.984 153.017 531.875 198.984 436.187 351.376C366.488 462.376 371.945 599.223 438.943 702.352L462.211 665.295C412.434 576.675 411.445 464.303 469.299 372.166C553.505 238.061 730.48 197.61 864.585 281.816C998.69 366.022 1039.14 542.998 954.935 677.103C953.777 678.947 952.601 680.774 951.408 682.583L984.527 703.379Z"/>
</mask>
<path d="M984.527 703.379L979.209 711.848L987.514 717.062L992.89 708.862L984.527 703.379ZM438.943 702.352L430.557 707.799L439.086 720.928L447.412 707.669L438.943 702.352ZM462.211 665.295L470.68 670.613L473.84 665.58L470.93 660.398L462.211 665.295ZM951.408 682.583L943.06 677.078L937.431 685.614L946.091 691.052L951.408 682.583ZM992.89 708.862C994.114 706.994 995.323 705.111 996.515 703.212L979.577 692.577C978.454 694.365 977.317 696.138 976.164 697.896L992.89 708.862ZM996.515 703.212C1095.14 546.143 1047.76 338.862 890.694 240.236L880.058 257.174C1027.77 349.926 1072.33 544.862 979.577 692.577L996.515 703.212ZM890.694 240.236C733.625 141.611 526.343 188.989 427.718 346.058L444.656 356.693C537.407 208.979 732.344 164.422 880.058 257.174L890.694 240.236ZM427.718 346.058C355.872 460.478 361.517 601.527 430.557 707.799L447.329 696.904C382.374 596.92 377.104 464.274 444.656 356.693L427.718 346.058ZM447.412 707.669L470.68 670.613L453.742 659.978L430.474 697.034L447.412 707.669ZM460.83 366.848C400.951 462.21 401.994 578.507 453.492 670.193L470.93 660.398C422.875 574.844 421.939 466.395 477.768 377.484L460.83 366.848ZM869.903 273.347C731.121 186.205 547.973 228.066 460.83 366.848L477.768 377.484C559.037 248.056 729.84 209.016 859.267 290.285L869.903 273.347ZM963.404 682.42C1050.55 543.638 1008.68 360.49 869.903 273.347L859.267 290.285C988.695 371.554 1027.74 542.357 946.466 671.785L963.404 682.42ZM959.756 688.088C960.99 686.217 962.206 684.328 963.404 682.42L946.466 671.785C945.348 673.567 944.212 675.331 943.06 677.078L959.756 688.088ZM946.091 691.052L979.209 711.848L989.845 694.91L956.726 674.114L946.091 691.052Z" fill="#FFBE8F" mask="url(#path-1-outside-1_188_350)"/>
<mask id="path-3-outside-2_188_350" maskUnits="userSpaceOnUse" x="386.417" y="187.249" width="657.384" height="652.342" fill="black">
<rect fill="white" x="386.417" y="187.249" width="657.384" height="652.342"/>
<path fill-rule="evenodd" clip-rule="evenodd" d="M904.503 647.048C905.346 645.761 906.179 644.464 907 643.155C974.939 534.957 942.303 392.17 834.105 324.231C725.906 256.292 583.119 288.929 515.18 397.127C465.694 475.937 469.569 573.099 517.137 646.32L533.658 620.008C498.318 557.089 497.616 477.305 538.692 411.889C598.478 316.675 724.131 287.954 819.345 347.74C914.559 407.527 943.28 533.179 883.493 628.394C882.671 629.703 881.837 631 880.99 632.284L904.503 647.048Z"/>
</mask>
<path d="M904.503 647.048L899.185 655.517L907.49 660.731L912.866 652.531L904.503 647.048ZM517.137 646.32L508.751 651.767L517.28 664.896L525.606 651.637L517.137 646.32ZM533.658 620.008L542.127 625.326L545.287 620.293L542.377 615.111L533.658 620.008ZM880.99 632.284L872.642 626.779L867.012 635.315L875.672 640.753L880.99 632.284ZM912.866 652.531C913.745 651.189 914.613 649.837 915.469 648.473L898.532 637.838C897.745 639.091 896.947 640.333 896.14 641.565L912.866 652.531ZM915.469 648.473C986.345 535.598 952.298 386.638 839.422 315.762L828.787 332.7C932.308 397.702 963.534 534.317 898.532 637.838L915.469 648.473ZM839.422 315.762C726.547 244.886 577.587 278.934 506.711 391.809L523.649 402.445C588.651 298.924 725.266 267.698 828.787 332.7L839.422 315.762ZM506.711 391.809C455.078 474.039 459.14 575.402 508.751 651.767L525.523 640.872C479.997 570.795 476.311 477.835 523.649 402.445L506.711 391.809ZM525.606 651.637L542.127 625.326L525.189 614.691L508.668 641.002L525.606 651.637ZM530.223 406.571C487.122 475.212 487.877 558.92 524.939 624.905L542.377 615.111C508.758 555.257 508.11 479.398 547.161 417.207L530.223 406.571ZM824.663 339.272C724.771 276.549 592.946 306.68 530.223 406.571L547.161 417.207C604.01 326.669 723.49 299.36 814.027 356.209L824.663 339.272ZM891.962 633.712C954.685 533.82 924.554 401.995 824.663 339.272L814.027 356.209C904.564 413.059 931.874 532.539 875.025 623.076L891.962 633.712ZM889.338 637.789C890.226 636.443 891.101 635.084 891.962 633.712L875.025 623.076C874.242 624.322 873.448 625.557 872.642 626.779L889.338 637.789ZM875.672 640.753L899.185 655.517L909.82 638.579L886.308 623.815L875.672 640.753Z" fill="#FFBE8F" mask="url(#path-3-outside-2_188_350)"/>
<mask id="path-5-outside-3_188_350" maskUnits="userSpaceOnUse" x="490.143" y="289.6" width="454.839" height="452.318" fill="black">
<rect fill="white" x="490.143" y="289.6" width="454.839" height="452.318"/>
<path fill-rule="evenodd" clip-rule="evenodd" d="M846.34 604.913C846.911 604.042 847.474 603.164 848.031 602.278C893.961 529.13 871.897 432.597 798.749 386.667C725.601 340.736 629.069 362.801 583.138 435.949C549.683 489.229 552.302 554.915 584.461 604.416L595.633 586.623C571.741 544.086 571.266 490.147 599.036 445.922C639.454 381.551 724.403 362.135 788.773 402.554C853.143 442.973 872.56 527.921 832.141 592.291C831.583 593.18 831.017 594.06 830.442 594.931L846.34 604.913Z"/>
</mask>
<path d="M846.34 604.913L841.022 613.382L849.326 618.596L854.703 610.396L846.34 604.913ZM584.461 604.416L576.075 609.864L584.604 622.993L592.93 609.734L584.461 604.416ZM595.633 586.623L604.102 591.941L607.262 586.908L604.352 581.726L595.633 586.623ZM830.442 594.931L822.094 589.425L816.464 597.962L825.125 603.4L830.442 594.931ZM854.703 610.396C855.309 609.47 855.909 608.537 856.5 607.595L839.562 596.96C839.04 597.79 838.512 598.614 837.977 599.43L854.703 610.396ZM856.5 607.595C905.367 529.77 881.892 427.065 804.067 378.198L793.431 395.136C861.902 438.129 882.556 528.489 839.562 596.96L856.5 607.595ZM804.067 378.198C726.241 329.331 623.537 352.806 574.669 430.631L591.607 441.266C634.601 372.795 724.961 352.142 793.431 395.136L804.067 378.198ZM574.669 430.631C539.067 487.331 541.874 557.218 576.075 609.864L592.847 598.969C562.731 552.611 560.299 491.127 591.607 441.266L574.669 430.631ZM592.93 609.734L604.102 591.941L587.164 581.306L575.992 599.099L592.93 609.734ZM590.567 440.604C560.772 488.054 561.3 545.918 586.914 591.521L604.352 581.726C582.181 542.254 581.76 492.24 607.504 451.239L590.567 440.604ZM794.091 394.085C725.043 350.729 633.922 371.557 590.567 440.604L607.504 451.239C644.986 391.546 723.762 373.541 783.455 411.023L794.091 394.085ZM840.61 597.609C883.966 528.561 863.138 437.441 794.091 394.085L783.455 411.023C843.148 448.505 861.154 527.281 823.672 586.974L840.61 597.609ZM838.79 600.437C839.406 599.503 840.012 598.561 840.61 597.609L823.672 586.974C823.154 587.799 822.628 588.616 822.094 589.425L838.79 600.437ZM825.125 603.4L841.022 613.382L851.657 596.444L835.76 586.462L825.125 603.4Z" fill="#FFBE8F" mask="url(#path-5-outside-3_188_350)"/>
</g>
<circle cx="680" cy="743" r="512" fill="url(#paint0_radial_188_350)" fill-opacity="0.4"/>
<circle cx="163" cy="146" r="512" fill="url(#paint1_radial_188_350)" fill-opacity="0.4"/>
<circle cx="1366" cy="146" r="512" fill="url(#paint2_radial_188_350)" fill-opacity="0.4"/>
<path fill-rule="evenodd" clip-rule="evenodd" d="M1372.15 475.881H1465.86V475.246H-13.2138V475.674L-13.4232 475.54L-64.0746 534.84L-63.539 535.181L-12.8876 475.881L-12.8876 475.881H80.8703L25.0171 542.487H-36.5354L-36.5351 543.122H24.4849L-6.03139 579.513H-36.5354L-36.5351 580.148H-6.56363L-36.7235 616.114H-63.5468V616.749H-36.629L-36.5351 616.862L-36.4406 616.749H59.6448L33.4247 654.409H-63.5468V655.044H32.9828L6.95344 692.431L-35.3092 692.592L-35.3075 693.226L6.51036 693.067L-22.7761 735.132L-35.3092 735.18L-35.3075 735.814L-23.2191 735.768L-47.3477 770.425H-63.539V771.059H-47.7896L-84.9688 824.46L-84.4052 824.753L-47.0227 771.059H23.5434L-13.6357 824.46L-13.0722 824.753L24.3103 771.059H98.1868L56.2971 832.294L56.7505 832.738L98.9441 771.059H193.03L157.427 832.487L158.01 832.738L193.758 771.059H282.979L255.065 832.392L255.597 832.738L283.668 771.059H373.713L355.241 822.578L355.855 822.741L374.385 771.059H464.592L447.714 832.506L448.305 832.738L465.247 771.059H550.372L538.524 832.57L539.136 832.738L551.016 771.059H640.817L634.877 832.738L635.506 832.825L641.454 771.059H724.717L722.618 823.891L723.252 823.927L725.352 771.059H808.861V825.237L809.495 825.266V771.059H913.983L919.643 826.864L920.271 826.773L914.621 771.059H1031.11L1047.3 832.738L1047.89 832.515L1031.76 771.059H1124.83L1145.49 832.738L1146.07 832.464L1125.49 771.059H1235.66L1265.78 832.738L1266.3 832.375L1236.35 771.059H1343.66L1379.93 832.738L1380.42 832.33L1344.38 771.059H1442.76L1487.95 832.738L1488.39 832.279L1443.54 771.059L1510.04 771.059L1526 771.059V770.425H1510.36L1481.98 730.038L1507.59 729.94L1507.59 729.305L1481.53 729.404L1452.13 687.563L1507.59 687.352L1507.59 686.717L1451.69 686.93L1429.28 655.044H1511.28V654.409H1428.83L1402.36 616.749H1483.51L1510.04 650.08L1510.59 649.756L1484.31 616.749H1511.28V616.114H1483.8L1455.17 580.148H1511.27L1511.27 579.513H1454.66L1425.69 543.122H1511.27L1511.27 542.487H1425.18L1372.15 475.881ZM1371.34 475.881H1303.37L1350.18 542.487H1424.38L1371.34 475.881L1371.34 475.881ZM1302.61 475.881H1227.28L1276.08 542.487H1349.41L1302.61 475.881L1302.61 475.881ZM1226.5 475.881H1170.77L1209.94 542.487H1275.3L1226.5 475.881L1226.5 475.881ZM1170.04 475.881H1092.18L1124.72 542.487H1209.22L1170.04 475.881L1170.04 475.881ZM1091.49 475.881H884.684L891.439 542.487H971.11L954.012 477.349L954.606 477.126L971.763 542.487H1048.25L1026.43 477.349L1027 477.075L1048.92 542.487H1124.02L1091.49 475.881L1091.49 475.881ZM884.047 475.881H809.495V542.487H890.802L884.047 475.881ZM808.861 475.881H737.076L734.431 542.487H808.861V475.881ZM736.441 475.881H669.245H607.872L607.873 475.881L595.043 542.487H662.83L669.245 475.881L669.874 475.968L663.468 542.487H733.796L736.441 475.881ZM607.228 475.881H546.326L546.326 475.881L528.031 542.487H594.399L607.228 475.881ZM545.672 475.881H480.218L480.219 475.881L456.338 542.487H527.376L545.672 475.881ZM479.547 475.881H418.011L418.012 475.881L387.698 542.487H455.666L479.547 475.881ZM417.322 475.881H364.838L364.839 475.881L326.235 542.487H387.008L417.322 475.881ZM364.111 475.881H300.87L255.306 542.487H325.507L364.111 475.881ZM300.113 475.881H229.82L229.82 475.881L183.447 542.487H254.549L300.113 475.881ZM229.053 475.881H158.487L158.487 475.881L112.114 542.487H182.681L229.053 475.881ZM157.72 475.881H81.5663L81.6257 475.952L25.8323 542.487H111.348L157.72 475.881ZM1424.88 543.122L1453.86 579.513H1376.2L1350.62 543.122H1424.88ZM1454.36 580.148H1376.64L1401.92 616.114H1483L1454.36 580.148ZM1349.86 543.122L1375.43 579.513H1303.2L1276.54 543.122H1349.86ZM1375.88 580.148H1303.67L1330.02 616.114H1401.16L1375.88 580.148ZM1275.77 543.122L1302.43 579.513H1231.72L1210.32 543.122H1275.77ZM1302.89 580.148H1232.09L1253.25 616.114H1329.24L1302.89 580.148ZM1209.59 543.122L1231 579.513H1142.8L1125.03 543.122H1209.59ZM1231.37 580.148H1143.11L1160.68 616.114H1252.52L1231.37 580.148ZM1124.33 543.122L1142.1 579.513H1061.32L1049.13 543.122H1124.33ZM1142.41 580.148H1061.53L1073.58 616.114H1159.98L1142.41 580.148ZM1048.47 543.122L1060.66 579.513H981.481L971.929 543.122H1048.47ZM1060.87 580.148H981.648L991.089 616.114H1072.92L1060.87 580.148ZM971.276 543.122L980.829 579.513H895.194L891.504 543.122H971.276ZM980.995 580.148H895.259L898.906 616.114H990.436L980.995 580.148ZM890.866 543.122L894.557 579.513H809.495V543.122H890.866ZM894.621 580.148H809.495V616.114H898.269L894.621 580.148ZM808.861 543.122V579.513H732.96L734.406 543.122H808.861ZM808.861 580.148H732.935L731.506 616.114H808.861V580.148ZM733.77 543.122L732.325 579.513H659.902L663.406 543.122H733.77ZM732.3 580.148H659.841L656.377 616.114H730.871L732.3 580.148ZM662.769 543.122L659.264 579.513H587.911L594.921 543.122H662.769ZM659.203 580.148H587.789L580.861 616.114H655.74L659.203 580.148ZM594.276 543.122L587.267 579.513H517.861L527.857 543.122H594.276ZM587.145 580.148H517.686L507.807 616.114H580.217L587.145 580.148ZM527.202 543.122L517.206 579.513H443.062L456.11 543.122H527.202ZM517.032 580.148H442.835L429.939 616.114H507.153L517.032 580.148ZM455.438 543.122L442.39 579.513H370.846L387.409 543.122H455.438ZM442.163 580.148H370.557L354.188 616.114H429.267L442.163 580.148ZM386.719 543.122L370.157 579.513H304.775L325.867 543.122H386.719ZM369.868 580.148H304.407L283.562 616.114H353.498L369.868 580.148ZM325.139 543.122L304.047 579.513H229.977L254.872 543.122H325.139ZM303.679 580.148H229.543L204.939 616.114H282.833L303.679 580.148ZM254.115 543.122L229.22 579.513H157.669L183.005 543.122H254.115ZM228.786 580.148H157.227L132.187 616.114H204.182L228.786 580.148ZM182.239 543.122L156.902 579.513H86.336L111.673 543.122H182.239ZM156.46 580.148H85.8941L60.8535 616.114H131.42L156.46 580.148ZM110.906 543.122L85.5692 579.513H-5.2162L25.3001 543.122H110.906ZM85.1273 580.148H-5.74844L-35.9083 616.114H60.0867L85.1273 580.148ZM1401.6 616.749L1428.07 654.409H1358.07L1330.48 616.749H1401.6ZM1428.51 655.044H1358.54L1382.09 687.195L1450.92 686.933L1428.51 655.044ZM1329.71 616.749L1357.3 654.409H1275.77L1253.62 616.749H1329.71ZM1357.76 655.044H1276.15L1295.25 687.526L1381.32 687.198L1357.76 655.044ZM1252.9 616.749L1275.05 654.409H1179.38L1160.99 616.749H1252.9ZM1275.42 655.044H1179.69L1195.74 687.905L1294.53 687.529L1275.42 655.044ZM1160.29 616.749L1178.68 654.409H1086.41L1073.8 616.749H1160.29ZM1178.99 655.044H1086.63L1097.76 688.278L1195.04 687.907L1178.99 655.044ZM1073.13 616.749L1085.75 654.409H1001.14L991.255 616.749H1073.13ZM1085.96 655.044H1001.31L1010.12 688.611L1097.1 688.28L1085.96 655.044ZM990.603 616.749L1000.49 654.409H902.79L898.971 616.749H990.603ZM1000.65 655.044H902.855L906.299 689.007L1009.47 688.614L1000.65 655.044ZM898.333 616.749L902.153 654.409H809.495V616.749H898.333ZM902.217 655.044H809.495V689.375L905.662 689.009L902.217 655.044ZM808.861 616.749V654.409H729.985L731.481 616.749H808.861ZM808.861 655.044H729.96L728.584 689.683L808.861 689.378V655.044ZM730.846 616.749L729.35 654.409H652.689L656.316 616.749H730.846ZM729.325 655.044H652.627L649.262 689.985L727.949 689.686L729.325 655.044ZM655.678 616.749L652.051 654.409H573.485L580.739 616.749H655.678ZM651.99 655.044H573.363L566.572 690.3L648.625 689.988L651.99 655.044ZM580.095 616.749L572.841 654.409H497.288L507.633 616.749H580.095ZM572.718 655.044H497.114L487.347 690.602L565.927 690.302L572.718 655.044ZM506.978 616.749L496.634 654.409H416.209L429.712 616.749H506.978ZM496.459 655.044H415.981L403.117 690.922L486.692 690.604L496.459 655.044ZM429.04 616.749L415.537 654.409H336.759L353.899 616.749H429.04ZM415.309 655.044H336.47L319.997 691.239L402.444 690.925L415.309 655.044ZM353.21 616.749L336.069 654.409H261.367L283.194 616.749H353.21ZM335.78 655.044H260.999L239.844 691.544L319.306 691.241L335.78 655.044ZM282.466 616.749L260.638 654.409H178.742L204.505 616.749H282.466ZM260.27 655.044H178.308L153.113 691.874L239.114 691.547L260.27 655.044ZM203.748 616.749L177.985 654.409H105.525L131.745 616.749H203.748ZM177.551 655.044H105.083L79.2449 692.155L152.354 691.877L177.551 655.044ZM130.978 616.749L104.758 654.409H34.1916L60.4116 616.749H130.978ZM104.316 655.044H33.7497L7.72233 692.428L78.476 692.158L104.316 655.044ZM1451.37 687.566L1480.77 729.407L1413.21 729.665L1382.56 687.828L1451.37 687.566ZM1481.22 730.04L1413.67 730.298L1443.07 770.425H1509.6L1481.22 730.04ZM1381.79 687.831L1412.44 729.668L1320.24 730.019L1295.62 688.159L1381.79 687.831ZM1412.9 730.301L1320.62 730.652L1344.01 770.425H1442.3L1412.9 730.301ZM1294.9 688.162L1319.52 730.021L1216.5 730.414L1196.05 688.538L1294.9 688.162ZM1319.89 730.655L1216.81 731.047L1236.04 770.425H1343.28L1319.89 730.655ZM1195.35 688.541L1215.81 730.416L1112.01 730.811L1097.97 688.912L1195.35 688.541ZM1216.12 731.05L1112.22 731.445L1125.28 770.425H1235.35L1216.12 731.05ZM1097.31 688.914L1111.35 730.814L1021.29 731.157L1010.29 689.245L1097.31 688.914ZM1111.56 731.448L1021.45 731.791L1031.59 770.425H1124.62L1111.56 731.448ZM1009.63 689.248L1020.63 731.159L910.617 731.578L906.363 689.641L1009.63 689.248ZM1020.8 731.793L910.681 732.213L914.556 770.425H1030.94L1020.8 731.793ZM905.726 689.644L909.979 731.581L809.495 731.963V690.01L905.726 689.644ZM910.044 732.215L809.495 732.598V770.425H913.919L910.044 732.215ZM808.861 690.012V731.966L726.892 732.278L728.559 690.318L808.861 690.012ZM808.861 732.6L726.867 732.912L725.377 770.425H808.861V732.6ZM727.924 690.32L726.257 732.28L645.159 732.589L649.201 690.62L727.924 690.32ZM726.232 732.915L645.098 733.224L641.515 770.425H724.742L726.232 732.915ZM648.564 690.623L644.522 732.591L558.363 732.919L566.45 690.935L648.564 690.623ZM644.461 733.226L558.24 733.554L551.138 770.425H640.878L644.461 733.226ZM565.805 690.938L557.718 732.922L475.637 733.234L487.172 691.237L565.805 690.938ZM557.596 733.557L475.462 733.87L465.421 770.425H550.494L557.596 733.557ZM486.517 691.24L474.981 733.237L387.827 733.569L402.889 691.558L486.517 691.24ZM474.807 733.872L387.599 734.204L374.612 770.425H464.767L474.807 733.872ZM402.217 691.56L387.154 733.571L300.58 733.901L319.707 691.875L402.217 691.56ZM386.926 734.207L300.291 734.536L283.957 770.425H373.94L386.926 734.207ZM319.017 691.877L299.89 733.903L215.106 734.226L239.475 692.18L319.017 691.877ZM299.6 734.539L214.737 734.862L194.126 770.425H283.268L299.6 734.539ZM238.745 692.183L214.376 734.229L123.903 734.573L152.678 692.511L238.745 692.183ZM214.007 734.865L123.468 735.21L99.3783 770.425H193.397L214.007 734.865ZM151.919 692.513L123.144 734.576L49.5154 734.857L78.8018 692.792L151.919 692.513ZM122.709 735.213L49.0723 735.493L24.7522 770.425H98.621L122.709 735.213ZM78.033 692.795L48.7465 734.859L-22.0072 735.129L7.27925 693.064L78.033 692.795ZM48.3035 735.496L-22.4503 735.765L-46.5809 770.425H23.9853L48.3035 735.496ZM1465.86 475.881L1510.04 541.534L1510.61 541.25L1466.42 475.597L1465.86 475.881Z" fill="#F57316" fill-opacity="0.1"/>
</g>
<defs>
<radialGradient id="paint0_radial_188_350" cx="0" cy="0" r="1" gradientUnits="userSpaceOnUse" gradientTransform="translate(680 743) rotate(90) scale(512)">
<stop stop-color="#FF6A00" stop-opacity="0.45"/>
<stop offset="1" stop-color="#FFD9BE" stop-opacity="0.09"/>
</radialGradient>
<radialGradient id="paint1_radial_188_350" cx="0" cy="0" r="1" gradientUnits="userSpaceOnUse" gradientTransform="translate(163 146) rotate(90) scale(512)">
<stop stop-color="#FF6A00" stop-opacity="0.45"/>
<stop offset="1" stop-color="#FFD9BE" stop-opacity="0.09"/>
</radialGradient>
<radialGradient id="paint2_radial_188_350" cx="0" cy="0" r="1" gradientUnits="userSpaceOnUse" gradientTransform="translate(1366 146) rotate(90) scale(512)">
<stop stop-color="#FF6A00" stop-opacity="0.45"/>
<stop offset="1" stop-color="#FFD9BE" stop-opacity="0.09"/>
</radialGradient>
<clipPath id="clip0_188_350">
<rect width="1440" height="821" fill="white"/>
</clipPath>
</defs>
</svg>
