<svg width="50" height="50" viewBox="0 0 50 50" fill="none" xmlns="http://www.w3.org/2000/svg">
<rect width="50" height="50" rx="25" fill="#FAFAFA"/>
<path fill-rule="evenodd" clip-rule="evenodd" d="M25.496 17.1322C25.3449 17.0459 25.174 17.0005 25 17.0005C24.826 17.0005 24.6551 17.0459 24.504 17.1322L17.504 21.1322C17.3127 21.2416 17.1629 21.4112 17.0779 21.6146C16.9929 21.818 16.9775 22.0438 17.0341 22.2568C17.0906 22.4698 17.216 22.6582 17.3907 22.7927C17.5654 22.9271 17.7796 23 18 23.0002V30.0002C17.7348 30.0002 17.4804 30.1055 17.2929 30.2931C17.1054 30.4806 17 30.7349 17 31.0002C17 31.2654 17.1054 31.5197 17.2929 31.7073C17.4804 31.8948 17.7348 32.0002 18 32.0002H32C32.2652 32.0002 32.5196 31.8948 32.7071 31.7073C32.8946 31.5197 33 31.2654 33 31.0002C33 30.7349 32.8946 30.4806 32.7071 30.2931C32.5196 30.1055 32.2652 30.0002 32 30.0002V23.0002C32.2204 23 32.4346 22.9271 32.6093 22.7927C32.784 22.6582 32.9094 22.4698 32.9659 22.2568C33.0225 22.0438 33.0071 21.818 32.9221 21.6146C32.8371 21.4112 32.6873 21.2416 32.496 21.1322L25.496 17.1322ZM21 24.0002C20.7348 24.0002 20.4804 24.1055 20.2929 24.2931C20.1054 24.4806 20 24.7349 20 25.0002V28.0002C20 28.2654 20.1054 28.5197 20.2929 28.7073C20.4804 28.8948 20.7348 29.0002 21 29.0002C21.2652 29.0002 21.5196 28.8948 21.7071 28.7073C21.8946 28.5197 22 28.2654 22 28.0002V25.0002C22 24.7349 21.8946 24.4806 21.7071 24.2931C21.5196 24.1055 21.2652 24.0002 21 24.0002ZM24 25.0002C24 24.7349 24.1054 24.4806 24.2929 24.2931C24.4804 24.1055 24.7348 24.0002 25 24.0002C25.2652 24.0002 25.5196 24.1055 25.7071 24.2931C25.8946 24.4806 26 24.7349 26 25.0002V28.0002C26 28.2654 25.8946 28.5197 25.7071 28.7073C25.5196 28.8948 25.2652 29.0002 25 29.0002C24.7348 29.0002 24.4804 28.8948 24.2929 28.7073C24.1054 28.5197 24 28.2654 24 28.0002V25.0002ZM29 24.0002C28.7348 24.0002 28.4804 24.1055 28.2929 24.2931C28.1054 24.4806 28 24.7349 28 25.0002V28.0002C28 28.2654 28.1054 28.5197 28.2929 28.7073C28.4804 28.8948 28.7348 29.0002 29 29.0002C29.2652 29.0002 29.5196 28.8948 29.7071 28.7073C29.8946 28.5197 30 28.2654 30 28.0002V25.0002C30 24.7349 29.8946 24.4806 29.7071 24.2931C29.5196 24.1055 29.2652 24.0002 29 24.0002Z" fill="#717172"/>
</svg>
